<?xml version="1.0" encoding="UTF-8"?>
<svg id="Calque_1" data-name="Calque 1" xmlns="http://www.w3.org/2000/svg" viewBox="0 0 191 187">
  <defs>
    <style>
      .cls-1 {
        fill: #fff;
        stroke-width: 0px;
      }
    </style>
  </defs>
  <path class="cls-1" d="m37.38,162.89v-61.21c0-1.63.67-3.2,1.84-4.33l51.93-49.97c2.34-2.25,6.03-2.24,8.36.02l51.46,50.01c1.13,1.1,2.52,2.52,2.55,4.1l.5,61.26c.07,3.37-2.64,6.13-6.01,6.13h-26.96c-3.32,0-6.01-2.69-6.01-6.01v-42.88c0-3.3-2.66-5.99-5.97-6.01l-26.84-.19c-3.32-.02-6.04,2.66-6.05,5.98l-.22,43.14c-.02,3.31-2.7,5.98-6.01,5.98h-26.55c-3.33-.01-6.02-2.7-6.02-6.02Z"/>
  <path class="cls-1" d="m100.7,39.79l61.6,60.04c1.39,1.35,4.04,2.61,5.96,2.4,5.45-.6,7.17-4.58,7.43-7.09.17-1.61-1.01-4.17-2.16-5.31L104.72,21.51c-.71-.7-1.63-1.23-2.48-1.61-4.29-1.92-7.47-1.57-10.28-.85-1.22.31-4.6,1.89-5.5,2.78L18.25,89.01c-1.66,1.63-3.13,4.14-2.73,6.44.65,3.79,3.24,5.27,5.19,5.92,2.41.8,5.07.06,6.92-1.69l63.13-59.96c2.79-2.64,7.18-2.61,9.94.07Z"/>
  <path class="cls-1" d="m131.56,48.33v-5.56c0-1.36.92-2.47,2.05-2.47h18.37c1.13,0,2.05,1.11,2.05,2.47v27.53c0,2.2-2.2,3.3-3.49,1.75l-18.37-21.97c-.4-.46-.61-1.09-.61-1.75Z"/>
</svg>