<?xml-stylesheet type="text/css" href="http://www.cuej.info/mini-sites/sauvage/dist/main.css"></script>"?>
<svg width="101" height="101" xmlns="http://www.w3.org/2000/svg">
<path class="test" d="M66.54 29.63s-.01.04-.04.11c-.18.43-1.14 1.92-5.41-.03-.06-.02-.12-.05-.18-.08 0 0 1.62-1.95 5.63 0z"/><path d="M95.15 28.53c-.32-.67-.66-1.33-1.02-1.98-.19-.36-.39-.71-.59-1.06C84.91 10.49 68.72.38 50.17.38c-27.62 0-50 22.39-50 50 0 7.34 1.58 14.3 4.42 20.58.5 1.1 1.04 2.19 1.62 3.25 8.46 15.59 24.97 26.17 43.96 26.17 27.61 0 50-22.39 50-50 0-7.84-1.8-15.25-5.02-21.85zm-5.05 3.78c.41.79.52 2.24-.92 4.77 0 0-2.2 5.94-10.26 6.93 0 0-.47.19-.4.53.07.36.74.87 3.17 1.51l.09-.12v-.01l1.06-1.44.02-.02.65 1.89.05.14s.78.51 1.21 1.26c.55.97.51 2.33-2.67 3.45 0 0-16.12 3.26-16.36 5.59l-1.22 7.04-1.3-.78s-.24 6.11-3.9 8.51c0 0-5.14 3.42-5.02 5.99 0 0-.24-.33-.51-.85-.08-.14-.16-.29-.23-.46-.07-.15-.14-.31-.21-.48-.13-.34-.24-.71-.29-1.08l-.03.09c-.25.71-2 5.54-3.69 6.32 0 0-4.34 4.12-4.37 5.16l.01-.51.1-4.11s-.03.06-.09.16c-.75 1.28-5.8 9.84-8.53 11.23 0 0 .03-.1.07-.27.37-1.5 2.13-8.76 1.23-10.1 0 0-.27-.86-.73-1.83.01-.01 0-.01 0-.01-.05-.13-.11-.25-.18-.38-.1-.21-.2-.42-.32-.62-.44-.79-.97-1.51-1.53-1.78 0 0-1.67 2.88-2.61 3.06 0 0 .02-.08.07-.23.26-.94 1.21-4.47.75-4.99 0 0-1.24 2.88-2.01 2.64 0 0 .01-.05.01-.16.11-1.04.66-7.07-.27-8.61-.01-.01-.02-.03-.03-.04 0 0-3.78-5.21-5.02-7.41a.177.177 0 0 1-.05-.08c-.09-.15-.16-.28-.22-.4 0-.01 0-.01-.01-.02-.1-.21-.15-.36-.13-.42 0 0-.01.03-.02.1-.08.47-.4 2.6.14 3.84-.01.01 0 .03.01.04.02.06.05.11.08.16.06.12.14.22.22.31-.31-.33-2.5-2.73-3.74-5.35-.03-.05-.05-.11-.08-.17-.17-.38-.33-.77-.45-1.15 0 0 0 .01-.01.03-.08.29-.78 2.65-2.06 3.33 0 0 .01-.09.02-.25.08-1.1.34-5.44-.43-7.01 0 0 0 .01-.01.03-.09.41-1.07 4.54-3.54 5.97 0 0 .02-.1.06-.28.21-1.06.89-4.94.18-8.11 0 0 .53-4.32 3.6-7.56 0 0-.16.09-.42.2-.72.35-2.26.97-3.42.7 0 0 .06-.05.16-.14 1.06-.91 6.98-5.97 8.38-6.63 0 0 6.18-8.77 11.56-11.85 0 0-3.17-7.85 3.91-17.51 0 0 1.22-1.49 9.28 10.41 0 0 13.18.49 15.38 2.72 0 0 5.86 7.28 11.96 8.22h12.94s.56.2.91.87c.01 0 .01.01.01.02z"/></svg>