<?xml version="1.0" encoding="utf-8"?>
<!-- Generator: Adobe Illustrator 28.0.0, SVG Export Plug-In . SVG Version: 6.00 Build 0)  -->
<svg version="1.1" id="Calque_1" xmlns="http://www.w3.org/2000/svg" xmlns:xlink="http://www.w3.org/1999/xlink" x="0px" y="0px"
	 viewBox="0 0 154.13 150.69" style="enable-background:new 0 0 154.13 150.69;" xml:space="preserve">
<style type="text/css">
	.st0{fill:#FFFFFF;}
	.st1{fill:#010202;}
	.st2{fill:#455A64;}
	.st3{fill:none;stroke:#444C52;stroke-miterlimit:10;}
	.st4{fill:none;}
	.st5{fill:#FFFFFF;stroke:#FFFFFF;stroke-width:0.1852;stroke-miterlimit:10;}
	.st6{fill:#FFFFFF;stroke:#FFFFFF;stroke-width:0.1747;stroke-miterlimit:10;}
	.st7{fill:#010202;stroke:#010202;stroke-width:0.1852;stroke-miterlimit:10;}
	.st8{fill:#FFFFFF;stroke:#FFFFFF;stroke-width:0.1906;stroke-miterlimit:10;}
	.st9{fill:none;stroke:#000000;stroke-width:2;stroke-miterlimit:10;}
	.st10{fill:#EFEFEF;}
	.st11{stroke:#000000;stroke-width:10;stroke-miterlimit:10;}
	.st12{fill:none;stroke:#000000;stroke-width:23;stroke-linecap:round;stroke-miterlimit:10;}
	.st13{fill:none;stroke:#FFFFFF;stroke-miterlimit:10;}
	.st14{fill:#475BA6;}
	.st15{fill:#475CA6;}
	.st16{fill:#263239;}
	.st17{opacity:0.3;}
	.st18{stroke:#475CA6;stroke-miterlimit:10;}
	.st19{fill:#475BA6;stroke:#475CA6;stroke-miterlimit:10;}
	.st20{fill:#FFFFFF;stroke:#475CA6;stroke-miterlimit:10;}
	.st21{fill:none;stroke:#475CA6;stroke-width:2;stroke-miterlimit:10;}
	.st22{fill:#475CA6;stroke:#475CA6;stroke-width:0.2013;stroke-linecap:round;stroke-miterlimit:10;}
	.st23{fill:#475CA6;stroke:#475CA6;stroke-width:0.2625;stroke-linecap:round;stroke-miterlimit:10;}
	.st24{fill:#475CA6;stroke:#475CA6;stroke-width:0.5205;stroke-miterlimit:10;}
	.st25{fill:#475CA6;stroke:#475CA6;stroke-width:0.3971;stroke-miterlimit:10;}
	.st26{fill:#FFFFFF;stroke:#FFFFFF;stroke-miterlimit:10;}
	.st27{fill:none;stroke:#475CA6;stroke-linecap:round;stroke-linejoin:round;stroke-miterlimit:10;}
	.st28{fill:none;stroke:#475CA6;stroke-miterlimit:10;}
	.st29{fill:#010202;stroke:#010202;stroke-miterlimit:10;}
	.st30{fill:none;stroke:#FFFFFF;stroke-width:2;stroke-miterlimit:10;}
	.st31{fill:#FFFFFF;stroke:#FFFFFF;stroke-width:0.2013;stroke-linecap:round;stroke-miterlimit:10;}
	.st32{fill:#FFFFFF;stroke:#FFFFFF;stroke-width:0.2625;stroke-linecap:round;stroke-miterlimit:10;}
	.st33{fill:#FFFFFF;stroke:#FFFFFF;stroke-width:0.5205;stroke-miterlimit:10;}
	.st34{fill:#FFFFFF;stroke:#FFFFFF;stroke-width:0.3971;stroke-miterlimit:10;}
	.st35{fill:#FFFFFF;stroke:#000000;stroke-miterlimit:10;}
	.st36{fill:#010202;stroke:#FFFFFF;stroke-miterlimit:10;}
	.st37{fill:#010202;stroke:#010202;stroke-linecap:round;stroke-linejoin:round;stroke-miterlimit:10;}
	.st38{fill:#475CA6;stroke:#FFFFFF;stroke-miterlimit:10;}
	.st39{fill:#475CA6;stroke:#475CA6;stroke-linecap:round;stroke-linejoin:round;stroke-miterlimit:10;}
	.st40{fill:#475CA6;stroke:#475CA6;stroke-miterlimit:10;}
	.st41{fill:#FFFFFF;stroke:#FFFFFF;stroke-linecap:round;stroke-linejoin:round;stroke-miterlimit:10;}
	.st42{fill:none;stroke:#010202;stroke-miterlimit:10;}
	.st43{fill:#475BA6;stroke:#FFFFFF;stroke-miterlimit:10;}
	.st44{fill:#FAFAFA;}
</style>
<g>
	<path d="M89.01,86.7l-0.22,0.08c-0.01,0.01-0.01,0.01-0.02,0.02l0.02,0.03c0,0,0,0,0.01-0.01l0.21-0.11c0,0,0.01,0,0.02-0.01
		C89.02,86.7,89.02,86.7,89.01,86.7z M89.01,86.7l-0.22,0.08c-0.01,0.01-0.01,0.01-0.02,0.02l0.02,0.03c0,0,0,0,0.01-0.01l0.21-0.11
		c0,0,0.01,0,0.02-0.01C89.02,86.7,89.02,86.7,89.01,86.7z M89.01,86.7l-0.22,0.08c-0.01,0.01-0.01,0.01-0.02,0.02l0.02,0.03
		c0,0,0,0,0.01-0.01l0.21-0.11c0,0,0.01,0,0.02-0.01C89.02,86.7,89.02,86.7,89.01,86.7z M89.01,86.7l-0.22,0.08
		c-0.01,0.01-0.01,0.01-0.02,0.02l0.02,0.03c0,0,0,0,0.01-0.01l0.21-0.11c0,0,0.01,0,0.02-0.01C89.02,86.7,89.02,86.7,89.01,86.7z
		 M89.01,86.7l-0.22,0.08c-0.01,0.01-0.01,0.01-0.02,0.02l0.02,0.03c0,0,0,0,0.01-0.01l0.21-0.11c0,0,0.01,0,0.02-0.01
		C89.02,86.7,89.02,86.7,89.01,86.7z M89.01,86.7v0.01c0,0,0.01,0,0.02-0.01C89.02,86.7,89.02,86.7,89.01,86.7z M89.01,86.7v0.01
		c0,0,0.01,0,0.02-0.01C89.02,86.7,89.02,86.7,89.01,86.7z M89.01,86.7v0.01c0,0,0.01,0,0.02-0.01C89.02,86.7,89.02,86.7,89.01,86.7
		z M89.01,86.7v0.01c0,0,0.01,0,0.02-0.01C89.02,86.7,89.02,86.7,89.01,86.7z M85.53,73.74l0.05,0.18h0.01L85.53,73.74z
		 M85.53,73.74l0.05,0.18h0.01L85.53,73.74z M90.75,72.54l0.06-0.21h-0.02l-0.09,0.32c0.07,0.02,0.14,0.04,0.23,0.06
		c0.38,0.09,0.84,0.2,1.34,0.31c0.5,0.12,0.95,0.23,1.34,0.32c0.13,0.03,0.23,0.06,0.32,0.08l0.03-0.11L90.75,72.54z M90.75,72.54
		l0.06-0.21h-0.02l-0.09,0.32c0.07,0.02,0.14,0.04,0.23,0.06c0.38,0.09,0.84,0.2,1.34,0.31c0.5,0.12,0.95,0.23,1.34,0.32
		c0.13,0.03,0.23,0.06,0.32,0.08l0.03-0.11L90.75,72.54z M90.75,72.54l0.06-0.21h-0.02l-0.09,0.32c0.07,0.02,0.14,0.04,0.23,0.06
		c0.38,0.09,0.84,0.2,1.34,0.31c0.5,0.12,0.95,0.23,1.34,0.32c0.13,0.03,0.23,0.06,0.32,0.08l0.03-0.11L90.75,72.54z M85.53,73.74
		l0.05,0.18h0.01L85.53,73.74z M90.75,72.54l0.06-0.21h-0.02l-0.09,0.32c0.07,0.02,0.14,0.04,0.23,0.06
		c0.38,0.09,0.84,0.2,1.34,0.31c0.5,0.12,0.95,0.23,1.34,0.32c0.13,0.03,0.23,0.06,0.32,0.08l0.03-0.11L90.75,72.54z M89.66,86.22
		c0,0,0.01,0.04,0.03,0.11c0.06-0.02,0.12-0.06,0.17-0.08C89.79,86.24,89.72,86.23,89.66,86.22z M90.06,82.48
		c0,0.01,0.01,0.01,0.01,0.01s0,0,0-0.01H90.06z M85.53,73.74l0.05,0.18h0.01L85.53,73.74z M90.75,72.54l0.06-0.21h-0.02l-0.09,0.32
		c0.07,0.02,0.14,0.04,0.23,0.06c0.38,0.09,0.84,0.2,1.34,0.31c0.5,0.12,0.95,0.23,1.34,0.32c0.13,0.03,0.23,0.06,0.32,0.08
		l0.03-0.11L90.75,72.54z M90.75,72.54l0.06-0.21h-0.02l-0.09,0.32c0.07,0.02,0.14,0.04,0.23,0.06c0.38,0.09,0.84,0.2,1.34,0.31
		c0.5,0.12,0.95,0.23,1.34,0.32c0.13,0.03,0.23,0.06,0.32,0.08l0.03-0.11L90.75,72.54z M89.66,86.22c0,0,0.01,0.04,0.03,0.11
		c0.06-0.02,0.12-0.06,0.17-0.08C89.79,86.24,89.72,86.23,89.66,86.22z M90.06,82.48c0,0.01,0.01,0.01,0.01,0.01s0,0,0-0.01H90.06z
		 M85.53,73.74l0.05,0.18h0.01L85.53,73.74z M90.75,72.54l0.06-0.21h-0.02l-0.09,0.32c0.07,0.02,0.14,0.04,0.23,0.06
		c0.38,0.09,0.84,0.2,1.34,0.31c0.5,0.12,0.95,0.23,1.34,0.32c0.13,0.03,0.23,0.06,0.32,0.08l0.03-0.11L90.75,72.54z M90.75,72.54
		l0.06-0.21h-0.02l-0.09,0.32c0.07,0.02,0.14,0.04,0.23,0.06c0.38,0.09,0.84,0.2,1.34,0.31c0.5,0.12,0.95,0.23,1.34,0.32
		c0.13,0.03,0.23,0.06,0.32,0.08l0.03-0.11L90.75,72.54z M89.66,86.22c0,0,0.01,0.04,0.03,0.11c0.06-0.02,0.12-0.06,0.17-0.08
		C89.79,86.24,89.72,86.23,89.66,86.22z M90.06,82.48c0,0.01,0.01,0.01,0.01,0.01s0,0,0-0.01H90.06z M85.53,73.74l0.05,0.18h0.01
		L85.53,73.74z M90.75,72.54l0.06-0.21h-0.02l-0.09,0.32c0.07,0.02,0.14,0.04,0.23,0.06c0.38,0.09,0.84,0.2,1.34,0.31
		c0.5,0.12,0.95,0.23,1.34,0.32c0.13,0.03,0.23,0.06,0.32,0.08l0.03-0.11L90.75,72.54z M90.75,72.54l0.06-0.21h-0.02l-0.09,0.32
		c0.07,0.02,0.14,0.04,0.23,0.06c0.38,0.09,0.84,0.2,1.34,0.31c0.5,0.12,0.95,0.23,1.34,0.32c0.13,0.03,0.23,0.06,0.32,0.08
		l0.03-0.11L90.75,72.54z M89.66,86.22c0,0,0.01,0.04,0.03,0.11c0.06-0.02,0.12-0.06,0.17-0.08C89.79,86.24,89.72,86.23,89.66,86.22
		z M90.06,82.48c0,0.01,0.01,0.01,0.01,0.01s0,0,0-0.01H90.06z M85.53,73.74l0.05,0.18h0.01L85.53,73.74z M90.75,72.54l0.06-0.21
		h-0.02l-0.09,0.32c0.07,0.02,0.14,0.04,0.23,0.06c0.38,0.09,0.84,0.2,1.34,0.31c0.5,0.12,0.95,0.23,1.34,0.32
		c0.13,0.03,0.23,0.06,0.32,0.08l0.03-0.11L90.75,72.54z M89.01,86.7l-0.22,0.08c-0.01,0.01-0.01,0.01-0.02,0.02l0.02,0.03
		c0,0,0,0,0.01-0.01l0.21-0.11c0,0,0.01,0,0.02-0.01C89.02,86.7,89.02,86.7,89.01,86.7z M89.01,86.7l-0.22,0.08
		c-0.01,0.01-0.01,0.01-0.02,0.02l0.02,0.03c0,0,0,0,0.01-0.01l0.21-0.11c0,0,0.01,0,0.02-0.01C89.02,86.7,89.02,86.7,89.01,86.7z
		 M90.75,72.54l0.06-0.21h-0.02l-0.09,0.32c0.07,0.02,0.14,0.04,0.23,0.06c0.38,0.09,0.84,0.2,1.34,0.31
		c0.5,0.12,0.95,0.23,1.34,0.32c0.13,0.03,0.23,0.06,0.32,0.08l0.03-0.11L90.75,72.54z M89.66,86.22c0,0,0.01,0.04,0.03,0.11
		c0.06-0.02,0.12-0.06,0.17-0.08C89.79,86.24,89.72,86.23,89.66,86.22z M90.06,82.48c0,0.01,0.01,0.01,0.01,0.01s0,0,0-0.01H90.06z
		 M85.53,73.74l0.05,0.18h0.01L85.53,73.74z M90.75,72.54l0.06-0.21h-0.02l-0.09,0.32c0.07,0.02,0.14,0.04,0.23,0.06
		c0.38,0.09,0.84,0.2,1.34,0.31c0.5,0.12,0.95,0.23,1.34,0.32c0.13,0.03,0.23,0.06,0.32,0.08l0.03-0.11L90.75,72.54z M89.01,86.7
		l-0.22,0.08c-0.01,0.01-0.01,0.01-0.02,0.02l0.02,0.03c0,0,0,0,0.01-0.01l0.21-0.11c0,0,0.01,0,0.02-0.01
		C89.02,86.7,89.02,86.7,89.01,86.7z M89.01,86.7l-0.22,0.08c-0.01,0.01-0.01,0.01-0.02,0.02l0.02,0.03c0,0,0,0,0.01-0.01l0.21-0.11
		c0,0,0.01,0,0.02-0.01C89.02,86.7,89.02,86.7,89.01,86.7z M90.75,72.54l0.06-0.21h-0.02l-0.09,0.32c0.07,0.02,0.14,0.04,0.23,0.06
		c0.38,0.09,0.84,0.2,1.34,0.31c0.5,0.12,0.95,0.23,1.34,0.32c0.13,0.03,0.23,0.06,0.32,0.08l0.03-0.11L90.75,72.54z M89.66,86.22
		c0,0,0.01,0.04,0.03,0.11c0.06-0.02,0.12-0.06,0.17-0.08C89.79,86.24,89.72,86.23,89.66,86.22z M90.06,82.48
		c0,0.01,0.01,0.01,0.01,0.01s0,0,0-0.01H90.06z M85.53,73.74l0.05,0.18h0.01L85.53,73.74z M90.75,72.54l0.06-0.21h-0.02l-0.09,0.32
		c0.07,0.02,0.14,0.04,0.23,0.06c0.38,0.09,0.84,0.2,1.34,0.31c0.5,0.12,0.95,0.23,1.34,0.32c0.13,0.03,0.23,0.06,0.32,0.08
		l0.03-0.11L90.75,72.54z M89.01,86.7l-0.22,0.08c-0.01,0.01-0.01,0.01-0.02,0.02l0.02,0.03c0,0,0,0,0.01-0.01l0.21-0.11
		c0,0,0.01,0,0.02-0.01C89.02,86.7,89.02,86.7,89.01,86.7z M89.01,86.7l-0.22,0.08c-0.01,0.01-0.01,0.01-0.02,0.02l0.02,0.03
		c0,0,0,0,0.01-0.01l0.21-0.11c0,0,0.01,0,0.02-0.01C89.02,86.7,89.02,86.7,89.01,86.7z M90.75,72.54l0.06-0.21h-0.02l-0.09,0.32
		c0.07,0.02,0.14,0.04,0.23,0.06c0.38,0.09,0.84,0.2,1.34,0.31c0.5,0.12,0.95,0.23,1.34,0.32c0.13,0.03,0.23,0.06,0.32,0.08
		l0.03-0.11L90.75,72.54z M89.66,86.22c0,0,0.01,0.04,0.03,0.11c0.06-0.02,0.12-0.06,0.17-0.08C89.79,86.24,89.72,86.23,89.66,86.22
		z M90.06,82.48c0,0.01,0.01,0.01,0.01,0.01s0,0,0-0.01H90.06z M85.53,73.74l0.05,0.18h0.01L85.53,73.74z M90.75,72.54l0.06-0.21
		h-0.02l-0.09,0.32c0.07,0.02,0.14,0.04,0.23,0.06c0.38,0.09,0.84,0.2,1.34,0.31c0.5,0.12,0.95,0.23,1.34,0.32
		c0.13,0.03,0.23,0.06,0.32,0.08l0.03-0.11L90.75,72.54z M89.01,86.7l-0.22,0.08c-0.01,0.01-0.01,0.01-0.02,0.02l0.02,0.03
		c0,0,0,0,0.01-0.01l0.21-0.11c0,0,0.01,0,0.02-0.01C89.02,86.7,89.02,86.7,89.01,86.7z M89.01,86.7l-0.22,0.08
		c-0.01,0.01-0.01,0.01-0.02,0.02l0.02,0.03c0,0,0,0,0.01-0.01l0.21-0.11c0,0,0.01,0,0.02-0.01C89.02,86.7,89.02,86.7,89.01,86.7z
		 M90.75,72.54l0.06-0.21h-0.02l-0.09,0.32c0.07,0.02,0.14,0.04,0.23,0.06c0.38,0.09,0.84,0.2,1.34,0.31
		c0.5,0.12,0.95,0.23,1.34,0.32c0.13,0.03,0.23,0.06,0.32,0.08l0.03-0.11L90.75,72.54z M89.66,86.22c0,0,0.01,0.04,0.03,0.11
		c0.06-0.02,0.12-0.06,0.17-0.08C89.79,86.24,89.72,86.23,89.66,86.22z M90.06,82.48c0,0.01,0.01,0.01,0.01,0.01s0,0,0-0.01H90.06z
		 M85.53,73.74l0.05,0.18h0.01L85.53,73.74z M90.75,72.54l0.06-0.21h-0.02l-0.09,0.32c0.07,0.02,0.14,0.04,0.23,0.06
		c0.38,0.09,0.84,0.2,1.34,0.31c0.5,0.12,0.95,0.23,1.34,0.32c0.13,0.03,0.23,0.06,0.32,0.08l0.03-0.11L90.75,72.54z M89.01,86.7
		l-0.22,0.08c-0.01,0.01-0.01,0.01-0.02,0.02l0.02,0.03c0,0,0,0,0.01-0.01l0.21-0.11c0,0,0.01,0,0.02-0.01
		C89.02,86.7,89.02,86.7,89.01,86.7z M89.01,86.7l-0.22,0.08c-0.01,0.01-0.01,0.01-0.02,0.02l0.02,0.03c0,0,0,0,0.01-0.01l0.21-0.11
		c0,0,0.01,0,0.02-0.01C89.02,86.7,89.02,86.7,89.01,86.7z M90.75,72.54l0.06-0.21h-0.02l-0.09,0.32c0.07,0.02,0.14,0.04,0.23,0.06
		c0.38,0.09,0.84,0.2,1.34,0.31c0.5,0.12,0.95,0.23,1.34,0.32c0.13,0.03,0.23,0.06,0.32,0.08l0.03-0.11L90.75,72.54z M89.66,86.22
		c0,0,0.01,0.04,0.03,0.11c0.06-0.02,0.12-0.06,0.17-0.08C89.79,86.24,89.72,86.23,89.66,86.22z M90.06,82.48
		c0,0.01,0.01,0.01,0.01,0.01s0,0,0-0.01H90.06z M85.53,73.74l0.05,0.18h0.01L85.53,73.74z M90.75,72.54l0.06-0.21h-0.02l-0.09,0.32
		c0.07,0.02,0.14,0.04,0.23,0.06c0.38,0.09,0.84,0.2,1.34,0.31c0.5,0.12,0.95,0.23,1.34,0.32c0.13,0.03,0.23,0.06,0.32,0.08
		l0.03-0.11L90.75,72.54z M89.01,86.7l-0.22,0.08c-0.01,0.01-0.01,0.01-0.02,0.02l0.02,0.03c0,0,0,0,0.01-0.01l0.21-0.11
		c0,0,0.01,0,0.02-0.01C89.02,86.7,89.02,86.7,89.01,86.7z M89.01,86.7l-0.22,0.08c-0.01,0.01-0.01,0.01-0.02,0.02l0.02,0.03
		c0,0,0,0,0.01-0.01l0.21-0.11c0,0,0.01,0,0.02-0.01C89.02,86.7,89.02,86.7,89.01,86.7z M90.75,72.54l0.06-0.21h-0.02l-0.09,0.32
		c0.07,0.02,0.14,0.04,0.23,0.06c0.38,0.09,0.84,0.2,1.34,0.31c0.5,0.12,0.95,0.23,1.34,0.32c0.13,0.03,0.23,0.06,0.32,0.08
		l0.03-0.11L90.75,72.54z M89.66,86.22c0,0,0.01,0.04,0.03,0.11c0.06-0.02,0.12-0.06,0.17-0.08C89.79,86.24,89.72,86.23,89.66,86.22
		z M90.06,82.48c0,0.01,0.01,0.01,0.01,0.01s0,0,0-0.01H90.06z M85.53,73.74l0.05,0.18h0.01L85.53,73.74z M90.75,72.54l0.06-0.21
		h-0.02l-0.09,0.32c0.07,0.02,0.14,0.04,0.23,0.06c0.38,0.09,0.84,0.2,1.34,0.31c0.5,0.12,0.95,0.23,1.34,0.32
		c0.13,0.03,0.23,0.06,0.32,0.08l0.03-0.11L90.75,72.54z M89.01,86.7l-0.22,0.08c-0.01,0.01-0.01,0.01-0.02,0.02l0.02,0.03
		c0,0,0,0,0.01-0.01l0.21-0.11c0,0,0.01,0,0.02-0.01C89.02,86.7,89.02,86.7,89.01,86.7z M89.01,86.7l-0.22,0.08
		c-0.01,0.01-0.01,0.01-0.02,0.02l0.02,0.03c0,0,0,0,0.01-0.01l0.21-0.11c0,0,0.01,0,0.02-0.01C89.02,86.7,89.02,86.7,89.01,86.7z
		 M90.75,72.54l0.06-0.21h-0.02l-0.09,0.32c0.07,0.02,0.14,0.04,0.23,0.06c0.38,0.09,0.84,0.2,1.34,0.31
		c0.5,0.12,0.95,0.23,1.34,0.32c0.13,0.03,0.23,0.06,0.32,0.08l0.03-0.11L90.75,72.54z M89.66,86.22c0,0,0.01,0.04,0.03,0.11
		c0.06-0.02,0.12-0.06,0.17-0.08C89.79,86.24,89.72,86.23,89.66,86.22z M90.06,82.48c0,0.01,0.01,0.01,0.01,0.01s0,0,0-0.01H90.06z
		 M85.53,73.74l0.05,0.18h0.01L85.53,73.74z M90.75,72.54l0.06-0.21h-0.02l-0.09,0.32c0.07,0.02,0.14,0.04,0.23,0.06
		c0.38,0.09,0.84,0.2,1.34,0.31c0.5,0.12,0.95,0.23,1.34,0.32c0.13,0.03,0.23,0.06,0.32,0.08l0.03-0.11L90.75,72.54z M89.01,86.7
		l-0.22,0.08c-0.01,0.01-0.01,0.01-0.02,0.02l0.02,0.03c0,0,0,0,0.01-0.01l0.21-0.11c0,0,0.01,0,0.02-0.01
		C89.02,86.7,89.02,86.7,89.01,86.7z M89.01,86.7l-0.22,0.08c-0.01,0.01-0.01,0.01-0.02,0.02l0.02,0.03c0,0,0,0,0.01-0.01l0.21-0.11
		c0,0,0.01,0,0.02-0.01C89.02,86.7,89.02,86.7,89.01,86.7z M90.75,72.54l0.06-0.21h-0.02l-0.09,0.32c0.07,0.02,0.14,0.04,0.23,0.06
		c0.38,0.09,0.84,0.2,1.34,0.31c0.5,0.12,0.95,0.23,1.34,0.32c0.13,0.03,0.23,0.06,0.32,0.08l0.03-0.11L90.75,72.54z M89.66,86.22
		c0,0,0.01,0.04,0.03,0.11c0.06-0.02,0.12-0.06,0.17-0.08C89.79,86.24,89.72,86.23,89.66,86.22z M90.75,72.54l0.06-0.21h-0.02
		l-0.09,0.32c0.07,0.02,0.14,0.04,0.23,0.06c0.38,0.09,0.84,0.2,1.34,0.31c0.5,0.12,0.95,0.23,1.34,0.32
		c0.13,0.03,0.23,0.06,0.32,0.08l0.03-0.11L90.75,72.54z M90.06,82.48c0,0.01,0.01,0.01,0.01,0.01s0,0,0-0.01H90.06z M89.01,86.7
		l-0.22,0.08c-0.01,0.01-0.01,0.01-0.02,0.02l0.02,0.03c0,0,0,0,0.01-0.01l0.21-0.11c0,0,0.01,0,0.02-0.01
		C89.02,86.7,89.02,86.7,89.01,86.7z M85.53,73.74l0.05,0.18h0.01L85.53,73.74z M89.01,86.7l-0.22,0.08
		c-0.01,0.01-0.01,0.01-0.02,0.02l0.02,0.03c0,0,0,0,0.01-0.01l0.21-0.11c0,0,0.01,0,0.02-0.01C89.02,86.7,89.02,86.7,89.01,86.7z
		 M90.06,82.48c0,0.01,0.01,0.01,0.01,0.01s0,0,0-0.01H90.06z M90.35,82.09c0,0.01,0,0.02,0,0.02l0.01-0.01
		C90.36,82.09,90.35,82.09,90.35,82.09z M85.53,73.74l0.05,0.18h0.01L85.53,73.74z M90.75,72.54l0.06-0.21h-0.02l-0.09,0.32
		c0.07,0.02,0.14,0.04,0.23,0.06c0.38,0.09,0.84,0.2,1.34,0.31c0.5,0.12,0.95,0.23,1.34,0.32c0.13,0.03,0.23,0.06,0.32,0.08
		l0.03-0.11L90.75,72.54z M89.66,86.22c0,0,0.01,0.04,0.03,0.11c0.06-0.02,0.12-0.06,0.17-0.08C89.79,86.24,89.72,86.23,89.66,86.22
		z M90.75,72.54l0.06-0.21h-0.02l-0.09,0.32c0.07,0.02,0.14,0.04,0.23,0.06c0.38,0.09,0.84,0.2,1.34,0.31
		c0.5,0.12,0.95,0.23,1.34,0.32c0.13,0.03,0.23,0.06,0.32,0.08l0.03-0.11L90.75,72.54z M90.06,82.48c0,0.01,0.01,0.01,0.01,0.01
		s0,0,0-0.01H90.06z M89.01,86.7l-0.22,0.08c-0.01,0.01-0.01,0.01-0.02,0.02l0.02,0.03c0,0,0,0,0.01-0.01l0.21-0.11
		c0,0,0.01,0,0.02-0.01C89.02,86.7,89.02,86.7,89.01,86.7z M90.35,82.09c0,0.01,0,0.02,0,0.02l0.01-0.01
		C90.36,82.09,90.35,82.09,90.35,82.09z M85.53,73.74l0.05,0.18h0.01L85.53,73.74z M90.35,82.09c0,0.01,0,0.02,0,0.02l0.01-0.01
		C90.36,82.09,90.35,82.09,90.35,82.09z M85.53,73.74l0.05,0.18h0.01L85.53,73.74z M89.01,86.7l-0.22,0.08
		c-0.01,0.01-0.01,0.01-0.02,0.02l0.02,0.03c0,0,0,0,0.01-0.01l0.21-0.11c0,0,0.01,0,0.02-0.01C89.02,86.7,89.02,86.7,89.01,86.7z
		 M90.06,82.48c0,0.01,0.01,0.01,0.01,0.01s0,0,0-0.01H90.06z M89.66,86.22c0,0,0.01,0.04,0.03,0.11c0.06-0.02,0.12-0.06,0.17-0.08
		C89.79,86.24,89.72,86.23,89.66,86.22z M90.75,72.54l0.06-0.21h-0.02l-0.09,0.32c0.07,0.02,0.14,0.04,0.23,0.06
		c0.38,0.09,0.84,0.2,1.34,0.31c0.5,0.12,0.95,0.23,1.34,0.32c0.13,0.03,0.23,0.06,0.32,0.08l0.03-0.11L90.75,72.54z M89.66,86.22
		c0,0,0.01,0.04,0.03,0.11c0.06-0.02,0.12-0.06,0.17-0.08C89.79,86.24,89.72,86.23,89.66,86.22z M90.75,72.54l0.06-0.21h-0.02
		l-0.09,0.32c0.07,0.02,0.14,0.04,0.23,0.06c0.38,0.09,0.84,0.2,1.34,0.31c0.5,0.12,0.95,0.23,1.34,0.32
		c0.13,0.03,0.23,0.06,0.32,0.08l0.03-0.11L90.75,72.54z M90.06,82.48c0,0.01,0.01,0.01,0.01,0.01s0,0,0-0.01H90.06z M89.01,86.7
		l-0.22,0.08c-0.01,0.01-0.01,0.01-0.02,0.02l0.02,0.03c0,0,0,0,0.01-0.01l0.21-0.11c0,0,0.01,0,0.02-0.01
		C89.02,86.7,89.02,86.7,89.01,86.7z M90.35,82.09c0,0.01,0,0.02,0,0.02l0.01-0.01C90.36,82.09,90.35,82.09,90.35,82.09z
		 M85.53,73.74l0.05,0.18h0.01L85.53,73.74z M90.35,82.09c0,0.01,0,0.02,0,0.02l0.01-0.01C90.36,82.09,90.35,82.09,90.35,82.09z
		 M85.53,73.74l0.05,0.18h0.01L85.53,73.74z M89.01,86.7l-0.22,0.08c-0.01,0.01-0.01,0.01-0.02,0.02l0.02,0.03c0,0,0,0,0.01-0.01
		l0.21-0.11c0,0,0.01,0,0.02-0.01C89.02,86.7,89.02,86.7,89.01,86.7z M90.06,82.48c0,0.01,0.01,0.01,0.01,0.01s0,0,0-0.01H90.06z
		 M89.66,86.22c0,0,0.01,0.04,0.03,0.11c0.06-0.02,0.12-0.06,0.17-0.08C89.79,86.24,89.72,86.23,89.66,86.22z M90.75,72.54
		l0.06-0.21h-0.02l-0.09,0.32c0.07,0.02,0.14,0.04,0.23,0.06c0.38,0.09,0.84,0.2,1.34,0.31c0.5,0.12,0.95,0.23,1.34,0.32
		c0.13,0.03,0.23,0.06,0.32,0.08l0.03-0.11L90.75,72.54z M89.66,86.22c0,0,0.01,0.04,0.03,0.11c0.06-0.02,0.12-0.06,0.17-0.08
		C89.79,86.24,89.72,86.23,89.66,86.22z M90.75,72.54l0.06-0.21h-0.02l-0.09,0.32c0.07,0.02,0.14,0.04,0.23,0.06
		c0.38,0.09,0.84,0.2,1.34,0.31c0.5,0.12,0.95,0.23,1.34,0.32c0.13,0.03,0.23,0.06,0.32,0.08l0.03-0.11L90.75,72.54z M90.06,82.48
		c0,0.01,0.01,0.01,0.01,0.01s0,0,0-0.01H90.06z M89.01,86.7l-0.22,0.08c-0.01,0.01-0.01,0.01-0.02,0.02l0.02,0.03
		c0,0,0,0,0.01-0.01l0.21-0.11c0,0,0.01,0,0.02-0.01C89.02,86.7,89.02,86.7,89.01,86.7z M90.35,82.09c0,0.01,0,0.02,0,0.02
		l0.01-0.01C90.36,82.09,90.35,82.09,90.35,82.09z M85.53,73.74l0.05,0.18h0.01L85.53,73.74z M90.35,82.09c0,0.01,0,0.02,0,0.02
		l0.01-0.01C90.36,82.09,90.35,82.09,90.35,82.09z M85.53,73.74l0.05,0.18h0.01L85.53,73.74z M89.01,86.7l-0.22,0.08
		c-0.01,0.01-0.01,0.01-0.02,0.02l0.02,0.03c0,0,0,0,0.01-0.01l0.21-0.11c0,0,0.01,0,0.02-0.01C89.02,86.7,89.02,86.7,89.01,86.7z
		 M90.06,82.48c0,0.01,0.01,0.01,0.01,0.01s0,0,0-0.01H90.06z M89.66,86.22c0,0,0.01,0.04,0.03,0.11c0.06-0.02,0.12-0.06,0.17-0.08
		C89.79,86.24,89.72,86.23,89.66,86.22z M90.75,72.54l0.06-0.21h-0.02l-0.09,0.32c0.07,0.02,0.14,0.04,0.23,0.06
		c0.38,0.09,0.84,0.2,1.34,0.31c0.5,0.12,0.95,0.23,1.34,0.32c0.13,0.03,0.23,0.06,0.32,0.08l0.03-0.11L90.75,72.54z M89.66,86.22
		c0,0,0.01,0.04,0.03,0.11c0.06-0.02,0.12-0.06,0.17-0.08C89.79,86.24,89.72,86.23,89.66,86.22z M90.75,72.54l0.06-0.21h-0.02
		l-0.09,0.32c0.07,0.02,0.14,0.04,0.23,0.06c0.38,0.09,0.84,0.2,1.34,0.31c0.5,0.12,0.95,0.23,1.34,0.32
		c0.13,0.03,0.23,0.06,0.32,0.08l0.03-0.11L90.75,72.54z M90.06,82.48c0,0.01,0.01,0.01,0.01,0.01s0,0,0-0.01H90.06z M89.01,86.7
		l-0.22,0.08c-0.01,0.01-0.01,0.01-0.02,0.02l0.02,0.03c0,0,0,0,0.01-0.01l0.21-0.11c0,0,0.01,0,0.02-0.01
		C89.02,86.7,89.02,86.7,89.01,86.7z M90.35,82.09c0,0.01,0,0.02,0,0.02l0.01-0.01C90.36,82.09,90.35,82.09,90.35,82.09z
		 M85.53,73.74l0.05,0.18h0.01L85.53,73.74z M90.35,82.09c0,0.01,0,0.02,0,0.02l0.01-0.01C90.36,82.09,90.35,82.09,90.35,82.09z
		 M85.53,73.74l0.05,0.18h0.01L85.53,73.74z M89.01,86.7l-0.22,0.08c-0.01,0.01-0.01,0.01-0.02,0.02l0.02,0.03c0,0,0,0,0.01-0.01
		l0.21-0.11c0,0,0.01,0,0.02-0.01C89.02,86.7,89.02,86.7,89.01,86.7z M90.06,82.48c0,0.01,0.01,0.01,0.01,0.01s0,0,0-0.01H90.06z
		 M89.66,86.22c0,0,0.01,0.04,0.03,0.11c0.06-0.02,0.12-0.06,0.17-0.08C89.79,86.24,89.72,86.23,89.66,86.22z M90.75,72.54
		l0.06-0.21h-0.02l-0.09,0.32c0.07,0.02,0.14,0.04,0.23,0.06c0.38,0.09,0.84,0.2,1.34,0.31c0.5,0.12,0.95,0.23,1.34,0.32
		c0.13,0.03,0.23,0.06,0.32,0.08l0.03-0.11L90.75,72.54z M89.66,86.22c0,0,0.01,0.04,0.03,0.11c0.06-0.02,0.12-0.06,0.17-0.08
		C89.79,86.24,89.72,86.23,89.66,86.22z M90.75,72.54l0.06-0.21h-0.02l-0.09,0.32c0.07,0.02,0.14,0.04,0.23,0.06
		c0.38,0.09,0.84,0.2,1.34,0.31c0.5,0.12,0.95,0.23,1.34,0.32c0.13,0.03,0.23,0.06,0.32,0.08l0.03-0.11L90.75,72.54z M90.06,82.48
		c0,0.01,0.01,0.01,0.01,0.01s0,0,0-0.01H90.06z M89.01,86.7l-0.22,0.08c-0.01,0.01-0.01,0.01-0.02,0.02l0.02,0.03
		c0,0,0,0,0.01-0.01l0.21-0.11c0,0,0.01,0,0.02-0.01C89.02,86.7,89.02,86.7,89.01,86.7z M90.35,82.09c0,0.01,0,0.02,0,0.02
		l0.01-0.01C90.36,82.09,90.35,82.09,90.35,82.09z M85.53,73.74l0.05,0.18h0.01L85.53,73.74z M90.35,82.09c0,0.01,0,0.02,0,0.02
		l0.01-0.01C90.36,82.09,90.35,82.09,90.35,82.09z M85.53,73.74l0.05,0.18h0.01L85.53,73.74z M89.01,86.7l-0.22,0.08
		c-0.01,0.01-0.01,0.01-0.02,0.02l0.02,0.03c0,0,0,0,0.01-0.01l0.21-0.11c0,0,0.01,0,0.02-0.01C89.02,86.7,89.02,86.7,89.01,86.7z
		 M90.06,82.48c0,0.01,0.01,0.01,0.01,0.01s0,0,0-0.01H90.06z M89.66,86.22c0,0,0.01,0.04,0.03,0.11c0.06-0.02,0.12-0.06,0.17-0.08
		C89.79,86.24,89.72,86.23,89.66,86.22z M90.75,72.54l0.06-0.21h-0.02l-0.09,0.32c0.07,0.02,0.14,0.04,0.23,0.06
		c0.38,0.09,0.84,0.2,1.34,0.31c0.5,0.12,0.95,0.23,1.34,0.32c0.13,0.03,0.23,0.06,0.32,0.08l0.03-0.11L90.75,72.54z M89.66,86.22
		c0,0,0.01,0.04,0.03,0.11c0.06-0.02,0.12-0.06,0.17-0.08C89.79,86.24,89.72,86.23,89.66,86.22z M90.75,72.54l0.06-0.21h-0.02
		l-0.09,0.32c0.07,0.02,0.14,0.04,0.23,0.06c0.38,0.09,0.84,0.2,1.34,0.31c0.5,0.12,0.95,0.23,1.34,0.32
		c0.13,0.03,0.23,0.06,0.32,0.08l0.03-0.11L90.75,72.54z M90.06,82.48c0,0.01,0.01,0.01,0.01,0.01s0,0,0-0.01H90.06z M89.01,86.7
		l-0.22,0.08c-0.01,0.01-0.01,0.01-0.02,0.02l0.02,0.03c0,0,0,0,0.01-0.01l0.21-0.11c0,0,0.01,0,0.02-0.01
		C89.02,86.7,89.02,86.7,89.01,86.7z M85.53,73.74l0.05,0.18h0.01L85.53,73.74z M90.35,82.09c0,0.01,0,0.02,0,0.02l0.01-0.01
		C90.36,82.09,90.35,82.09,90.35,82.09z M90.35,82.09c0,0.01,0,0.02,0,0.02l0.01-0.01C90.36,82.09,90.35,82.09,90.35,82.09z
		 M85.53,73.74l0.05,0.18h0.01L85.53,73.74z M89.01,86.7l-0.22,0.08c-0.01,0.01-0.01,0.01-0.02,0.02l0.02,0.03c0,0,0,0,0.01-0.01
		l0.21-0.11c0,0,0.01,0,0.02-0.01C89.02,86.7,89.02,86.7,89.01,86.7z M90.06,82.48c0,0.01,0.01,0.01,0.01,0.01s0,0,0-0.01H90.06z
		 M89.66,86.22c0,0,0.01,0.04,0.03,0.11c0.06-0.02,0.12-0.06,0.17-0.08C89.79,86.24,89.72,86.23,89.66,86.22z M90.75,72.54
		l0.06-0.21h-0.02l-0.09,0.32c0.07,0.02,0.14,0.04,0.23,0.06c0.38,0.09,0.84,0.2,1.34,0.31c0.5,0.12,0.95,0.23,1.34,0.32
		c0.13,0.03,0.23,0.06,0.32,0.08l0.03-0.11L90.75,72.54z M89.66,86.22c0,0,0.01,0.04,0.03,0.11c0.06-0.02,0.12-0.06,0.17-0.08
		C89.79,86.24,89.72,86.23,89.66,86.22z M90.75,72.54l0.06-0.21h-0.02l-0.09,0.32c0.07,0.02,0.14,0.04,0.23,0.06
		c0.38,0.09,0.84,0.2,1.34,0.31c0.5,0.12,0.95,0.23,1.34,0.32c0.13,0.03,0.23,0.06,0.32,0.08l0.03-0.11L90.75,72.54z M90.06,82.48
		c0,0.01,0.01,0.01,0.01,0.01s0,0,0-0.01H90.06z M89.01,86.7l-0.22,0.08c-0.01,0.01-0.01,0.01-0.02,0.02l0.02,0.03
		c0,0,0,0,0.01-0.01l0.21-0.11c0,0,0.01,0,0.02-0.01C89.02,86.7,89.02,86.7,89.01,86.7z M90.35,82.09c0,0.01,0,0.02,0,0.02
		l0.01-0.01C90.36,82.09,90.35,82.09,90.35,82.09z M85.53,73.74l0.05,0.18h0.01L85.53,73.74z M85.53,73.74l0.05,0.18h0.01
		L85.53,73.74z M90.35,82.09c0,0.01,0,0.02,0,0.02l0.01-0.01C90.36,82.09,90.35,82.09,90.35,82.09z M89.01,86.7l-0.22,0.08
		c-0.01,0.01-0.01,0.01-0.02,0.02l0.02,0.03c0,0,0,0,0.01-0.01l0.21-0.11c0,0,0.01,0,0.02-0.01C89.02,86.7,89.02,86.7,89.01,86.7z
		 M90.06,82.48c0,0.01,0.01,0.01,0.01,0.01s0,0,0-0.01H90.06z M89.66,86.22c0,0,0.01,0.04,0.03,0.11c0.06-0.02,0.12-0.06,0.17-0.08
		C89.79,86.24,89.72,86.23,89.66,86.22z M90.75,72.54l0.06-0.21h-0.02l-0.09,0.32c0.07,0.02,0.14,0.04,0.23,0.06
		c0.38,0.09,0.84,0.2,1.34,0.31c0.5,0.12,0.95,0.23,1.34,0.32c0.13,0.03,0.23,0.06,0.32,0.08l0.03-0.11L90.75,72.54z M89.66,86.22
		c0,0,0.01,0.04,0.03,0.11c0.06-0.02,0.12-0.06,0.17-0.08C89.79,86.24,89.72,86.23,89.66,86.22z M90.75,72.54l0.06-0.21h-0.02
		l-0.09,0.32c0.07,0.02,0.14,0.04,0.23,0.06c0.38,0.09,0.84,0.2,1.34,0.31c0.5,0.12,0.95,0.23,1.34,0.32
		c0.13,0.03,0.23,0.06,0.32,0.08l0.03-0.11L90.75,72.54z M90.35,82.09c0,0.01,0,0.02,0,0.02l0.01-0.01
		C90.36,82.09,90.35,82.09,90.35,82.09z M90.06,82.48c0,0.01,0.01,0.01,0.01,0.01s0,0,0-0.01H90.06z M89.01,86.7l-0.22,0.08
		c-0.01,0.01-0.01,0.01-0.02,0.02l0.02,0.03c0,0,0,0,0.01-0.01l0.21-0.11c0,0,0.01,0,0.02-0.01C89.02,86.7,89.02,86.7,89.01,86.7z
		 M85.53,73.74l0.05,0.18h0.01L85.53,73.74z M85.53,73.74l0.05,0.18h0.01L85.53,73.74z M89.01,86.7l-0.22,0.08
		c-0.01,0.01-0.01,0.01-0.02,0.02l0.02,0.03c0,0,0,0,0.01-0.01l0.21-0.11c0,0,0.01,0,0.02-0.01C89.02,86.7,89.02,86.7,89.01,86.7z
		 M90.06,82.48c0,0.01,0.01,0.01,0.01,0.01s0,0,0-0.01H90.06z M90.35,82.09c0,0.01,0,0.02,0,0.02l0.01-0.01
		C90.36,82.09,90.35,82.09,90.35,82.09z M89.66,86.22c0,0,0.01,0.04,0.03,0.11c0.06-0.02,0.12-0.06,0.17-0.08
		C89.79,86.24,89.72,86.23,89.66,86.22z M90.75,72.54l0.06-0.21h-0.02l-0.09,0.32c0.07,0.02,0.14,0.04,0.23,0.06
		c0.38,0.09,0.84,0.2,1.34,0.31c0.5,0.12,0.95,0.23,1.34,0.32c0.13,0.03,0.23,0.06,0.32,0.08l0.03-0.11L90.75,72.54z M89.66,86.22
		c0,0,0.01,0.04,0.03,0.11c0.06-0.02,0.12-0.06,0.17-0.08C89.79,86.24,89.72,86.23,89.66,86.22z M90.75,72.54l0.06-0.21h-0.02
		l-0.09,0.32c0.07,0.02,0.14,0.04,0.23,0.06c0.38,0.09,0.84,0.2,1.34,0.31c0.5,0.12,0.95,0.23,1.34,0.32
		c0.13,0.03,0.23,0.06,0.32,0.08l0.03-0.11L90.75,72.54z M90.35,82.09c0,0.01,0,0.02,0,0.02l0.01-0.01
		C90.36,82.09,90.35,82.09,90.35,82.09z M90.06,82.48c0,0.01,0.01,0.01,0.01,0.01s0,0,0-0.01H90.06z M89.01,86.7l-0.22,0.08
		c-0.01,0.01-0.01,0.01-0.02,0.02l0.02,0.03c0,0,0,0,0.01-0.01l0.21-0.11c0,0,0.01,0,0.02-0.01C89.02,86.7,89.02,86.7,89.01,86.7z
		 M85.53,73.74l0.05,0.18h0.01L85.53,73.74z M85.53,73.74l0.05,0.18h0.01L85.53,73.74z M89.01,86.7l-0.22,0.08
		c-0.01,0.01-0.01,0.01-0.02,0.02l0.02,0.03c0,0,0,0,0.01-0.01l0.21-0.11c0,0,0.01,0,0.02-0.01C89.02,86.7,89.02,86.7,89.01,86.7z
		 M90.06,82.48c0,0.01,0.01,0.01,0.01,0.01s0,0,0-0.01H90.06z M90.35,82.09c0,0.01,0,0.02,0,0.02l0.01-0.01
		C90.36,82.09,90.35,82.09,90.35,82.09z M89.66,86.22c0,0,0.01,0.04,0.03,0.11c0.06-0.02,0.12-0.06,0.17-0.08
		C89.79,86.24,89.72,86.23,89.66,86.22z M90.75,72.54l0.06-0.21h-0.02l-0.09,0.32c0.07,0.02,0.14,0.04,0.23,0.06
		c0.38,0.09,0.84,0.2,1.34,0.31c0.5,0.12,0.95,0.23,1.34,0.32c0.13,0.03,0.23,0.06,0.32,0.08l0.03-0.11L90.75,72.54z M89.66,86.22
		c0,0,0.01,0.04,0.03,0.11c0.06-0.02,0.12-0.06,0.17-0.08C89.79,86.24,89.72,86.23,89.66,86.22z M90.75,72.54l0.06-0.21h-0.02
		l-0.09,0.32c0.07,0.02,0.14,0.04,0.23,0.06c0.38,0.09,0.84,0.2,1.34,0.31c0.5,0.12,0.95,0.23,1.34,0.32
		c0.13,0.03,0.23,0.06,0.32,0.08l0.03-0.11L90.75,72.54z M90.35,82.09c0,0.01,0,0.02,0,0.02l0.01-0.01
		C90.36,82.09,90.35,82.09,90.35,82.09z M90.06,82.48c0,0.01,0.01,0.01,0.01,0.01s0,0,0-0.01H90.06z M89.01,86.7l-0.22,0.08
		c-0.01,0.01-0.01,0.01-0.02,0.02l0.02,0.03c0,0,0,0,0.01-0.01l0.21-0.11c0,0,0.01,0,0.02-0.01C89.02,86.7,89.02,86.7,89.01,86.7z
		 M85.53,73.74l0.05,0.18h0.01L85.53,73.74z M85.53,73.74l0.05,0.18h0.01L85.53,73.74z M89.01,86.7l-0.22,0.08
		c-0.01,0.01-0.01,0.01-0.02,0.02l0.02,0.03c0,0,0,0,0.01-0.01l0.21-0.11c0,0,0.01,0,0.02-0.01C89.02,86.7,89.02,86.7,89.01,86.7z
		 M90.06,82.48c0,0.01,0.01,0.01,0.01,0.01s0,0,0-0.01H90.06z M90.35,82.09c0,0.01,0,0.02,0,0.02l0.01-0.01
		C90.36,82.09,90.35,82.09,90.35,82.09z M89.66,86.22c0,0,0.01,0.04,0.03,0.11c0.06-0.02,0.12-0.06,0.17-0.08
		C89.79,86.24,89.72,86.23,89.66,86.22z M90.75,72.54l0.06-0.21h-0.02l-0.09,0.32c0.07,0.02,0.14,0.04,0.23,0.06
		c0.38,0.09,0.84,0.2,1.34,0.31c0.5,0.12,0.95,0.23,1.34,0.32c0.13,0.03,0.23,0.06,0.32,0.08l0.03-0.11L90.75,72.54z M89.66,86.22
		c0,0,0.01,0.04,0.03,0.11c0.06-0.02,0.12-0.06,0.17-0.08C89.79,86.24,89.72,86.23,89.66,86.22z M90.75,72.54l0.06-0.21h-0.02
		l-0.09,0.32c0.07,0.02,0.14,0.04,0.23,0.06c0.38,0.09,0.84,0.2,1.34,0.31c0.5,0.12,0.95,0.23,1.34,0.32
		c0.13,0.03,0.23,0.06,0.32,0.08l0.03-0.11L90.75,72.54z M90.35,82.09c0,0.01,0,0.02,0,0.02l0.01-0.01
		C90.36,82.09,90.35,82.09,90.35,82.09z M90.06,82.48c0,0.01,0.01,0.01,0.01,0.01s0,0,0-0.01H90.06z M89.01,86.7l-0.22,0.08
		c-0.01,0.01-0.01,0.01-0.02,0.02l0.02,0.03c0,0,0,0,0.01-0.01l0.21-0.11c0,0,0.01,0,0.02-0.01C89.02,86.7,89.02,86.7,89.01,86.7z
		 M85.53,73.74l0.05,0.18h0.01L85.53,73.74z M85.53,73.74l0.05,0.18h0.01L85.53,73.74z M89.01,86.7l-0.22,0.08
		c-0.01,0.01-0.01,0.01-0.02,0.02l0.02,0.03c0,0,0,0,0.01-0.01l0.21-0.11c0,0,0.01,0,0.02-0.01C89.02,86.7,89.02,86.7,89.01,86.7z
		 M90.06,82.48c0,0.01,0.01,0.01,0.01,0.01s0,0,0-0.01H90.06z M90.35,82.09c0,0.01,0,0.02,0,0.02l0.01-0.01
		C90.36,82.09,90.35,82.09,90.35,82.09z M89.66,86.22c0,0,0.01,0.04,0.03,0.11c0.06-0.02,0.12-0.06,0.17-0.08
		C89.79,86.24,89.72,86.23,89.66,86.22z M90.75,72.54l0.06-0.21h-0.02l-0.09,0.32c0.07,0.02,0.14,0.04,0.23,0.06
		c0.38,0.09,0.84,0.2,1.34,0.31c0.5,0.12,0.95,0.23,1.34,0.32c0.13,0.03,0.23,0.06,0.32,0.08l0.03-0.11L90.75,72.54z M90.75,72.54
		l0.06-0.21h-0.02l-0.09,0.32c0.07,0.02,0.14,0.04,0.23,0.06c0.38,0.09,0.84,0.2,1.34,0.31c0.5,0.12,0.95,0.23,1.34,0.32
		c0.13,0.03,0.23,0.06,0.32,0.08l0.03-0.11L90.75,72.54z M90.35,82.09c0,0.01,0,0.02,0,0.02l0.01-0.01
		C90.36,82.09,90.35,82.09,90.35,82.09z M90.06,82.48c0,0.01,0.01,0.01,0.01,0.01s0,0,0-0.01H90.06z M89.66,86.22
		c0,0,0.01,0.04,0.03,0.11c0.06-0.02,0.12-0.06,0.17-0.08C89.79,86.24,89.72,86.23,89.66,86.22z M89.01,86.7l-0.22,0.08
		c-0.01,0.01-0.01,0.01-0.02,0.02l0.02,0.03c0,0,0,0,0.01-0.01l0.21-0.11c0,0,0.01,0,0.02-0.01C89.02,86.7,89.02,86.7,89.01,86.7z
		 M85.53,73.74l0.05,0.18h0.01L85.53,73.74z M85.53,73.74l0.05,0.18h0.01L85.53,73.74z M89.01,86.7l-0.22,0.08
		c-0.01,0.01-0.01,0.01-0.02,0.02l0.02,0.03c0,0,0,0,0.01-0.01l0.21-0.11c0,0,0.01,0,0.02-0.01C89.02,86.7,89.02,86.7,89.01,86.7z
		 M89.66,86.22c0,0,0.01,0.04,0.03,0.11c0.06-0.02,0.12-0.06,0.17-0.08C89.79,86.24,89.72,86.23,89.66,86.22z M90.06,82.48
		c0,0.01,0.01,0.01,0.01,0.01s0,0,0-0.01H90.06z M90.35,82.09c0,0.01,0,0.02,0,0.02l0.01-0.01C90.36,82.09,90.35,82.09,90.35,82.09z
		 M90.75,72.54l0.06-0.21h-0.02l-0.09,0.32c0.07,0.02,0.14,0.04,0.23,0.06c0.38,0.09,0.84,0.2,1.34,0.31
		c0.5,0.12,0.95,0.23,1.34,0.32c0.13,0.03,0.23,0.06,0.32,0.08l0.03-0.11L90.75,72.54z M90.75,72.54l0.06-0.21h-0.02l-0.09,0.32
		c0.07,0.02,0.14,0.04,0.23,0.06c0.38,0.09,0.84,0.2,1.34,0.31c0.5,0.12,0.95,0.23,1.34,0.32c0.13,0.03,0.23,0.06,0.32,0.08
		l0.03-0.11L90.75,72.54z M90.35,82.09c0,0.01,0,0.02,0,0.02l0.01-0.01C90.36,82.09,90.35,82.09,90.35,82.09z M90.06,82.48
		c0,0.01,0.01,0.01,0.01,0.01s0,0,0-0.01H90.06z M89.66,86.22c0,0,0.01,0.04,0.03,0.11c0.06-0.02,0.12-0.06,0.17-0.08
		C89.79,86.24,89.72,86.23,89.66,86.22z M89.01,86.7l-0.22,0.08c-0.01,0.01-0.01,0.01-0.02,0.02l0.02,0.03c0,0,0,0,0.01-0.01
		l0.21-0.11c0,0,0.01,0,0.02-0.01C89.02,86.7,89.02,86.7,89.01,86.7z M85.53,73.74l0.05,0.18h0.01L85.53,73.74z M85.53,73.74
		l0.05,0.18h0.01L85.53,73.74z M89.01,86.7l-0.22,0.08c-0.01,0.01-0.01,0.01-0.02,0.02l0.02,0.03c0,0,0,0,0.01-0.01l0.21-0.11
		c0,0,0.01,0,0.02-0.01C89.02,86.7,89.02,86.7,89.01,86.7z M89.66,86.22c0,0,0.01,0.04,0.03,0.11c0.06-0.02,0.12-0.06,0.17-0.08
		C89.79,86.24,89.72,86.23,89.66,86.22z M90.06,82.48c0,0.01,0.01,0.01,0.01,0.01s0,0,0-0.01H90.06z M90.35,82.09
		c0,0.01,0,0.02,0,0.02l0.01-0.01C90.36,82.09,90.35,82.09,90.35,82.09z M90.75,72.54l0.06-0.21h-0.02l-0.09,0.32
		c0.07,0.02,0.14,0.04,0.23,0.06c0.38,0.09,0.84,0.2,1.34,0.31c0.5,0.12,0.95,0.23,1.34,0.32c0.13,0.03,0.23,0.06,0.32,0.08
		l0.03-0.11L90.75,72.54z M90.75,72.54l0.06-0.21h-0.02l-0.09,0.32c0.07,0.02,0.14,0.04,0.23,0.06c0.38,0.09,0.84,0.2,1.34,0.31
		c0.5,0.12,0.95,0.23,1.34,0.32c0.13,0.03,0.23,0.06,0.32,0.08l0.03-0.11L90.75,72.54z M90.35,82.09c0,0.01,0,0.02,0,0.02l0.01-0.01
		C90.36,82.09,90.35,82.09,90.35,82.09z M90.06,82.48c0,0.01,0.01,0.01,0.01,0.01s0,0,0-0.01H90.06z M89.66,86.22
		c0,0,0.01,0.04,0.03,0.11c0.06-0.02,0.12-0.06,0.17-0.08C89.79,86.24,89.72,86.23,89.66,86.22z M89.01,86.7l-0.22,0.08
		c-0.01,0.01-0.01,0.01-0.02,0.02l0.02,0.03c0,0,0,0,0.01-0.01l0.21-0.11c0,0,0.01,0,0.02-0.01C89.02,86.7,89.02,86.7,89.01,86.7z
		 M85.53,73.74l0.05,0.18h0.01L85.53,73.74z M85.53,73.74l0.05,0.18h0.01L85.53,73.74z M89.01,86.7l-0.22,0.08
		c-0.01,0.01-0.01,0.01-0.02,0.02l0.02,0.03c0,0,0,0,0.01-0.01l0.21-0.11c0,0,0.01,0,0.02-0.01C89.02,86.7,89.02,86.7,89.01,86.7z
		 M89.66,86.22c0,0,0.01,0.04,0.03,0.11c0.06-0.02,0.12-0.06,0.17-0.08C89.79,86.24,89.72,86.23,89.66,86.22z M90.06,82.48
		c0,0.01,0.01,0.01,0.01,0.01s0,0,0-0.01H90.06z M90.35,82.09c0,0.01,0,0.02,0,0.02l0.01-0.01C90.36,82.09,90.35,82.09,90.35,82.09z
		 M90.75,72.54l0.06-0.21h-0.02l-0.09,0.32c0.07,0.02,0.14,0.04,0.23,0.06c0.38,0.09,0.84,0.2,1.34,0.31
		c0.5,0.12,0.95,0.23,1.34,0.32c0.13,0.03,0.23,0.06,0.32,0.08l0.03-0.11L90.75,72.54z M90.75,72.54l0.06-0.21h-0.02l-0.09,0.32
		c0.07,0.02,0.14,0.04,0.23,0.06c0.38,0.09,0.84,0.2,1.34,0.31c0.5,0.12,0.95,0.23,1.34,0.32c0.13,0.03,0.23,0.06,0.32,0.08
		l0.03-0.11L90.75,72.54z M90.35,82.09c0,0.01,0,0.02,0,0.02l0.01-0.01C90.36,82.09,90.35,82.09,90.35,82.09z M90.06,82.48
		c0,0.01,0.01,0.01,0.01,0.01s0,0,0-0.01H90.06z M89.66,86.22c0,0,0.01,0.04,0.03,0.11c0.06-0.02,0.12-0.06,0.17-0.08
		C89.79,86.24,89.72,86.23,89.66,86.22z M89.01,86.7l-0.22,0.08c-0.01,0.01-0.01,0.01-0.02,0.02l0.02,0.03c0,0,0,0,0.01-0.01
		l0.21-0.11c0,0,0.01,0,0.02-0.01C89.02,86.7,89.02,86.7,89.01,86.7z M85.53,73.74l0.05,0.18h0.01L85.53,73.74z M85.53,73.74
		l0.05,0.18h0.01L85.53,73.74z M89.01,86.7l-0.22,0.08c-0.01,0.01-0.01,0.01-0.02,0.02l0.02,0.03c0,0,0,0,0.01-0.01l0.21-0.11
		c0,0,0.01,0,0.02-0.01C89.02,86.7,89.02,86.7,89.01,86.7z M89.66,86.22c0,0,0.01,0.04,0.03,0.11c0.06-0.02,0.12-0.06,0.17-0.08
		C89.79,86.24,89.72,86.23,89.66,86.22z M90.06,82.48c0,0.01,0.01,0.01,0.01,0.01s0,0,0-0.01H90.06z M90.35,82.09
		c0,0.01,0,0.02,0,0.02l0.01-0.01C90.36,82.09,90.35,82.09,90.35,82.09z M90.75,72.54l0.06-0.21h-0.02l-0.09,0.32
		c0.07,0.02,0.14,0.04,0.23,0.06c0.38,0.09,0.84,0.2,1.34,0.31c0.5,0.12,0.95,0.23,1.34,0.32c0.13,0.03,0.23,0.06,0.32,0.08
		l0.03-0.11L90.75,72.54z M90.75,72.54l0.06-0.21h-0.02l-0.09,0.32c0.07,0.02,0.14,0.04,0.23,0.06c0.38,0.09,0.84,0.2,1.34,0.31
		c0.5,0.12,0.95,0.23,1.34,0.32c0.13,0.03,0.23,0.06,0.32,0.08l0.03-0.11L90.75,72.54z M90.35,82.09c0,0.01,0,0.02,0,0.02l0.01-0.01
		C90.36,82.09,90.35,82.09,90.35,82.09z M90.06,82.48c0,0.01,0.01,0.01,0.01,0.01s0,0,0-0.01H90.06z M89.66,86.22
		c0,0,0.01,0.04,0.03,0.11c0.06-0.02,0.12-0.06,0.17-0.08C89.79,86.24,89.72,86.23,89.66,86.22z M89.01,86.7l-0.22,0.08
		c-0.01,0.01-0.01,0.01-0.02,0.02l0.02,0.03c0,0,0,0,0.01-0.01l0.21-0.11c0,0,0.01,0,0.02-0.01C89.02,86.7,89.02,86.7,89.01,86.7z
		 M85.53,73.74l0.05,0.18h0.01L85.53,73.74z M85.53,73.74l0.05,0.18h0.01L85.53,73.74z M89.01,86.7l-0.22,0.08
		c-0.01,0.01-0.01,0.01-0.02,0.02l0.02,0.03c0,0,0,0,0.01-0.01l0.21-0.11c0,0,0.01,0,0.02-0.01C89.02,86.7,89.02,86.7,89.01,86.7z
		 M89.66,86.22c0,0,0.01,0.04,0.03,0.11c0.06-0.02,0.12-0.06,0.17-0.08C89.79,86.24,89.72,86.23,89.66,86.22z M90.06,82.48
		c0,0.01,0.01,0.01,0.01,0.01s0,0,0-0.01H90.06z M90.35,82.09c0,0.01,0,0.02,0,0.02l0.01-0.01C90.36,82.09,90.35,82.09,90.35,82.09z
		 M90.75,72.54l0.06-0.21h-0.02l-0.09,0.32c0.07,0.02,0.14,0.04,0.23,0.06c0.38,0.09,0.84,0.2,1.34,0.31
		c0.5,0.12,0.95,0.23,1.34,0.32c0.13,0.03,0.23,0.06,0.32,0.08l0.03-0.11L90.75,72.54z M90.75,72.54l0.06-0.21h-0.02l-0.09,0.32
		c0.07,0.02,0.14,0.04,0.23,0.06c0.38,0.09,0.84,0.2,1.34,0.31c0.5,0.12,0.95,0.23,1.34,0.32c0.13,0.03,0.23,0.06,0.32,0.08
		l0.03-0.11L90.75,72.54z M90.35,82.09c0,0.01,0,0.02,0,0.02l0.01-0.01C90.36,82.09,90.35,82.09,90.35,82.09z M90.06,82.48
		c0,0.01,0.01,0.01,0.01,0.01s0,0,0-0.01H90.06z M89.66,86.22c0,0,0.01,0.04,0.03,0.11c0.06-0.02,0.12-0.06,0.17-0.08
		C89.79,86.24,89.72,86.23,89.66,86.22z M89.01,86.7l-0.22,0.08c-0.01,0.01-0.01,0.01-0.02,0.02l0.02,0.03c0,0,0,0,0.01-0.01
		l0.21-0.11c0,0,0.01,0,0.02-0.01C89.02,86.7,89.02,86.7,89.01,86.7z M85.53,73.74l0.05,0.18h0.01L85.53,73.74z M85.53,73.74
		l0.05,0.18h0.01L85.53,73.74z M89.01,86.7l-0.22,0.08c-0.01,0.01-0.01,0.01-0.02,0.02l0.02,0.03c0,0,0,0,0.01-0.01l0.21-0.11
		c0,0,0.01,0,0.02-0.01C89.02,86.7,89.02,86.7,89.01,86.7z M89.66,86.22c0,0,0.01,0.04,0.03,0.11c0.06-0.02,0.12-0.06,0.17-0.08
		C89.79,86.24,89.72,86.23,89.66,86.22z M90.06,82.48c0,0.01,0.01,0.01,0.01,0.01s0,0,0-0.01H90.06z M90.35,82.09
		c0,0.01,0,0.02,0,0.02l0.01-0.01C90.36,82.09,90.35,82.09,90.35,82.09z M90.75,72.54l0.06-0.21h-0.02l-0.09,0.32
		c0.07,0.02,0.14,0.04,0.23,0.06c0.38,0.09,0.84,0.2,1.34,0.31c0.5,0.12,0.95,0.23,1.34,0.32c0.13,0.03,0.23,0.06,0.32,0.08
		l0.03-0.11L90.75,72.54z M90.75,72.54l0.06-0.21h-0.02l-0.09,0.32c0.07,0.02,0.14,0.04,0.23,0.06c0.38,0.09,0.84,0.2,1.34,0.31
		c0.5,0.12,0.95,0.23,1.34,0.32c0.13,0.03,0.23,0.06,0.32,0.08l0.03-0.11L90.75,72.54z M90.35,82.09c0,0.01,0,0.02,0,0.02l0.01-0.01
		C90.36,82.09,90.35,82.09,90.35,82.09z M90.06,82.48c0,0.01,0.01,0.01,0.01,0.01s0,0,0-0.01H90.06z M89.66,86.22
		c0,0,0.01,0.04,0.03,0.11c0.06-0.02,0.12-0.06,0.17-0.08C89.79,86.24,89.72,86.23,89.66,86.22z M89.01,86.7l-0.22,0.08
		c-0.01,0.01-0.01,0.01-0.02,0.02l0.02,0.03c0,0,0,0,0.01-0.01l0.21-0.11c0,0,0.01,0,0.02-0.01C89.02,86.7,89.02,86.7,89.01,86.7z
		 M85.53,73.74l0.05,0.18h0.01L85.53,73.74z M85.53,73.74l0.05,0.18h0.01L85.53,73.74z M89.01,86.7l-0.22,0.08
		c-0.01,0.01-0.01,0.01-0.02,0.02l0.02,0.03c0,0,0,0,0.01-0.01l0.21-0.11c0,0,0.01,0,0.02-0.01C89.02,86.7,89.02,86.7,89.01,86.7z
		 M89.66,86.22c0,0,0.01,0.04,0.03,0.11c0.06-0.02,0.12-0.06,0.17-0.08C89.79,86.24,89.72,86.23,89.66,86.22z M90.06,82.48
		c0,0.01,0.01,0.01,0.01,0.01s0,0,0-0.01H90.06z M90.35,82.09c0,0.01,0,0.02,0,0.02l0.01-0.01C90.36,82.09,90.35,82.09,90.35,82.09z
		 M90.75,72.54l0.06-0.21h-0.02l-0.09,0.32c0.07,0.02,0.14,0.04,0.23,0.06c0.38,0.09,0.84,0.2,1.34,0.31
		c0.5,0.12,0.95,0.23,1.34,0.32c0.13,0.03,0.23,0.06,0.32,0.08l0.03-0.11L90.75,72.54z M90.75,72.54l0.06-0.21h-0.02l-0.09,0.32
		c0.07,0.02,0.14,0.04,0.23,0.06c0.38,0.09,0.84,0.2,1.34,0.31c0.5,0.12,0.95,0.23,1.34,0.32c0.13,0.03,0.23,0.06,0.32,0.08
		l0.03-0.11L90.75,72.54z M90.35,82.09c0,0.01,0,0.02,0,0.02l0.01-0.01C90.36,82.09,90.35,82.09,90.35,82.09z M90.06,82.48
		c0,0.01,0.01,0.01,0.01,0.01s0,0,0-0.01H90.06z M89.66,86.22c0,0,0.01,0.04,0.03,0.11c0.06-0.02,0.12-0.06,0.17-0.08
		C89.79,86.24,89.72,86.23,89.66,86.22z M89.01,86.7l-0.22,0.08c-0.01,0.01-0.01,0.01-0.02,0.02l0.02,0.03c0,0,0,0,0.01-0.01
		l0.21-0.11c0,0,0.01,0,0.02-0.01C89.02,86.7,89.02,86.7,89.01,86.7z M85.53,73.74l0.05,0.18h0.01L85.53,73.74z M85.53,73.74
		l0.05,0.18h0.01L85.53,73.74z M89.01,86.7l-0.22,0.08c-0.01,0.01-0.01,0.01-0.02,0.02l0.02,0.03c0,0,0,0,0.01-0.01l0.21-0.11
		c0,0,0.01,0,0.02-0.01C89.02,86.7,89.02,86.7,89.01,86.7z M89.66,86.22c0,0,0.01,0.04,0.03,0.11c0.06-0.02,0.12-0.06,0.17-0.08
		C89.79,86.24,89.72,86.23,89.66,86.22z M90.06,82.48c0,0.01,0.01,0.01,0.01,0.01s0,0,0-0.01H90.06z M90.35,82.09
		c0,0.01,0,0.02,0,0.02l0.01-0.01C90.36,82.09,90.35,82.09,90.35,82.09z M90.75,72.54l0.06-0.21h-0.02l-0.09,0.32
		c0.07,0.02,0.14,0.04,0.23,0.06c0.38,0.09,0.84,0.2,1.34,0.31c0.5,0.12,0.95,0.23,1.34,0.32c0.13,0.03,0.23,0.06,0.32,0.08
		l0.03-0.11L90.75,72.54z M90.75,72.54l0.06-0.21h-0.02l-0.09,0.32c0.07,0.02,0.14,0.04,0.23,0.06c0.38,0.09,0.84,0.2,1.34,0.31
		c0.5,0.12,0.95,0.23,1.34,0.32c0.13,0.03,0.23,0.06,0.32,0.08l0.03-0.11L90.75,72.54z M90.35,82.09c0,0.01,0,0.02,0,0.02l0.01-0.01
		C90.36,82.09,90.35,82.09,90.35,82.09z M90.06,82.48c0,0.01,0.01,0.01,0.01,0.01s0,0,0-0.01H90.06z M89.66,86.22
		c0,0,0.01,0.04,0.03,0.11c0.06-0.02,0.12-0.06,0.17-0.08C89.79,86.24,89.72,86.23,89.66,86.22z M89.01,86.7l-0.22,0.08
		c-0.01,0.01-0.01,0.01-0.02,0.02l0.02,0.03c0,0,0,0,0.01-0.01l0.21-0.11c0,0,0.01,0,0.02-0.01C89.02,86.7,89.02,86.7,89.01,86.7z
		 M85.53,73.74l0.05,0.18h0.01L85.53,73.74z M85.53,73.74l0.05,0.18h0.01L85.53,73.74z M89.01,86.7l-0.22,0.08
		c-0.01,0.01-0.01,0.01-0.02,0.02l0.02,0.03c0,0,0,0,0.01-0.01l0.21-0.11c0,0,0.01,0,0.02-0.01C89.02,86.7,89.02,86.7,89.01,86.7z
		 M89.66,86.22c0,0,0.01,0.04,0.03,0.11c0.06-0.02,0.12-0.06,0.17-0.08C89.79,86.24,89.72,86.23,89.66,86.22z M90.06,82.48
		c0,0.01,0.01,0.01,0.01,0.01s0,0,0-0.01H90.06z M90.35,82.09c0,0.01,0,0.02,0,0.02l0.01-0.01C90.36,82.09,90.35,82.09,90.35,82.09z
		 M90.75,72.54l0.06-0.21h-0.02l-0.09,0.32c0.07,0.02,0.14,0.04,0.23,0.06c0.38,0.09,0.84,0.2,1.34,0.31
		c0.5,0.12,0.95,0.23,1.34,0.32c0.13,0.03,0.23,0.06,0.32,0.08l0.03-0.11L90.75,72.54z M90.75,72.54l0.06-0.21h-0.02l-0.09,0.32
		c0.07,0.02,0.14,0.04,0.23,0.06c0.38,0.09,0.84,0.2,1.34,0.31c0.5,0.12,0.95,0.23,1.34,0.32c0.13,0.03,0.23,0.06,0.32,0.08
		l0.03-0.11L90.75,72.54z M90.35,82.09c0,0.01,0,0.02,0,0.02l0.01-0.01C90.36,82.09,90.35,82.09,90.35,82.09z M90.06,82.48
		c0,0.01,0.01,0.01,0.01,0.01s0,0,0-0.01H90.06z M89.66,86.22c0,0,0.01,0.04,0.03,0.11c0.06-0.02,0.12-0.06,0.17-0.08
		C89.79,86.24,89.72,86.23,89.66,86.22z M89.01,86.7l-0.22,0.08c-0.01,0.01-0.01,0.01-0.02,0.02l0.02,0.03c0,0,0,0,0.01-0.01
		l0.21-0.11c0,0,0.01,0,0.02-0.01C89.02,86.7,89.02,86.7,89.01,86.7z M85.53,73.74l0.05,0.18h0.01L85.53,73.74z M85.53,73.74
		l0.05,0.18h0.01L85.53,73.74z M89.01,86.7l-0.22,0.08c-0.01,0.01-0.01,0.01-0.02,0.02l0.02,0.03c0,0,0,0,0.01-0.01l0.21-0.11
		c0,0,0.01,0,0.02-0.01C89.02,86.7,89.02,86.7,89.01,86.7z M89.66,86.22c0,0,0.01,0.04,0.03,0.11c0.06-0.02,0.12-0.06,0.17-0.08
		C89.79,86.24,89.72,86.23,89.66,86.22z M90.06,82.48c0,0.01,0.01,0.01,0.01,0.01s0,0,0-0.01H90.06z M90.35,82.09
		c0,0.01,0,0.02,0,0.02l0.01-0.01C90.36,82.09,90.35,82.09,90.35,82.09z M90.75,72.54l0.06-0.21h-0.02l-0.09,0.32
		c0.07,0.02,0.14,0.04,0.23,0.06c0.38,0.09,0.84,0.2,1.34,0.31c0.5,0.12,0.95,0.23,1.34,0.32c0.13,0.03,0.23,0.06,0.32,0.08
		l0.03-0.11L90.75,72.54z M90.75,72.54l0.06-0.21h-0.02l-0.09,0.32c0.07,0.02,0.14,0.04,0.23,0.06c0.38,0.09,0.84,0.2,1.34,0.31
		c0.5,0.12,0.95,0.23,1.34,0.32c0.13,0.03,0.23,0.06,0.32,0.08l0.03-0.11L90.75,72.54z M90.35,82.09c0,0.01,0,0.02,0,0.02l0.01-0.01
		C90.36,82.09,90.35,82.09,90.35,82.09z M90.06,82.48c0,0.01,0.01,0.01,0.01,0.01s0,0,0-0.01H90.06z M89.66,86.22
		c0,0,0.01,0.04,0.03,0.11c0.06-0.02,0.12-0.06,0.17-0.08C89.79,86.24,89.72,86.23,89.66,86.22z M89.01,86.7l-0.22,0.08
		c-0.01,0.01-0.01,0.01-0.02,0.02l0.02,0.03c0,0,0,0,0.01-0.01l0.21-0.11c0,0,0.01,0,0.02-0.01C89.02,86.7,89.02,86.7,89.01,86.7z
		 M85.53,73.74l0.05,0.18h0.01L85.53,73.74z M85.53,73.74l0.05,0.18h0.01L85.53,73.74z M89.01,86.7l-0.22,0.08
		c-0.01,0.01-0.01,0.01-0.02,0.02l0.02,0.03c0,0,0,0,0.01-0.01l0.21-0.11c0,0,0.01,0,0.02-0.01C89.02,86.7,89.02,86.7,89.01,86.7z
		 M89.66,86.22c0,0,0.01,0.04,0.03,0.11c0.06-0.02,0.12-0.06,0.17-0.08C89.79,86.24,89.72,86.23,89.66,86.22z M90.06,82.48
		c0,0.01,0.01,0.01,0.01,0.01s0,0,0-0.01H90.06z M90.35,82.09c0,0.01,0,0.02,0,0.02l0.01-0.01C90.36,82.09,90.35,82.09,90.35,82.09z
		 M90.75,72.54l0.06-0.21h-0.02l-0.09,0.32c0.07,0.02,0.14,0.04,0.23,0.06c0.38,0.09,0.84,0.2,1.34,0.31
		c0.5,0.12,0.95,0.23,1.34,0.32c0.13,0.03,0.23,0.06,0.32,0.08l0.03-0.11L90.75,72.54z M90.75,72.54l0.06-0.21h-0.02l-0.09,0.32
		c0.07,0.02,0.14,0.04,0.23,0.06c0.38,0.09,0.84,0.2,1.34,0.31c0.5,0.12,0.95,0.23,1.34,0.32c0.13,0.03,0.23,0.06,0.32,0.08
		l0.03-0.11L90.75,72.54z M90.35,82.11L90.35,82.11c0.01-0.02,0-0.02,0-0.02C90.35,82.1,90.35,82.11,90.35,82.11z M90.07,82.49
		C90.07,82.49,90.07,82.49,90.07,82.49l-0.01-0.01C90.06,82.49,90.07,82.49,90.07,82.49z M89.69,86.33
		c0.06-0.02,0.12-0.06,0.17-0.08c-0.07-0.01-0.14-0.02-0.2-0.03C89.66,86.22,89.67,86.26,89.69,86.33z M88.79,86.78
		c-0.01,0.01-0.01,0.01-0.02,0.02l0.02,0.03c0,0,0,0,0.01-0.01l0.21-0.11c0,0,0.01,0,0.02-0.01c-0.01,0-0.01,0-0.02,0L88.79,86.78z
		 M85.58,73.92h0.01l-0.06-0.18L85.58,73.92z M88.83,24.74c-27.62,0-50,22.39-50,50c0,27.62,22.38,50,50,50c27.61,0,50-22.38,50-50
		C138.83,47.13,116.44,24.74,88.83,24.74z M104.57,41.74c-2.3,5.39-8.74,26.28-8.74,26.28L92.1,81.35c0.16,0.38,0.45,1.13,0.86,2.13
		c0.09-0.03,0.17-0.04,0.23-0.04c0.04,0,0.1,0,0.38,0.39c0.17,0.25,0.43,0.64,0.8,1.27c0.01-0.01,0.02-0.01,0.03-0.01
		c0.12,0,0.23,0.05,0.29,0.15l0.64,1.19c0.08,0.14,0.01,0.3-0.14,0.37c-0.16,0.06-0.34,0-0.41-0.13l-0.65-1.19
		c-0.05-0.1-0.03-0.21,0.04-0.29c-0.48-0.79-0.88-1.43-1.01-1.54c-0.03,0-0.08,0.01-0.13,0.02c2.27,5.67,7.62,18.91,9.7,23.01
		c2.45,4.8-0.89,5.85-1.49,6l0.01,0.01c0,0-3.74,1.81-5.15-3.82c-0.87-3.45-3.77-12.73-5.88-19.38c-1.51,6.62-3.47,15.49-3.93,18.9
		c-0.72,5.23-4.19,4.61-4.79,4.46v0.01c0,0-4.26-0.15-2.18-5.61c1.59-4.21,5.81-17.75,7.66-23.75c-0.06-0.01-0.1-0.01-0.13-0.01
		c-0.09,0.15-0.36,0.8-0.65,1.54c0.09,0.04,0.15,0.13,0.15,0.23c0,0.03,0,0.05-0.01,0.08l-0.43,1.27c-0.04,0.14-0.22,0.22-0.38,0.18
		c-0.16-0.04-0.26-0.19-0.21-0.34l0.43-1.27c0.02-0.09,0.1-0.15,0.2-0.18c0,0,0,0,0.01,0c0.65-1.63,0.72-1.67,0.76-1.69
		c0.02-0.01,0.08-0.04,0.32,0c0.19-0.61,0.36-1.14,0.49-1.56l0.09-0.31l-4.43-12.65c0,0-7.84-20.42-10.46-25.7
		c-2.39-4.83,0.96-5.85,1.56-5.99l-0.01-0.01c0,0,3.99-1.51,5.18,4.16c1.18,5.67,7.87,26.49,7.87,26.49l2.31,6.59l2.04-7.3
		c0,0,5.21-21.07,6.05-26.78c0.77-5.23,4.24-4.58,4.83-4.42v-0.01C102.56,35.82,106.86,36.34,104.57,41.74z M90.81,72.33h-0.02
		l-0.09,0.32c0.07,0.02,0.14,0.04,0.23,0.06c0.38,0.09,0.84,0.2,1.34,0.31c0.5,0.12,0.95,0.23,1.34,0.32
		c0.13,0.03,0.23,0.06,0.32,0.08l0.03-0.11l-3.21-0.77L90.81,72.33z M90.35,82.11L90.35,82.11c0.01-0.02,0-0.02,0-0.02
		C90.35,82.1,90.35,82.11,90.35,82.11z M90.07,82.49C90.07,82.49,90.07,82.49,90.07,82.49l-0.01-0.01
		C90.06,82.49,90.07,82.49,90.07,82.49z M89.69,86.33c0.06-0.02,0.12-0.06,0.17-0.08c-0.07-0.01-0.14-0.02-0.2-0.03
		C89.66,86.22,89.67,86.26,89.69,86.33z M88.79,86.78c-0.01,0.01-0.01,0.01-0.02,0.02l0.02,0.03c0,0,0,0,0.01-0.01l0.21-0.11
		c0,0,0.01,0,0.02-0.01c-0.01,0-0.01,0-0.02,0L88.79,86.78z M85.58,73.92h0.01l-0.06-0.18L85.58,73.92z M85.53,73.74l0.05,0.18h0.01
		L85.53,73.74z M89.01,86.7l-0.22,0.08c-0.01,0.01-0.01,0.01-0.02,0.02l0.02,0.03c0,0,0,0,0.01-0.01l0.21-0.11c0,0,0.01,0,0.02-0.01
		C89.02,86.7,89.02,86.7,89.01,86.7z M89.66,86.22c0,0,0.01,0.04,0.03,0.11c0.06-0.02,0.12-0.06,0.17-0.08
		C89.79,86.24,89.72,86.23,89.66,86.22z M90.06,82.48c0,0.01,0.01,0.01,0.01,0.01s0,0,0-0.01H90.06z M90.35,82.09
		c0,0.01,0,0.02,0,0.02l0.01-0.01C90.36,82.09,90.35,82.09,90.35,82.09z M90.75,72.54l0.06-0.21h-0.02l-0.09,0.32
		c0.07,0.02,0.14,0.04,0.23,0.06c0.38,0.09,0.84,0.2,1.34,0.31c0.5,0.12,0.95,0.23,1.34,0.32c0.13,0.03,0.23,0.06,0.32,0.08
		l0.03-0.11L90.75,72.54z M90.75,72.54l0.06-0.21h-0.02l-0.09,0.32c0.07,0.02,0.14,0.04,0.23,0.06c0.38,0.09,0.84,0.2,1.34,0.31
		c0.5,0.12,0.95,0.23,1.34,0.32c0.13,0.03,0.23,0.06,0.32,0.08l0.03-0.11L90.75,72.54z M90.35,82.09c0,0.01,0,0.02,0,0.02l0.01-0.01
		C90.36,82.09,90.35,82.09,90.35,82.09z M90.06,82.48c0,0.01,0.01,0.01,0.01,0.01s0,0,0-0.01H90.06z M89.66,86.22
		c0,0,0.01,0.04,0.03,0.11c0.06-0.02,0.12-0.06,0.17-0.08C89.79,86.24,89.72,86.23,89.66,86.22z M89.01,86.7l-0.22,0.08
		c-0.01,0.01-0.01,0.01-0.02,0.02l0.02,0.03c0,0,0,0,0.01-0.01l0.21-0.11c0,0,0.01,0,0.02-0.01C89.02,86.7,89.02,86.7,89.01,86.7z
		 M85.53,73.74l0.05,0.18h0.01L85.53,73.74z M85.53,73.74l0.05,0.18h0.01L85.53,73.74z M89.01,86.7l-0.22,0.08
		c-0.01,0.01-0.01,0.01-0.02,0.02l0.02,0.03c0,0,0,0,0.01-0.01l0.21-0.11c0,0,0.01,0,0.02-0.01C89.02,86.7,89.02,86.7,89.01,86.7z
		 M89.66,86.22c0,0,0.01,0.04,0.03,0.11c0.06-0.02,0.12-0.06,0.17-0.08C89.79,86.24,89.72,86.23,89.66,86.22z M90.06,82.48
		c0,0.01,0.01,0.01,0.01,0.01s0,0,0-0.01H90.06z M90.35,82.09c0,0.01,0,0.02,0,0.02l0.01-0.01C90.36,82.09,90.35,82.09,90.35,82.09z
		 M90.75,72.54l0.06-0.21h-0.02l-0.09,0.32c0.07,0.02,0.14,0.04,0.23,0.06c0.38,0.09,0.84,0.2,1.34,0.31
		c0.5,0.12,0.95,0.23,1.34,0.32c0.13,0.03,0.23,0.06,0.32,0.08l0.03-0.11L90.75,72.54z M90.75,72.54l0.06-0.21h-0.02l-0.09,0.32
		c0.07,0.02,0.14,0.04,0.23,0.06c0.38,0.09,0.84,0.2,1.34,0.31c0.5,0.12,0.95,0.23,1.34,0.32c0.13,0.03,0.23,0.06,0.32,0.08
		l0.03-0.11L90.75,72.54z M90.35,82.09c0,0.01,0,0.02,0,0.02l0.01-0.01C90.36,82.09,90.35,82.09,90.35,82.09z M90.06,82.48
		c0,0.01,0.01,0.01,0.01,0.01s0,0,0-0.01H90.06z M89.66,86.22c0,0,0.01,0.04,0.03,0.11c0.06-0.02,0.12-0.06,0.17-0.08
		C89.79,86.24,89.72,86.23,89.66,86.22z M89.01,86.7l-0.22,0.08c-0.01,0.01-0.01,0.01-0.02,0.02l0.02,0.03c0,0,0,0,0.01-0.01
		l0.21-0.11c0,0,0.01,0,0.02-0.01C89.02,86.7,89.02,86.7,89.01,86.7z M85.53,73.74l0.05,0.18h0.01L85.53,73.74z M85.53,73.74
		l0.05,0.18h0.01L85.53,73.74z M89.01,86.7l-0.22,0.08c-0.01,0.01-0.01,0.01-0.02,0.02l0.02,0.03c0,0,0,0,0.01-0.01l0.21-0.11
		c0,0,0.01,0,0.02-0.01C89.02,86.7,89.02,86.7,89.01,86.7z M89.66,86.22c0,0,0.01,0.04,0.03,0.11c0.06-0.02,0.12-0.06,0.17-0.08
		C89.79,86.24,89.72,86.23,89.66,86.22z M90.06,82.48c0,0.01,0.01,0.01,0.01,0.01s0,0,0-0.01H90.06z M90.35,82.09
		c0,0.01,0,0.02,0,0.02l0.01-0.01C90.36,82.09,90.35,82.09,90.35,82.09z M90.75,72.54l0.06-0.21h-0.02l-0.09,0.32
		c0.07,0.02,0.14,0.04,0.23,0.06c0.38,0.09,0.84,0.2,1.34,0.31c0.5,0.12,0.95,0.23,1.34,0.32c0.13,0.03,0.23,0.06,0.32,0.08
		l0.03-0.11L90.75,72.54z M90.75,72.54l0.06-0.21h-0.02l-0.09,0.32c0.07,0.02,0.14,0.04,0.23,0.06c0.38,0.09,0.84,0.2,1.34,0.31
		c0.5,0.12,0.95,0.23,1.34,0.32c0.13,0.03,0.23,0.06,0.32,0.08l0.03-0.11L90.75,72.54z M90.35,82.09c0,0.01,0,0.02,0,0.02l0.01-0.01
		C90.36,82.09,90.35,82.09,90.35,82.09z M90.06,82.48c0,0.01,0.01,0.01,0.01,0.01s0,0,0-0.01H90.06z M89.66,86.22
		c0,0,0.01,0.04,0.03,0.11c0.06-0.02,0.12-0.06,0.17-0.08C89.79,86.24,89.72,86.23,89.66,86.22z M89.01,86.7l-0.22,0.08
		c-0.01,0.01-0.01,0.01-0.02,0.02l0.02,0.03c0,0,0,0,0.01-0.01l0.21-0.11c0,0,0.01,0,0.02-0.01C89.02,86.7,89.02,86.7,89.01,86.7z
		 M85.53,73.74l0.05,0.18h0.01L85.53,73.74z M85.53,73.74l0.05,0.18h0.01L85.53,73.74z M89.01,86.7l-0.22,0.08
		c-0.01,0.01-0.01,0.01-0.02,0.02l0.02,0.03c0,0,0,0,0.01-0.01l0.21-0.11c0,0,0.01,0,0.02-0.01C89.02,86.7,89.02,86.7,89.01,86.7z
		 M89.66,86.22c0,0,0.01,0.04,0.03,0.11c0.06-0.02,0.12-0.06,0.17-0.08C89.79,86.24,89.72,86.23,89.66,86.22z M90.06,82.48
		c0,0.01,0.01,0.01,0.01,0.01s0,0,0-0.01H90.06z M90.35,82.09c0,0.01,0,0.02,0,0.02l0.01-0.01C90.36,82.09,90.35,82.09,90.35,82.09z
		 M90.75,72.54l0.06-0.21h-0.02l-0.09,0.32c0.07,0.02,0.14,0.04,0.23,0.06c0.38,0.09,0.84,0.2,1.34,0.31
		c0.5,0.12,0.95,0.23,1.34,0.32c0.13,0.03,0.23,0.06,0.32,0.08l0.03-0.11L90.75,72.54z M90.75,72.54l0.06-0.21h-0.02l-0.09,0.32
		c0.07,0.02,0.14,0.04,0.23,0.06c0.38,0.09,0.84,0.2,1.34,0.31c0.5,0.12,0.95,0.23,1.34,0.32c0.13,0.03,0.23,0.06,0.32,0.08
		l0.03-0.11L90.75,72.54z M90.35,82.09c0,0.01,0,0.02,0,0.02l0.01-0.01C90.36,82.09,90.35,82.09,90.35,82.09z M90.06,82.48
		c0,0.01,0.01,0.01,0.01,0.01s0,0,0-0.01H90.06z M89.66,86.22c0,0,0.01,0.04,0.03,0.11c0.06-0.02,0.12-0.06,0.17-0.08
		C89.79,86.24,89.72,86.23,89.66,86.22z M89.01,86.7l-0.22,0.08c-0.01,0.01-0.01,0.01-0.02,0.02l0.02,0.03c0,0,0,0,0.01-0.01
		l0.21-0.11c0,0,0.01,0,0.02-0.01C89.02,86.7,89.02,86.7,89.01,86.7z M85.53,73.74l0.05,0.18h0.01L85.53,73.74z M85.53,73.74
		l0.05,0.18h0.01L85.53,73.74z M89.01,86.7l-0.22,0.08c-0.01,0.01-0.01,0.01-0.02,0.02l0.02,0.03c0,0,0,0,0.01-0.01l0.21-0.11
		c0,0,0.01,0,0.02-0.01C89.02,86.7,89.02,86.7,89.01,86.7z M89.66,86.22c0,0,0.01,0.04,0.03,0.11c0.06-0.02,0.12-0.06,0.17-0.08
		C89.79,86.24,89.72,86.23,89.66,86.22z M90.06,82.48c0,0.01,0.01,0.01,0.01,0.01s0,0,0-0.01H90.06z M90.35,82.09
		c0,0.01,0,0.02,0,0.02l0.01-0.01C90.36,82.09,90.35,82.09,90.35,82.09z M90.75,72.54l0.06-0.21h-0.02l-0.09,0.32
		c0.07,0.02,0.14,0.04,0.23,0.06c0.38,0.09,0.84,0.2,1.34,0.31c0.5,0.12,0.95,0.23,1.34,0.32c0.13,0.03,0.23,0.06,0.32,0.08
		l0.03-0.11L90.75,72.54z M90.75,72.54l0.06-0.21h-0.02l-0.09,0.32c0.07,0.02,0.14,0.04,0.23,0.06c0.38,0.09,0.84,0.2,1.34,0.31
		c0.5,0.12,0.95,0.23,1.34,0.32c0.13,0.03,0.23,0.06,0.32,0.08l0.03-0.11L90.75,72.54z M90.35,82.09c0,0.01,0,0.02,0,0.02l0.01-0.01
		C90.36,82.09,90.35,82.09,90.35,82.09z M90.06,82.48c0,0.01,0.01,0.01,0.01,0.01s0,0,0-0.01H90.06z M89.66,86.22
		c0,0,0.01,0.04,0.03,0.11c0.06-0.02,0.12-0.06,0.17-0.08C89.79,86.24,89.72,86.23,89.66,86.22z M89.01,86.7l-0.22,0.08
		c-0.01,0.01-0.01,0.01-0.02,0.02l0.02,0.03c0,0,0,0,0.01-0.01l0.21-0.11c0,0,0.01,0,0.02-0.01C89.02,86.7,89.02,86.7,89.01,86.7z
		 M85.53,73.74l0.05,0.18h0.01L85.53,73.74z M85.53,73.74l0.05,0.18h0.01L85.53,73.74z M89.01,86.7l-0.22,0.08
		c-0.01,0.01-0.01,0.01-0.02,0.02l0.02,0.03c0,0,0,0,0.01-0.01l0.21-0.11c0,0,0.01,0,0.02-0.01C89.02,86.7,89.02,86.7,89.01,86.7z
		 M89.66,86.22c0,0,0.01,0.04,0.03,0.11c0.06-0.02,0.12-0.06,0.17-0.08C89.79,86.24,89.72,86.23,89.66,86.22z M90.06,82.48
		c0,0.01,0.01,0.01,0.01,0.01s0,0,0-0.01H90.06z M90.35,82.09c0,0.01,0,0.02,0,0.02l0.01-0.01C90.36,82.09,90.35,82.09,90.35,82.09z
		 M90.75,72.54l0.06-0.21h-0.02l-0.09,0.32c0.07,0.02,0.14,0.04,0.23,0.06c0.38,0.09,0.84,0.2,1.34,0.31
		c0.5,0.12,0.95,0.23,1.34,0.32c0.13,0.03,0.23,0.06,0.32,0.08l0.03-0.11L90.75,72.54z M90.75,72.54l0.06-0.21h-0.02l-0.09,0.32
		c0.07,0.02,0.14,0.04,0.23,0.06c0.38,0.09,0.84,0.2,1.34,0.31c0.5,0.12,0.95,0.23,1.34,0.32c0.13,0.03,0.23,0.06,0.32,0.08
		l0.03-0.11L90.75,72.54z M90.35,82.09c0,0.01,0,0.02,0,0.02l0.01-0.01C90.36,82.09,90.35,82.09,90.35,82.09z M90.06,82.48
		c0,0.01,0.01,0.01,0.01,0.01s0,0,0-0.01H90.06z M89.66,86.22c0,0,0.01,0.04,0.03,0.11c0.06-0.02,0.12-0.06,0.17-0.08
		C89.79,86.24,89.72,86.23,89.66,86.22z M89.01,86.7l-0.22,0.08c-0.01,0.01-0.01,0.01-0.02,0.02l0.02,0.03c0,0,0,0,0.01-0.01
		l0.21-0.11c0,0,0.01,0,0.02-0.01C89.02,86.7,89.02,86.7,89.01,86.7z M85.53,73.74l0.05,0.18h0.01L85.53,73.74z M85.53,73.74
		l0.05,0.18h0.01L85.53,73.74z M89.01,86.7l-0.22,0.08c-0.01,0.01-0.01,0.01-0.02,0.02l0.02,0.03c0,0,0,0,0.01-0.01l0.21-0.11
		c0,0,0.01,0,0.02-0.01C89.02,86.7,89.02,86.7,89.01,86.7z M89.66,86.22c0,0,0.01,0.04,0.03,0.11c0.06-0.02,0.12-0.06,0.17-0.08
		C89.79,86.24,89.72,86.23,89.66,86.22z M90.06,82.48c0,0.01,0.01,0.01,0.01,0.01s0,0,0-0.01H90.06z M90.35,82.09
		c0,0.01,0,0.02,0,0.02l0.01-0.01C90.36,82.09,90.35,82.09,90.35,82.09z M90.75,72.54l0.06-0.21h-0.02l-0.09,0.32
		c0.07,0.02,0.14,0.04,0.23,0.06c0.38,0.09,0.84,0.2,1.34,0.31c0.5,0.12,0.95,0.23,1.34,0.32c0.13,0.03,0.23,0.06,0.32,0.08
		l0.03-0.11L90.75,72.54z M90.75,72.54l0.06-0.21h-0.02l-0.09,0.32c0.07,0.02,0.14,0.04,0.23,0.06c0.38,0.09,0.84,0.2,1.34,0.31
		c0.5,0.12,0.95,0.23,1.34,0.32c0.13,0.03,0.23,0.06,0.32,0.08l0.03-0.11L90.75,72.54z M90.35,82.09c0,0.01,0,0.02,0,0.02l0.01-0.01
		C90.36,82.09,90.35,82.09,90.35,82.09z M90.06,82.48c0,0.01,0.01,0.01,0.01,0.01s0,0,0-0.01H90.06z M89.66,86.22
		c0,0,0.01,0.04,0.03,0.11c0.06-0.02,0.12-0.06,0.17-0.08C89.79,86.24,89.72,86.23,89.66,86.22z M89.01,86.7l-0.22,0.08
		c-0.01,0.01-0.01,0.01-0.02,0.02l0.02,0.03c0,0,0,0,0.01-0.01l0.21-0.11c0,0,0.01,0,0.02-0.01C89.02,86.7,89.02,86.7,89.01,86.7z
		 M85.53,73.74l0.05,0.18h0.01L85.53,73.74z M85.53,73.74l0.05,0.18h0.01L85.53,73.74z M89.01,86.7l-0.22,0.08
		c-0.01,0.01-0.01,0.01-0.02,0.02l0.02,0.03c0,0,0,0,0.01-0.01l0.21-0.11c0,0,0.01,0,0.02-0.01C89.02,86.7,89.02,86.7,89.01,86.7z
		 M89.66,86.22c0,0,0.01,0.04,0.03,0.11c0.06-0.02,0.12-0.06,0.17-0.08C89.79,86.24,89.72,86.23,89.66,86.22z M90.06,82.48
		c0,0.01,0.01,0.01,0.01,0.01s0,0,0-0.01H90.06z M90.35,82.09c0,0.01,0,0.02,0,0.02l0.01-0.01C90.36,82.09,90.35,82.09,90.35,82.09z
		 M90.75,72.54l0.06-0.21h-0.02l-0.09,0.32c0.07,0.02,0.14,0.04,0.23,0.06c0.38,0.09,0.84,0.2,1.34,0.31
		c0.5,0.12,0.95,0.23,1.34,0.32c0.13,0.03,0.23,0.06,0.32,0.08l0.03-0.11L90.75,72.54z M90.75,72.54l0.06-0.21h-0.02l-0.09,0.32
		c0.07,0.02,0.14,0.04,0.23,0.06c0.38,0.09,0.84,0.2,1.34,0.31c0.5,0.12,0.95,0.23,1.34,0.32c0.13,0.03,0.23,0.06,0.32,0.08
		l0.03-0.11L90.75,72.54z M90.35,82.09c0,0.01,0,0.02,0,0.02l0.01-0.01C90.36,82.09,90.35,82.09,90.35,82.09z M90.06,82.48
		c0,0.01,0.01,0.01,0.01,0.01s0,0,0-0.01H90.06z M89.66,86.22c0,0,0.01,0.04,0.03,0.11c0.06-0.02,0.12-0.06,0.17-0.08
		C89.79,86.24,89.72,86.23,89.66,86.22z M89.01,86.7l-0.22,0.08c-0.01,0.01-0.01,0.01-0.02,0.02l0.02,0.03c0,0,0,0,0.01-0.01
		l0.21-0.11c0,0,0.01,0,0.02-0.01C89.02,86.7,89.02,86.7,89.01,86.7z M85.53,73.74l0.05,0.18h0.01L85.53,73.74z M85.53,73.74
		l0.05,0.18h0.01L85.53,73.74z M89.01,86.7l-0.22,0.08c-0.01,0.01-0.01,0.01-0.02,0.02l0.02,0.03c0,0,0,0,0.01-0.01l0.21-0.11
		c0,0,0.01,0,0.02-0.01C89.02,86.7,89.02,86.7,89.01,86.7z M89.66,86.22c0,0,0.01,0.04,0.03,0.11c0.06-0.02,0.12-0.06,0.17-0.08
		C89.79,86.24,89.72,86.23,89.66,86.22z M90.06,82.48c0,0.01,0.01,0.01,0.01,0.01s0,0,0-0.01H90.06z M90.35,82.09
		c0,0.01,0,0.02,0,0.02l0.01-0.01C90.36,82.09,90.35,82.09,90.35,82.09z M90.75,72.54l0.06-0.21h-0.02l-0.09,0.32
		c0.07,0.02,0.14,0.04,0.23,0.06c0.38,0.09,0.84,0.2,1.34,0.31c0.5,0.12,0.95,0.23,1.34,0.32c0.13,0.03,0.23,0.06,0.32,0.08
		l0.03-0.11L90.75,72.54z M90.75,72.54l0.06-0.21h-0.02l-0.09,0.32c0.07,0.02,0.14,0.04,0.23,0.06c0.38,0.09,0.84,0.2,1.34,0.31
		c0.5,0.12,0.95,0.23,1.34,0.32c0.13,0.03,0.23,0.06,0.32,0.08l0.03-0.11L90.75,72.54z M90.35,82.09c0,0.01,0,0.02,0,0.02l0.01-0.01
		C90.36,82.09,90.35,82.09,90.35,82.09z M90.06,82.48c0,0.01,0.01,0.01,0.01,0.01s0,0,0-0.01H90.06z M89.66,86.22
		c0,0,0.01,0.04,0.03,0.11c0.06-0.02,0.12-0.06,0.17-0.08C89.79,86.24,89.72,86.23,89.66,86.22z M89.01,86.7l-0.22,0.08
		c-0.01,0.01-0.01,0.01-0.02,0.02l0.02,0.03c0,0,0,0,0.01-0.01l0.21-0.11c0,0,0.01,0,0.02-0.01C89.02,86.7,89.02,86.7,89.01,86.7z
		 M85.53,73.74l0.05,0.18h0.01L85.53,73.74z M85.53,73.74l0.05,0.18h0.01L85.53,73.74z M89.01,86.7l-0.22,0.08
		c-0.01,0.01-0.01,0.01-0.02,0.02l0.02,0.03c0,0,0,0,0.01-0.01l0.21-0.11c0,0,0.01,0,0.02-0.01C89.02,86.7,89.02,86.7,89.01,86.7z
		 M89.66,86.22c0,0,0.01,0.04,0.03,0.11c0.06-0.02,0.12-0.06,0.17-0.08C89.79,86.24,89.72,86.23,89.66,86.22z M90.06,82.48
		c0,0.01,0.01,0.01,0.01,0.01s0,0,0-0.01H90.06z M90.35,82.09c0,0.01,0,0.02,0,0.02l0.01-0.01C90.36,82.09,90.35,82.09,90.35,82.09z
		 M90.75,72.54l0.06-0.21h-0.02l-0.09,0.32c0.07,0.02,0.14,0.04,0.23,0.06c0.38,0.09,0.84,0.2,1.34,0.31
		c0.5,0.12,0.95,0.23,1.34,0.32c0.13,0.03,0.23,0.06,0.32,0.08l0.03-0.11L90.75,72.54z M90.75,72.54l0.06-0.21h-0.02l-0.09,0.32
		c0.07,0.02,0.14,0.04,0.23,0.06c0.38,0.09,0.84,0.2,1.34,0.31c0.5,0.12,0.95,0.23,1.34,0.32c0.13,0.03,0.23,0.06,0.32,0.08
		l0.03-0.11L90.75,72.54z M90.35,82.09c0,0.01,0,0.02,0,0.02l0.01-0.01C90.36,82.09,90.35,82.09,90.35,82.09z M90.06,82.48
		c0,0.01,0.01,0.01,0.01,0.01s0,0,0-0.01H90.06z M89.66,86.22c0,0,0.01,0.04,0.03,0.11c0.06-0.02,0.12-0.06,0.17-0.08
		C89.79,86.24,89.72,86.23,89.66,86.22z M89.01,86.7l-0.22,0.08c-0.01,0.01-0.01,0.01-0.02,0.02l0.02,0.03c0,0,0,0,0.01-0.01
		l0.21-0.11c0,0,0.01,0,0.02-0.01C89.02,86.7,89.02,86.7,89.01,86.7z M85.53,73.74l0.05,0.18h0.01L85.53,73.74z M85.53,73.74
		l0.05,0.18h0.01L85.53,73.74z M89.01,86.7l-0.22,0.08c-0.01,0.01-0.01,0.01-0.02,0.02l0.02,0.03c0,0,0,0,0.01-0.01l0.21-0.11
		c0,0,0.01,0,0.02-0.01C89.02,86.7,89.02,86.7,89.01,86.7z M89.66,86.22c0,0,0.01,0.04,0.03,0.11c0.06-0.02,0.12-0.06,0.17-0.08
		C89.79,86.24,89.72,86.23,89.66,86.22z M90.06,82.48c0,0.01,0.01,0.01,0.01,0.01s0,0,0-0.01H90.06z M90.35,82.09
		c0,0.01,0,0.02,0,0.02l0.01-0.01C90.36,82.09,90.35,82.09,90.35,82.09z M90.75,72.54l0.06-0.21h-0.02l-0.09,0.32
		c0.07,0.02,0.14,0.04,0.23,0.06c0.38,0.09,0.84,0.2,1.34,0.31c0.5,0.12,0.95,0.23,1.34,0.32c0.13,0.03,0.23,0.06,0.32,0.08
		l0.03-0.11L90.75,72.54z M90.75,72.54l0.06-0.21h-0.02l-0.09,0.32c0.07,0.02,0.14,0.04,0.23,0.06c0.38,0.09,0.84,0.2,1.34,0.31
		c0.5,0.12,0.95,0.23,1.34,0.32c0.13,0.03,0.23,0.06,0.32,0.08l0.03-0.11L90.75,72.54z M90.35,82.09c0,0.01,0,0.02,0,0.02l0.01-0.01
		C90.36,82.09,90.35,82.09,90.35,82.09z M90.06,82.48c0,0.01,0.01,0.01,0.01,0.01s0,0,0-0.01H90.06z M89.66,86.22
		c0,0,0.01,0.04,0.03,0.11c0.06-0.02,0.12-0.06,0.17-0.08C89.79,86.24,89.72,86.23,89.66,86.22z M89.01,86.7l-0.22,0.08
		c-0.01,0.01-0.01,0.01-0.02,0.02l0.02,0.03c0,0,0,0,0.01-0.01l0.21-0.11c0,0,0.01,0,0.02-0.01C89.02,86.7,89.02,86.7,89.01,86.7z
		 M85.53,73.74l0.05,0.18h0.01L85.53,73.74z M85.53,73.74l0.05,0.18h0.01L85.53,73.74z M89.01,86.7l-0.22,0.08
		c-0.01,0.01-0.01,0.01-0.02,0.02l0.02,0.03c0,0,0,0,0.01-0.01l0.21-0.11c0,0,0.01,0,0.02-0.01C89.02,86.7,89.02,86.7,89.01,86.7z
		 M90.06,82.48c0,0.01,0.01,0.01,0.01,0.01s0,0,0-0.01H90.06z M90.35,82.09c0,0.01,0,0.02,0,0.02l0.01-0.01
		C90.36,82.09,90.35,82.09,90.35,82.09z M90.75,72.54l0.06-0.21h-0.02l-0.09,0.32c0.07,0.02,0.14,0.04,0.23,0.06
		c0.38,0.09,0.84,0.2,1.34,0.31c0.5,0.12,0.95,0.23,1.34,0.32c0.13,0.03,0.23,0.06,0.32,0.08l0.03-0.11L90.75,72.54z M89.66,86.22
		c0,0,0.01,0.04,0.03,0.11c0.06-0.02,0.12-0.06,0.17-0.08C89.79,86.24,89.72,86.23,89.66,86.22z M90.75,72.54l0.06-0.21h-0.02
		l-0.09,0.32c0.07,0.02,0.14,0.04,0.23,0.06c0.38,0.09,0.84,0.2,1.34,0.31c0.5,0.12,0.95,0.23,1.34,0.32
		c0.13,0.03,0.23,0.06,0.32,0.08l0.03-0.11L90.75,72.54z M89.66,86.22c0,0,0.01,0.04,0.03,0.11c0.06-0.02,0.12-0.06,0.17-0.08
		C89.79,86.24,89.72,86.23,89.66,86.22z M90.35,82.09c0,0.01,0,0.02,0,0.02l0.01-0.01C90.36,82.09,90.35,82.09,90.35,82.09z
		 M90.06,82.48c0,0.01,0.01,0.01,0.01,0.01s0,0,0-0.01H90.06z M89.01,86.7l-0.22,0.08c-0.01,0.01-0.01,0.01-0.02,0.02l0.02,0.03
		c0,0,0,0,0.01-0.01l0.21-0.11c0,0,0.01,0,0.02-0.01C89.02,86.7,89.02,86.7,89.01,86.7z M85.53,73.74l0.05,0.18h0.01L85.53,73.74z
		 M85.53,73.74l0.05,0.18h0.01L85.53,73.74z M89.01,86.7l-0.22,0.08c-0.01,0.01-0.01,0.01-0.02,0.02l0.02,0.03c0,0,0,0,0.01-0.01
		l0.21-0.11c0,0,0.01,0,0.02-0.01C89.02,86.7,89.02,86.7,89.01,86.7z M90.06,82.48c0,0.01,0.01,0.01,0.01,0.01s0,0,0-0.01H90.06z
		 M90.35,82.09c0,0.01,0,0.02,0,0.02l0.01-0.01C90.36,82.09,90.35,82.09,90.35,82.09z M90.75,72.54l0.06-0.21h-0.02l-0.09,0.32
		c0.07,0.02,0.14,0.04,0.23,0.06c0.38,0.09,0.84,0.2,1.34,0.31c0.5,0.12,0.95,0.23,1.34,0.32c0.13,0.03,0.23,0.06,0.32,0.08
		l0.03-0.11L90.75,72.54z M89.66,86.22c0,0,0.01,0.04,0.03,0.11c0.06-0.02,0.12-0.06,0.17-0.08C89.79,86.24,89.72,86.23,89.66,86.22
		z M90.75,72.54l0.06-0.21h-0.02l-0.09,0.32c0.07,0.02,0.14,0.04,0.23,0.06c0.38,0.09,0.84,0.2,1.34,0.31
		c0.5,0.12,0.95,0.23,1.34,0.32c0.13,0.03,0.23,0.06,0.32,0.08l0.03-0.11L90.75,72.54z M89.66,86.22c0,0,0.01,0.04,0.03,0.11
		c0.06-0.02,0.12-0.06,0.17-0.08C89.79,86.24,89.72,86.23,89.66,86.22z M90.35,82.09c0,0.01,0,0.02,0,0.02l0.01-0.01
		C90.36,82.09,90.35,82.09,90.35,82.09z M90.06,82.48c0,0.01,0.01,0.01,0.01,0.01s0,0,0-0.01H90.06z M89.01,86.7l-0.22,0.08
		c-0.01,0.01-0.01,0.01-0.02,0.02l0.02,0.03c0,0,0,0,0.01-0.01l0.21-0.11c0,0,0.01,0,0.02-0.01C89.02,86.7,89.02,86.7,89.01,86.7z
		 M85.53,73.74l0.05,0.18h0.01L85.53,73.74z M85.53,73.74l0.05,0.18h0.01L85.53,73.74z M89.01,86.7l-0.22,0.08
		c-0.01,0.01-0.01,0.01-0.02,0.02l0.02,0.03c0,0,0,0,0.01-0.01l0.21-0.11c0,0,0.01,0,0.02-0.01C89.02,86.7,89.02,86.7,89.01,86.7z
		 M90.06,82.48c0,0.01,0.01,0.01,0.01,0.01s0,0,0-0.01H90.06z M90.35,82.09c0,0.01,0,0.02,0,0.02l0.01-0.01
		C90.36,82.09,90.35,82.09,90.35,82.09z M90.75,72.54l0.06-0.21h-0.02l-0.09,0.32c0.07,0.02,0.14,0.04,0.23,0.06
		c0.38,0.09,0.84,0.2,1.34,0.31c0.5,0.12,0.95,0.23,1.34,0.32c0.13,0.03,0.23,0.06,0.32,0.08l0.03-0.11L90.75,72.54z M89.66,86.22
		c0,0,0.01,0.04,0.03,0.11c0.06-0.02,0.12-0.06,0.17-0.08C89.79,86.24,89.72,86.23,89.66,86.22z M90.75,72.54l0.06-0.21h-0.02
		l-0.09,0.32c0.07,0.02,0.14,0.04,0.23,0.06c0.38,0.09,0.84,0.2,1.34,0.31c0.5,0.12,0.95,0.23,1.34,0.32
		c0.13,0.03,0.23,0.06,0.32,0.08l0.03-0.11L90.75,72.54z M89.66,86.22c0,0,0.01,0.04,0.03,0.11c0.06-0.02,0.12-0.06,0.17-0.08
		C89.79,86.24,89.72,86.23,89.66,86.22z M90.35,82.09c0,0.01,0,0.02,0,0.02l0.01-0.01C90.36,82.09,90.35,82.09,90.35,82.09z
		 M90.06,82.48c0,0.01,0.01,0.01,0.01,0.01s0,0,0-0.01H90.06z M89.01,86.7l-0.22,0.08c-0.01,0.01-0.01,0.01-0.02,0.02l0.02,0.03
		c0,0,0,0,0.01-0.01l0.21-0.11c0,0,0.01,0,0.02-0.01C89.02,86.7,89.02,86.7,89.01,86.7z M85.53,73.74l0.05,0.18h0.01L85.53,73.74z
		 M85.53,73.74l0.05,0.18h0.01L85.53,73.74z M89.01,86.7l-0.22,0.08c-0.01,0.01-0.01,0.01-0.02,0.02l0.02,0.03c0,0,0,0,0.01-0.01
		l0.21-0.11c0,0,0.01,0,0.02-0.01C89.02,86.7,89.02,86.7,89.01,86.7z M90.06,82.48c0,0.01,0.01,0.01,0.01,0.01s0,0,0-0.01H90.06z
		 M90.35,82.09c0,0.01,0,0.02,0,0.02l0.01-0.01C90.36,82.09,90.35,82.09,90.35,82.09z M90.75,72.54l0.06-0.21h-0.02l-0.09,0.32
		c0.07,0.02,0.14,0.04,0.23,0.06c0.38,0.09,0.84,0.2,1.34,0.31c0.5,0.12,0.95,0.23,1.34,0.32c0.13,0.03,0.23,0.06,0.32,0.08
		l0.03-0.11L90.75,72.54z M89.66,86.22c0,0,0.01,0.04,0.03,0.11c0.06-0.02,0.12-0.06,0.17-0.08C89.79,86.24,89.72,86.23,89.66,86.22
		z M90.75,72.54l0.06-0.21h-0.02l-0.09,0.32c0.07,0.02,0.14,0.04,0.23,0.06c0.38,0.09,0.84,0.2,1.34,0.31
		c0.5,0.12,0.95,0.23,1.34,0.32c0.13,0.03,0.23,0.06,0.32,0.08l0.03-0.11L90.75,72.54z M89.66,86.22c0,0,0.01,0.04,0.03,0.11
		c0.06-0.02,0.12-0.06,0.17-0.08C89.79,86.24,89.72,86.23,89.66,86.22z M90.35,82.09c0,0.01,0,0.02,0,0.02l0.01-0.01
		C90.36,82.09,90.35,82.09,90.35,82.09z M90.06,82.48c0,0.01,0.01,0.01,0.01,0.01s0,0,0-0.01H90.06z M89.01,86.7l-0.22,0.08
		c-0.01,0.01-0.01,0.01-0.02,0.02l0.02,0.03c0,0,0,0,0.01-0.01l0.21-0.11c0,0,0.01,0,0.02-0.01C89.02,86.7,89.02,86.7,89.01,86.7z
		 M85.53,73.74l0.05,0.18h0.01L85.53,73.74z M85.53,73.74l0.05,0.18h0.01L85.53,73.74z M90.35,82.09c0,0.01,0,0.02,0,0.02l0.01-0.01
		C90.36,82.09,90.35,82.09,90.35,82.09z M89.01,86.7l-0.22,0.08c-0.01,0.01-0.01,0.01-0.02,0.02l0.02,0.03c0,0,0,0,0.01-0.01
		l0.21-0.11c0,0,0.01,0,0.02-0.01C89.02,86.7,89.02,86.7,89.01,86.7z M90.06,82.48c0,0.01,0.01,0.01,0.01,0.01s0,0,0-0.01H90.06z
		 M90.75,72.54l0.06-0.21h-0.02l-0.09,0.32c0.07,0.02,0.14,0.04,0.23,0.06c0.38,0.09,0.84,0.2,1.34,0.31
		c0.5,0.12,0.95,0.23,1.34,0.32c0.13,0.03,0.23,0.06,0.32,0.08l0.03-0.11L90.75,72.54z M89.66,86.22c0,0,0.01,0.04,0.03,0.11
		c0.06-0.02,0.12-0.06,0.17-0.08C89.79,86.24,89.72,86.23,89.66,86.22z M90.75,72.54l0.06-0.21h-0.02l-0.09,0.32
		c0.07,0.02,0.14,0.04,0.23,0.06c0.38,0.09,0.84,0.2,1.34,0.31c0.5,0.12,0.95,0.23,1.34,0.32c0.13,0.03,0.23,0.06,0.32,0.08
		l0.03-0.11L90.75,72.54z M89.66,86.22c0,0,0.01,0.04,0.03,0.11c0.06-0.02,0.12-0.06,0.17-0.08C89.79,86.24,89.72,86.23,89.66,86.22
		z M90.06,82.48c0,0.01,0.01,0.01,0.01,0.01s0,0,0-0.01H90.06z M89.01,86.7l-0.22,0.08c-0.01,0.01-0.01,0.01-0.02,0.02l0.02,0.03
		c0,0,0,0,0.01-0.01l0.21-0.11c0,0,0.01,0,0.02-0.01C89.02,86.7,89.02,86.7,89.01,86.7z M90.35,82.09c0,0.01,0,0.02,0,0.02
		l0.01-0.01C90.36,82.09,90.35,82.09,90.35,82.09z M85.53,73.74l0.05,0.18h0.01L85.53,73.74z M90.35,82.09c0,0.01,0,0.02,0,0.02
		l0.01-0.01C90.36,82.09,90.35,82.09,90.35,82.09z M85.53,73.74l0.05,0.18h0.01L85.53,73.74z M89.01,86.7l-0.22,0.08
		c-0.01,0.01-0.01,0.01-0.02,0.02l0.02,0.03c0,0,0,0,0.01-0.01l0.21-0.11c0,0,0.01,0,0.02-0.01C89.02,86.7,89.02,86.7,89.01,86.7z
		 M90.06,82.48c0,0.01,0.01,0.01,0.01,0.01s0,0,0-0.01H90.06z M90.75,72.54l0.06-0.21h-0.02l-0.09,0.32
		c0.07,0.02,0.14,0.04,0.23,0.06c0.38,0.09,0.84,0.2,1.34,0.31c0.5,0.12,0.95,0.23,1.34,0.32c0.13,0.03,0.23,0.06,0.32,0.08
		l0.03-0.11L90.75,72.54z M89.66,86.22c0,0,0.01,0.04,0.03,0.11c0.06-0.02,0.12-0.06,0.17-0.08C89.79,86.24,89.72,86.23,89.66,86.22
		z M90.75,72.54l0.06-0.21h-0.02l-0.09,0.32c0.07,0.02,0.14,0.04,0.23,0.06c0.38,0.09,0.84,0.2,1.34,0.31
		c0.5,0.12,0.95,0.23,1.34,0.32c0.13,0.03,0.23,0.06,0.32,0.08l0.03-0.11L90.75,72.54z M89.66,86.22c0,0,0.01,0.04,0.03,0.11
		c0.06-0.02,0.12-0.06,0.17-0.08C89.79,86.24,89.72,86.23,89.66,86.22z M90.06,82.48c0,0.01,0.01,0.01,0.01,0.01s0,0,0-0.01H90.06z
		 M89.01,86.7l-0.22,0.08c-0.01,0.01-0.01,0.01-0.02,0.02l0.02,0.03c0,0,0,0,0.01-0.01l0.21-0.11c0,0,0.01,0,0.02-0.01
		C89.02,86.7,89.02,86.7,89.01,86.7z M85.53,73.74l0.05,0.18h0.01L85.53,73.74z M90.35,82.09c0,0.01,0,0.02,0,0.02l0.01-0.01
		C90.36,82.09,90.35,82.09,90.35,82.09z M90.35,82.09c0,0.01,0,0.02,0,0.02l0.01-0.01C90.36,82.09,90.35,82.09,90.35,82.09z
		 M85.53,73.74l0.05,0.18h0.01L85.53,73.74z M89.01,86.7l-0.22,0.08c-0.01,0.01-0.01,0.01-0.02,0.02l0.02,0.03c0,0,0,0,0.01-0.01
		l0.21-0.11c0,0,0.01,0,0.02-0.01C89.02,86.7,89.02,86.7,89.01,86.7z M90.06,82.48c0,0.01,0.01,0.01,0.01,0.01s0,0,0-0.01H90.06z
		 M90.75,72.54l0.06-0.21h-0.02l-0.09,0.32c0.07,0.02,0.14,0.04,0.23,0.06c0.38,0.09,0.84,0.2,1.34,0.31
		c0.5,0.12,0.95,0.23,1.34,0.32c0.13,0.03,0.23,0.06,0.32,0.08l0.03-0.11L90.75,72.54z M89.66,86.22c0,0,0.01,0.04,0.03,0.11
		c0.06-0.02,0.12-0.06,0.17-0.08C89.79,86.24,89.72,86.23,89.66,86.22z M90.75,72.54l0.06-0.21h-0.02l-0.09,0.32
		c0.07,0.02,0.14,0.04,0.23,0.06c0.38,0.09,0.84,0.2,1.34,0.31c0.5,0.12,0.95,0.23,1.34,0.32c0.13,0.03,0.23,0.06,0.32,0.08
		l0.03-0.11L90.75,72.54z M89.66,86.22c0,0,0.01,0.04,0.03,0.11c0.06-0.02,0.12-0.06,0.17-0.08C89.79,86.24,89.72,86.23,89.66,86.22
		z M90.06,82.48c0,0.01,0.01,0.01,0.01,0.01s0,0,0-0.01H90.06z M89.01,86.7l-0.22,0.08c-0.01,0.01-0.01,0.01-0.02,0.02l0.02,0.03
		c0,0,0,0,0.01-0.01l0.21-0.11c0,0,0.01,0,0.02-0.01C89.02,86.7,89.02,86.7,89.01,86.7z M90.35,82.09c0,0.01,0,0.02,0,0.02
		l0.01-0.01C90.36,82.09,90.35,82.09,90.35,82.09z M85.53,73.74l0.05,0.18h0.01L85.53,73.74z M90.35,82.09c0,0.01,0,0.02,0,0.02
		l0.01-0.01C90.36,82.09,90.35,82.09,90.35,82.09z M85.53,73.74l0.05,0.18h0.01L85.53,73.74z M89.01,86.7l-0.22,0.08
		c-0.01,0.01-0.01,0.01-0.02,0.02l0.02,0.03c0,0,0,0,0.01-0.01l0.21-0.11c0,0,0.01,0,0.02-0.01C89.02,86.7,89.02,86.7,89.01,86.7z
		 M90.06,82.48c0,0.01,0.01,0.01,0.01,0.01s0,0,0-0.01H90.06z M90.75,72.54l0.06-0.21h-0.02l-0.09,0.32
		c0.07,0.02,0.14,0.04,0.23,0.06c0.38,0.09,0.84,0.2,1.34,0.31c0.5,0.12,0.95,0.23,1.34,0.32c0.13,0.03,0.23,0.06,0.32,0.08
		l0.03-0.11L90.75,72.54z M89.66,86.22c0,0,0.01,0.04,0.03,0.11c0.06-0.02,0.12-0.06,0.17-0.08C89.79,86.24,89.72,86.23,89.66,86.22
		z M90.75,72.54l0.06-0.21h-0.02l-0.09,0.32c0.07,0.02,0.14,0.04,0.23,0.06c0.38,0.09,0.84,0.2,1.34,0.31
		c0.5,0.12,0.95,0.23,1.34,0.32c0.13,0.03,0.23,0.06,0.32,0.08l0.03-0.11L90.75,72.54z M89.66,86.22c0,0,0.01,0.04,0.03,0.11
		c0.06-0.02,0.12-0.06,0.17-0.08C89.79,86.24,89.72,86.23,89.66,86.22z M90.06,82.48c0,0.01,0.01,0.01,0.01,0.01s0,0,0-0.01H90.06z
		 M89.01,86.7l-0.22,0.08c-0.01,0.01-0.01,0.01-0.02,0.02l0.02,0.03c0,0,0,0,0.01-0.01l0.21-0.11c0,0,0.01,0,0.02-0.01
		C89.02,86.7,89.02,86.7,89.01,86.7z M90.35,82.09c0,0.01,0,0.02,0,0.02l0.01-0.01C90.36,82.09,90.35,82.09,90.35,82.09z
		 M85.53,73.74l0.05,0.18h0.01L85.53,73.74z M90.35,82.09c0,0.01,0,0.02,0,0.02l0.01-0.01C90.36,82.09,90.35,82.09,90.35,82.09z
		 M85.53,73.74l0.05,0.18h0.01L85.53,73.74z M89.01,86.7l-0.22,0.08c-0.01,0.01-0.01,0.01-0.02,0.02l0.02,0.03c0,0,0,0,0.01-0.01
		l0.21-0.11c0,0,0.01,0,0.02-0.01C89.02,86.7,89.02,86.7,89.01,86.7z M90.06,82.48c0,0.01,0.01,0.01,0.01,0.01s0,0,0-0.01H90.06z
		 M90.75,72.54l0.06-0.21h-0.02l-0.09,0.32c0.07,0.02,0.14,0.04,0.23,0.06c0.38,0.09,0.84,0.2,1.34,0.31
		c0.5,0.12,0.95,0.23,1.34,0.32c0.13,0.03,0.23,0.06,0.32,0.08l0.03-0.11L90.75,72.54z M89.66,86.22c0,0,0.01,0.04,0.03,0.11
		c0.06-0.02,0.12-0.06,0.17-0.08C89.79,86.24,89.72,86.23,89.66,86.22z M90.75,72.54l0.06-0.21h-0.02l-0.09,0.32
		c0.07,0.02,0.14,0.04,0.23,0.06c0.38,0.09,0.84,0.2,1.34,0.31c0.5,0.12,0.95,0.23,1.34,0.32c0.13,0.03,0.23,0.06,0.32,0.08
		l0.03-0.11L90.75,72.54z M89.66,86.22c0,0,0.01,0.04,0.03,0.11c0.06-0.02,0.12-0.06,0.17-0.08C89.79,86.24,89.72,86.23,89.66,86.22
		z M90.06,82.48c0,0.01,0.01,0.01,0.01,0.01s0,0,0-0.01H90.06z M89.01,86.7l-0.22,0.08c-0.01,0.01-0.01,0.01-0.02,0.02l0.02,0.03
		c0,0,0,0,0.01-0.01l0.21-0.11c0,0,0.01,0,0.02-0.01C89.02,86.7,89.02,86.7,89.01,86.7z M90.35,82.09c0,0.01,0,0.02,0,0.02
		l0.01-0.01C90.36,82.09,90.35,82.09,90.35,82.09z M85.53,73.74l0.05,0.18h0.01L85.53,73.74z M90.35,82.09c0,0.01,0,0.02,0,0.02
		l0.01-0.01C90.36,82.09,90.35,82.09,90.35,82.09z M85.53,73.74l0.05,0.18h0.01L85.53,73.74z M89.01,86.7l-0.22,0.08
		c-0.01,0.01-0.01,0.01-0.02,0.02l0.02,0.03c0,0,0,0,0.01-0.01l0.21-0.11c0,0,0.01,0,0.02-0.01C89.02,86.7,89.02,86.7,89.01,86.7z
		 M90.06,82.48c0,0.01,0.01,0.01,0.01,0.01s0,0,0-0.01H90.06z M90.75,72.54l0.06-0.21h-0.02l-0.09,0.32
		c0.07,0.02,0.14,0.04,0.23,0.06c0.38,0.09,0.84,0.2,1.34,0.31c0.5,0.12,0.95,0.23,1.34,0.32c0.13,0.03,0.23,0.06,0.32,0.08
		l0.03-0.11L90.75,72.54z M89.66,86.22c0,0,0.01,0.04,0.03,0.11c0.06-0.02,0.12-0.06,0.17-0.08C89.79,86.24,89.72,86.23,89.66,86.22
		z M90.75,72.54l0.06-0.21h-0.02l-0.09,0.32c0.07,0.02,0.14,0.04,0.23,0.06c0.38,0.09,0.84,0.2,1.34,0.31
		c0.5,0.12,0.95,0.23,1.34,0.32c0.13,0.03,0.23,0.06,0.32,0.08l0.03-0.11L90.75,72.54z M89.66,86.22c0,0,0.01,0.04,0.03,0.11
		c0.06-0.02,0.12-0.06,0.17-0.08C89.79,86.24,89.72,86.23,89.66,86.22z M90.06,82.48c0,0.01,0.01,0.01,0.01,0.01s0,0,0-0.01H90.06z
		 M89.01,86.7l-0.22,0.08c-0.01,0.01-0.01,0.01-0.02,0.02l0.02,0.03c0,0,0,0,0.01-0.01l0.21-0.11c0,0,0.01,0,0.02-0.01
		C89.02,86.7,89.02,86.7,89.01,86.7z M90.35,82.09c0,0.01,0,0.02,0,0.02l0.01-0.01C90.36,82.09,90.35,82.09,90.35,82.09z
		 M85.53,73.74l0.05,0.18h0.01L85.53,73.74z M90.35,82.09c0,0.01,0,0.02,0,0.02l0.01-0.01C90.36,82.09,90.35,82.09,90.35,82.09z
		 M85.53,73.74l0.05,0.18h0.01L85.53,73.74z M89.01,86.7l-0.22,0.08c-0.01,0.01-0.01,0.01-0.02,0.02l0.02,0.03c0,0,0,0,0.01-0.01
		l0.21-0.11c0,0,0.01,0,0.02-0.01C89.02,86.7,89.02,86.7,89.01,86.7z M90.06,82.48c0,0.01,0.01,0.01,0.01,0.01s0,0,0-0.01H90.06z
		 M90.75,72.54l0.06-0.21h-0.02l-0.09,0.32c0.07,0.02,0.14,0.04,0.23,0.06c0.38,0.09,0.84,0.2,1.34,0.31
		c0.5,0.12,0.95,0.23,1.34,0.32c0.13,0.03,0.23,0.06,0.32,0.08l0.03-0.11L90.75,72.54z M89.66,86.22c0,0,0.01,0.04,0.03,0.11
		c0.06-0.02,0.12-0.06,0.17-0.08C89.79,86.24,89.72,86.23,89.66,86.22z M90.75,72.54l0.06-0.21h-0.02l-0.09,0.32
		c0.07,0.02,0.14,0.04,0.23,0.06c0.38,0.09,0.84,0.2,1.34,0.31c0.5,0.12,0.95,0.23,1.34,0.32c0.13,0.03,0.23,0.06,0.32,0.08
		l0.03-0.11L90.75,72.54z M90.35,82.09c0,0.01,0,0.02,0,0.02l0.01-0.01C90.36,82.09,90.35,82.09,90.35,82.09z M85.53,73.74
		l0.05,0.18h0.01L85.53,73.74z M90.06,82.48c0,0.01,0.01,0.01,0.01,0.01s0,0,0-0.01H90.06z M89.01,86.7l-0.22,0.08
		c-0.01,0.01-0.01,0.01-0.02,0.02l0.02,0.03c0,0,0,0,0.01-0.01l0.21-0.11c0,0,0.01,0,0.02-0.01C89.02,86.7,89.02,86.7,89.01,86.7z
		 M90.35,82.09c0,0.01,0,0.02,0,0.02l0.01-0.01C90.36,82.09,90.35,82.09,90.35,82.09z M85.53,73.74l0.05,0.18h0.01L85.53,73.74z
		 M89.01,86.7l-0.22,0.08c-0.01,0.01-0.01,0.01-0.02,0.02l0.02,0.03c0,0,0,0,0.01-0.01l0.21-0.11c0,0,0.01,0,0.02-0.01
		C89.02,86.7,89.02,86.7,89.01,86.7z M90.06,82.48c0,0.01,0.01,0.01,0.01,0.01s0,0,0-0.01H90.06z M90.75,72.54l0.06-0.21h-0.02
		l-0.09,0.32c0.07,0.02,0.14,0.04,0.23,0.06c0.38,0.09,0.84,0.2,1.34,0.31c0.5,0.12,0.95,0.23,1.34,0.32
		c0.13,0.03,0.23,0.06,0.32,0.08l0.03-0.11L90.75,72.54z M89.66,86.22c0,0,0.01,0.04,0.03,0.11c0.06-0.02,0.12-0.06,0.17-0.08
		C89.79,86.24,89.72,86.23,89.66,86.22z M90.75,72.54l0.06-0.21h-0.02l-0.09,0.32c0.07,0.02,0.14,0.04,0.23,0.06
		c0.38,0.09,0.84,0.2,1.34,0.31c0.5,0.12,0.95,0.23,1.34,0.32c0.13,0.03,0.23,0.06,0.32,0.08l0.03-0.11L90.75,72.54z M90.35,82.09
		c0,0.01,0,0.02,0,0.02l0.01-0.01C90.36,82.09,90.35,82.09,90.35,82.09z M85.53,73.74l0.05,0.18h0.01L85.53,73.74z M90.06,82.48
		c0,0.01,0.01,0.01,0.01,0.01s0,0,0-0.01H90.06z M89.01,86.7l-0.22,0.08c-0.01,0.01-0.01,0.01-0.02,0.02l0.02,0.03
		c0,0,0,0,0.01-0.01l0.21-0.11c0,0,0.01,0,0.02-0.01C89.02,86.7,89.02,86.7,89.01,86.7z M89.01,86.7l-0.22,0.08
		c-0.01,0.01-0.01,0.01-0.02,0.02l0.02,0.03c0,0,0,0,0.01-0.01l0.21-0.11c0,0,0.01,0,0.02-0.01C89.02,86.7,89.02,86.7,89.01,86.7z
		 M90.75,72.54l0.06-0.21h-0.02l-0.09,0.32c0.07,0.02,0.14,0.04,0.23,0.06c0.38,0.09,0.84,0.2,1.34,0.31
		c0.5,0.12,0.95,0.23,1.34,0.32c0.13,0.03,0.23,0.06,0.32,0.08l0.03-0.11L90.75,72.54z M89.66,86.22c0,0,0.01,0.04,0.03,0.11
		c0.06-0.02,0.12-0.06,0.17-0.08C89.79,86.24,89.72,86.23,89.66,86.22z M90.06,82.48c0,0.01,0.01,0.01,0.01,0.01s0,0,0-0.01H90.06z
		 M85.53,73.74l0.05,0.18h0.01L85.53,73.74z M90.75,72.54l0.06-0.21h-0.02l-0.09,0.32c0.07,0.02,0.14,0.04,0.23,0.06
		c0.38,0.09,0.84,0.2,1.34,0.31c0.5,0.12,0.95,0.23,1.34,0.32c0.13,0.03,0.23,0.06,0.32,0.08l0.03-0.11L90.75,72.54z M89.01,86.7
		l-0.22,0.08c-0.01,0.01-0.01,0.01-0.02,0.02l0.02,0.03c0,0,0,0,0.01-0.01l0.21-0.11c0,0,0.01,0,0.02-0.01
		C89.02,86.7,89.02,86.7,89.01,86.7z M89.01,86.7l-0.22,0.08c-0.01,0.01-0.01,0.01-0.02,0.02l0.02,0.03c0,0,0,0,0.01-0.01l0.21-0.11
		c0,0,0.01,0,0.02-0.01C89.02,86.7,89.02,86.7,89.01,86.7z M90.75,72.54l0.06-0.21h-0.02l-0.09,0.32c0.07,0.02,0.14,0.04,0.23,0.06
		c0.38,0.09,0.84,0.2,1.34,0.31c0.5,0.12,0.95,0.23,1.34,0.32c0.13,0.03,0.23,0.06,0.32,0.08l0.03-0.11L90.75,72.54z M89.66,86.22
		c0,0,0.01,0.04,0.03,0.11c0.06-0.02,0.12-0.06,0.17-0.08C89.79,86.24,89.72,86.23,89.66,86.22z M90.06,82.48
		c0,0.01,0.01,0.01,0.01,0.01s0,0,0-0.01H90.06z M85.53,73.74l0.05,0.18h0.01L85.53,73.74z M90.75,72.54l0.06-0.21h-0.02l-0.09,0.32
		c0.07,0.02,0.14,0.04,0.23,0.06c0.38,0.09,0.84,0.2,1.34,0.31c0.5,0.12,0.95,0.23,1.34,0.32c0.13,0.03,0.23,0.06,0.32,0.08
		l0.03-0.11L90.75,72.54z M89.01,86.7l-0.22,0.08c-0.01,0.01-0.01,0.01-0.02,0.02l0.02,0.03c0,0,0,0,0.01-0.01l0.21-0.11
		c0,0,0.01,0,0.02-0.01C89.02,86.7,89.02,86.7,89.01,86.7z M89.01,86.7l-0.22,0.08c-0.01,0.01-0.01,0.01-0.02,0.02l0.02,0.03
		c0,0,0,0,0.01-0.01l0.21-0.11c0,0,0.01,0,0.02-0.01C89.02,86.7,89.02,86.7,89.01,86.7z M90.75,72.54l0.06-0.21h-0.02l-0.09,0.32
		c0.07,0.02,0.14,0.04,0.23,0.06c0.38,0.09,0.84,0.2,1.34,0.31c0.5,0.12,0.95,0.23,1.34,0.32c0.13,0.03,0.23,0.06,0.32,0.08
		l0.03-0.11L90.75,72.54z M89.66,86.22c0,0,0.01,0.04,0.03,0.11c0.06-0.02,0.12-0.06,0.17-0.08C89.79,86.24,89.72,86.23,89.66,86.22
		z M90.06,82.48c0,0.01,0.01,0.01,0.01,0.01s0,0,0-0.01H90.06z M85.53,73.74l0.05,0.18h0.01L85.53,73.74z M90.75,72.54l0.06-0.21
		h-0.02l-0.09,0.32c0.07,0.02,0.14,0.04,0.23,0.06c0.38,0.09,0.84,0.2,1.34,0.31c0.5,0.12,0.95,0.23,1.34,0.32
		c0.13,0.03,0.23,0.06,0.32,0.08l0.03-0.11L90.75,72.54z M89.01,86.7l-0.22,0.08c-0.01,0.01-0.01,0.01-0.02,0.02l0.02,0.03
		c0,0,0,0,0.01-0.01l0.21-0.11c0,0,0.01,0,0.02-0.01C89.02,86.7,89.02,86.7,89.01,86.7z M89.01,86.7l-0.22,0.08
		c-0.01,0.01-0.01,0.01-0.02,0.02l0.02,0.03c0,0,0,0,0.01-0.01l0.21-0.11c0,0,0.01,0,0.02-0.01C89.02,86.7,89.02,86.7,89.01,86.7z
		 M90.75,72.54l0.06-0.21h-0.02l-0.09,0.32c0.07,0.02,0.14,0.04,0.23,0.06c0.38,0.09,0.84,0.2,1.34,0.31
		c0.5,0.12,0.95,0.23,1.34,0.32c0.13,0.03,0.23,0.06,0.32,0.08l0.03-0.11L90.75,72.54z M89.66,86.22c0,0,0.01,0.04,0.03,0.11
		c0.06-0.02,0.12-0.06,0.17-0.08C89.79,86.24,89.72,86.23,89.66,86.22z M90.06,82.48c0,0.01,0.01,0.01,0.01,0.01s0,0,0-0.01H90.06z
		 M85.53,73.74l0.05,0.18h0.01L85.53,73.74z M90.75,72.54l0.06-0.21h-0.02l-0.09,0.32c0.07,0.02,0.14,0.04,0.23,0.06
		c0.38,0.09,0.84,0.2,1.34,0.31c0.5,0.12,0.95,0.23,1.34,0.32c0.13,0.03,0.23,0.06,0.32,0.08l0.03-0.11L90.75,72.54z M89.01,86.7
		l-0.22,0.08c-0.01,0.01-0.01,0.01-0.02,0.02l0.02,0.03c0,0,0,0,0.01-0.01l0.21-0.11c0,0,0.01,0,0.02-0.01
		C89.02,86.7,89.02,86.7,89.01,86.7z M89.01,86.7l-0.22,0.08c-0.01,0.01-0.01,0.01-0.02,0.02l0.02,0.03c0,0,0,0,0.01-0.01l0.21-0.11
		c0,0,0.01,0,0.02-0.01C89.02,86.7,89.02,86.7,89.01,86.7z M90.75,72.54l0.06-0.21h-0.02l-0.09,0.32c0.07,0.02,0.14,0.04,0.23,0.06
		c0.38,0.09,0.84,0.2,1.34,0.31c0.5,0.12,0.95,0.23,1.34,0.32c0.13,0.03,0.23,0.06,0.32,0.08l0.03-0.11L90.75,72.54z M89.66,86.22
		c0,0,0.01,0.04,0.03,0.11c0.06-0.02,0.12-0.06,0.17-0.08C89.79,86.24,89.72,86.23,89.66,86.22z M90.06,82.48
		c0,0.01,0.01,0.01,0.01,0.01s0,0,0-0.01H90.06z M85.53,73.74l0.05,0.18h0.01L85.53,73.74z M90.75,72.54l0.06-0.21h-0.02l-0.09,0.32
		c0.07,0.02,0.14,0.04,0.23,0.06c0.38,0.09,0.84,0.2,1.34,0.31c0.5,0.12,0.95,0.23,1.34,0.32c0.13,0.03,0.23,0.06,0.32,0.08
		l0.03-0.11L90.75,72.54z M89.01,86.7l-0.22,0.08c-0.01,0.01-0.01,0.01-0.02,0.02l0.02,0.03c0,0,0,0,0.01-0.01l0.21-0.11
		c0,0,0.01,0,0.02-0.01C89.02,86.7,89.02,86.7,89.01,86.7z M89.01,86.7l-0.22,0.08c-0.01,0.01-0.01,0.01-0.02,0.02l0.02,0.03
		c0,0,0,0,0.01-0.01l0.21-0.11c0,0,0.01,0,0.02-0.01C89.02,86.7,89.02,86.7,89.01,86.7z M90.75,72.54l0.06-0.21h-0.02l-0.09,0.32
		c0.07,0.02,0.14,0.04,0.23,0.06c0.38,0.09,0.84,0.2,1.34,0.31c0.5,0.12,0.95,0.23,1.34,0.32c0.13,0.03,0.23,0.06,0.32,0.08
		l0.03-0.11L90.75,72.54z M89.66,86.22c0,0,0.01,0.04,0.03,0.11c0.06-0.02,0.12-0.06,0.17-0.08C89.79,86.24,89.72,86.23,89.66,86.22
		z M90.06,82.48c0,0.01,0.01,0.01,0.01,0.01s0,0,0-0.01H90.06z M85.53,73.74l0.05,0.18h0.01L85.53,73.74z M90.75,72.54l0.06-0.21
		h-0.02l-0.09,0.32c0.07,0.02,0.14,0.04,0.23,0.06c0.38,0.09,0.84,0.2,1.34,0.31c0.5,0.12,0.95,0.23,1.34,0.32
		c0.13,0.03,0.23,0.06,0.32,0.08l0.03-0.11L90.75,72.54z M89.01,86.7l-0.22,0.08c-0.01,0.01-0.01,0.01-0.02,0.02l0.02,0.03
		c0,0,0,0,0.01-0.01l0.21-0.11c0,0,0.01,0,0.02-0.01C89.02,86.7,89.02,86.7,89.01,86.7z M89.01,86.7l-0.22,0.08
		c-0.01,0.01-0.01,0.01-0.02,0.02l0.02,0.03c0,0,0,0,0.01-0.01l0.21-0.11c0,0,0.01,0,0.02-0.01C89.02,86.7,89.02,86.7,89.01,86.7z
		 M90.75,72.54l0.06-0.21h-0.02l-0.09,0.32c0.07,0.02,0.14,0.04,0.23,0.06c0.38,0.09,0.84,0.2,1.34,0.31
		c0.5,0.12,0.95,0.23,1.34,0.32c0.13,0.03,0.23,0.06,0.32,0.08l0.03-0.11L90.75,72.54z M89.66,86.22c0,0,0.01,0.04,0.03,0.11
		c0.06-0.02,0.12-0.06,0.17-0.08C89.79,86.24,89.72,86.23,89.66,86.22z M90.06,82.48c0,0.01,0.01,0.01,0.01,0.01s0,0,0-0.01H90.06z
		 M85.53,73.74l0.05,0.18h0.01L85.53,73.74z M90.75,72.54l0.06-0.21h-0.02l-0.09,0.32c0.07,0.02,0.14,0.04,0.23,0.06
		c0.38,0.09,0.84,0.2,1.34,0.31c0.5,0.12,0.95,0.23,1.34,0.32c0.13,0.03,0.23,0.06,0.32,0.08l0.03-0.11L90.75,72.54z M89.01,86.7
		l-0.22,0.08c-0.01,0.01-0.01,0.01-0.02,0.02l0.02,0.03c0,0,0,0,0.01-0.01l0.21-0.11c0,0,0.01,0,0.02-0.01
		C89.02,86.7,89.02,86.7,89.01,86.7z M89.01,86.7l-0.22,0.08c-0.01,0.01-0.01,0.01-0.02,0.02l0.02,0.03c0,0,0,0,0.01-0.01l0.21-0.11
		c0,0,0.01,0,0.02-0.01C89.02,86.7,89.02,86.7,89.01,86.7z M90.75,72.54l0.06-0.21h-0.02l-0.09,0.32c0.07,0.02,0.14,0.04,0.23,0.06
		c0.38,0.09,0.84,0.2,1.34,0.31c0.5,0.12,0.95,0.23,1.34,0.32c0.13,0.03,0.23,0.06,0.32,0.08l0.03-0.11L90.75,72.54z M89.66,86.22
		c0,0,0.01,0.04,0.03,0.11c0.06-0.02,0.12-0.06,0.17-0.08C89.79,86.24,89.72,86.23,89.66,86.22z M90.06,82.48
		c0,0.01,0.01,0.01,0.01,0.01s0,0,0-0.01H90.06z M85.53,73.74l0.05,0.18h0.01L85.53,73.74z M90.75,72.54l0.06-0.21h-0.02l-0.09,0.32
		c0.07,0.02,0.14,0.04,0.23,0.06c0.38,0.09,0.84,0.2,1.34,0.31c0.5,0.12,0.95,0.23,1.34,0.32c0.13,0.03,0.23,0.06,0.32,0.08
		l0.03-0.11L90.75,72.54z M89.01,86.7l-0.22,0.08c-0.01,0.01-0.01,0.01-0.02,0.02l0.02,0.03c0,0,0,0,0.01-0.01l0.21-0.11
		c0,0,0.01,0,0.02-0.01C89.02,86.7,89.02,86.7,89.01,86.7z M90.75,72.54l0.06-0.21h-0.02l-0.09,0.32c0.07,0.02,0.14,0.04,0.23,0.06
		c0.38,0.09,0.84,0.2,1.34,0.31c0.5,0.12,0.95,0.23,1.34,0.32c0.13,0.03,0.23,0.06,0.32,0.08l0.03-0.11L90.75,72.54z M89.66,86.22
		c0,0,0.01,0.04,0.03,0.11c0.06-0.02,0.12-0.06,0.17-0.08C89.79,86.24,89.72,86.23,89.66,86.22z M90.06,82.48
		c0,0.01,0.01,0.01,0.01,0.01s0,0,0-0.01H90.06z M85.53,73.74l0.05,0.18h0.01L85.53,73.74z M90.75,72.54l0.06-0.21h-0.02l-0.09,0.32
		c0.07,0.02,0.14,0.04,0.23,0.06c0.38,0.09,0.84,0.2,1.34,0.31c0.5,0.12,0.95,0.23,1.34,0.32c0.13,0.03,0.23,0.06,0.32,0.08
		l0.03-0.11L90.75,72.54z M90.75,72.54l0.06-0.21h-0.02l-0.09,0.32c0.07,0.02,0.14,0.04,0.23,0.06c0.38,0.09,0.84,0.2,1.34,0.31
		c0.5,0.12,0.95,0.23,1.34,0.32c0.13,0.03,0.23,0.06,0.32,0.08l0.03-0.11L90.75,72.54z M89.66,86.22c0,0,0.01,0.04,0.03,0.11
		c0.06-0.02,0.12-0.06,0.17-0.08C89.79,86.24,89.72,86.23,89.66,86.22z M90.06,82.48c0,0.01,0.01,0.01,0.01,0.01s0,0,0-0.01H90.06z
		 M85.53,73.74l0.05,0.18h0.01L85.53,73.74z M90.75,72.54l0.06-0.21h-0.02l-0.09,0.32c0.07,0.02,0.14,0.04,0.23,0.06
		c0.38,0.09,0.84,0.2,1.34,0.31c0.5,0.12,0.95,0.23,1.34,0.32c0.13,0.03,0.23,0.06,0.32,0.08l0.03-0.11L90.75,72.54z M90.75,72.54
		l0.06-0.21h-0.02l-0.09,0.32c0.07,0.02,0.14,0.04,0.23,0.06c0.38,0.09,0.84,0.2,1.34,0.31c0.5,0.12,0.95,0.23,1.34,0.32
		c0.13,0.03,0.23,0.06,0.32,0.08l0.03-0.11L90.75,72.54z M89.66,86.22c0,0,0.01,0.04,0.03,0.11c0.06-0.02,0.12-0.06,0.17-0.08
		C89.79,86.24,89.72,86.23,89.66,86.22z M90.06,82.48c0,0.01,0.01,0.01,0.01,0.01s0,0,0-0.01H90.06z M85.53,73.74l0.05,0.18h0.01
		L85.53,73.74z M90.75,72.54l0.06-0.21h-0.02l-0.09,0.32c0.07,0.02,0.14,0.04,0.23,0.06c0.38,0.09,0.84,0.2,1.34,0.31
		c0.5,0.12,0.95,0.23,1.34,0.32c0.13,0.03,0.23,0.06,0.32,0.08l0.03-0.11L90.75,72.54z M85.53,73.74l0.05,0.18h0.01L85.53,73.74z
		 M90.06,82.48c0,0.01,0.01,0.01,0.01,0.01s0,0,0-0.01H90.06z M90.75,72.54l0.06-0.21h-0.02l-0.09,0.32
		c0.07,0.02,0.14,0.04,0.23,0.06c0.38,0.09,0.84,0.2,1.34,0.31c0.5,0.12,0.95,0.23,1.34,0.32c0.13,0.03,0.23,0.06,0.32,0.08
		l0.03-0.11L90.75,72.54z M90.75,72.54l0.06-0.21h-0.02l-0.09,0.32c0.07,0.02,0.14,0.04,0.23,0.06c0.38,0.09,0.84,0.2,1.34,0.31
		c0.5,0.12,0.95,0.23,1.34,0.32c0.13,0.03,0.23,0.06,0.32,0.08l0.03-0.11L90.75,72.54z M85.53,73.74l0.05,0.18h0.01L85.53,73.74z
		 M90.75,72.54l0.06-0.21h-0.02l-0.09,0.32c0.07,0.02,0.14,0.04,0.23,0.06c0.38,0.09,0.84,0.2,1.34,0.31
		c0.5,0.12,0.95,0.23,1.34,0.32c0.13,0.03,0.23,0.06,0.32,0.08l0.03-0.11L90.75,72.54z M85.53,73.74l0.05,0.18h0.01L85.53,73.74z
		 M90.75,72.54l0.06-0.21h-0.02l-0.09,0.32c0.07,0.02,0.14,0.04,0.23,0.06c0.38,0.09,0.84,0.2,1.34,0.31
		c0.5,0.12,0.95,0.23,1.34,0.32c0.13,0.03,0.23,0.06,0.32,0.08l0.03-0.11L90.75,72.54z"/>
	<path class="st0" d="M89.03,86.7c-0.01,0.01-0.02,0.01-0.02,0.01l-0.21,0.11c-0.01,0.01-0.01,0.01-0.01,0.01l-0.02-0.03
		c0.01-0.01,0.01-0.01,0.02-0.02l0.22-0.08C89.02,86.7,89.02,86.7,89.03,86.7z"/>
	<path class="st0" d="M89.66,86.22c0,0,0.01,0.04,0.03,0.11c0.06-0.02,0.12-0.06,0.17-0.08C89.79,86.24,89.72,86.23,89.66,86.22z
		 M90.35,82.09c0,0.01,0,0.02,0,0.02l0.01-0.01C90.36,82.09,90.35,82.09,90.35,82.09z M90.06,82.48c0,0.01,0.01,0.01,0.01,0.01
		s0,0,0-0.01H90.06z"/>
	<path class="st0" d="M93.96,73.31l-0.03,0.11c-0.09-0.02-0.19-0.05-0.32-0.08c-0.39-0.09-0.84-0.2-1.34-0.32
		c-0.5-0.11-0.96-0.22-1.34-0.31c-0.09-0.02-0.16-0.04-0.23-0.06l0.09-0.32h0.02l-0.06,0.21L93.96,73.31z"/>
	<g>
		<path d="M90.35,82.09c0,0.01,0,0.02,0,0.02l0.01-0.01C90.36,82.09,90.35,82.09,90.35,82.09z M90.06,82.48
			c0,0.01,0.01,0.01,0.01,0.01s0,0,0-0.01H90.06z"/>
		<path class="st1" d="M91.93,73.05c-0.12,0.31-0.63,2.12-1.22,4.33l-0.44-1.24l0.08-0.3l-0.28-0.82l0.62-2.31
			c0.06,0.02,0.13,0.05,0.21,0.07C91.17,72.86,91.53,72.95,91.93,73.05z"/>
		<path class="st1" d="M92.72,73.24c-0.11,0.31-0.63,2.16-1.23,4.4c-0.11,0.4-0.21,0.78-0.3,1.14l-0.41-1.18
			c0.01-0.04,0.02-0.08,0.03-0.12c0.6-2.25,1.08-4.11,1.13-4.43c0.1,0.03,0.2,0.06,0.3,0.08C92.41,73.17,92.57,73.2,92.72,73.24z"/>
		<path class="st1" d="M93.91,73.46l-0.66,2.12l-0.78,0.68l-0.93,3.51l-0.29-0.82c0.11-0.4,0.23-0.83,0.35-1.28
			c0.6-2.25,1.08-4.11,1.13-4.43c0.33,0.07,0.62,0.13,0.86,0.17C93.72,73.43,93.83,73.45,93.91,73.46z"/>
		<path d="M93.96,73.31l-0.03,0.11c-0.09-0.02-0.19-0.05-0.32-0.08c-0.39-0.09-0.84-0.2-1.34-0.32c-0.5-0.11-0.96-0.22-1.34-0.31
			c-0.09-0.02-0.16-0.04-0.23-0.06l0.09-0.32h0.02l-0.06,0.21L93.96,73.31z"/>
	</g>
	<g>
		<path d="M89.03,86.7c-0.01,0.01-0.02,0.01-0.02,0.01l-0.21,0.11c-0.01,0.01-0.01,0.01-0.01,0.01l-0.02-0.03
			c0.01-0.01,0.01-0.01,0.02-0.02l0.22-0.08C89.02,86.7,89.02,86.7,89.03,86.7z"/>
		<path d="M89.86,86.25c-0.05,0.02-0.11,0.06-0.17,0.08c-0.02-0.07-0.03-0.11-0.03-0.11C89.72,86.23,89.79,86.24,89.86,86.25z"/>
		<path d="M90.06,82.48c0,0.01,0.01,0.01,0.01,0.01s0,0,0-0.01H90.06z"/>
	</g>
	<g>
		<path class="st1" d="M89.97,88.71c-0.5,1.11-1.04,2.45-2,2.66l-1.08-0.32c-0.62-0.63-0.52-1.94-0.48-3.06
			c0.05-1.42,0.63-3.08,0.63-3.08c0.16,0.12,0.36,0.25,0.59,0.38c-0.04-0.64,0-1.22,0.04-1.66c0.04,0.01,0.09,0.02,0.13,0.03
			l0.06-0.2c-0.06-0.01-0.11-0.03-0.16-0.04c0.06-0.39,0.11-0.63,0.11-0.63l0.28,0.03v0.01c0.06,0.2,0.14,0.43,0.22,0.7
			c0.05,0.15,0.1,0.31,0.16,0.48c0.08,0.26,0.17,0.53,0.27,0.83c-0.24,0.09-0.27,0.14-0.28,0.16c-0.02,0.02-0.04,0.06,0.1,0.73
			l0.23,1.05c-0.01,0.01-0.01,0.01-0.02,0.02l0.02,0.03c0,0,0,0,0.01-0.01l0.21-0.11c0,0,0.01,0,0.02-0.01c-0.01,0-0.01,0-0.02,0
			l-0.21-0.9c-0.08-0.35-0.13-0.62-0.13-0.71c0.03-0.01,0.07-0.03,0.13-0.05c0.08,0.25,0.16,0.52,0.25,0.8
			c0.08,0.23,0.16,0.48,0.23,0.73C89.5,87.23,89.73,87.95,89.97,88.71z"/>
		<path d="M89.03,86.7c-0.01,0.01-0.02,0.01-0.02,0.01l-0.21,0.11c-0.01,0.01-0.01,0.01-0.01,0.01l-0.02-0.03
			c0.01-0.01,0.01-0.01,0.02-0.02l0.22-0.08C89.02,86.7,89.02,86.7,89.03,86.7z"/>
		<path d="M89.86,86.25c-0.05,0.02-0.11,0.06-0.17,0.08c-0.02-0.07-0.03-0.11-0.03-0.11C89.72,86.23,89.79,86.24,89.86,86.25z"/>
	</g>
	<g>
		<g>
			<path class="st0" d="M90.36,82.1L90.36,82.1c-0.01,0.01-0.01,0-0.01-0.01C90.35,82.09,90.36,82.09,90.36,82.1z"/>
		</g>
	</g>
	<g>
		<g>
			<path class="st2" d="M90.35,82.09c0,0,0.01,0,0.01,0.01l-0.01,0.01C90.35,82.11,90.35,82.1,90.35,82.09z"/>
		</g>
	</g>
	<path class="st0" d="M89.66,86.22c0,0,0.01,0.04,0.03,0.11c0.06-0.02,0.12-0.06,0.17-0.08C89.79,86.24,89.72,86.23,89.66,86.22z
		 M90.35,82.09c0,0.01,0,0.02,0,0.02l0.01-0.01C90.36,82.09,90.35,82.09,90.35,82.09z M85.53,73.74l0.05,0.18h0.01L85.53,73.74z
		 M90.06,82.48c0,0.01,0.01,0.01,0.01,0.01s0,0,0-0.01H90.06z"/>
	<g>
		<path d="M90.35,82.09c0,0.01,0,0.02,0,0.02l0.01-0.01C90.36,82.09,90.35,82.09,90.35,82.09z M90.06,82.48
			c0,0.01,0.01,0.01,0.01,0.01s0,0,0-0.01H90.06z"/>
		<path class="st1" d="M90.06,82.48c-0.14,0.09-0.25,0.22-0.33,0.34c-0.11,0.17-0.17,0.34-0.2,0.49l-0.43-1.18l-0.03-0.09
			l-0.21-0.58l-0.45-1.23l-0.24-0.66l-0.01-0.02l-0.95-2.61l-0.72-0.57l-0.82-2.26c0.06-0.01,0.14-0.02,0.22-0.04
			c0.27-0.06,0.63-0.14,1.03-0.24c0.09,0.31,0.72,2.15,1.52,4.34c0.02,0.06,0.04,0.12,0.06,0.17c0.01,0.01,0.01,0.02,0.01,0.02
			c0.12,0.34,0.24,0.66,0.35,0.97c0.12,0.31,0.23,0.61,0.33,0.88c0.18,0.48,0.34,0.91,0.47,1.26c0,0,0,0,0,0.01
			c0.01,0.01,0.02,0.03,0.02,0.05c0,0,0,0,0,0.01c0.05,0.12,0.1,0.24,0.14,0.34c0.01,0.03,0.02,0.06,0.03,0.09
			c0.01,0.01,0.01,0.02,0.01,0.03h0.01C89.96,82.25,90.03,82.41,90.06,82.48z"/>
		<path class="st1" d="M90.75,82.04c-0.03-0.07-0.06-0.15-0.09-0.24c-0.04-0.08-0.08-0.18-0.12-0.29c-0.01-0.03-0.02-0.05-0.03-0.08
			c-0.12-0.33-0.28-0.73-0.45-1.2c-0.02-0.04-0.04-0.1-0.06-0.16c-0.14-0.37-0.29-0.78-0.45-1.22c-0.06-0.17-0.13-0.35-0.19-0.53
			c-0.04-0.11-0.09-0.23-0.13-0.35c-0.12-0.34-0.24-0.67-0.35-0.96c0-0.01,0-0.01,0-0.01c-0.64-1.76-1.11-3.12-1.17-3.37
			c-0.15,0.04-0.31,0.08-0.48,0.13c-0.1,0.02-0.2,0.05-0.29,0.07c0.01,0.03,0.03,0.08,0.06,0.15c0.11,0.28,0.33,0.84,0.61,1.59
			c0.06,0.15,0.12,0.32,0.18,0.49c0.23,0.61,0.49,1.32,0.76,2.07c0,0.01,0,0.01,0.01,0.02v0.01c0.13,0.36,0.25,0.71,0.37,1.04
			c0.11,0.29,0.21,0.58,0.3,0.84c0,0.01,0,0.01,0,0.01c0.18,0.49,0.33,0.93,0.46,1.29c0.01,0.03,0.02,0.06,0.03,0.09
			c0.08,0.22,0.13,0.38,0.16,0.46c0.01,0.03,0.02,0.05,0.02,0.07v0.01h0.01c0,0.02,0.01,0.03,0.01,0.04s0.01,0.02,0.01,0.02
			c0.08,0.26,0.13,0.4,0.14,0.44c0.08-0.05,0.17-0.1,0.28-0.13c0.04-0.01,0.07-0.02,0.11-0.02h0.01c0.02-0.01,0.03-0.02,0.05-0.02
			h0.07c0.09-0.02,0.18-0.01,0.27,0C90.84,82.26,90.8,82.18,90.75,82.04z M90.35,82.11c0,0,0-0.01,0-0.02
			C90.35,82.09,90.36,82.09,90.35,82.11L90.35,82.11z"/>
		<path class="st1" d="M91.52,82.52c-0.1-0.06-0.22-0.12-0.35-0.16c-0.09-0.03-0.19-0.05-0.3-0.06h-0.01
			c-0.01-0.09-0.12-0.41-0.29-0.91c-0.01-0.03-0.02-0.06-0.03-0.1v-0.01c-0.12-0.34-0.27-0.74-0.43-1.21c0,0,0,0,0-0.01
			c-0.02-0.05-0.04-0.1-0.06-0.16c0,0,0,0,0-0.01c-0.14-0.38-0.29-0.79-0.45-1.23c-0.06-0.17-0.12-0.34-0.19-0.52v-0.01
			c-0.02-0.06-0.05-0.13-0.07-0.19c-0.14-0.38-0.28-0.76-0.4-1.11h-0.01c0-0.01,0-0.01,0-0.01c-0.62-1.68-1.1-2.96-1.21-3.19
			c0.32-0.09,0.61-0.17,0.84-0.24c0.12-0.04,0.23-0.08,0.31-0.1l0.56,1.77l0.11,0.34l-0.14,0.47l-0.14,0.46l0.18,0.48l0.38,1.04
			l0.44,1.22l0.07,0.18v0.01l0.43,1.16v0.01l0.05,0.15l0.3,0.81L91.52,82.52z"/>
	</g>
	<g>
		<path class="st1" d="M94.66,90.09c0,0.49-0.09,0.92-0.39,1.2l-1.18,0.26c-0.88-0.28-1.56-1.44-2.17-2.4
			c-0.16-0.25-0.31-0.53-0.44-0.8v-0.01c-0.07-0.14-0.14-0.28-0.19-0.41c-0.31-0.71-0.52-1.35-0.6-1.6
			c0.06-0.02,0.12-0.06,0.17-0.08c0.16,0.01,0.34,0.03,0.53,0.03c-0.07-0.08-0.13-0.16-0.18-0.24c-0.06-0.08-0.12-0.16-0.16-0.24
			h-0.01c-0.24-0.36-0.43-0.69-0.57-0.97c0.04-0.01,0.08-0.02,0.12-0.03l-0.07-0.19c-0.05,0.01-0.11,0.03-0.15,0.03
			c-0.12-0.22-0.2-0.4-0.24-0.5c-0.03-0.06-0.04-0.09-0.04-0.09l0.37-0.14c0,0,0-0.03,0.02-0.09c0,0.05,0,0.09,0.01,0.09
			c0.02,0,0.04-0.17,0.1-0.44c0.01-0.03,0.01-0.05,0.02-0.08c0.01-0.04,0.02-0.08,0.03-0.12c0.04-0.13,0.1-0.28,0.19-0.41
			c0.06-0.09,0.14-0.17,0.23-0.25c0.09-0.08,0.21-0.14,0.33-0.18c0.05-0.01,0.1-0.02,0.15-0.03c0.02,0,0.04-0.01,0.07,0
			c0.02-0.01,0.04-0.01,0.06-0.01c0.06,0,0.12,0,0.17,0.01c0.1,0,0.2,0.02,0.29,0.05c0.17,0.05,0.31,0.12,0.43,0.19
			c0.05,0.03,0.09,0.05,0.13,0.08c0.02,0.01,0.05,0.03,0.07,0.05c0.25,0.15,0.39,0.26,0.41,0.26c0-0.01-0.04-0.05-0.11-0.12
			c0.09,0.06,0.14,0.1,0.14,0.1l0.37-0.1c0,0,0.05,0.27,0.12,0.63c-0.13,0.04-0.23,0.07-0.26,0.08l0.08,0.19
			c0.06-0.02,0.14-0.04,0.22-0.07c0.11,0.55,0.24,1.25,0.31,1.62c0.08-0.08,0.18-0.18,0.28-0.29c0,0,0.81,1.58,1.06,2.99
			C94.5,88.72,94.66,89.45,94.66,90.09z"/>
	</g>
	<g>
		<path class="st4" d="M88.8,86.82c0-0.02,0-0.03-0.01-0.04"/>
	</g>
	<g>
		<path class="st1" d="M89.86,86.25c-0.05,0.02-0.11,0.06-0.17,0.08c-0.02-0.07-0.03-0.11-0.03-0.11
			C89.72,86.23,89.79,86.24,89.86,86.25z"/>
	</g>
	<g>
		<g>
			<path class="st0" d="M90.07,82.48C90.07,82.49,90.07,82.49,90.07,82.48c0,0.01-0.01,0.01-0.01,0H90.07z"/>
		</g>
	</g>
	<g>
		<g>
			<path class="st0" d="M87.72,73.63c0,0,0,0-0.01,0c0-0.01,0-0.01,0-0.01L87.72,73.63z"/>
		</g>
	</g>
	<g>
		<g>
			<path class="st0" d="M90.07,82.48C90.07,82.49,90.07,82.49,90.07,82.48c0,0.01-0.01,0.01-0.01,0H90.07z"/>
		</g>
	</g>
	<path class="st1" d="M88.86,73.24c-0.09,0.02-0.2,0.05-0.33,0.08c-0.38,0.09-0.83,0.21-1.33,0.34c-0.5,0.12-0.95,0.24-1.33,0.34
		c-0.08,0.02-0.16,0.04-0.22,0.06h-0.01l-0.05-0.14l-0.06-0.18l-0.44-1.4l0.56-2.37l0.16-0.68l0.56,0.46l1.79,1.46l0.56,1.6v0.01
		L88.86,73.24z"/>
	<polygon points="85.59,73.92 85.58,73.92 85.53,73.74 	"/>
	<polygon class="st1" points="94.39,71.67 94.06,72.99 93.96,73.31 90.75,72.54 90.81,72.33 91.19,70.94 93.1,69.11 93.46,68.77 
		93.72,69.57 	"/>
</g>
</svg>
