<svg width="101" height="101" viewBox="0 0 101 101" fill="none" xmlns="http://www.w3.org/2000/svg">
<path d="M66.54 29.63C66.54 29.63 66.53 29.67 66.5 29.74C66.32 30.17 65.36 31.66 61.09 29.71C61.03 29.69 60.97 29.66 60.91 29.63C60.91 29.63 62.53 27.68 66.54 29.63Z" fill="black"/>
<path d="M95.15 28.53C94.83 27.86 94.49 27.2 94.13 26.55C93.94 26.19 93.74 25.84 93.54 25.49C84.91 10.49 68.72 0.379997 50.17 0.379997C22.55 0.379997 0.170013 22.77 0.170013 50.38C0.170013 57.72 1.75001 64.68 4.59001 70.96C5.09001 72.06 5.63001 73.15 6.21001 74.21C14.67 89.8 31.18 100.38 50.17 100.38C77.78 100.38 100.17 77.99 100.17 50.38C100.17 42.54 98.37 35.13 95.15 28.53ZM90.1 32.31C90.51 33.1 90.62 34.55 89.18 37.08C89.18 37.08 86.98 43.02 78.92 44.01C78.92 44.01 78.45 44.2 78.52 44.54C78.59 44.9 79.26 45.41 81.69 46.05L81.78 45.93V45.92L82.84 44.48L82.86 44.46L83.51 46.35L83.56 46.49C83.56 46.49 84.34 47 84.77 47.75C85.32 48.72 85.28 50.08 82.1 51.2C82.1 51.2 65.98 54.46 65.74 56.79L64.52 63.83L63.22 63.05C63.22 63.05 62.98 69.16 59.32 71.56C59.32 71.56 54.18 74.98 54.3 77.55C54.3 77.55 54.06 77.22 53.79 76.7C53.71 76.56 53.63 76.41 53.56 76.24C53.49 76.09 53.42 75.93 53.35 75.76C53.22 75.42 53.11 75.05 53.06 74.68C53.06 74.68 53.05 74.71 53.03 74.77C52.78 75.48 51.03 80.31 49.34 81.09C49.34 81.09 45 85.21 44.97 86.25L44.98 85.74L45.08 81.63C45.08 81.63 45.05 81.69 44.99 81.79C44.24 83.07 39.19 91.63 36.46 93.02C36.46 93.02 36.49 92.92 36.53 92.75C36.9 91.25 38.66 83.99 37.76 82.65C37.76 82.65 37.49 81.79 37.03 80.82C37.04 80.81 37.03 80.81 37.03 80.81C36.98 80.68 36.92 80.56 36.85 80.43C36.75 80.22 36.65 80.01 36.53 79.81C36.09 79.02 35.56 78.3 35 78.03C35 78.03 33.33 80.91 32.39 81.09C32.39 81.09 32.41 81.01 32.46 80.86C32.72 79.92 33.67 76.39 33.21 75.87C33.21 75.87 31.97 78.75 31.2 78.51C31.2 78.51 31.21 78.46 31.21 78.35C31.32 77.31 31.87 71.28 30.94 69.74C30.93 69.73 30.92 69.71 30.91 69.7C30.91 69.7 27.13 64.49 25.89 62.29C25.86 62.26 25.85 62.24 25.84 62.21C25.75 62.06 25.68 61.93 25.62 61.81C25.62 61.8 25.62 61.8 25.61 61.79C25.51 61.58 25.46 61.43 25.48 61.37C25.48 61.37 25.47 61.4 25.46 61.47C25.38 61.94 25.06 64.07 25.6 65.31C25.59 65.32 25.6 65.34 25.61 65.35C25.63 65.41 25.66 65.46 25.69 65.51C25.75 65.63 25.83 65.73 25.91 65.82C25.6 65.49 23.41 63.09 22.17 60.47C22.14 60.42 22.12 60.36 22.09 60.3C21.92 59.92 21.76 59.53 21.64 59.15C21.64 59.15 21.64 59.16 21.63 59.18C21.55 59.47 20.85 61.83 19.57 62.51C19.57 62.51 19.58 62.42 19.59 62.26C19.67 61.16 19.93 56.82 19.16 55.25C19.16 55.25 19.16 55.26 19.15 55.28C19.06 55.69 18.08 59.82 15.61 61.25C15.61 61.25 15.63 61.15 15.67 60.97C15.88 59.91 16.56 56.03 15.85 52.86C15.85 52.86 16.38 48.54 19.45 45.3C19.45 45.3 19.29 45.39 19.03 45.5C18.31 45.85 16.77 46.47 15.61 46.2C15.61 46.2 15.67 46.15 15.77 46.06C16.83 45.15 22.75 40.09 24.15 39.43C24.15 39.43 30.33 30.66 35.71 27.58C35.71 27.58 32.54 19.73 39.62 10.07C39.62 10.07 40.84 8.58 48.9 20.48C48.9 20.48 62.08 20.97 64.28 23.2C64.28 23.2 70.14 30.48 76.24 31.42H89.18C89.18 31.42 89.74 31.62 90.09 32.29C90.1 32.29 90.1 32.3 90.1 32.31Z" fill="black"/>
</svg>
