<?xml version="1.0" encoding="utf-8"?>
<!-- Generator: Adobe Illustrator 28.0.0, SVG Export Plug-In . SVG Version: 6.00 Build 0)  -->
<svg version="1.1" id="Calque_1" xmlns="http://www.w3.org/2000/svg" xmlns:xlink="http://www.w3.org/1999/xlink" x="0px" y="0px"
	 viewBox="0 0 224.11 164.66" style="enable-background:new 0 0 224.11 164.66;" xml:space="preserve">
<style type="text/css">
	.st0{fill:#FFFFFF;}
	.st1{fill:#010202;}
	.st2{fill:#455A64;}
	.st3{fill:none;stroke:#444C52;stroke-miterlimit:10;}
	.st4{fill:none;}
	.st5{fill:#FFFFFF;stroke:#FFFFFF;stroke-width:0.1852;stroke-miterlimit:10;}
	.st6{fill:#FFFFFF;stroke:#FFFFFF;stroke-width:0.1747;stroke-miterlimit:10;}
	.st7{fill:#010202;stroke:#010202;stroke-width:0.1852;stroke-miterlimit:10;}
	.st8{fill:#FFFFFF;stroke:#FFFFFF;stroke-width:0.1906;stroke-miterlimit:10;}
	.st9{fill:none;stroke:#000000;stroke-width:2;stroke-miterlimit:10;}
	.st10{fill:#EFEFEF;}
	.st11{stroke:#000000;stroke-width:10;stroke-miterlimit:10;}
	.st12{fill:none;stroke:#000000;stroke-width:23;stroke-linecap:round;stroke-miterlimit:10;}
	.st13{fill:none;stroke:#FFFFFF;stroke-miterlimit:10;}
	.st14{fill:#475BA6;}
	.st15{fill:#475CA6;}
	.st16{fill:#263239;}
	.st17{opacity:0.3;}
	.st18{stroke:#475CA6;stroke-miterlimit:10;}
	.st19{fill:#475BA6;stroke:#475CA6;stroke-miterlimit:10;}
	.st20{fill:#FFFFFF;stroke:#475CA6;stroke-miterlimit:10;}
	.st21{fill:none;stroke:#475CA6;stroke-width:2;stroke-miterlimit:10;}
	.st22{fill:#475CA6;stroke:#475CA6;stroke-width:0.2013;stroke-linecap:round;stroke-miterlimit:10;}
	.st23{fill:#475CA6;stroke:#475CA6;stroke-width:0.2625;stroke-linecap:round;stroke-miterlimit:10;}
	.st24{fill:#475CA6;stroke:#475CA6;stroke-width:0.5205;stroke-miterlimit:10;}
	.st25{fill:#475CA6;stroke:#475CA6;stroke-width:0.3971;stroke-miterlimit:10;}
	.st26{fill:#FFFFFF;stroke:#FFFFFF;stroke-miterlimit:10;}
	.st27{fill:none;stroke:#475CA6;stroke-linecap:round;stroke-linejoin:round;stroke-miterlimit:10;}
	.st28{fill:none;stroke:#475CA6;stroke-miterlimit:10;}
	.st29{fill:#010202;stroke:#010202;stroke-miterlimit:10;}
	.st30{fill:none;stroke:#FFFFFF;stroke-width:2;stroke-miterlimit:10;}
	.st31{fill:#FFFFFF;stroke:#FFFFFF;stroke-width:0.2013;stroke-linecap:round;stroke-miterlimit:10;}
	.st32{fill:#FFFFFF;stroke:#FFFFFF;stroke-width:0.2625;stroke-linecap:round;stroke-miterlimit:10;}
	.st33{fill:#FFFFFF;stroke:#FFFFFF;stroke-width:0.5205;stroke-miterlimit:10;}
	.st34{fill:#FFFFFF;stroke:#FFFFFF;stroke-width:0.3971;stroke-miterlimit:10;}
	.st35{fill:#FFFFFF;stroke:#000000;stroke-miterlimit:10;}
	.st36{fill:#010202;stroke:#FFFFFF;stroke-miterlimit:10;}
	.st37{fill:#010202;stroke:#010202;stroke-linecap:round;stroke-linejoin:round;stroke-miterlimit:10;}
	.st38{fill:#475CA6;stroke:#FFFFFF;stroke-miterlimit:10;}
	.st39{fill:#475CA6;stroke:#475CA6;stroke-linecap:round;stroke-linejoin:round;stroke-miterlimit:10;}
	.st40{fill:#475CA6;stroke:#475CA6;stroke-miterlimit:10;}
	.st41{fill:#FFFFFF;stroke:#FFFFFF;stroke-linecap:round;stroke-linejoin:round;stroke-miterlimit:10;}
	.st42{fill:none;stroke:#010202;stroke-miterlimit:10;}
	.st43{fill:#475BA6;stroke:#FFFFFF;stroke-miterlimit:10;}
	.st44{fill:#FAFAFA;}
</style>
<g>
	<path d="M122.09,74.71c-0.06-0.02-0.12-0.05-0.18-0.08c0,0,1.62-1.95,5.63,0c0,0-0.01,0.04-0.04,0.11
		c0.04,0.02,0.09,0.04,0.13,0.06c0,0-0.55,2.38-5.63,0C122,74.8,122.03,74.77,122.09,74.71z"/>
	<path d="M156.15,73.53c-0.32-0.67-0.66-1.33-1.02-1.98c-0.19-0.36-0.39-0.71-0.59-1.06c-8.59-15.1-24.84-25.28-43.46-25.28
		c-27.61,0-50,22.38-50,50c0,7.4,1.61,14.43,4.51,20.75c0.5,1.1,1.04,2.19,1.62,3.25c8.5,15.49,24.96,26,43.87,26
		c27.61,0,50-22.39,50-50C161.08,87.44,159.31,80.09,156.15,73.53z M114.56,121.24c-0.07-0.15-0.14-0.31-0.21-0.48
		c-0.13-0.34-0.24-0.71-0.29-1.08c0,0-0.01,0.03-0.03,0.09c-0.03-0.09-0.05-0.18-0.06-0.27c0,0-1.89,5.58-3.72,6.41
		c0,0-3.62,3.44-4.27,4.83l0.1-4.11c0,0-0.03,0.06-0.09,0.16l0.01-0.34c0,0-5.48,9.55-8.47,11.3c0.37-1.5,2.13-8.76,1.23-10.1
		c0,0-0.27-0.86-0.73-1.83c0.01-0.01,0-0.01,0-0.01c-0.05-0.13-0.11-0.25-0.18-0.38c-0.1-0.21-0.2-0.42-0.32-0.62
		c-0.45-0.86-1.01-1.66-1.61-1.95c0,0-1.5,2.56-2.46,3c0.26-0.94,1.21-4.47,0.75-4.99c-0.02-0.07-0.04-0.13-0.08-0.17
		c0,0-1.14,2.65-1.92,2.65c0.11-1.04,0.66-7.07-0.27-8.61c-0.04-0.08-0.08-0.15-0.12-0.21c0,0-3.58-4.95-4.93-7.24
		c-0.03-0.03-0.04-0.05-0.05-0.08c-0.08-0.15-0.15-0.28-0.22-0.4c0-0.01,0-0.01-0.01-0.02c-0.1-0.21-0.15-0.36-0.13-0.42
		c0,0-0.01,0.03-0.02,0.1c-0.06-0.14-0.08-0.23-0.07-0.28c0,0-0.53,2.75,0.21,4.12c-0.01,0.01,0,0.03,0.01,0.04
		c0.02,0.06,0.05,0.11,0.08,0.16c-0.55-0.61-2.38-2.72-3.52-5.04c-0.03-0.05-0.05-0.11-0.08-0.17c-0.17-0.38-0.33-0.77-0.45-1.15
		c0,0,0,0.01-0.01,0.03c-0.03-0.07-0.06-0.14-0.08-0.21c0,0-0.67,2.5-1.96,3.29c0.08-1.1,0.34-5.44-0.43-7.01c0,0,0,0.01-0.01,0.03
		c-0.02-0.07-0.05-0.14-0.08-0.2c0,0-0.91,4.32-3.4,5.89c0.21-1.06,0.89-4.94,0.18-8.11c0,0,0.53-4.32,3.6-7.56
		c0,0-0.16,0.09-0.42,0.2c0.11-0.13,0.22-0.25,0.33-0.37c0,0-2.04,1.13-3.59,0.93c1.06-0.91,6.98-5.97,8.38-6.63
		c0,0,6.18-8.77,11.56-11.85c0,0-3.17-7.85,3.91-17.51c0,0,1.22-1.49,9.28,10.41c0,0,13.18,0.49,15.38,2.72
		c0,0,5.86,7.28,11.96,8.22h12.94c0,0,0.56,0.2,0.91,0.87c0.01,0,0.01,0.01,0.01,0.02c0.33,0.82,0.33,2.24-1.01,4.59
		c0,0-2.2,5.95-10.25,6.94c0,0-0.63,0.26-0.32,0.7c0.07,0.36,0.74,0.87,3.17,1.51l0.09-0.12v-0.01l1.06-1.44l0.63,1.84
		c0,0,0.01,0.01,0.04,0.03l0.05,0.14c0,0,0.78,0.51,1.21,1.26c0.45,0.95,0.23,2.22-2.76,3.27c0,0-16.11,3.27-16.36,5.6l-1.22,7.04
		l-1.3-0.79c0,0-0.24,6.12-3.9,8.51c0,0-5.14,3.42-5.02,6c0,0-0.19-0.26-0.42-0.68C114.71,121.56,114.63,121.41,114.56,121.24z"/>
	<path class="st0" d="M76.85,97.86c0.71,3.17,0.03,7.05-0.18,8.11c-0.05,0.04-0.1,0.07-0.15,0.1c0,0,1.07-4.67,0.24-8.39
		c0,0,0.49-3.99,3.27-7.18c0.26-0.11,0.42-0.2,0.42-0.2C77.38,93.54,76.85,97.86,76.85,97.86z"/>
	<path class="st0" d="M80.16,100.25c0.77,1.57,0.51,5.91,0.43,7.01c-0.04,0.03-0.07,0.05-0.11,0.07c0,0,0.44-5.08-0.33-7.05
		C80.16,100.26,80.16,100.25,80.16,100.25z"/>
	<path class="st0" d="M82.64,104.15c0.12,0.38,0.28,0.77,0.45,1.15c-0.18-0.37-0.34-0.75-0.46-1.12
		C82.64,104.16,82.64,104.15,82.64,104.15z"/>
	<path class="st0" d="M86.61,106.79c-0.06-0.13-0.11-0.23-0.15-0.32c0.01-0.07,0.02-0.1,0.02-0.1
		C86.46,106.43,86.51,106.58,86.61,106.79z"/>
	<path class="st0" d="M86.61,110.35c0.05,0.09,0.11,0.17,0.17,0.25c-0.02-0.02-0.05-0.05-0.09-0.09
		C86.66,110.46,86.63,110.41,86.61,110.35z"/>
	<path class="st0" d="M91.94,114.74c0.93,1.54,0.38,7.57,0.27,8.61c-0.03,0-0.06,0-0.09-0.01
		C92.12,123.34,92.83,116.68,91.94,114.74z"/>
	<path class="st0" d="M94.21,120.87c0.46,0.52-0.49,4.05-0.75,4.99c-0.05,0.02-0.11,0.04-0.16,0.05
		C93.3,125.91,94.49,121.89,94.21,120.87z"/>
	<path class="st0" d="M98.03,125.82c0.46,0.97,0.73,1.83,0.73,1.83c-0.03-0.07-0.06-0.13-0.09-0.18
		C98.67,127.47,98.43,126.73,98.03,125.82z"/>
	<path class="st0" d="M98.76,127.65c0.9,1.34-0.86,8.6-1.23,10.1c-0.06,0.04-0.11,0.06-0.16,0.09
		C97.37,137.84,99.53,129.56,98.76,127.65z"/>
	<path class="st0" d="M105.99,126.79c0.06-0.1,0.09-0.16,0.09-0.16l-0.1,4.11c-0.06,0.13-0.1,0.24-0.1,0.33L105.99,126.79z"/>
	<path class="st0" d="M114.06,119.68c0.05,0.37,0.16,0.74,0.29,1.08c-0.14-0.31-0.25-0.64-0.32-0.99
		C114.05,119.71,114.06,119.68,114.06,119.68z"/>
	<path class="st0" d="M127.5,74.74c0.04,0.02,0.09,0.04,0.13,0.06c0,0-0.55,2.38-5.63,0c0,0,0.03-0.03,0.09-0.09
		c-0.06-0.02-0.12-0.05-0.18-0.08c0,0,1.62-1.95,5.63,0C127.54,74.63,127.53,74.67,127.5,74.74z"/>
	<path class="st0" d="M142.6,90.88c0.06,0.02,0.12,0.03,0.18,0.05l-0.09,0.12c-2.43-0.64-3.1-1.15-3.17-1.51
		C139.75,89.88,140.54,90.34,142.6,90.88z"/>
	<path class="st0" d="M145.77,92.75c-0.43-0.75-1.21-1.26-1.21-1.26l-0.05-0.14C144.68,91.47,145.43,92.02,145.77,92.75z"/>
	<path class="st0" d="M151.09,77.29c-0.35-0.67-0.91-0.87-0.91-0.87h-12.94c-6.1-0.94-11.96-8.22-11.96-8.22
		c-2.2-2.23-15.38-2.72-15.38-2.72c-8.06-11.9-9.28-10.41-9.28-10.41c-7.08,9.66-3.91,17.51-3.91,17.51
		c-5.38,3.08-11.56,11.85-11.56,11.85c-1.4,0.66-7.32,5.72-8.38,6.63c-0.08,0-0.17-0.01-0.25-0.03c0,0,7-6.06,8.54-6.77
		c0,0,6.18-8.77,11.57-11.85c0,0-3.18-7.85,3.9-17.52c0,0,1.22-1.48,9.28,10.41c0,0,13.18,0.5,15.38,2.73c0,0,5.86,7.27,11.96,8.22
		h12.94C150.09,76.25,150.75,76.48,151.09,77.29z"/>
	<polygon class="st0" points="143.84,89.48 142.78,90.92 142.6,90.88 143.78,89.29 	"/>
	<path class="st1" d="M127.54,74.63c0,0-0.01,0.04-0.04,0.11c-0.18,0.43-1.14,1.92-5.41-0.03c-0.06-0.02-0.12-0.05-0.18-0.08
		C121.91,74.63,123.53,72.68,127.54,74.63z"/>
</g>
<g>
	<path d="M127.63,74.8c0,0-0.55,2.38-5.63,0c0,0,0.03-0.03,0.09-0.09c0.37-0.35,2.02-1.57,5.41,0.03
		C127.54,74.76,127.59,74.78,127.63,74.8z"/>
	<path d="M156.15,73.53c-0.32-0.67-0.66-1.33-1.02-1.98c-0.19-0.36-0.39-0.71-0.59-1.06c-8.63-15-24.82-25.11-43.37-25.11
		c-27.62,0-50,22.39-50,50c0,7.34,1.58,14.3,4.42,20.58c0.5,1.1,1.04,2.19,1.62,3.25c8.46,15.59,24.97,26.17,43.96,26.17
		c27.61,0,50-22.39,50-50C161.17,87.54,159.37,80.13,156.15,73.53z M151.1,77.31c0.41,0.79,0.52,2.24-0.92,4.77
		c0,0-2.2,5.94-10.26,6.93c0,0-0.47,0.19-0.4,0.53c0.07,0.36,0.74,0.87,3.17,1.51l0.09-0.12v-0.01l1.06-1.44l0.02-0.02l0.65,1.89
		l0.05,0.14c0,0,0.78,0.51,1.21,1.26c0.55,0.97,0.51,2.33-2.67,3.45c0,0-16.12,3.26-16.36,5.59l-1.22,7.04l-1.3-0.78
		c0,0-0.24,6.11-3.9,8.51c0,0-5.14,3.42-5.02,5.99c0,0-0.24-0.33-0.51-0.85c-0.08-0.14-0.16-0.29-0.23-0.46
		c-0.07-0.15-0.14-0.31-0.21-0.48c-0.13-0.34-0.24-0.71-0.29-1.08c0,0-0.01,0.03-0.03,0.09c-0.25,0.71-2,5.54-3.69,6.32
		c0,0-4.34,4.12-4.37,5.16l0.01-0.51l0.1-4.11c0,0-0.03,0.06-0.09,0.16c-0.75,1.28-5.8,9.84-8.53,11.23c0,0,0.03-0.1,0.07-0.27
		c0.37-1.5,2.13-8.76,1.23-10.1c0,0-0.27-0.86-0.73-1.83c0.01-0.01,0-0.01,0-0.01c-0.05-0.13-0.11-0.25-0.18-0.38
		c-0.1-0.21-0.2-0.42-0.32-0.62c-0.44-0.79-0.97-1.51-1.53-1.78c0,0-1.67,2.88-2.61,3.06c0,0,0.02-0.08,0.07-0.23
		c0.26-0.94,1.21-4.47,0.75-4.99c0,0-1.24,2.88-2.01,2.64c0,0,0.01-0.05,0.01-0.16c0.11-1.04,0.66-7.07-0.27-8.61
		c-0.01-0.01-0.02-0.03-0.03-0.04c0,0-3.78-5.21-5.02-7.41c-0.03-0.03-0.04-0.05-0.05-0.08c-0.09-0.15-0.16-0.28-0.22-0.4
		c0-0.01,0-0.01-0.01-0.02c-0.1-0.21-0.15-0.36-0.13-0.42c0,0-0.01,0.03-0.02,0.1c-0.08,0.47-0.4,2.6,0.14,3.84
		c-0.01,0.01,0,0.03,0.01,0.04c0.02,0.06,0.05,0.11,0.08,0.16c0.06,0.12,0.14,0.22,0.22,0.31c-0.31-0.33-2.5-2.73-3.74-5.35
		c-0.03-0.05-0.05-0.11-0.08-0.17c-0.17-0.38-0.33-0.77-0.45-1.15c0,0,0,0.01-0.01,0.03c-0.08,0.29-0.78,2.65-2.06,3.33
		c0,0,0.01-0.09,0.02-0.25c0.08-1.1,0.34-5.44-0.43-7.01c0,0,0,0.01-0.01,0.03c-0.09,0.41-1.07,4.54-3.54,5.97
		c0,0,0.02-0.1,0.06-0.28c0.21-1.06,0.89-4.94,0.18-8.11c0,0,0.53-4.32,3.6-7.56c0,0-0.16,0.09-0.42,0.2
		c-0.72,0.35-2.26,0.97-3.42,0.7c0,0,0.06-0.05,0.16-0.14c1.06-0.91,6.98-5.97,8.38-6.63c0,0,6.18-8.77,11.56-11.85
		c0,0-3.17-7.85,3.91-17.51c0,0,1.22-1.49,9.28,10.41c0,0,13.18,0.49,15.38,2.72c0,0,5.86,7.28,11.96,8.22h12.94
		c0,0,0.56,0.2,0.91,0.87C151.1,77.29,151.1,77.3,151.1,77.31z"/>
	<path class="st0" d="M127.63,74.8c0,0-0.55,2.38-5.63,0c0,0,0.03-0.03,0.09-0.09c0.37-0.35,2.02-1.57,5.41,0.03
		C127.54,74.76,127.59,74.78,127.63,74.8z"/>
	<path class="st1" d="M127.63,74.8c0,0-0.55,2.38-5.63,0c0,0,0.03-0.03,0.09-0.09c0.37-0.35,2.02-1.57,5.41,0.03
		C127.54,74.76,127.59,74.78,127.63,74.8z"/>
</g>
</svg>
