<svg width="195" height="161" fill="none" xmlns="http://www.w3.org/2000/svg"><path fill-rule="evenodd" clip-rule="evenodd" d="M18.92 80.43c0-6.351 5.149-11.5 11.5-11.5h152.86c6.351 0 11.5 5.149 11.5 11.5s-5.149 11.5-11.5 11.5H30.42c-6.351 0-11.5-5.149-11.5-11.5z" fill="#1D1D1B"/><path d="m25.59 75.12 55.98-57.43c1.78-1.82 2.69-5.33 1.86-7.75-1.2-3.51-4.21-4.72-6.23-4.93-1.51-.16-3.93.95-5 2.03L7.86 71.86c-.66.67-1.16 1.54-1.52 2.34-1.78 3.97-1.49 6.93-.84 9.54.49 1.95 2.05 4.71 3.46 6.14 10.64 10.8 52.88 53.69 62.91 63.86 2.04 2.07 5.2 2.75 7.8 1.44 2.01-1.02 2.94-2.78 3.41-4.19.76-2.27.05-4.78-1.59-6.51L25.53 85.56a7.519 7.519 0 0 1 .07-10.44h-.01z" fill="#1D1D1B" stroke="#1D1D1B" stroke-width="10" stroke-miterlimit="10"/></svg>