<svg width="1920" height="1080" viewBox="0 0 1920 1080" fill="none" xmlns="http://www.w3.org/2000/svg">
<path d="M880.7 1026.8L905.8 1028.9C908 1029.2 910.2 1029.2 912.4 1028.8L915.1 1028.3C916.3 1028.1 917.6 1028.4 918.7 1029.1L923.8 1032.7C924.6 1033.3 925.7 1033.1 926.4 1032.3C929.2 1028.9 934 1028 937.8 1030.3L955.1 1040.8C960 1043.7 965.5 1045.3 971.2 1045.3H1004.4C1006.1 1045.3 1007.7 1046.1 1008.8 1047.4L1011.6 1050.7C1012.7 1052 1014.2 1052.7 1015.9 1052.7H1022.5C1025.6 1052.7 1028.4 1054.2 1030.1 1056.8C1032.2 1060.1 1031.5 1064.4 1028.4 1066.8C1026.9 1067.9 1025 1068.6 1023.1 1068.6H931.2L880.7 1026.8Z" fill="#40563F"/>
<path d="M1770.1 918.4C1772.5 918.3 1774.8 918.1 1777.2 917.9C1787.9 917 1798.6 917.1 1809.2 918.1L1919.9 928.7V1080H1525.3L1495.5 1053.9C1483.2 1043.2 1469.2 1034.8 1453.9 1029.1L1415.6 1014.8L1397.7 1009.1C1393.3 1007.7 1388.8 1006.7 1384.2 1006L1373.7 1004.6H1286.6C1282 1004.6 1277.5 1004.4 1273 1003.9L1245.1 1001C1244.8 1001 1244.7 1000.5 1245 1000.4L1250.1 998.4C1254 996.9 1258.1 996 1262.3 995.8L1291.3 994.3C1298.4 993.9 1305.4 992.6 1312.1 990.3C1315.3 989.2 1318.7 988.6 1322.1 988.6H1331.3C1334.6 988.6 1337.7 987.3 1340 985C1341.8 983.2 1344.3 982.1 1346.9 982.1H1350.6C1353.9 982.1 1357.1 980.8 1359.5 978.4C1361.8 976.1 1365 974.8 1368.3 974.8H1372.2C1376.7 974.8 1380.9 972.5 1383.3 968.8C1385.1 966 1388.1 964.3 1391.4 964.1L1413.4 962.8C1417.4 962.6 1421.1 960.9 1424 958C1426.5 955.5 1430 954 1433.6 953.9L1498.9 952C1508.9 951.7 1518.9 950.5 1528.7 948.5L1542.2 928.9C1543.1 927.6 1544.5 926.8 1546.1 926.8L1628.1 934.2L1679.9 927.6L1770.1 918.4Z" fill="#1F381C"/>
<path d="M84.6 416.8L81.5 444.1C80.2 455.3 77.3 466.3 72.9 476.6L70.4 482.5C68.3 487.4 67.8 492.9 68.9 498.1L69.2 499.6C70.1 503.8 72 507.6 74.7 510.9L115.2 560.8C121.9 569.1 127.8 578 132.8 587.5L138.5 598.5C145.3 611.6 154.1 623.5 164.6 634L203.4 672.6C212.9 682.1 219.8 693.9 223.4 706.8L229 726.8C230 730.5 231 734.3 231.8 738.1L239 770.5C241.5 781.9 246.3 792.6 253.2 802.1L288.5 851.1L334.7 920.8C335.8 922.4 337.6 923.4 339.5 923.5L422.4 926.6C430.6 926.9 438.8 928.3 446.7 930.8L530.5 957.5C532.1 958 533.8 958.5 535.4 958.8L596.8 972.1C601.2 973.1 605.6 973.7 610.1 974.2L668 979.8C673.8 980.4 679.4 982.6 683.9 986.3L690.6 991.8C692.3 993.2 694.4 993.9 696.6 993.9H731.7C735.3 993.9 739 994.2 742.6 994.9L764.7 999C768.1 999.6 771.5 1000.6 774.8 1001.8L810.5 1015.4C817.4 1018 824.7 1019.6 832 1020.1L886.5 1023.8C892.3 1024.2 897.7 1026.7 901.8 1030.8L912.3 1041.3L948.1 1079.7H0V0H437.1L421.8 6.3C418.2 7.8 414.4 9 410.6 10L383.7 16.7C378.3 18.1 372.7 18.9 367.1 19.2L347.8 20.2C342 20.5 336.2 20.4 330.5 19.9L264.7 14C263 13.8 261.2 13.8 259.5 13.8H238.6C230.9 13.8 223.2 14.7 215.7 16.6L193 22.2C182.8 24.7 173.6 30 166.2 37.4L148.7 54.9C145.5 58.1 142 61.2 138.5 64.1L89.3 104.1C83.1 109.1 78.8 116.1 77.1 123.9L72.7 143C71.3 149.3 70.2 155.8 69.5 162.2L68 175.6C67.4 180.9 67.1 186.2 67.1 191.5V191.7C67.1 205.7 69.3 219.6 73.6 232.9L74.4 235.2C77.9 246.1 79.7 257.4 79.7 268.8V293.8C79.7 298.8 79.1 303.7 78 308.5L77.7 309.7C76.3 315.9 75.7 322.3 76.1 328.7L81.8 355.7C85.9 375.8 86.9 396.4 84.6 416.8Z" fill="#30562F"/>
<path d="M293.5 320.2C293.7 322.4 293.8 324.6 293.8 326.7L296.1 470.8L295.2 535.3L283.5 437.4L280.4 269.2L284.7 175.5C284.7 175.1 285.1 174.8 285.5 174.8C285.7 174.8 285.8 174.8 286 175C288.1 176.8 289.3 179.3 289.3 182.1L289.6 267.9L293.5 320.2ZM345.3 8.1L343.5 0H239.4V8.6C239.4 14.7 239 20.9 238.3 26.9L231.7 82.1L231.6 81.4L216.4 0H177.3L184.9 32.4C186.5 39 187.7 45.7 188.7 52.4L193.2 83.4C196.8 108.4 196.5 133.9 192.1 158.8L187.8 183.7C187.4 185.9 187.3 188.3 187.4 190.5L189.7 223.2C190 228.2 189.7 233.3 188.7 238.2L181.6 272.2C178.7 285.8 178.9 299.9 182 313.5L189.5 346.3C190.6 351 191.1 355.9 191.1 360.7V457C191.1 458.9 191.2 460.8 191.4 462.7C193 480 199.4 568.4 198.8 574.1C198.5 577 194.1 628 192.1 651.4C191.4 659.1 191.4 666.9 191.9 674.6L196 737.4C196.3 742.4 196.3 747.5 195.8 752.6L189.6 820.1L253.9 884.4L326.7 892.1L329.4 877.6L328.9 811L318.4 727.4L317.7 721.5V721.4L307.8 631.7L302 591.7L298.1 559.1C297.7 555.5 298 551.8 299.1 548.3L302 538.9C303.8 533.2 305.1 527.4 305.9 521.5C306.9 513.7 307.5 505.5 307.2 498.4C306.2 479.6 306.7 452.5 306.9 448.6L307.2 444C307.4 441.5 307.4 439 307.3 436.5L307.2 434.3L306.9 412.2L309.8 288.1L309 281.2C308.7 278.2 308.6 275.2 308.8 272.2L309.9 253.3C309.9 252.5 310 251.7 310 250.9V213.1L307.7 167.1C307.6 162 309.7 149.6 312.5 145.3L310.1 127.9C315 120.2 313 98.8 316.8 90.4L331 77.6L332.6 67L345.1 33.6C347 25.2 347.2 16.5 345.3 8.1Z" fill="#95C494"/>
<path d="M320.1 0L319.6 1.1C314.2 13.1 311.4 26.1 311.4 39.3V54.2C311.4 57 311.2 59.7 310.6 62.4L306.8 82.7C306.2 85.7 303.8 87.3 301.3 87.3C298.9 87.3 296.4 85.8 295.8 82.8C293.4 74.5 291.9 74.7 291.2 66.1L289.6 45.9C288.3 29.9 283.4 14.4 275.1 0.7L274.7 0H320.1Z" fill="#7EAA76"/>
<path d="M235.6 120.9L231.8 124.7C226.2 130.3 223.4 138.3 224.4 146.2L226.8 164.8V203.6C226.8 208.7 226.3 213.8 225.2 218.7L218.3 251.1C217.2 256.2 216.5 261.3 216.2 266.5L211.7 339.5C211.3 345.9 211.4 352.3 212 358.7L215.8 398C216.1 400.8 216.2 403.6 216.3 406.3L218.8 546.6L223.2 683.2C223.3 687.1 223.2 691.1 223 695L211 859.3L227.9 857.3L231 720.4L234.9 660.6C235.4 653.6 235.3 646.5 234.7 639.5L223.3 510L218.9 390.3C218.8 386.7 218.8 383.1 219 379.6L223.3 303.3L228.6 254.2C229.1 249.2 230.1 244.2 231.5 239.3L242.7 200.7L235.6 120.9Z" fill="#7EAA76"/>
<path d="M274.5 443.7C274.9 444.1 275.3 444.3 275.9 444.1L276 444L274.8 433C274.6 430.9 274.4 428.7 274.3 426.5C274.3 425.1 274.2 423.6 274 422.2L269 367.4C268.8 365.1 268.7 362.8 268.7 360.4V334.7C268.7 331.4 268.5 328 268.2 324.7L264.9 290.8C264.7 288.5 264.5 286.1 264.5 283.8L258.5 149.8L256.4 137.7L247.7 92.8L243.7 73.3C242.6 67.9 242.1 62.5 242.1 57V0H239.3V8.6C239.3 14.7 238.9 20.9 238.2 26.9L231.6 82.1L231.5 81.4L231.4 106.1L230.4 144.9L233.9 196.5C234.3 202.6 235.3 208.7 236.7 214.6L237.6 218.2L241.5 234.1C242.3 237.3 242.8 240.5 243.1 243.8L246.2 276.2L253.4 331C253.7 333.3 253.9 335.6 254 337.8L254.6 350.9C254.8 355.5 255.6 360.1 257 364.5L262.8 382.5C264 386.2 264.9 389.9 265.5 393.7L267.3 404.8L271.9 438C272.3 440 273.1 442.1 274.5 443.7Z" fill="#6CA36B"/>
<path d="M319.1 890.9L321.8 793.8L317.6 721.2L318.3 727.1L328.8 810.6L329.4 877.2L326.7 891.7L319.1 890.9Z" fill="#95C494"/>
<path d="M329.6 293.7C329.7 298.1 329.9 302.6 330.2 307L341.5 451.4L341.9 456.8C342.4 463.3 342.7 469.9 342.8 476.5L346.5 688V930.5C346.5 930.9 346 931.2 345.7 930.9L336.4 923.8C336.3 923.7 336.2 923.5 336.2 923.4L336.4 908.2C336.4 908 336.6 907.8 336.8 907.7L339.2 907.1C339.4 907 339.6 906.8 339.6 906.6L339.3 899.7L337.4 846.5V846.4L333.5 737.8L321.2 456.7L307.9 213.9C307.6 208.3 307 202.7 306.2 197.2L301.6 171C300.7 165.8 300.4 160.5 300.8 155.2L302.8 128C303.4 119.6 304.8 111.2 307.1 103.1C308.8 96.9 311.5 91 315.2 85.6L318.1 81.4C321.7 76.1 324.7 70.4 327 64.3L328.7 59.8L335.1 40C336.6 35.4 337.7 30.6 338.3 25.8L339 20.6C339.5 16.9 339.3 13.1 338.4 9.5L336.3 0.7C336.2 0.4 336.5 0.1 336.8 0.1H343.2C343.4 0.1 343.6 0.3 343.7 0.5L345.4 8.2C345.8 10 346.1 11.8 346.3 13.6C347.3 23.9 347.3 24.5 345.9 31.8C344.4 39.5 342.3 46.6 341.5 54.4L336.7 103.6L333.5 140.5C333.2 144.2 333 148 333 151.7V213.1L329.6 293.7Z" fill="#6CA36B"/>
</svg>
