<svg width="1920" height="1080" viewBox="0 0 1920 1080" fill="none" xmlns="http://www.w3.org/2000/svg">
<path d="M1103.4 404.6C1077.1 444.4 1059.7 443.8 1012.2 501.9C981.7 539.2 985.9 561.4 989.2 570.1C996.7 589.4 1006.2 593.6 1032.1 626C1060.3 661.4 1063.3 676.4 1061.4 698C1058.5 730.6 1043.9 739 1009.1 782.2C1001.9 791.1 986.1 831.4 998.4 868.7C1003.1 883 1016.5 924.5 1008.6 937.6L1006.1 930.8C971.4 854.2 962.7 824.7 970.9 797.5C978 773.7 984.4 772.6 998.5 743.9C1003.7 733.2 1007.5 713.5 1003.1 693.3C997.4 667.1 979.3 659.5 952.6 630.5C929.1 605.1 903.6 577.3 899 543.2C895.4 516.8 907 488.3 938.8 437.5C980.4 371.1 989.9 367.8 993.9 336.4C998.9 297.3 981.2 265 963.3 232.2C931.9 175 909 175.4 880.5 125C869 104.7 833.6 42.1 850.3 0H1057.4C1051.2 10.2 1010.7 40 1035.2 104.5C1059.7 168.9 1111.1 200.5 1127.1 267.5C1137.4 310.6 1129.9 364.5 1103.4 404.6Z" fill="url(#paint0_linear_5_16)"/>
<path d="M1920 1065.4V1080H0V1075.4C94.6 1045.4 288.4 990.5 540 954.4C542.7 944.9 533.3 935.2 533.3 935.2C540.7 934.2 550.9 947.4 550.9 947.4C547.1 939.2 555.7 927.7 555.7 927.7C553.9 942.1 561.6 947.9 561.6 947.9C566.2 934.9 589.6 923.2 581.4 929.3C573.3 935.4 573.9 949.7 573.9 949.7C805 918.8 1081.5 904.8 1373.1 939.4L1370.4 932.9C1379.6 932.9 1387.3 939.9 1388.7 941.3C1388.8 941.3 1388.9 941.3 1389 941.3C1389.6 939.8 1393.4 930.4 1395.5 928.5C1395.5 928.5 1399.5 933.5 1400.6 942.7C1403.2 943 1405.8 943.4 1408.4 943.7L1406.4 936.6C1406.4 936.6 1412.4 939.8 1414.4 944.5C1414.6 944.5 1414.9 944.5 1415.1 944.6C1415.6 941.7 1417.2 935.3 1422.4 933C1422.4 933 1422.2 941.5 1425.8 946C1427.7 946.3 1429.6 946.5 1431.5 946.8C1434.2 944.7 1438.6 940.1 1441.6 931.6C1441.6 931.6 1445.4 937.9 1446 948.9C1467.9 952.1 1489.8 955.6 1511.8 959.3C1512.1 957.2 1511.8 953.9 1508.2 950.3C1508.2 950.3 1517.8 950.1 1523.5 961.3C1523.9 961.4 1524.4 961.4 1524.9 961.5C1526 959.5 1528.2 955.1 1527.8 951.1C1527.8 951.1 1531.6 957.1 1531.9 962.8C1543.7 964.9 1555.5 967.1 1567.3 969.4C1568.7 964.3 1572.8 953.5 1583 953.5C1583 953.5 1579 965.6 1583.1 972.5C1694.4 995.1 1808 1025.6 1920 1065.4Z" fill="#5C5C5C"/>
<defs>
<linearGradient id="paint0_linear_5_16" x1="960.012" y1="0" x2="960.012" y2="1080" gradientUnits="userSpaceOnUse">
<stop stop-color="#5C5C5C"/>
<stop offset="1" stop-color="#C0C0C0"/>
</linearGradient>
</defs>
</svg>
