<svg width="1920" height="1080" viewBox="0 0 1920 1080" fill="none" xmlns="http://www.w3.org/2000/svg">
<path d="M823.5 594.2C823.5 594.2 830.5 600.2 831.8 616.3C831.9 617.9 832.7 619.3 834 620.3L842.2 626.6C842.7 627 843.5 626.8 843.8 626.2L851.7 605.5L850.3 635.3C850.2 636.5 850.6 637.7 851.3 638.7L859.6 650.9C859.8 651.2 860.2 651 860.2 650.7C860.4 647.5 862.1 637.4 876.5 632.1C876.5 632.1 864.5 640.8 866.3 650.9C866.4 651.2 866.8 651.4 867 651.1C869 648.3 876.5 638.6 884.4 637.3C884.4 637.3 866.8 650.1 871.6 664C872.1 665.4 872.9 666.6 873.9 667.6L877.1 670.8C878.5 672.2 880.1 673.4 881.9 674.4L892.4 680C892.8 680.2 893.2 679.8 893 679.4L889.2 670.8C888.5 669.2 888.5 667.5 889 665.9L893.5 652.8V666.5C893.5 667.7 893.8 668.9 894.5 669.9L899.6 678.2C899.9 678.6 900.5 678.5 900.6 678L901.7 668.6L903.7 680.3C904 682.2 904.8 684 905.9 685.6L909.8 691.3C911.1 693.2 913.3 694.4 915.6 694.4H928.8C930 694.4 931.1 694.1 932.1 693.6C935.7 691.7 943.4 685.7 946.1 669.4V679.8C946.1 680.4 946.8 680.7 947.2 680.3C950.4 677.7 959 669.1 956.3 655.9C956.3 655.9 962.7 666.8 953.9 681.8C953.8 682.1 954 682.4 954.3 682.3C960.1 680.7 995.7 669.4 969.9 641.9C969.9 641.9 975.6 643.1 983.7 656C983.9 656.4 984.5 656.4 984.7 656C985.9 654 988 647.7 976.2 637.6C976.2 637.6 986.9 641.3 990.3 649C990.5 649.4 991.1 649.5 991.3 649.1L994.3 644.3C995.1 643.1 995.4 641.6 995.3 640.2L992.9 608.2L1001.8 631.9C1001.9 632.3 1002.4 632.4 1002.8 632.2L1013.5 623.7C1014 623.3 1014.3 622.6 1014.3 622C1014 618.2 1013.7 604.7 1021.5 596C1021.5 596 1015.7 610.8 1017.2 620.1C1017.5 621.8 1017.2 623.5 1016.6 625C1015.5 627.8 1013.3 632 1010 635.6C1006.8 639 1003.7 642.6 1001.1 646.5L988.2 665.6C988 665.9 988.3 666.4 988.7 666.3L994.4 665.5C996 665.3 997.6 664.6 998.9 663.6L1013.8 652.3C1013.8 652.3 1004.7 672 992.7 672.5C991.4 672.6 990.1 672.6 988.8 672.8C984.6 673.5 980.6 675.1 977 677.6C972.6 680.7 965.2 684.9 956.1 686.6C952.9 687.2 949.8 688.5 947.2 690.6L941 695.4C939.9 696.3 939 697.5 938.7 698.9C938.5 700 940.6 701.6 942.2 699C942.2 699 944.8 692.5 966.2 690.1C966.2 690.1 964 707.8 944 712.8C943.6 712.9 943.3 713.2 943.1 713.6L941.5 719.9C940.9 722.2 940.9 724.6 941.6 726.9L943.9 735.2C944.3 736.7 945.2 738 946.4 739.1C950.3 742.4 959.2 750.4 962.1 755.9C962.3 756.3 962.8 756.6 963.3 756.6H967.6C968.7 756.6 969.8 756.5 970.9 756.4L978.5 755.3L976.4 757.4C976.3 757.5 976.4 757.8 976.6 757.8H984.9C986.7 757.8 988.5 757.5 990.2 757L1011.4 750.7L1009.3 754.5C1009.2 754.7 1009.4 755 1009.6 755C1015.2 754.1 1056.1 748.2 1073.1 771.1C1074 772.3 1075.1 773.3 1076.4 774.1C1080.3 776.5 1088.7 784 1086.1 804.2L1078.1 796.2C1078.1 796.2 1078 796.2 1078 796.3C1078.6 798 1081.7 807 1079.9 817.3C1079.6 818.9 1079.6 820.4 1079.8 822L1081.7 836.2C1082.1 839.1 1083.2 841.9 1085 844.2L1096.2 858.9C1097.7 860.9 1098.4 863.3 1098.2 865.7L1097.2 879.9C1097.1 882 1097.1 884 1097.3 886.1L1102.1 930.2L1103.1 951.8L1085.2 954.4L1087.9 918.1C1088.2 914.5 1088 910.9 1087.4 907.4L1083.6 885.7C1083.3 884.1 1082.8 882.6 1082.2 881.1L1079.7 875.8C1078.7 873.7 1077.5 871.8 1076.1 870L1059 848.7L1050.7 835.9C1050 834.8 1049.1 833.8 1048.1 832.9C1045.9 831.1 1043.1 830 1040.2 830C1036.7 830 1032 830.5 1028.6 833.4C1027 834.8 1026.5 837 1027.4 839L1030.5 846.3C1031.3 848.1 1032.1 849.8 1033.1 851.4L1038.1 860C1039.2 861.9 1040.4 863.9 1041.7 865.8C1043.3 868.2 1046.7 875.7 1038.7 889.8C1037.7 891.6 1036.2 894.7 1035.3 896.6L1021.6 927.1C1020.7 929.1 1019.7 931.1 1018.7 933L1013.7 942.2C1013.5 942.5 1013.4 942.8 1013.3 943.2L1012.7 946.3C1012.6 946.6 1012.4 946.9 1012.1 946.9L1010.2 947.5C1009.9 947.6 1009.6 947.8 1009.4 948.1L1001.9 959.4H990.3L991.5 950.9L1002.4 935.1C1004.2 932.5 1005.8 929.8 1007.1 926.9L1017.5 905.3L1023.8 890.5C1023.8 890.5 1029.1 881 1019.9 867.4L1006.2 846.9C1004.3 844.1 1001.3 842.3 998 841.9C994.6 841.5 990 841.3 986 842C982.3 842.6 979.2 845.3 977.8 848.8L974.9 856.3C974 858.6 973.4 860.9 972.9 863.3L970.5 875.6C969.7 879.6 968.3 883.5 966.3 887L965.9 887.7C964.2 890.7 963.3 894 963.3 897.5V901C963.3 902.7 962.9 904.5 962.1 906L960.9 908.4C959.7 910.7 959 913.3 958.7 915.9L957.1 931.1C956.9 933.3 956.8 935.6 956.9 937.8L957.4 947.3C957.4 948.2 957.7 949.2 958.1 950L958.6 951C958.9 951.6 959.1 952.4 959.1 953.1V956.6H943.1L949.8 909.1C950 907.8 949.7 906.4 949 905.3L947.9 903.5C946.8 901.8 946.5 899.8 947 897.9L947.4 896.4C947.7 895.1 948.3 893.8 949 892.6L950.7 889.9C951.3 889 951.6 888 951.7 887L955.3 851.7C955.5 849.4 954.2 847.2 952 846.4C949.4 845.5 945.7 844.6 941.5 845.1C938.4 845.5 935.8 847.4 934.4 850.1L919.5 879C918.9 880.1 918.7 881.3 918.7 882.5V883.8C918.7 885.4 918.1 886.8 917 888L916.1 888.9C914.8 890.2 914.1 891.9 914.1 893.7L914.3 915.6L915.3 928.2C915.5 930.9 916.2 933.6 917.4 936L925.7 953.2H909.4L906.4 946.1C905 942.8 904.3 939.3 904.4 935.7L904.9 915.1C905 912.2 904.8 909.2 904.5 906.3L903.8 900L902.7 894.7C902.2 892.4 901.9 890 901.7 887.6L901.5 885.3C901.2 882.1 901.8 878.9 903.2 876.1L904.2 874C904.7 872.9 905 871.7 905 870.5L905.8 838.1C905.9 835.2 905.2 832.4 903.8 829.9C902.1 826.8 899.6 818.5 897.9 796.4C897.7 793.1 897.6 789.8 897.7 786.5L898.6 749.4C898.7 745.4 899.1 741.4 899.9 737.5L901.4 729.8C901.8 727.6 901.9 725.4 901.7 723.2L901.4 720.4L899.7 710.4C899.6 709.8 899.1 709.3 898.5 709.1H898.4C893.3 708 888.6 705.3 885.1 701.4L884.4 700.6C881.3 697.1 879.3 692.7 878.7 688.1L878.4 685.5L882.6 686.9C887.9 688.6 892.8 691.3 897.1 694.8L900.6 697.6C901.1 698 901.7 698.3 902.4 698.5C903.4 698.7 904.6 698.6 904.3 696.7C904.2 696 903.8 695.3 903.3 694.8L898.3 689.8C896.6 688.1 894.7 686.8 892.5 685.8L882.6 681.4C880.7 680.6 879 679.5 877.4 678.3L867.1 670.6L862.6 666.8C862.1 666.4 861.4 666.1 860.8 666.1L849.9 665.3C848.9 665.2 847.9 664.9 847.1 664.4C844.3 662.6 838 657.7 833.6 646.5C833.6 646.5 842.3 656.5 850.1 658.9C850.8 659.1 851.6 659.2 852.3 659.2H856.7C857.5 659.2 858 658.3 857.5 657.6L845.8 641.8L835.2 630.4L829.4 621.8C828.9 621 828.6 620.1 828.6 619.2C828.2 614 827.8 598.5 823.5 594.2Z" fill="#0E1934"/>
<path d="M1203.8 346.8L1213.5 354.8C1215.6 356.5 1216.6 359.1 1216.4 361.8L1214.2 384.9L1212.7 400.3C1212.2 406 1212 411.7 1212.3 417.5L1213.8 453C1214.1 458.9 1214.5 464.7 1215.2 470.5L1216.8 484.2L1222.3 530.6C1222.9 535.9 1223.4 541.2 1223.6 546.5L1224.9 573.5C1225.3 580.8 1225.1 588.2 1224.5 595.5L1222.3 622C1221.8 627.9 1221.7 633.9 1221.9 639.9L1223.6 684.8L1223.9 758.1L1225.4 821.7V851.7C1225.4 857.1 1225.6 862.5 1226 867.8L1230.2 920.5L1233.1 940.4L1290.9 901.3L1284.3 849.3C1283.8 845.1 1283.5 840.8 1283.4 836.6L1282.3 802.8C1282.2 798.3 1282.2 793.7 1282.4 789.2L1283.7 761C1283.8 758.3 1283.8 755.6 1283.7 752.9L1282.2 722.9C1282 718.7 1280.3 714.8 1277.6 711.7C1273.6 706.9 1268.1 695.1 1268.4 666.3C1268.4 663.2 1268.4 660.1 1268.2 657C1267.6 647 1268.6 615.2 1296.9 567.9L1312.7 542C1316.8 535.2 1321.2 528.5 1326.1 522.2C1330.8 516 1338.4 502.3 1340.7 476.4C1341.9 463 1343.6 449.6 1346.1 436.3L1349 420.9C1350.2 414.3 1351.9 407.9 1354.1 401.5L1360.8 381.8C1363.4 374.2 1366.4 366.9 1370 359.7L1394.6 309.9L1376.7 297.4L1347.1 352.6C1346.7 353.3 1345.8 353.3 1345.4 352.6L1343.3 349C1342.2 347.2 1341.6 345.1 1341.4 343L1340 324.5C1339.8 321.3 1339.3 318.1 1338.6 314.9L1336.2 304.2C1334.3 295.5 1333.7 286.5 1334.5 277.6L1335.3 269.6H1327.1V282.9C1327.1 286 1327.2 289 1327.4 292.1L1328.4 305.3C1328.7 309.1 1329.2 312.9 1329.9 316.6L1333.6 336.4C1334.2 339.7 1334.6 343 1334.7 346.4L1335.5 368.5C1335.7 372.6 1334.8 376.8 1333.1 380.5L1327 393.9C1325.1 398 1323.6 402.2 1322.5 406.6L1316.5 429.1C1315.9 431.5 1315.3 433.9 1314.8 436.4L1309 464.9C1308 469.8 1307.1 474.7 1306.5 479.6C1305.4 488.1 1301.4 507.2 1286.5 523.6C1286.5 523.6 1271 540.4 1265.9 552.4C1265.6 553 1264.8 552.9 1264.7 552.2L1261.2 529.1C1259.4 517.2 1258 505.3 1257 493.4L1254.3 460.7C1253.9 455.5 1253.7 450.2 1253.8 444.9L1255 400C1255.2 391.9 1254.8 383.7 1253.5 375.7C1253.5 375.6 1253.5 375.4 1253.4 375.3C1252.4 369.2 1250.6 363.2 1247.9 357.6C1245.3 352 1241.9 340.8 1245.1 324.1L1248.7 289.1L1256.2 235L1236.9 226.6L1237.8 229.9C1238.2 231.3 1238.3 232.7 1238.2 234.1L1234.9 275C1234.8 275.6 1233.9 275.7 1233.8 275.1L1222.6 219L1210.9 213.1L1213.5 241.7L1214.8 260.1L1216.5 274.6C1217.4 281.9 1217.7 289.4 1217.6 296.8L1217.3 310.8C1217.2 315 1217.4 319.2 1217.9 323.4L1218.3 326.9C1218.4 327.6 1218.5 328.4 1218.6 329.1C1218.9 331.5 1219.5 338.9 1213.8 334.7C1212.3 333.6 1211 332.1 1209.9 330.5L1204.7 322.3C1202.1 318.3 1199.3 314.4 1196.2 310.8L1191 304.6C1187.5 300.5 1183.6 296.7 1179.3 293.4L1178.7 293C1176.5 291.3 1173.9 290.2 1171.2 289.6C1166.9 288.6 1159.4 284.1 1156.1 265.1C1155.5 261.9 1154.8 258.7 1154.1 255.6L1146.4 223.9L1142.6 209.2C1141.2 204 1140.5 198.7 1140.4 193.4L1139.8 159.1L1118.1 151.4V193.8C1118.1 201.1 1119 208.3 1120.7 215.3L1134.3 270.5C1135.2 274.2 1136.5 277.9 1138.2 281.4C1140.9 287 1145.2 291.6 1150.5 294.8L1150.9 295C1158.9 299.8 1166.4 305.5 1173 312.1L1174.4 313.5C1175.8 314.9 1177 316.4 1178 318.1C1179.9 321.3 1182.2 324.2 1184.6 327L1192 335.4C1195.5 339.4 1199.5 343.3 1203.8 346.8Z" fill="#0E1934"/>
<path d="M524.1 642.7L526.2 569.3C526.3 566.4 526.5 563.5 526.8 560.6L528.9 540.6C529.1 538.7 530 536.9 531.4 535.5L536.6 530.5C538.7 528.5 539.9 525.7 539.9 522.8C539.9 520.5 540.8 518.3 542.5 516.7L551.9 507.7L573 486.9C575.8 484.1 578.9 481.6 582.2 479.4C584 478.2 585.1 476.2 585.1 474C585.1 473.1 585.5 472.2 586.1 471.6L586.7 471C589.1 468.6 591.8 466.4 594.7 464.4L623.7 444.8C626.6 442.8 630.1 441.8 633.6 441.8C635.3 441.8 636.9 441.4 638.4 440.8L645.5 437.6C646.4 437.2 647.2 436.6 647.9 435.9C649.2 434.5 651 433.6 653 433.5L684.3 432.1C687.9 431.9 691.2 430.4 693.9 428C698.6 423.6 707.5 420.7 713 419.2C716.5 418.2 719.8 416.7 722.9 414.7L735 406.8C738.8 404.3 741.6 400.6 742.9 396.3L744.8 390C745.7 387.1 746.2 384.1 746.4 381L746.6 377.8C746.8 374.9 747.5 372 748.7 369.3L749.9 366.6C750.9 364.4 751.4 361.9 751.4 359.4V358.3C751.4 355.9 751.7 353.5 752.3 351.2L753.3 347C754.3 343.1 755.6 339.3 757.2 335.6L761.3 326.2C763 322.3 764 318 764.2 313.7L764.3 311.1C764.4 309.5 764.5 307.9 764.7 306.4L765.3 301.5C765.7 298.7 765.9 295.8 766.1 292.9L767.7 261.1C767.8 258.3 768.1 255.5 768.6 252.7L772.3 228.8L761.1 227.3L759.2 249.1C758.9 252.3 758.5 255.5 758 258.6L752.9 289.3L749.4 305.6C748.5 309.7 747.5 313.7 746.2 317.7L735 353.8L726.7 383.2C725.1 388.8 721.6 393.6 716.7 396.6L700.1 407.1C697.4 408.8 694.2 409.8 691 410L683.4 410.5L663.2 412.5L643.4 415.4C640.6 415.8 637.7 416 634.9 415.9L629.7 415.8C628.3 415.8 627.5 414.2 628.2 413L631.1 408.6C633.2 405.4 636 402.7 639.2 400.8L645.5 397C648.4 395.3 651.1 393.3 653.8 391.3L654.4 390.8C658.7 387.5 662.2 383.3 664.8 378.5C678.1 353.6 682.7 329.9 684.1 321C684.7 317.3 685.3 313.6 685.9 309.9L686.7 305.5C688.2 297.6 688.3 289.4 687.1 281.4L686.3 276.4V271.6C686.3 265.5 687.3 259.5 689.3 253.7L691.7 246.8L675 244L672.2 262C671.7 265.3 671.4 268.6 671.4 272V294.5C671.4 298 671.2 301.4 670.8 304.9L668.9 321.1C668.5 324.2 668 327.2 667.2 330.3L664.9 339.1C663.8 343.5 662.2 347.8 660.1 351.8L659.3 353.4C655.7 360.6 651 367.1 645.3 372.8L635.3 382.8L632.7 385.6C632.2 386.1 631.6 386.4 630.9 386.4C629.7 386.4 628.5 387 627.8 388L623.9 393.6C622.4 395.7 620.1 396.9 617.5 396.9H612.8C610 396.9 607.5 398.5 606.2 401L601.4 410.8C600.2 413.2 598.2 415.1 595.8 416.1L594 416.9C590.9 418.2 588.1 420 585.7 422.3L567.8 439C564 442.6 560 446.1 555.9 449.4L530.9 469.6C530.3 470.1 529.5 470 528.9 469.5L528.4 469C527.9 468.5 527.2 468.4 526.5 468.7L516.5 473.2C516 473.4 515.5 473.1 515.5 472.6L515.7 435.8C515.7 433 515.9 430.1 516.4 427.4L518.9 411.4C519.7 406.5 519.6 401.5 518.8 396.6L518.5 394.8C518 391.7 517.7 388.6 517.7 385.5V335.5C517.9 316 524.5 309.8 528 308C529.2 307.3 530 306 530 304.6V302.9C530 300.7 530.1 298.4 530.3 296.2L532.7 270.2C532.7 269.7 532.9 269.2 533.2 268.8C534.4 266.8 534.5 264.4 533.6 262.3L532.6 260C532.1 258.8 531.8 257.6 531.8 256.3V252.3C531.8 249.9 532.1 247.6 532.6 245.3L533.7 240.7C534 239.5 534.1 238.2 534.1 236.9V220C534.1 214.7 534.4 209.3 534.9 204L537.1 182.3L513.9 188.9L509.7 213C508.9 217.5 508.9 222.1 509.6 226.6L512.6 245.8L514 259.3C514.6 264.7 514.3 270.2 513.2 275.5C512.1 280.5 510 285.2 507 289.3L503.7 293.8C499.5 299.6 496.3 306 494.4 312.9L492.7 319C491.3 324.1 490.2 329.4 489.5 334.7L487.9 346.8C487.5 349.9 487.2 353.1 487 356.3L486.3 370.6C486.3 371.2 485.4 371.4 485.2 370.8L480.1 357.9L477.9 352.4C476.1 348.1 474.2 343.8 472.1 339.6L469.8 334.9C468.5 332.3 467 329.8 465.4 327.4L455.3 312.6C454.1 310.9 453.3 309 452.9 306.9C452.5 304.7 452.7 302.5 453.7 300.5L454.6 298.5C455.7 296.2 455.8 293.5 455 291.1L454.1 288.3C452.9 284.7 452.2 280.9 452.2 277.1V269.2C452.2 266.7 451.8 264.2 451.1 261.8L450.6 259.9C450.1 258.3 449.9 256.6 449.9 254.9V250.1C449.9 247.5 449.5 245 448.7 242.5L448 240.3C446.6 235.9 444.5 231.7 441.9 227.9L429 209.4C427.8 207.7 426.6 205.9 425.5 204.1L415.9 188.4L404.2 197.8L433.4 243.9C434.2 245.2 434.9 246.5 435.5 247.9C437.6 252.6 438.7 257.7 438.8 262.8L439.6 301.3C439.6 303.1 440 304.9 440.7 306.6L441.3 308.2C441.9 309.7 442.2 311.3 442.1 312.9L442 316.4C442 317.7 441.6 319 441.1 320.2L439.9 322.7C439.6 323.2 438.9 323.4 438.5 322.9L436 320.4C433.3 317.7 431.2 314.5 430 310.9L427.9 305.1C427.2 303.1 426.2 301.2 425.1 299.4L422.3 295.1C420.9 292.8 419.7 290.4 419 287.8L417.9 284.3C417.2 281.9 416.6 279.4 416.3 276.9L414.7 265.7C414.5 264.2 413.4 262.9 412 262.5L405.2 260.2L398.1 258.4C396.1 257.9 394.3 256.8 392.9 255.3L392.1 254.4C391.1 253.2 390 252.1 388.9 251L384.7 246.8C383.9 246 383.5 245 383.5 243.8V241.6C383.5 239.6 382.6 237.6 380.9 236.4L370.7 228.5C368.3 226.6 366.2 224.4 364.6 221.8L361.8 217.5L355.2 224.1L366.4 237.2C369 240.2 371.3 243.4 373.4 246.7L381.9 260.3C383.1 262.3 384.9 263.8 387.1 264.7L395.4 268.2C397 268.9 398.3 270 399.3 271.4L405.2 280.2L412.2 297.2C413.3 300 414.2 302.9 414.8 305.8L416.7 315.5C417.2 317.8 418.3 320 420 321.7L424.6 326.3C425.3 327 425.8 328 425.8 329.1V333C425.8 334.9 426.4 336.7 427.5 338.2L436.1 350C437 351.2 437.1 352.8 436.5 354.1L436.1 355C435.2 357 436 359.3 437.9 360.4C439.3 361.1 440.2 362.6 440.2 364.1L440.4 368.1C440.5 370.3 441.3 372.4 442.7 374.1C443.5 375 443.9 376.2 443.9 377.4V434.5C443.9 437.7 443.1 440.9 441.7 443.8C440.8 445.6 440.5 447.6 440.9 449.6L444.9 470.7C445.6 474.3 445.8 478 445.6 481.7L443.7 513.4C443.5 516.8 440.8 519.5 437.5 519.7L434.9 519.9C433.8 520 432.6 519.7 431.6 519.1L423.2 514.1L401.1 504.3C397.8 502.8 394.7 501.1 391.7 499L378.3 489.6C375.2 487.4 372.8 484.5 371.2 481.2L370.6 479.9C369.2 477 367.3 474.4 365.1 472.1L358.4 465.4L348 455.3C346.9 454.3 346.1 453 345.7 451.5L343.9 445.8C342.1 440.2 341.2 434.3 341 428.4L340.7 419.2V411.6C340.7 407.7 339.6 403.9 337.6 400.6L335.3 396.8C334.6 395.6 333.4 394.7 332 394.3C330.7 393.9 329.5 393.2 328.4 392.4L318.5 384.3C316.8 382.9 315.5 381.3 314.5 379.4L311 372.6C309 368.8 306.8 365.1 304.3 361.5C294.6 347.6 278 325.9 278 325.9L249.9 324.6C295.6 359.4 299.6 375.2 298.8 380.9C298.5 382.9 299.4 384.9 301 386L306.6 390C308.6 391.4 309.9 393.5 310.3 395.9L311.7 403.9L315.9 422.9C316.7 426.5 317.9 430.1 319.4 433.5L324.6 444.8C324.9 445.4 324.1 446 323.6 445.5L313.4 435.3L301.9 423.4C297.4 418.8 293.6 413.5 290.5 407.8L285.9 399.3C284.5 396.8 282.6 394.6 280.2 392.9L276.2 390.1C273.5 388.2 270.4 386.8 267.3 385.8L264.2 384.9C263.7 384.8 263.2 384.6 262.7 384.5L239 379.3C212.2 372.4 215 361.9 215 361.9L205.6 366.8C205.8 375.4 219.4 381.8 224.8 384.1C225.1 384.2 225 384.7 224.7 384.6C216.5 383.4 205.1 381.1 205.1 381.1L203.6 396.2C219.9 399 228.4 398.2 232.8 397C237.3 395.7 242 395.6 246.5 397C274.7 406.3 284.7 431.4 288.1 445.2C289.7 451.9 293.2 457.9 298.1 462.7L305.9 470.5C308.8 473.4 311.8 476 315 478.5L348 503.9L381.6 526.7C384.7 528.8 388.2 530.6 391.7 531.9L402.2 535.7C404.7 536.6 406.6 538.7 407.2 541.3L410 553.8C410.2 554.9 410.2 556.1 409.9 557.1L408.6 561.6C407.3 566 409.4 570.7 413.6 572.7C414.5 573.1 415.1 574 415.3 575L419.9 603.7C420.1 605 420.2 606.2 420.2 607.5V618C420.2 619.2 420.7 620.3 421.5 621.2L422.2 621.9C423.2 622.9 423.8 624.2 423.8 625.6V745.4C423.8 750 422.2 754.5 419.2 758L412.9 765.4C408.7 770.3 406.5 776.5 406.5 782.9V788.8H551.5C552.9 777.9 548.6 767.1 545.1 760.6C542.5 755.7 540.9 750.3 540.3 744.8L538.6 729.7C538 724.3 537.1 719 536 713.8L533.8 704C532.5 698.3 531.8 692.5 531.5 686.7L525.9 654.8C525.6 653.2 525.9 651.6 526.7 650.2C527.8 648.2 527.3 645.7 525.4 644.5C524.4 644 524.1 643.4 524.1 642.7Z" fill="#0E1934"/>
<path d="M225.999 345.2L226.399 345.6C228.599 347.6 231.399 348.9 234.399 349.3C234.499 347.1 233.999 344.9 232.799 343L231.599 341L225.999 345.2Z" fill="#1D1D1B"/>
<path d="M-0.900391 0.700012V1080.7H1919.1V0.700012H-0.900391ZM311.1 685.9C311.1 686.1 310.9 686.3 310.6 686.2L295.9 679.8C295.6 679.7 295.5 679.4 295.7 679.1C298.2 675.1 304.5 671.9 311.6 669.5C310.7 677.5 311 684 311.1 685.9ZM312.5 663.2C302.1 666.3 297.3 672.7 297.3 672.7C298.2 665.8 305.8 661.1 313.6 658C313.2 659.7 312.8 661.5 312.5 663.2ZM314.8 653.9C294.4 657.4 292.5 670.8 292.4 674.1C292.5 663.9 299.1 647.1 304.9 634.2C308.9 640.6 312.3 646.8 315.2 652.7L314.8 653.9ZM332.7 706.6L330.7 707.8C330.5 707.9 330.2 707.9 330.1 707.6L327 701.3C326.9 701 326.8 700.7 326.7 700.4L325.6 690.4C325.6 689.9 325.2 689.6 324.7 689.5L316.1 688.6C315.1 681.5 315.4 674.5 316.3 668.1C318.1 667.6 319.8 667.1 321.5 666.7C330.4 688.2 332.6 703.3 332.9 705.9C333 706.2 332.9 706.4 332.7 706.6ZM317.5 662.1C317.7 661.1 318 660 318.2 659C318.6 660 319.1 660.9 319.5 661.8C318.8 661.9 318.1 661.9 317.5 662.1ZM671.9 852.7C666.1 846.7 672.6 832.8 672.6 832.8C666.3 835.9 664.6 848.3 664.6 848.3C653.4 838.3 629.5 836.7 629.5 836.7C638.3 828.4 674.8 823.4 682.8 822.4C686.5 847.8 692.3 864.6 692.6 865.7C688.7 859.2 671.9 852.7 671.9 852.7ZM757.9 905.7C753.3 902.1 732.9 899.6 732.9 899.6C738.7 893.4 747.9 888.9 756.3 885.8C758.6 897.2 757.9 905.7 757.9 905.7ZM1104.8 947.2C1101.7 942.7 1107.9 936.3 1110.2 934.2C1115.4 940.8 1119.1 947.2 1119.1 947.2H1104.8ZM1371.2 876.9L1364.8 879.7C1366.3 873.6 1360.5 870.5 1360.5 870.5C1359 863.4 1367 846.3 1372.9 834.9C1374 851.2 1372.9 870 1372.6 875.1C1372.5 875.9 1372 876.6 1371.2 876.9ZM695.5 258.2C697.7 256.2 699 253.4 698.9 250.4V249.9L700.6 254.7C701.8 258.1 703.7 261.2 706.1 263.9L711.9 270.4L717.8 256.5C719 253.7 719.6 250.7 719.6 247.6V240.7L720.6 241.9C721.3 242.8 722.2 243.5 723.3 244L725.5 245.1L726.4 242.9C726.8 241.9 727 240.7 726.9 239.6L726.5 235.6L730 241.9C731.4 244.5 733.6 246.6 736.3 248L740 249.9L741.8 244C742.7 241.1 743 238.1 742.8 235.1L742.3 226.2L743.6 228.3C744.2 229.2 744.9 229.9 745.8 230.5L748.4 232.1L749.3 229.8C749.8 228.4 750 226.8 749.9 225.3L749.5 220.4L759.6 234.4C760.8 236.1 762.5 237.5 764.3 238.4L767.1 239.8L770.2 237.3L776.8 232.1L777.9 234.7C778.6 236.4 779.6 237.9 780.9 239.1L783.8 241.8L785.7 238.4C786.3 237.3 786.7 236.1 787 234.9L788 229.9L789.8 232.1C791 233.6 792.6 234.8 794.3 235.5L798.7 237.3L800.7 233.7C801.5 232.3 802 230.7 802.1 229.1L803.1 217.7L805.3 223.3C806.8 227 809.4 230.1 812.7 232.3L817.9 235.6L822.8 229.7C824.6 227.6 825.7 225 826.1 222.2L827.1 215.2L831.7 221.4C833.6 224 836.3 225.9 839.4 226.8L845.8 228.7L849.4 221.5C850.5 219.2 850.9 216.7 850.6 214.2L849.2 203.3L850.7 206.5C851.3 207.8 852.3 208.8 853.5 209.3C854.2 209.6 854.8 210 855.5 210.5L856.8 211.4L857.3 210.1C857.5 209.5 857.9 208.9 858.3 208.3C858.7 207.7 858.9 207 858.8 206.3L858.7 205L867.9 210.2C869.7 211.3 871.8 212 873.9 212.3L879.6 213.2L882 209.5C883.6 207.1 884.2 204.1 883.6 201.3L881.9 193.1L884 195.4C885.6 197.2 887.8 198.4 890.2 198.7L894.4 199.3L897.5 195.6C899 193.8 900.1 191.6 900.6 189.3L903.2 178L906.2 182.3C907.3 183.9 908.7 185.1 910.4 186L916.5 189L919.6 182.3C920.4 180.6 920.7 178.7 920.5 176.9L919.7 169.6L925.6 174.8C927.7 176.6 930.1 177.9 932.7 178.7L937.3 180.1L939.8 176.9C942.4 173.6 944.1 169.7 945 165.6L946 160.4L947.6 163.2C948.7 165.1 950.6 166.5 952.8 166.9L955.1 167.3L956.9 163.7C957.8 162 958.1 160 957.7 158L956.9 154L957.6 154.7C960.3 157.4 963.8 159.2 967.5 159.7L968.6 159.8L970.9 156.2C971.9 154.7 972.6 153 973 151.3L973.7 148.5L975.1 150.2C976.4 151.8 978.4 152.5 980.4 152.1L982.1 151.8L982.3 151.1C983.2 148.4 983.2 145.4 982.5 142.7L981 136.6L988.7 146.8C989.6 148 990.2 149.3 990.5 150.8L990.6 151.3C991.4 155.2 993.3 158.8 996.1 161.6L999.4 165L1003 162.5C1005.7 160.6 1007.5 157.7 1008 154.4L1008.6 150.9L1011.1 153.7C1013 155.9 1015.6 157.3 1018.4 157.8L1022.7 158.6L1024.6 154.2C1025.6 151.9 1026.1 149.3 1026 146.8L1025.7 140.3C1029.5 143.1 1034.1 144.6 1038.9 144.5H1039.8L1040.5 142.6C1042.1 138.3 1042.2 133.7 1040.8 129.3L1042.6 125.9C1043.3 124.5 1045.2 124.3 1046.3 125.4L1048.9 130.2C1050 132.3 1051.9 134.1 1054.1 135.1L1057.7 136.7L1059.8 134.5C1061.5 132.7 1062.5 130.4 1062.6 128L1062.7 126.7C1063 126 1063.8 125.7 1064.6 126L1073.1 129.1V138.3C1073.1 142.3 1074 146.3 1075.7 150L1080.2 159.5L1086.6 153.9C1088.1 152.5 1089.5 151 1090.6 149.3L1096 141.2L1098.2 150.6C1098.8 153.2 1100.1 155.5 1102 157.3L1109.8 164.7L1116.4 151.4C1116.4 151.4 1117.1 160.9 1118.4 164.7C1118.7 165.7 1138.8 176.9 1138.8 176.9C1138.2 181.3 1139.7 185.8 1142.8 189L1143.9 190.2C1147 188.5 1149.3 185.7 1150.4 182.4L1150.5 182.2L1145.5 179.2L1154.2 188.7L1153 191.2C1151.5 194.1 1151.1 197.5 1151.8 200.7L1152.8 205.4L1155.3 205.1C1159.3 204.6 1163 202.6 1165.7 199.6L1166.5 198.7L1166.7 203.8C1166.8 205.9 1167.4 208 1168.4 209.9L1171 214.7L1174.9 211.3L1174.7 216.9C1174.6 219 1175 221.2 1175.9 223.1L1181.1 235.1L1190.7 229.1C1193.9 227.1 1196.1 223.8 1196.7 220L1197.1 217.2L1197.2 224.1C1197.3 229.4 1199 234.5 1202.1 238.8L1204.6 242.3L1215.6 233C1218 231 1219.9 228.3 1221 225.4L1222.5 221.7L1253.8 240.9L1266.2 248.6L1264.9 251.8C1263.5 255.1 1263.8 258.8 1265.5 262L1267.6 265.7L1271.8 262.4C1273.7 260.9 1275.1 258.8 1275.6 256.4L1276.5 252.6L1277.9 256.8C1278 257 1278 257.1 1278.1 257.3C1279.3 260.6 1281.4 263.5 1284.1 265.8L1287.3 268.5L1289.6 265.5C1290.9 263.8 1291.4 261.6 1290.8 259.5L1290.3 257.8L1296.3 259.5C1298.2 260 1300.2 259.6 1301.7 258.4L1303.7 256.7L1301.4 264.4C1301.1 265.3 1300.7 266.4 1300.3 267.7C1298.5 273 1299.3 278.9 1302.3 283.6L1305.3 288.3L1310.3 284.9C1314.2 282.2 1317.2 278.5 1319.1 274.1C1319.3 273.6 1319.6 273.2 1319.9 272.8L1321.1 271.5L1328.8 281.6L1333.3 289C1334 290.1 1335 291 1336.2 291.5L1337 291.8C1338.6 290.5 1339.7 288.6 1340.1 286.6L1340.2 286.3L1340.4 287C1341.4 290.2 1343.9 292.8 1347.1 294L1348.2 294.4C1348.5 294.7 1348.9 294.5 1349 294.2L1350.2 290.3C1351.1 287.3 1351.1 284.2 1350.3 281.2L1348 273.2L1354.4 282.6C1354.9 283.3 1355.5 283.9 1356.2 284.4L1367.1 291.7C1367.4 291.9 1367.6 292.3 1367.4 292.7L1365.9 293.8C1361.6 296.9 1358.9 301.9 1358.7 307.2L1364.4 307.4C1366.8 307.5 1369.3 306.8 1371.3 305.5C1371.5 305.4 1371.6 305.3 1371.7 305.2L1377.1 300.8L1382.3 304.6C1383.7 305.6 1384.7 307 1385.2 308.6L1386.2 312L1388.9 312.6C1390.6 313 1392.4 312.7 1394 311.8L1396.3 310.5C1396.6 310.3 1396.8 310.6 1396.7 310.9L1395 313C1393.8 314.5 1392.9 316.3 1392.6 318.2L1392.4 319.4L1394.6 320C1395.3 320.2 1396.1 320.2 1396.8 319.9L1398 319.4L1397.7 320.5C1397.1 322.9 1397.4 325.5 1398.6 327.6L1399.7 329.7L1402.6 328.8C1407.6 327.2 1411.7 323.6 1414.1 318.9C1414.3 318.5 1414.5 318.1 1414.8 317.8L1420 310.6L1419.6 313.3C1419.2 315.9 1419.8 318.5 1421.3 320.7L1422.4 322.3L1424.4 321.1C1427.4 319.4 1429.9 317 1431.9 314.2L1435.1 309.6L1434.8 310.2C1433.8 312.5 1433.3 315 1433.2 317.5L1431.8 392.9C1431.8 394.9 1432 396.9 1432.5 398.8C1433 400.7 1432.9 402.8 1432.2 404.7L1431.2 407.5C1430.1 410.5 1429.4 413.7 1429.1 416.9L1427.5 435.1C1427.1 439.1 1427.1 443.2 1427.3 447.2L1429.1 477C1429.4 481.3 1429.2 485.7 1428.6 490L1426.2 507.4C1425.9 509.9 1425.7 512.4 1425.7 514.9V526.3C1425.7 528.3 1425.6 530.2 1425.4 532.2L1423.2 556.8C1423 559.2 1422.9 561.6 1422.9 564.1V591C1422.9 594.4 1422.5 597.8 1421.6 601L1419.9 607.5C1418.8 611.8 1418.3 616.1 1418.3 620.5V641L1416.8 678.3V683.3C1416.8 689.1 1416.2 694.9 1415 700.6C1413.5 707.8 1411.5 716.9 1411.5 717.4C1411.5 718.2 1407.4 740.1 1407.4 740.1L1397.2 818C1396.7 791.5 1389.8 765.9 1389.8 765.9L1386 865.4C1386 866.4 1385.7 867.4 1385.2 868.3L1381.4 874.9C1382.5 855.4 1379.5 840 1376.1 829.4C1377.9 826 1379.2 823.8 1379.4 823.6C1378.1 825 1376.8 826.4 1375.6 827.9C1372.4 818.6 1369.1 813.4 1368.9 813.1C1371 817.2 1372.2 823.8 1372.8 831.2C1358.4 850 1354.8 868.2 1354.8 868.2C1351.2 828.4 1368.3 786.2 1368.3 786.2C1349.1 811.3 1341.5 873.2 1340.4 883.1C1340.3 884 1340 884.9 1339.5 885.7L1337.2 889.6C1333.1 873.5 1335.4 815 1335.4 815L1323.6 889.8C1322.5 889.8 1322.4 887 1319.7 887C1318.6 887 1317.6 887.4 1316.9 888.2L1312.5 892.5C1310.6 882.3 1321.1 853.8 1325.3 842.9C1322.4 848.4 1317.8 851.1 1317.8 851.1C1317.6 837 1329.9 809.3 1330.3 808.5C1312.4 826.9 1308.1 892 1308.1 892L1304.1 890.3C1303.5 890.1 1303.1 889.6 1303 889C1296.2 851.7 1319.3 783 1319.3 783C1299.6 815.2 1296.6 881.6 1296.6 881.6C1294.8 856.6 1273.4 842 1273.4 842C1285.1 856.9 1291.5 881.9 1293.3 889.6C1293.6 891.1 1293.2 892.6 1292.1 893.7L1290.2 895.6C1289.4 896.4 1288.5 897.2 1287.6 897.9L1233.4 939.7C1232.6 922.8 1218 912.7 1216.9 912C1222.3 916 1222.3 938.3 1222.3 940.5C1222.3 940.6 1222.2 940.7 1222.1 940.7H1215.1C1214.2 940.7 1213.4 940.1 1213.1 939.2C1206.9 918.3 1216 853.2 1216 853.2C1200.6 877.5 1206.9 930.3 1207.1 932.1C1201.7 907.2 1182.7 893.3 1182.1 892.8C1190.6 903.2 1198.6 933.6 1198.6 933.6C1188.2 923.7 1172.9 922.9 1172.9 922.9C1189.3 928.3 1196.6 938.3 1199 942.5C1199.6 943.5 1199.3 944.9 1198.3 945.6L1195.7 947.6C1195 948.1 1194.3 948.5 1193.4 948.6L1186.9 950C1186.4 950.1 1185.8 950 1185.4 949.6L1174.4 940.6C1172.5 939.1 1169.7 939.6 1168.5 941.6L1161.8 952.9C1161.5 953.4 1161 953.7 1160.4 953.7H1158.1C1157.5 953.7 1157 953.5 1156.6 953L1155.3 951.6C1154.6 950.9 1153.4 950.8 1152.7 951.5L1149.7 954.3C1149.4 954.6 1148.9 954.6 1148.5 954.4L1146.2 952.7C1145.9 952.5 1145.7 952.1 1145.8 951.8C1146.7 944.6 1158.2 936.4 1158.2 936.4C1154.5 937.4 1148.2 942.2 1148.2 942.2C1150.4 933.8 1175.5 914.7 1176.3 914.1C1160.1 918.9 1141.3 942.5 1141.3 942.5C1142.3 934.8 1161.2 912 1161.2 912C1147.1 921.9 1141.8 934.1 1141.8 934.1C1142.5 927.6 1149.4 913 1149.6 912.5C1145.4 915.4 1134.5 946.2 1134.5 946.2C1127.5 937 1136.8 903.8 1137.2 902.3C1122.2 929.2 1130.7 947.3 1130.7 947.3L1126.4 949.8C1121.7 938.6 1106.4 927.8 1100.7 924.1C1099.8 923.5 1099.2 923.1 1098.9 922.9C1099.5 923.3 1100.1 923.8 1100.7 924.2C1104.1 926.8 1107.3 930.3 1110.1 933.7C1107 935 1104.4 937.4 1102.3 939.7C1100.9 941.2 1099.8 942.8 1099 944.1C1097.7 946.1 1097 947.5 1097 947.5L1094 947.8L1088.6 948.4C1087.9 948.5 1087.3 948.9 1086.9 949.4L1082.9 955.5C1082.5 956.2 1081.7 956.6 1080.9 956.7L1058 958.9C1057.7 952.1 1073.7 941.4 1073.7 941.4C1060.1 943.3 1050.7 956.7 1050.7 956.7C1050.7 939.5 1043 932.5 1043 932.5V957.5C1036.9 948.9 1024.5 936.3 1024.5 936.3C1034.7 953.7 1036.1 961.4 1036.1 961.4H1030.3L1015.9 958.4C1011.4 957.4 1006.7 957 1002.1 957H992.2L985.9 956.1C983.1 955.7 980.3 955.5 977.5 955.5H960.5L958.5 955.3L948.7 954.1C946 953.8 943.3 953.6 940.5 953.6H932.5C929.9 953.6 927.3 953.3 924.8 952.6L924.4 952.5L914.4 949.7C911 948.8 907.6 948.3 904.1 948.3H899.6C896.4 946.6 899.6 932.8 899.6 932.8C896.5 935.5 895.4 941.4 895.1 943.8C895 944.4 894.5 944.8 893.9 944.8H890.8C890.3 944.8 889.8 944.5 889.5 943.9L886.9 937.4C886.4 936.1 885.1 935.2 883.7 935.2H880.6C881.3 927.7 897.3 913.2 897.3 913.2C876 915.9 862.3 935.6 861.9 936.2C868.5 923.4 866.5 902.2 866.5 902.2C857.7 906 855.1 934.2 855.1 934.2H853.1C851.1 927.4 845.1 926 845.1 926C839.3 925.2 839.8 879.9 839.8 879.9C828.6 899.3 833 922.6 833.8 926C833.8 926.2 833.7 926.4 833.5 926.4L826.5 926.3C825.3 926.3 824.4 927.2 824.4 928.4C824.4 930.5 824.1 932.6 823.5 934.6L822.7 937.3C822.2 939.1 822.2 941 822.7 942.7L823.4 944.8L807.4 932.9C807.9 927.3 824.4 923.2 824.4 923.2C814.5 923 801.4 929.3 801.4 929.3L797.1 926.9C796.7 926.7 796.5 926.3 796.6 925.8C799.2 912.2 795.6 891.1 795.6 891.1C795.3 904.9 787.8 924.1 787.8 924.1C785.6 923.7 782.1 923 780.5 922.6C779.9 922.5 779.4 922.1 779.2 921.5C776.6 914.8 768.6 906.9 768.6 906.9C769.5 909.1 768.4 912 768.4 912H766.7C765.6 900.5 763.2 891.1 760.5 883.7C769.8 880.7 777.3 879.5 777.3 879.5C771.3 879.1 765.3 880 759.6 881.5C754 867.7 747.5 861.6 747.1 861.3C751.5 868.5 754.2 876 755.8 882.6C741.3 887.2 730.3 895.3 730.3 895.3C726.9 872 746.3 822.1 746.3 822.1C726.9 838.3 727.9 879.3 727.9 879.3C727.4 837.4 703.1 819.6 703.1 819.6C719.9 835.8 724.9 898.9 724.9 898.9L722.7 898.2C723.7 873.3 702.8 869.6 702.8 869.6C686.8 853.4 680.5 763 680.5 763C679 784.9 680.4 805 682.8 821.6C658.8 812.4 633 827 633 827C634 816.3 665.3 792.8 665.3 792.8C650 797.4 632.3 816.6 632.3 816.6C650.7 761.5 645.1 709.2 645.1 709.2C645.1 735.2 629.8 818.1 629.8 818.1C627.9 785.1 638.8 724.3 638.8 724.3C626.6 743 627.4 817.4 627.4 817.4C621 786.7 597.8 765 597.1 764.3C609.4 780.2 622.4 827.5 623.7 832.2C623.7 832.2 623.7 832.3 623.6 832.2C618 819.9 594.8 815.3 590.2 814.5C589.8 814.4 589.5 814 589.6 813.6C592.3 799.8 578.5 783.9 576 781.1C575.8 780.8 575.7 780.5 575.8 780.2C584 758.5 619.2 723 619.2 723C580.2 746.5 562.5 786.7 562.5 786.7C565.2 737.2 546.9 700.1 546.3 699.1C553.8 724.1 551.9 786.7 551.9 786.7L550.5 786L525.1 773.4C522 771.8 518.8 770.4 515.5 769.1L430.6 734.7C430.2 734.5 429.9 734.2 429.7 733.8C427.8 729.5 425.3 725.7 422.5 722.3C414.1 712.2 403.5 706.6 403.1 706.3C415.9 725.8 418 749.5 418.3 754.6C418.3 755.2 418.1 755.8 417.7 756.3L415.4 758.6C415.2 734.1 399.1 725.2 398.6 724.9C407.6 737 402.3 769.5 402.3 769.5L398.4 766.2C398.1 765.9 397.8 765.5 397.7 765.1C392.3 747.9 400.9 688.6 400.9 688.6C397.3 695.2 391.9 718.8 391.9 718.8C389.7 711.6 384.1 702.9 383.5 701.9C393.5 718.6 386.3 744.5 386.3 744.5L380.9 739.8C380.8 739.7 380.7 739.5 380.7 739.3C381.1 735.8 379.8 729.8 378.7 725.4C378 722.8 377.1 720.2 376 717.8C373.9 713.2 374 708.9 374.3 706.7C374.4 705.8 374.4 704.9 374.4 703.9C374.4 696.5 383.5 685.9 383.5 685.9C372.6 689.8 370.4 699.4 370.4 699.4C368.2 687.2 351.7 668.8 351.2 668.3C374.8 703.6 364.6 720 363.2 721.9C363.1 722 363 722 362.9 721.9L360.3 719.5C358.7 704.1 349.5 686.2 348.6 684.6C355.5 701.4 355.4 715.8 355.4 715.8L349.4 710.3C348.8 709.8 348.4 709.1 348.2 708.4C343.6 695 342.7 645.4 342.7 645.4C336.4 660.2 345.1 709.6 345.1 709.6L341.1 706.6C340.9 706.4 340.8 706.2 340.7 706C338.2 691.6 332.9 677.9 326.7 665.8C333.4 664.4 338.4 663.8 338.4 663.8C333.3 662.4 328.7 661.8 324.6 661.7C323.5 659.6 322.3 657.5 321.1 655.6C326.5 654.1 330.7 653.4 330.7 653.4C326.7 653.2 323 653.2 319.8 653.4H319.7C319.7 653.4 319.7 653.3 319.7 653.2C323.1 642.5 327.4 635.3 327.6 635C322.7 638.1 319.2 643 316.7 648.5C312.7 642.3 308.8 636.9 305.5 632.5C309.7 623.3 313.3 616.6 313.3 616.6C309.4 619.6 306 624.3 303.1 629.5C298.5 623.7 295.2 620.2 294.9 619.9C297.6 623.6 300.1 627.3 302.4 630.9C295 645 291.1 662.3 291.1 662.3C288.9 654.3 289.6 614.3 289.6 614.3C282.6 634.7 285 667.3 285.2 669C281.9 652 266 631.1 265 629.8C273.9 645.9 281.1 671.8 281.3 672.6C273.8 655.8 257.4 644.8 254.9 643.2C265.5 650.3 276.2 675 276.2 675H271.7C271 675 270.5 674.5 270.3 673.8C269.2 667.3 259.5 656.6 251.3 648.5C247.4 634.6 239.2 618.6 235.7 612.1C238.6 618.5 241.6 630.6 243.9 641.4C241.8 639.5 240.2 638.1 239.6 637.6C241.1 639 242.8 641.2 244.3 643.5C246.6 654.4 248.1 663.5 248.1 663.5V667.5C248.1 668.6 247.1 669.3 246.1 669L235.9 666V634.5C235.9 630.1 235.3 625.8 234 621.6C226.3 597 204.4 579.1 203.6 578.5C217.7 597 224.6 614 227.7 623.6C229.2 628.3 229.9 633.1 229.9 638.1V654.7C229.3 651.8 223.4 646.4 222.7 645.8C227.7 651.3 228.6 664.3 228.6 664.3L227.6 664.5C225.2 665.1 222.7 664.1 221.2 662.1C208.7 644.3 214.2 609.9 214.2 609.9C203.1 627.8 205.5 657.1 205.5 657.1L201.5 654.6C200.3 653.8 199.5 652.5 199.4 651L198.4 636L195 642.8C195 612 188 598.7 188 598.7C192.2 611.6 189 626.8 189 626.8C183.1 600 167 578.7 165 576.2C172.4 586.5 172.5 608 172.2 616.8C172.1 619.7 172.2 622.7 172.5 625.6L175.4 654.3L173.9 652.4C168.3 647.3 166.4 630.1 166.4 630.1C163.3 634.5 163.3 643.2 163.3 643.2C159 640 156.7 622.8 156.7 622.8C155.3 631 158.1 643.2 158.1 643.2L156.2 642.3C155.5 642 155 641.5 154.7 640.8C145.4 621 147.4 586.5 147.4 586.5C140.8 597.2 148.2 640.6 148.2 640.6L143 625.4C142.3 623.4 141.9 621.3 141.8 619.2C139.2 573 159.6 554 160.2 553.4C138.4 563.4 137.4 603.6 137.4 603.6C136 581.1 111 554.3 110.2 553.4C137.1 593 134.2 622.9 133.5 627.8C133.4 628.2 133.1 628.6 132.7 628.8L130.2 629.8L128.5 624.3C128.3 623.5 128.1 622.7 127.9 621.9L120.1 575.1L124.5 620.9C124.7 622.6 124.7 624.2 124.7 625.9V636.6C124.7 636.9 124.3 637 124.1 636.8L119.9 630C119.3 629 118.9 627.8 118.8 626.5C117.4 598.9 107.3 575.4 107.3 575.4V597.9C107.3 598 107.2 598.1 107.1 598L103.9 593L108.3 612.4L102.5 603.6C102.3 603.2 102.1 602.8 102 602.4C92.5996 553.1 109 533.2 109.4 532C89.3996 553.2 96.0996 598.5 96.8996 603.3C96.8996 603.5 96.6996 603.6 96.5996 603.5L91.2996 600.9C90.8996 600.7 90.6996 600.3 90.7996 599.9C93.2996 581.4 89.9996 567.2 85.2996 556.8C84.7996 555.7 84.7996 554.4 85.1996 553.2C91.1996 536.5 102.5 533.2 103.2 533.1C93.2996 534.7 87.0996 543.1 83.1996 552.5C76.8996 541 69.3996 535.5 68.8996 535.1C74.3996 541.4 78.3996 548 81.0996 554.4C81.5996 555.5 81.5996 556.7 81.1996 557.8C77.0996 570.4 76.4996 583.1 76.4996 583.1C72.5996 573.2 74.5996 546.3 74.5996 546.3C70.9996 550.7 71.1996 566.4 71.1996 566.4C65.3996 559.5 63.0996 549.7 62.4996 546.2C62.2996 545.3 62.0996 544.4 61.8996 543.6C61.1996 540.9 60.6996 538.1 60.2996 535.3L59.3996 528.1L58.6996 522.9C58.3996 520.8 58.7996 518.7 59.7996 516.8C61.6996 513.1 64.8996 507.8 65.1996 507.4C61.7996 510.6 58.0996 516.4 58.0996 516.4C53.7996 508.9 47.4996 503.8 47.4996 503.8C51.9996 508.2 53.3996 514.3 53.8996 518.1C54.1996 520.1 53.5996 522.1 52.5996 523.8C44.4996 537.3 46.4996 559 46.4996 559L41.8996 544.7C39.1996 534.8 45.0996 514.6 45.0996 514.6C41.1996 517.2 38.2996 528.2 38.2996 528.2C32.8996 507.4 59.1996 490.2 59.1996 490.2C45.8996 491.2 35.4996 500.7 35.4996 500.7C31.9996 487 50.4996 471.9 50.9996 471.5C36.6996 477.1 30.0996 491.4 30.0996 491.4C29.0996 485.9 39.0996 475.1 39.0996 475.1C33.2996 478.8 27.9996 490 27.9996 490C26.9996 477.6 47.8996 463.4 47.8996 463.4C33.3996 467.2 22.6996 484.3 22.6996 484.3L21.2996 460.1L22.1996 462.3C22.7996 463.6 23.5996 464.9 24.5996 466L27.0996 468.7L30.9996 464.4C32.5996 462.7 33.6996 460.7 34.3996 458.5L36.4996 451.4L38.0996 454.3C39.0996 456.1 40.5996 457.6 42.4996 458.7L45.4996 460.3L49.5996 456C51.4996 454 52.4996 451.3 52.3996 448.5L52.0996 440L53.2996 441.7C54.0996 442.8 55.0996 443.7 56.1996 444.5L58.4996 446L60.5996 444C61.7996 442.9 62.6996 441.4 63.0996 439.9L63.6996 437.5L63.7996 440C63.8996 442.4 64.6996 444.7 66.0996 446.6L68.9996 450.6L72.7996 447.8C74.7996 446.3 76.3996 444.3 77.2996 441.9L79.4996 436.2V438.4C79.4996 440.1 79.8996 441.8 80.6996 443.4L83.5996 449.2L87.6996 444.2C88.8996 442.8 89.6996 441.2 90.0996 439.4L91.1996 434.9L91.8996 438C92.2996 439.7 92.8996 441.2 93.7996 442.7L94.9996 444.6L96.4996 443.7C97.7996 443 98.7996 441.9 99.3996 440.6L99.8996 439.7L100.1 445.4C100.2 448.2 101.6 450.7 103.8 452.3L107.8 455.2L109.4 452.6C110.2 451.2 110.5 449.6 110.2 448L109.4 443.8L111.9 446.2C113.7 448 116.2 448.8 118.7 448.5L121.4 448.1L121.7 443.9C121.8 442.1 121.2 440.3 120.1 438.9L116.4 434.5H125C126.1 434.5 127.1 434.1 127.9 433.3L130 431.2L130.4 432.4C130.9 434.2 132 435.7 133.6 436.8L135.9 438.5L138 436.9C141 434.6 142.9 431.2 143.2 427.4L143.4 424.2L145.1 427.2C146.5 429.5 148.6 431.3 151.1 432.2L155.1 433.6L156.8 428.3C157.5 426.1 157.5 423.8 156.9 421.6L153.3 409.9L156.4 415.4C157.6 417.4 159.2 419.2 161.2 420.4L163.7 421.9L165 418.9C165.7 417.2 166.1 415.4 166.1 413.6L166 407.6L167.5 409.9C168.6 411.7 169.8 413.3 171.2 415L174 418.4L177 415.6C178 414.6 178.9 413.4 179.4 412.1L179.7 411.4L179.9 413.9C180.2 417.1 181.8 420 184.3 421.9L188.9 425.5L192.8 419.7C194.6 417 195.5 413.8 195.4 410.6L195.1 401L196.5 403.2C199.1 407.3 203.2 410.2 208 411.1L212.6 412L212.7 403.9C212.7 401.2 211.3 398.8 209.1 397.4L207.9 396.7L210.9 383.6L212 378.7L214 370.1L215 367.3L216.3 363.4L217.9 364.8C219.7 366.4 221.9 367.3 224.3 367.5L230.5 368L232.1 358.6C232.6 355.5 232.1 352.3 230.6 349.5L227.6 344.1H237.8L238.6 345.5C238.9 346.1 239.4 346.6 240 346.9L241.4 347.7L242.6 346C243.1 345.3 243.3 344.4 243 343.6L241.3 337.7L247.8 341.3C250 342.5 252.6 342.7 254.9 341.8L258.6 340.5L257.4 335.6C257 333.7 255.8 332.1 254.1 331.2L249.6 328.6L276.6 326.9H286.1L286.7 329.2C288 334 291.2 338 295.5 340.4L304.7 345.5L307.5 341.4C309.9 338 310.4 333.5 308.8 329.7L307 325.3L316.3 331.9C319.7 334.3 324 335.3 328.1 334.7L331 334.2L333.1 330.5C334.9 327.3 335.2 323.4 333.8 320L332.3 316.1L333.7 317.3C336.7 319.7 340.4 321.2 344.3 321.4L349.6 321.7L351.1 315.2C352.1 310.8 351.7 306.2 349.7 302.2L347.8 298.3L348.4 298.4C350.6 298.8 352.9 298.3 354.7 297L355.8 296.2L355.4 293.1C355.1 290.8 354.3 288.7 353 286.8L343 272.6L345.3 273.5C349.7 275.3 354.6 275.6 359.2 274.6L361.4 274.1V270.3C361.4 267.4 360.1 264.6 357.8 262.8L348.9 255.5L350.5 256.1C352.3 256.8 354.4 256.8 356.2 256L357.4 255.5L357.5 253.7C357.6 250.7 357.1 247.8 356 245L355.2 243L355.5 243.3C356.4 244.2 357.7 244.7 358.9 244.6H360.3L360.8 242.4C361 241.3 361 240.2 360.7 239.2L357.8 229.5L359.7 227.6C360.3 227 360.7 226.2 360.9 225.4C361.3 223.6 361.9 220.6 362.1 219.2C362.1 218.9 362.2 218.6 362.2 218.5C362.2 218.2 364.5 222.7 367.8 224.8C372 227.5 377.5 227.9 377.5 227.9L380.3 224.9C383 222 384.7 218.4 385.4 214.6L387 205L392.7 213C393.6 214.3 394.9 215.4 396.3 216.2L400.7 218.6L401.7 214.3C402 212.9 401.9 211.4 401.4 210L399.4 204.5L401 207.1C401.5 207.9 402.2 208.5 402.9 209L405.5 210.6L406.7 208.7C407.5 207.4 407.5 205.8 406.6 204.6L405.5 202.9L409.5 203.8C411.1 204.3 412.7 204.2 414.2 203.5L416.7 202.4L416.5 199.6C416.3 197.2 415.5 194.9 414.3 192.9L413.3 191.2L414.5 190.7L420.6 190.1L421.6 194.1C421.9 195.4 422.6 196.5 423.4 197.4L425.9 200L427.1 197.3C427.6 196 427.9 194.7 427.9 193.3L427.7 184.4L432.6 194C434.2 197.1 436.3 199.8 438.9 202.1L442.2 205L445 202.3C447.1 200.2 448.5 197.5 449 194.6L449.8 189.7L451.3 193.7C452.1 195.9 453.4 197.8 455.2 199.3L459.3 202.9L462.1 200C463.9 198.1 465.1 195.8 465.6 193.3L467.3 184.3L470.5 190.1C471.8 192.5 473.9 194.4 476.4 195.5L477.8 196.1L480.2 194.9C482.8 193.6 484.8 191.3 485.8 188.6L488 182.9L487.1 188.7C486.7 191.1 487.1 193.5 488.1 195.7L490 199.5L493.2 199.1C495.3 198.8 497.3 197.7 498.4 195.8C498.5 195.6 498.6 195.4 498.7 195.2L501.3 189.6L500.7 196.7C500.5 199.5 501.3 202.3 503.2 204.4L505.2 206.7L507.7 204.8C508.9 203.9 509.7 202.5 509.8 201L510 198.5L512 198.1L535.3 193.2L535.9 191.4L541.2 174.3L540.7 182.2C540.6 184.1 541 186.1 541.9 187.8L543.4 190.7L546.4 191.5C548.8 192.1 551.4 192.1 553.8 191.5L557 190.7L555 197.3C554.3 199.7 554.2 202.3 554.9 204.8L556.3 209.9L559.3 210.6C562.1 211.3 565.1 211 567.7 209.8L568.6 209.4L566.7 220.3C566.1 223.7 566.3 227.3 567.3 230.6L569.4 237.7L576.9 235.5C580.5 234.4 583.9 232.7 586.9 230.4L592.6 226L593 229C593.5 232.5 595.3 235.7 598.2 237.8L600.7 239.7L602.6 238.9C605.2 237.8 607.5 236 609.3 233.9L615.9 226.1L618.2 244.2C618.5 246.8 619.3 249.4 620.4 251.8L622.4 256.1L632.7 252C636.5 250.5 640.1 248.3 643.1 245.5L648.5 240.6L646.9 246.5C646.1 249.4 646.1 252.5 647 255.4L648.5 260.5L656.7 258.6C660.6 257.7 664.2 255.6 667 252.6L671.5 247.7L671.8 250.1C672 251.6 672.7 253 673.7 254L674.8 255.1L676.4 255C677.6 254.9 678.7 254.4 679.6 253.6L680.6 252.6V253.1C680.7 254.6 680.9 256 681.2 257.5L682.4 262.7L684 261.2C686.9 258.5 689 255 690.2 251.3L690.4 251.4C691.2 254.4 693.2 256.9 696 258.2H695.5ZM1414.8 860.3L1414.5 862.3C1414.2 864.2 1413.5 866 1412.3 867.5L1400.2 883.6L1409 861.9C1410.5 858.3 1411.6 854.6 1412.3 850.8L1417 826.9L1425.1 778C1433.1 791.6 1440.1 816.3 1441.9 822.6C1442.2 823.5 1441.9 824.5 1441.3 825.3L1416.2 856.7C1415.5 857.7 1415 859 1414.8 860.3ZM1472.9 337.8C1475.7 335.2 1476.5 331.2 1474.9 327.7L1473.2 324.1L1474.2 331C1474.7 334.3 1476.3 337.2 1478.7 339.4L1484.6 344.7L1490.2 337.7C1492.4 334.9 1493.5 331.3 1493 327.8C1492.5 323.2 1491.9 317.6 1492.7 318.2C1493.4 318.7 1495.3 320 1497 321C1497.7 321.4 1497.9 322.2 1497.9 323.1C1497.9 325.5 1498.3 327.9 1499.2 330.2L1501.1 335.2L1505 333.9C1508.7 332.6 1511.8 330 1513.7 326.5L1515.8 322.6L1517.2 325.1C1518.3 327 1519.9 328.6 1521.9 329.6L1523.8 330.6L1524.9 328.4C1525.8 326.6 1526.2 324.7 1526.1 322.7C1526.1 322.3 1526 321.9 1525.9 321.7L1523 310L1527.5 316.8C1528.9 318.8 1530.5 320.6 1532.4 322.1L1533.8 323.2L1535.3 321.8C1536.7 320.5 1537.9 318.9 1538.7 317.2C1539.2 316.8 1539.9 317 1540.2 317.5L1542.1 322.7C1542.6 324 1543.3 325.3 1544.2 326.4L1548.6 331.9L1551.3 328.4C1553 326.2 1553.8 323.5 1553.7 320.7V320.3C1554.2 319.1 1555.3 318.3 1556.6 318L1558.5 317.7C1560.4 317.4 1561.9 315.8 1562.1 313.9L1563.2 304.4L1566 314.5C1566.9 317.9 1568.5 321.2 1570.6 324L1572.4 326.5L1575.9 324C1578 322.5 1579.8 320.5 1581 318.2L1583.6 313.1L1582.9 319.3C1582.3 324.5 1582.3 329.7 1583 334.9L1583.9 341.5L1590.3 340.5C1594.8 339.8 1599.2 338.2 1603.1 335.9L1605.6 334.4C1606.1 337.2 1607.3 339.8 1609.2 342L1612.2 345.4L1614.3 343.1C1616 341.3 1617.3 339.2 1618.1 336.9L1618.3 336.2L1620.3 343.9L1625 343.7C1626.3 343.6 1627.6 344.3 1628.4 345.4L1629.4 348.4C1630 350.2 1631.1 351.9 1632.4 353.3C1632.9 353.9 1633.4 354.6 1633.8 355.3L1636.3 359.6L1637.7 357.2C1638.3 356.1 1639.2 355.2 1640.2 354.4C1643 352.2 1645 349 1645.7 345.5C1645.9 344.6 1646.7 344 1647.6 344H1651.6C1652.2 344 1652.7 344.4 1652.9 345L1652.7 347.9C1652.4 351.4 1653.3 354.9 1655.2 357.8L1658.9 363.4L1665.6 359.4C1668 358 1670.1 355.9 1671.6 353.5L1676.1 346.2C1676.3 346 1676.6 346.2 1676.6 346.5L1674.7 359.3C1674.4 361.5 1674.6 363.8 1675.4 365.9L1679.1 375.7L1686.5 368.3C1687.6 367.2 1688.4 365.7 1688.7 364.1L1690.1 356.3L1693.1 358.8L1696.3 382.3C1696.8 386.2 1697.5 390.2 1698.3 394.1L1706.7 433.2C1707.1 434.9 1707.4 436.6 1707.6 438.3L1708.8 447.3C1709.1 449.6 1709.3 452 1709.3 454.3V470.4C1709.3 474.7 1709.1 478.9 1708.6 483.2L1706.6 500.1C1706 505 1705.7 510 1705.7 514.9V539C1705.7 542.5 1704.1 545.8 1701.4 548C1670.6 573.3 1668 621.5 1667.9 634.3C1667.9 636.4 1667.4 638.5 1666.4 640.5L1660.8 651.4C1659.6 653.7 1659.4 656.3 1660 658.7C1660.6 660.8 1659.6 663 1657.7 664L1650.8 667.6C1653.6 602.8 1682.5 536.4 1683 535.4C1643.9 579.6 1645 646.2 1645 646.2C1624.8 580.8 1637.3 531.8 1637.3 531.8C1615.6 583.3 1633.7 628.5 1634 629.6C1604.4 596.7 1585.1 597.3 1585.1 597.3C1623 613.8 1643.2 655.4 1643.2 655.4C1622.3 631.9 1599 627.8 1599 627.8C1630.7 644.9 1643.2 667.6 1643.2 667.6C1627.6 666.3 1612.1 678.3 1612.1 678.3C1607.2 666.6 1612.1 650.7 1612.1 650.7C1600.9 658.8 1593.1 696.2 1591.3 705.4C1591 706.7 1590.4 707.9 1589.5 708.9L1587.4 711C1591.2 700.3 1590 666.3 1590 666.3C1588.3 684.8 1580.8 708.7 1578.3 716.2C1577.8 717.8 1576.9 719.2 1575.8 720.4L1561.6 735.5C1550 661.2 1576.7 636.1 1577.4 635.4C1546.5 655.8 1553.7 724 1553.7 724C1544.7 709.7 1533.8 700.2 1529 696.3C1541.5 706.8 1549.9 729 1552.7 737.2C1553.3 739.1 1552.9 741.2 1551.6 742.7L1542.3 753.1C1540.2 730.2 1529.5 716.5 1527.5 714.1C1533.7 721.8 1533.7 750.2 1533.6 758.8C1533.6 760.4 1533 761.9 1532 763.1L1517.9 780.4C1517.1 766.9 1508.7 745.7 1508.7 745.7L1510.7 765.7C1510.9 767.3 1510.7 769 1510.1 770.6L1502.5 792.5C1500.5 729.9 1517.3 703.4 1517.8 702.7C1495.2 724.9 1495.5 792.3 1495.8 804.8C1495.8 806.1 1495.3 807.3 1494.4 808.2L1476 825.9L1472.3 824.6C1471.4 824.3 1470.8 823.5 1470.8 822.6C1469.9 796.8 1496.4 741.2 1496.4 741.2C1484.7 750.6 1471.9 778.7 1471.9 778.7C1471.9 756.5 1504.8 706.2 1504.8 706.2C1472.1 741.4 1455.3 812.2 1455.3 812.2C1449.2 791 1462.6 746.7 1462.9 745.6C1448.4 773.7 1449.4 817.3 1449.4 817.3C1444.1 798.4 1432.2 783.8 1425.6 776.6L1427.4 765.4L1436.6 703.5C1437.1 700 1437.4 696.5 1437.6 693L1438.9 653.8L1441.2 580.8L1444.3 524.1L1446.3 489.1L1447.9 442.4C1448 439.7 1448.5 437 1449.3 434.4L1450.4 430.9C1450.7 430.1 1450.8 429.2 1450.9 428.3L1453.1 394.6L1455 358.2C1457.2 363.7 1458.5 361.7 1458.5 361.7C1462.6 357.9 1461.3 344.3 1461.3 344.3C1467.2 355.3 1474.3 355.3 1474.3 355.3C1477.6 337.4 1461.3 331.3 1461.3 331.3C1464.8 334.1 1468.7 336.3 1472.9 337.8ZM1809.9 416.8C1814.6 414.4 1818.4 410.7 1821 406.1L1820.4 407.7C1819 411.6 1818.9 415.9 1820.2 419.8L1821.5 419.7C1824.6 419.4 1827.7 418.4 1830.4 416.9L1826.5 422.8C1824 426.6 1822.5 430.9 1822.1 435.5L1821.7 440.7L1828.1 440.8C1831.6 440.9 1835.1 440 1838.3 438.4L1841.6 436.7C1841.1 438.6 1841.3 440.5 1842.2 442.3L1842.9 443.6L1843.2 443.5C1846.2 442.6 1849.1 441.4 1851.8 439.9L1872.3 428.6C1867.5 435.5 1857.4 442.9 1852.9 446C1851.7 446.8 1850.7 447.8 1849.7 448.8C1845.8 452.8 1833.1 455 1833.1 455L1835.6 457.5C1836.4 458.3 1836.7 459.4 1836.4 460.4C1834.2 469.3 1828.1 472.5 1828.1 472.5C1823.2 464.1 1810.7 460.2 1810.7 460.2C1820.1 466.3 1820.7 479.1 1820.7 479.1C1816.1 474.8 1809.5 481.1 1809.5 481.1C1809.8 466 1796.7 452.5 1796.7 452.5C1800.1 456.7 1801.3 463.1 1801.4 469C1801.6 475.8 1799.5 482.3 1795.7 487.9C1792.9 491.9 1790 497.8 1788.7 500.5C1788.2 501.5 1787.5 502.4 1786.6 503.2L1784.8 504.7C1784.7 504.7 1784.7 504.7 1784.6 504.6C1782.7 491.9 1795.6 476.2 1795.6 476.2C1780.5 486.9 1768.5 508.1 1768.5 508.1C1764.7 479.5 1749.1 468.9 1748.6 468.5C1758 480.5 1758 513.7 1758 513.7C1755.3 513.8 1753.1 515.1 1751.7 516.3C1750.3 517.4 1748.6 517.9 1746.9 517.7L1741.2 517C1740.4 516.9 1739.9 516.3 1739.8 515.5L1737.4 485.4L1736.3 454.2C1736.2 451.8 1735.8 449.5 1735 447.3L1734 444.6C1732.4 440 1731.6 435.2 1731.7 430.4L1731.8 427.2C1731.9 424 1732.2 420.8 1732.9 417.6L1736 403.7L1739.6 382.1V383C1739.5 386.5 1741.2 389.8 1744.2 391.6C1747.7 390.9 1750.2 387.9 1750.2 384.3V381L1749.9 382.3C1748.9 386.9 1749.8 391.8 1752.6 395.7C1756.9 394 1762.8 386.7 1762.8 386.7C1761 394.6 1762.7 402.9 1767.5 409.4L1768.3 410.4L1770.2 409C1774.8 405.5 1778.1 400.7 1779.7 395.2L1778.7 387.4L1778.2 390.1C1777.3 395.1 1778.7 400.2 1782.1 404.1C1785.7 401.1 1787.7 396.7 1787.6 392.1L1787.5 385.2L1786.2 390.3C1785 395 1784.9 399.8 1786 404.6L1787 409.3L1794.9 408.1C1798.4 407.6 1801.7 405.9 1804.1 403.3L1807.6 399.6L1807.4 402C1807.1 406.3 1807.5 410.5 1808.5 414.7L1809.2 417.4L1809.9 416.8Z" fill="#0D1426"/>
<path d="M474.899 200.2V206.5C474.899 209.4 474.099 212.2 472.699 214.8L469.899 219.6L469.199 214.1C468.699 210.3 469.799 206.5 472.199 203.5L474.899 200.2Z" fill="#0D1426"/>
<path d="M559.999 261.2C559.999 261.2 571.599 244.9 586.399 241.3C586.399 241.3 594.099 254.2 579.799 265.1C579.799 265.1 577.099 264.4 576.399 256.4C576.299 256.4 570.899 261.2 559.999 261.2Z" fill="#0D1426"/>
<path d="M733.499 258C733.499 258 738.599 264.9 741.999 265.8C741.999 265.8 744.499 253.6 728.199 249.2C728.199 249.2 722.299 262.8 725.899 269.7C725.899 269.8 733.499 267.7 733.499 258Z" fill="#0D1426"/>
<path d="M1065.9 151.9C1065.9 151.9 1057 161.1 1060.1 172.3C1060.1 172.3 1068.6 169.8 1065.9 151.9Z" fill="#0D1426"/>
<path d="M1097.9 160.1C1097.9 160.1 1111.2 174.7 1110.5 183.2C1110.5 183.2 1104.4 181.8 1102.7 175.4C1102.7 175.4 1100.4 187.2 1097.5 188.1C1097.4 188.1 1085.1 168.7 1097.9 160.1Z" fill="#0D1426"/>
<path d="M1417.5 321.1C1417.5 321.1 1430.4 327.9 1427 341.4C1427 341.3 1410.5 340.8 1417.5 321.1Z" fill="#0D1426"/>
<path d="M1630.6 369.4C1630.6 369.4 1634.3 360.9 1643.9 359.9C1643.9 359.9 1654.8 370.9 1645.3 379.5C1645.3 379.5 1639.7 378 1639.9 366.9C1639.9 366.9 1638.6 369.4 1630.6 369.4Z" fill="#0D1426"/>
<path d="M1793.5 444C1793.5 444 1797.4 432.3 1813.9 429.4C1813.9 429.4 1816.1 440.1 1810.7 444C1810.7 444 1808.5 445 1807.1 439.1C1807.1 439 1801 445.2 1793.5 444Z" fill="#0D1426"/>
<path d="M232.899 342.3V342.4C233.299 345 234.899 347.3 237.199 348.6C238.599 346.8 238.799 344.4 237.799 342.4L237.199 341.2L232.899 342.3Z" fill="#0D1426"/>
<path d="M243.799 337.5C246.299 339.1 247.799 341.8 247.799 344.6C245.299 344.8 242.899 343.8 241.299 341.8L238.799 338.7L243.799 337.5Z" fill="#0D1426"/>
</svg>
