<svg width="1920" height="1080" viewBox="0 0 1920 1080" fill="none" xmlns="http://www.w3.org/2000/svg">
<path d="M0 0V1080H1920V0H0ZM717.6 326.6C718.3 323.1 718.6 319.6 718.6 316.1V312C719.4 311.5 720.1 311 720.8 310.4L728.3 304.2L714.8 341L717.6 326.6ZM680.8 327.5L681.9 323.7L692.8 316.2L694.7 322.5C695.5 325.2 696.6 327.7 698 330.1L700.8 334.8L701.6 333.4C704.4 328.7 706.2 323.4 706.8 318L707 316.3L708.4 315.9V326.3C708.4 328.9 708.2 331.4 707.8 334L707.3 337.1C705.8 347.2 702.3 356.9 697.2 365.8L692.6 373.5C690.8 376.5 689.3 379.6 688 382.8L674.6 420.5L669 415.5L668.5 410.6C667.8 403.5 666.5 396.4 664.7 389.5L661.8 378.7L648.6 356.6C646.8 354.4 645.3 351.9 644 349.4L634.8 330.8L642 325.7L642.7 328.1C644.2 333.3 646.9 338.1 650.6 342L650.7 342.1L651 341.7C654.1 338 657.2 328.9 657.2 328.9C658.8 333.3 661.2 337.3 664.4 340.7L668 344.7C674.4 340.7 678.8 334.6 680.8 327.5ZM650.7 572L645 594.1C644.6 595.6 644.3 597.1 644 598.5L639.2 623.7C638.2 614.3 628.6 609.2 628.6 609.2C636.6 616.3 635.2 644.9 635.2 644.9L634.1 643.2C632.1 640.1 630.5 636.7 629.3 633.2C622.5 612.2 620.5 636.3 620.5 636.3C617.4 629.7 611.3 620.5 611.3 620.5C610.1 647.9 604.1 630.5 604.1 630.5V642.9C604.1 643.6 603.6 644.1 602.9 644.1H602.2C601.5 635.3 592.7 627.1 592.7 627.1C603.8 646.3 594.4 647.2 594.4 647.2C587.4 638.2 577 639.9 577 639.9C575.2 640 572.2 633.1 573.9 616.3C571.5 624.4 568 627.1 568 627.1C567.8 619.1 562 613.5 562 613.5C559.8 607.9 565.6 597.5 565.6 597.5C559 600.6 556.1 608.6 556.1 608.6C553.6 594.9 549.4 585.5 549.1 585C551.8 594.9 547 608.6 547 608.6H541.4C537.5 543.7 529.3 599.1 529.3 599.1L525.4 600.1H516L416.6 591.2C413 570.3 399 571.8 399 571.8C399.3 545.8 381.1 550.1 381.1 550.1C379.6 532 370.1 536.1 370.1 536.1L347.4 533.3C349.5 528.1 349.9 522.4 348.4 517L348.2 517.1C343.9 518.8 340.4 522.3 338.8 526.6L336.9 523.9C335.4 521.7 333.5 519.9 331.2 518.6L330.2 518C326.5 519.7 323.3 522.2 320.8 525.4L312.4 536.1L312.8 535.2C313.9 532.4 313.9 529.3 312.9 526.4C311.2 525.9 309.4 525.6 307.6 525.6C306.2 525.6 304.8 525.8 303.4 526.1L302.1 526.4L302.9 525.6C304.4 524.1 305.4 522.3 305.7 520.2C303.5 518.1 300.9 516.7 298 515.9L296.8 515.6L304.7 511.5L306.4 512.5C309.2 514.2 312.3 515.2 315.5 515.5H315.9L316.2 514.5C317.3 511.2 317.8 507.7 317.6 504.3L317.4 499.7L322.2 502.8L322.8 504.3C324.2 507.7 326.2 510.8 328.8 513.5L329.6 514.3L331.3 513.4C335 511.4 338.4 508.9 341.3 505.9L344.9 502.3L366.3 477.8C380.1 488.3 384.9 474.7 384.9 474.7L385.4 477.3C386.2 481.5 388.2 485.4 391.2 488.4L392.3 489.5L394.9 486.1C396.5 484 397.4 481.4 397.4 478.7V475.9L399.9 479.3C401.8 481.9 404.4 484 407.4 485.3L412.5 487.6L411.2 479.1C410.6 474.9 408.6 470.9 405.6 467.9L402.5 464.9C408.1 460 407.1 448.9 407.1 448.9L410.9 460.4C411.9 463.5 413.7 466.2 416.2 468.4L417.6 469.7C418.5 468.1 419.3 466.5 419.8 464.7C420.3 463 420.7 461.2 420.8 459.4L420.9 456.9L421.4 457.5C423 459.5 425.2 461.1 427.6 462L428.3 462.3L429 460.8C430 458.6 430.4 456.3 430.4 454L430.2 443.2L430.6 443.9C432.1 446.7 434.1 449.2 436.7 451.2L436.9 451.4L437.2 451.2C439.5 449.2 441.5 446.8 443.1 444.1L452.8 428.2L515.6 396.9L516 397.3C520 401.1 525 403.7 530.4 404.9L530.9 401.3C531.9 394.8 530.3 388.3 526.5 383L522 376.8L524.4 367.1C524.4 367.3 524.4 367.4 524.4 367.6C524.4 369.9 525.1 372.1 526.4 374L526.5 374.1H526.8C528.9 374.1 530.9 373.1 532.2 371.5L532.3 371.8C534.3 376.6 537.5 380.7 541.6 383.9L542.5 384.6L542.9 384.1C546.5 380.4 549.1 375.8 550.3 370.8L551.1 371.4C555.2 374.7 560 376.9 565.1 377.8C567.1 374.7 568.2 371.2 568.2 367.5C568.2 366.2 568.1 364.8 567.8 363.5L567.7 363L574.3 354.5C575.8 356.7 577.7 358.6 580 360L584.3 362.5V353.1C584.3 349.8 583.6 346.5 582.4 343.4L581.6 341.4L584.1 343C586.2 344.4 588.6 345.2 591.1 345.6C592.3 343.8 593 341.7 593.2 339.6L593.3 338.5L594.7 339.9L595 340.7C595.6 342.7 596.7 344.5 598.2 346L600.5 348.3L601.7 344.1C602.1 342.6 602.2 341 601.9 339.4L601.5 337.3L604.9 336.4L612 343.5C613.7 345.2 615 347.2 616 349.4L622.8 365.5L635.4 397.7L643.3 418.4V425.8L650.1 441.6C651.9 445.7 652.7 450.1 652.5 454.5L651.5 477.2V564.2L650.7 572ZM1213.9 762.4L1211.6 766.7C1209.2 771.2 1209.8 776.7 1213.2 780.5C1213.3 780.6 1213.3 780.6 1213.3 780.6L1210.1 779.5C1206.4 778.2 1202.3 778.1 1198.6 779.3C1200.9 783 1203.8 786.3 1207.3 789L1213 793.4C1213.6 793.8 1213.9 794.5 1213.6 795.2L1211.1 802.1C1209.9 805.4 1207.8 808.4 1205.1 810.6L1198.1 816.5C1197.4 817.1 1196.7 817.4 1195.8 817.6H1195.7C1194.4 817.9 1193.1 817.3 1192.6 816.1C1189.5 808.9 1195.1 799.8 1195.1 799.8C1188.6 804 1189.1 814.1 1189.1 814.1C1185.3 806.3 1179.9 806.1 1179.9 806.1C1184 808.4 1187.6 817.7 1187.6 817.7C1159 815.1 1149.2 845.1 1146.6 855.5C1146 858 1144.9 860.2 1143.4 862.2L1135.4 872.3C1133.4 867.6 1142.4 857.6 1142.4 857.6C1130.1 863.7 1130 878.8 1130 878.8C1129 864.2 1115.3 857.6 1115.3 857.6C1124.7 868.7 1122.9 881.4 1122.9 881.4H1118.4C1116.1 876.8 1108.5 875.4 1108 875.3C1112.4 878.5 1112.8 883.1 1112.8 883.1L1096.6 888.2L1095.7 890.7H915.7L904.1 888.1L876.6 880.2L872 885L838 875.1C847.7 836.8 825.1 837.1 825.1 837.1L798.3 834.8C796.3 834.6 794.6 833.5 793.6 831.8L793 830.8C792.7 830.2 792.4 829.6 792.4 828.9L792 826.1C791.7 823.7 790.5 821.5 788.7 819.9L783 814.9C782.7 807.2 798.3 796.9 798.3 796.9C791.8 797.2 782.5 805.2 782.5 805.2C783.7 797.7 779.6 794.1 779.6 794.1L778.4 809.6L769 797.3C767.4 795.2 766.3 792.7 765.9 790.1L763.5 775.2L757.7 754.3C766.4 752.6 764.8 747.1 764.8 747.1L752.2 745.4C763.1 731.6 739.4 737.9 739.4 737.9L738.2 736.2C743 733 744.5 728.4 744.5 728.4C740.1 728.1 731.9 732 731.9 732C738.9 712.1 731.9 703.9 731.9 703.9C726.8 705.8 724.2 716.7 724.2 716.7L720.2 698.4C719.7 696 717.7 694.2 715.3 693.8L703 691.9C721.2 672.4 703.2 680.9 701.4 681.8C704.3 680.3 702.8 672 702.8 672C696.7 674 692.8 683.3 692.8 683.3C686.9 666.2 712.7 655 712.7 655C699.9 655 690.7 666.2 690.7 666.2C690.1 658.7 687.8 653.3 685.8 649.9C683.6 646.2 682.5 641.9 682.5 637.6V628C682.5 625.4 682.8 622.9 683.3 620.4L684 617.2C684.3 615.7 684.5 614.2 684.5 612.7V562.9L683.8 531.8C683.8 530.6 683.7 529.3 683.6 528.1L680.2 490.4L679.2 479.8C678.5 472.2 679.8 464.6 683 457.7L691.4 439.4L700.9 420L705.4 397.1C706.1 393 707.2 389 708.6 385.1L718.9 357.3L731.4 319.3L737.7 297C738.3 297.8 740.4 300.9 741.9 302.2L742.8 303C744.2 300.7 744.9 298.1 744.9 295.5C744.9 295.2 744.9 294.8 744.9 294.5L744.4 287.5C746.1 291.5 748.8 294.9 752.3 297.5L753.5 298.4L755.8 295.8C763.7 287 767.5 275.4 766.4 263.7L773.5 250.1V250.3C773.8 253.5 775.6 256.3 778.4 257.8C780.6 255.1 782.1 252 782.8 248.6L783.3 246.4L783.5 248.4C783.9 253.6 785.9 258.5 789.1 262.6C789.2 262.6 789.4 262.3 789.8 261.8C791.9 258.7 793.1 255 793.3 251.2L793.4 249.6L794.8 250.6C797.5 252.5 800.7 253.5 804 253.4C804.6 252.1 805 250.6 805 249.2C805 248.1 804.8 247 804.4 245.9L804.2 245.3H809.5C811.5 245.3 813.5 244.9 815.3 244.2L821 242L820.8 242.5C819.4 245.9 818.9 249.6 819.4 253.3L821.3 253.7C823.9 254.2 826.6 254.2 829.2 253.8L831.4 253.4L843.6 247.8L843.5 248C842.1 251.6 842.9 255.7 845.6 258.5L852.8 253.9C855.5 252.2 857.9 250.2 860.1 247.8L867 240.4L865.3 247C864.1 251.8 863.9 256.8 864.8 261.7L864.9 262.3L867.8 261.9C870.8 261.5 873.6 260.2 875.7 258.1L875.8 258C877.9 255.9 880.3 254 882.9 252.6C886 250.8 889.9 248.7 889.9 248.7L890.2 249.3C893.2 254.9 897.6 259.7 902.8 263.3C906.3 265.7 910.5 267 914.8 267.1L917.6 267.2C917.2 262.6 916.3 258.1 915 253.7C913.7 249.3 912 245 909.9 240.9L907.1 235.4L927.9 247L930.8 243.3C932.2 245.4 934.1 247.2 936.3 248.3L937.7 249C938.1 247.3 938.3 245.6 938.3 243.9C938.3 241.1 937.8 238.4 936.7 235.8L936.6 235.5H945.3C945.2 236.6 945.2 237.6 945.2 238.7C945.2 245.3 946.7 251.9 949.6 257.8L950.3 259.3L953.6 256.7C957.4 253.8 959.3 249 958.7 244.3L968.4 240.5C967.5 242.1 967 243.8 967 245.6C967 247 967.3 248.5 967.9 249.8L968 250.1C969.3 249.6 970.5 248.7 971.4 247.7C972.3 246.7 973 245.4 973.4 244.1L973.7 243H976.9L979.2 249.7C980.3 253 982.6 255.7 985.6 257.5L987 258.3C988 256.7 988.7 255.1 989.3 253.3C989.8 251.6 990.1 249.8 990.2 247.9L991.5 261.5C991.5 264.6 992.7 267.5 994.9 269.7L995.7 267.4C996.6 264.7 998.1 262.2 1000.1 260.2L1000.2 260.1L1000.9 264.3C1001.2 266.3 1002.2 268.1 1003.6 269.6L1005 267.2C1005.9 265.6 1007 264.2 1008.3 262.9L1009.9 261.4L1011.1 268.4C1011.7 271.9 1012.7 275.4 1014.1 278.7L1015.3 281.9L1015.6 281.5C1018.7 276.8 1020.4 271.3 1020.4 265.6L1020.9 266.1C1022.7 267.8 1025 268.8 1027.5 268.9C1029 267.1 1029.8 264.8 1029.8 262.5V262L1038.4 268C1041.2 269.9 1044.6 270.7 1047.9 270.1L1056.4 268.6L1056.8 269.3C1058.1 271.5 1060.1 273.1 1062.4 273.8L1064.8 271.8C1066.2 270.6 1067.3 269.1 1067.9 267.5C1068.4 266.4 1068.6 265.2 1068.6 263.9C1068.6 262.2 1068.7 260.1 1068.7 260.1L1073.4 262.5C1076.1 263.9 1079.1 264.6 1082.2 264.6H1086.6L1076.8 268.6C1073.8 269.8 1071.2 271.7 1069.1 274.1L1065 278.9L1066.4 279.5C1072.2 281.9 1078.6 282.1 1084.6 280.3C1083.1 281.8 1082 283.5 1081.3 285.5L1080.6 287.3C1079 291.6 1079.2 296.3 1081 300.5L1083 305.1L1085.1 303.6C1090.9 299.3 1094.8 293.1 1096.1 286V286.4C1096.3 287 1096.5 287.5 1096.7 288C1098.3 291.6 1101.8 294.1 1105.7 294.8C1107.8 291 1109.2 286.8 1109.8 282.5L1110 280.8C1110.2 279 1110.3 277.2 1110.2 275.4V274.1L1118.2 277.5L1119.7 288.6C1119.7 288.7 1119.7 288.7 1119.7 288.8C1120.4 291.2 1121.4 293.5 1122.7 295.7C1124 297.8 1125.6 299.8 1127.4 301.5L1127.6 301.7C1128.5 298.9 1128.9 296.1 1128.9 293.2C1128.9 291.7 1128.8 290.1 1128.5 288.6L1128.4 288.1L1143.6 306.3C1140.5 312.1 1138.9 318.5 1138.9 325C1138.9 327.4 1139.1 329.8 1139.5 332.2L1139.9 334.2L1144.2 331.8C1148.6 329.4 1152.2 325.7 1154.5 321.3L1156.5 326.6C1157.2 328.5 1158.1 330.3 1159.2 332L1163.2 338.1L1164.3 328.5C1164.7 324.7 1164.5 320.9 1163.8 317.2L1162.7 311.7L1186.6 316.5L1201.4 328.2L1205.5 308.6L1220.5 325.6L1241.8 346.5L1250.8 334C1251.9 332.4 1252.9 330.8 1253.7 329L1255.2 325.7L1256.7 328.8C1257.9 331.3 1260 333.3 1262.6 334.3L1263.4 334.6L1263.7 330.6C1263.8 329.5 1263.7 328.4 1263.6 327.3L1262.8 321.7L1268.7 326.5C1271.6 328.9 1275.3 330.1 1279.1 329.9L1287 329.4L1288.6 332.1L1292.2 336.4V336.9L1292.4 337.7C1293.6 342.7 1296.2 347.4 1299.8 351L1300.6 350.8C1306.2 349.6 1311.2 346.4 1314.8 341.9L1337.3 353L1361.1 372.4L1361.4 373.8C1361.8 375.4 1362.6 376.9 1363.8 378.1C1366 377.9 1368.1 376.9 1369.7 375.3L1370.8 374.2L1371.2 375.8C1371.7 377.8 1372.7 379.6 1374.1 381.1L1374.6 381.6C1375.6 381.1 1376.7 380.4 1377.7 379.6C1378.7 378.8 1379.4 377.8 1379.7 376.7V375.8H1390.6L1393.7 382.3C1395.5 386 1397.8 389.3 1400.7 392.2L1401.7 393.2C1402.6 391.4 1403.3 389.5 1403.7 387.6C1404.2 385.7 1404.4 383.7 1404.4 381.7C1404.4 380.8 1404.6 379.9 1405.1 379.1L1408.8 372.3L1410.2 382.6C1410.5 384.9 1411.9 386.9 1414 388L1419.2 390.7L1415.9 391.8C1413.4 392.7 1411.1 394.1 1409.1 396L1408.6 396.5C1406.2 398.8 1405 402.1 1405.2 405.4L1405.4 408.6L1407.4 407.8C1409.1 407.1 1410.6 406.1 1411.9 404.8L1417.7 398.8L1417.1 404.1C1416.4 410.8 1417.9 417.5 1421.4 423.3L1422 422.6C1425.3 419 1427.9 414.8 1429.4 410.2L1430.4 407.3C1430.4 407.3 1431.6 408.5 1432.1 408.8C1432.6 409.1 1447.4 427.4 1447.4 427.4L1448.9 434.2C1450 439.3 1452.7 444 1456.6 447.5C1459.9 444.9 1462.6 441.6 1464.6 437.9L1465.6 436.1L1476.3 478.5L1477.1 480.5C1477.9 482.5 1479.4 484.2 1481.2 485.4C1482.9 484 1484.2 482.2 1484.9 480.2L1487.3 473.7L1487.1 475.6C1486.9 477.7 1487.3 479.8 1488.1 481.7L1488.4 481.6C1490 480.8 1491.5 479.8 1492.8 478.6L1494.9 476.6L1495.2 494L1506.4 491.3L1503.7 497.2C1501.4 502.3 1500.9 508 1502.5 513.4L1504.1 512.9C1506.8 512.1 1509.3 511 1511.6 509.5L1515.7 506.9L1514.2 509.4C1512 513.2 1510.9 517.6 1511.1 522L1511.2 524.4L1512.7 525C1516.4 526.4 1520.5 526.2 1524 524.4L1525.4 523.7L1525.3 524.4C1523.8 531.2 1524.4 538.3 1526.9 544.7L1527 544.8L1533.4 541C1538 538.3 1541.9 534.5 1544.8 530L1546 528.2L1545.9 529.1C1545.6 531.6 1546.5 534.2 1548.2 536C1549.9 534.8 1551.1 533.1 1551.7 531.1L1552.5 528.1L1553.6 535.6C1554.1 538.8 1554.9 541.9 1556.2 544.8L1557.2 547.3L1560.8 542.7C1562 541.1 1563.2 539.4 1564.2 537.7L1565.7 535.2L1565.8 536.6C1566 539.5 1566.9 542.3 1568.5 544.7H1569C1571.7 544.7 1574.2 543.7 1576.3 542L1578.9 544.5C1577.7 546.4 1577 548.6 1577 550.9C1577 551.1 1577 551.2 1577 551.4V552L1582.6 549.7C1583.9 549.2 1585 548.4 1586 547.5L1589.6 544.1L1589.3 551.2C1589.1 555.2 1590 559.2 1592 562.8L1592.7 564.2L1595.5 562.5C1598.1 560.9 1600.2 558.6 1601.4 555.8L1602.9 552.4V572.8L1600.4 573.6C1599.9 573.7 1599.6 574.1 1599.5 574.6L1597 590.2C1591.6 571.2 1589.6 582.4 1589.6 582.4C1587.4 567.8 1576.4 591.6 1576.4 591.6C1574.6 574.4 1565.9 583.2 1562.7 587C1561.7 588.2 1559.8 587.9 1559.1 586.5C1557.5 583.3 1557.8 577.3 1557.8 577.3C1557.8 577.3 1553.2 586 1551.3 588C1549.4 590 1548.2 584.4 1548.2 584.4C1544.8 599.9 1539.2 601.8 1539.2 601.8C1537 602.7 1536.8 594.7 1536.8 594.7C1535.4 603.5 1530.8 607.9 1528.5 609.7C1527.8 610.2 1526.8 610.2 1526.2 609.5C1518.7 601 1524.3 588.7 1524.5 588.3C1513.4 594.8 1516.7 613.1 1516.7 613.1C1512.8 607.3 1504.8 607.3 1504.8 607.3C1510 609.6 1512.5 613 1513.7 615.7C1514.6 617.7 1514.6 619.9 1513.7 621.9L1511 627.8C1499 611.5 1497.1 638.4 1496.8 645.6C1496.8 646.6 1496.2 647.5 1495.3 648C1492 649.9 1488.5 654.2 1488.5 654.2L1474.7 674C1473.9 665.2 1462.7 655.7 1462 655.1C1466.3 660 1466.4 665.1 1465.8 668.7C1465.3 671.4 1463 673.3 1460.2 673.3H1457.9C1457.3 673.3 1456.8 673.7 1456.7 674.3L1456 678.6C1455.8 679.9 1454.8 681.1 1453.5 681.3C1446.3 682.7 1436.1 691 1436.1 691L1424.9 686.2L1418.6 675.5C1413 677.5 1410.6 686.6 1410.6 686.6C1409.8 680.3 1404 675.2 1404 675.2C1408.2 682.4 1400.8 695.3 1400.8 695.3L1380.2 702.8C1374.1 676 1371.6 696.9 1371.1 702.4C1371 703.2 1370.7 704 1370.2 704.6L1364.9 711.6V704.4C1364.9 703.8 1364.5 703.3 1364 703.1C1363 702.8 1362.1 702 1361.7 701L1359.6 696.5L1342.6 717.2C1340.4 711.4 1346.4 705.4 1346.7 705.1C1340.8 708.2 1336.5 719.6 1336.5 719.6C1337 693 1325.6 689.5 1325.6 689.5C1335 702.6 1330.9 724.2 1330.9 724.2C1325.1 716.3 1313.1 713.2 1312.4 713C1318.7 715.2 1324.4 725.2 1324.4 725.2C1321.8 733.2 1316.1 731 1316.1 731C1312.9 717.5 1300.8 711.9 1300.8 711.9C1307.3 719.4 1305 739.1 1305 739.1C1302.1 740.3 1299.6 732.5 1299.6 732.5C1296.7 736.9 1299.6 752.4 1299.6 752.4H1297.7C1297.2 752.4 1296.7 752 1296.7 751.4C1296.5 740.8 1290.7 735.2 1290.7 735.2C1289.2 755.1 1280.5 758.9 1280.5 758.9L1224 778.3C1222.4 772.4 1218.9 767.1 1213.9 763.5V762.4Z" fill="#394561"/>
<path d="M1101.9 308.6C1101.9 308.6 1106.8 293.4 1118 295.3C1117.9 295.3 1115.9 309.9 1101.9 308.6Z" fill="#394561"/>
<path d="M920.3 249.6C920.3 249.6 935.4 252.9 937.4 263.4C937.4 263.4 930 256.8 927.4 258C927.4 258 928.7 266.2 924.1 268.2C924.1 268.2 919 260.1 920.3 249.6Z" fill="#394561"/>
<path d="M600.9 368.2C600.9 368.2 605.6 365.5 606.8 361.7C606.8 361.7 610.8 369 613.7 369C613.7 369 616.6 357.1 606 349.1C606 349 598.9 357.1 600.9 368.2Z" fill="#394561"/>
<path d="M1217.9 776.9C1221 772.2 1225.5 768.6 1230.7 766.6L1230.9 766.5C1233.9 771.1 1234.4 776.8 1232.4 781.9L1230 787.8L1217.9 777.9V776.9Z" fill="#394561"/>
</svg>
