<svg width="1920" height="1080" viewBox="0 0 1920 1080" fill="none" xmlns="http://www.w3.org/2000/svg">
<path d="M1920 0.2V1080.2H0V0.2H563.7L541.2 5C537.7 5.7 534.4 7 531.4 8.6C528.4 10.2 525.5 12.4 523 14.9L523.8 16.2C529.1 24.3 532 33.8 532 43.5C532 45.4 531.9 47.3 531.7 49.1L524.8 47.5C521 46.6 517.5 45.1 514.3 43.1C511.1 41 508.3 38.4 505.9 35.3C504.1 41.2 500.8 46.5 496.5 50.8L492.1 55.2C487.9 47 485.7 37.9 485.7 28.7V26.4L446.4 64.9C438.1 73.2 426.2 76.8 414.7 74.4L409.5 73.4C403.6 72.2 397.4 72.9 391.9 75.3L384.6 78.5C378.9 81 372.6 82 366.4 81.3L339.5 78.5C337.7 78.3 335.8 78.9 334.4 80.1L297.5 113.2C293.6 116.7 289.1 119.2 284.1 120.7L274.3 123.7C264.6 126.6 254.3 126.9 244.5 124.5L212 116.5L167.6 121.1L169 124.9C171.2 130.7 172.2 136.7 172.2 142.7C172.2 150 170.6 157.2 167.5 163.9L163.9 161.5C156.6 156.5 148 141.3 147.8 140.8C156.1 159.8 144.3 171.3 144.3 171.3C133.5 163.5 129.1 155.6 129.1 145.7C129.1 141.3 129.9 136.6 131.5 131.2L107.7 158.4L109.4 161.3C116.7 173.8 120.2 188.2 119.5 202.7L119.3 207.4L117.4 207.2C112.8 206.8 108.3 205.7 104 204C99.7 202.3 95.7 200 92 197.2L93.7 200.1C97.3 206.4 99.2 213.5 99.2 220.7C99.2 223.3 99 225.8 98.5 228.4L97 228.2C93.6 227.7 90.4 226.7 87.4 225.4C84.4 224 81.5 222.2 78.9 219.9C86.8 232.3 97.3 253.3 90.3 268.4C90.3 268.4 152.7 269.9 149.7 323.2C149.2 332.3 152 341.4 157.3 348.8C165.8 360.5 179.2 376.1 193 380.5C201.8 383.3 209.4 389.1 213.8 397.2C214.9 399.2 215.9 401.4 216.7 403.8C217 404.8 218 405.5 219.1 405.4L248 403.9C253.1 403.6 258.3 403.1 263.3 402.2L303.7 395.6C313.3 394 323.2 394.4 332.6 396.8L367.9 405.5C367.9 405.5 365.5 390.9 359.1 385.4C359.7 385.7 369.4 390.9 374.1 405.5C374.1 405.5 379.6 396 386.7 395.6C386.7 395.6 379.6 402.7 381.9 408.2C381.9 408.2 392.7 420.8 394.3 436.1C394.5 438.1 395.6 439.8 397.3 441C405.1 446.4 426.5 464.1 424.2 495C424.2 495.6 424.6 496.1 425.2 496C430.9 495.9 457.5 496.7 466.4 524C466.6 524.6 467.1 525 467.8 525C473.7 525.2 503.3 527.1 506.1 548.3C506.2 549.3 506.8 550.2 507.7 550.7L518.5 556.7C518.5 556.7 517.5 545.9 513.4 540C513.4 540 524.6 550.5 528.7 562.8C528.7 562.8 533.8 551.9 542 554C542 554 531.1 560.5 534.8 564.9L541.9 570.5C542.4 570.9 543 571.1 543.6 571C543.9 571 544.3 570.8 544.5 570.6C546.4 569.2 557.5 561.9 572.5 570C572.5 570 559 573.3 560.3 577.1C560.3 577.1 567.8 582.5 568.7 594.1C568.9 596.1 569.3 598 570 599.9L571.5 603.9C572.6 606.8 574.1 608.9 576.3 610.2C580 612.5 586.1 618.1 589 630.5C589.4 632.3 590.4 633.9 591.9 635.1L610.1 649.5C610.7 650 611.4 650.5 612.1 650.9L639.6 665.9C645 668.9 650 672.7 654.3 677.1L660.9 683.9C664.6 687.7 667 692.6 667.8 697.8L669.1 706.5C669.3 707.5 670 708.3 670.9 708.6L701.5 717.8C705 718.8 708.4 720.3 711.5 722.1L725.7 730.2C727.8 731.4 730.1 732 732.5 732H770.3C772.9 732 775.4 731.7 777.9 731.2L812.6 724C817.6 723 822.6 722.7 827.7 723.3C836.8 724.3 850.9 726.4 853 726.3C856.3 726.2 888.1 721.6 899.5 720C902.2 719.6 904.7 718.7 907 717.2L933.1 700.3C936.2 698.3 939.9 697.2 943.6 697.2H971.3C982.8 697.2 994.1 699.1 1004.9 702.9L1030.6 711.9C1036.2 713.9 1042.1 715.1 1048 715.7L1111.9 721.4C1114.9 721.7 1118 721.8 1121 721.9L1149.9 722.4C1155.5 722.5 1161 720.8 1165.5 717.6C1173.8 711.7 1190.3 702.6 1214 701.2C1215.5 701.1 1217 700.7 1218.2 699.9L1218.4 699.8C1222.5 697.3 1227.2 695.9 1232.1 695.6C1234.4 695.5 1237 695.3 1239.5 695.2C1246.2 694.9 1252.4 691.2 1255.9 685.4L1256 685.2C1258.4 681.2 1262.4 678.4 1266.9 677.4C1273.6 675.9 1283.7 673.6 1291.2 672C1297.5 670.6 1303 667 1306.8 661.8L1307 661.6C1310.6 656.7 1316.1 653.6 1322.2 653.1L1331.6 652.4C1334 652.2 1335.9 650.4 1336.2 648C1337.9 630.8 1347.1 565.5 1388.4 564.6C1389.7 564.6 1390.8 563.7 1391.1 562.4C1393.3 552.9 1404.3 516.4 1447.9 512.5C1447.9 512.5 1443.2 502.4 1438.1 499.1C1441.6 501.1 1452.5 507.5 1455.2 513.7C1455.2 513.7 1453.7 494.8 1468.3 484.6C1468.3 484.6 1454 502.6 1459.8 512.5H1467.1C1471.3 512.5 1475.5 511.8 1479.5 510.5L1479.7 510.4C1487 508 1494.9 508.6 1501.7 511.9C1509.8 515.9 1519.6 522 1521.1 528.7C1521.1 528.7 1524.3 502.3 1538 488.1C1547.5 478.2 1562.2 474.3 1584.4 489.2C1584.4 489.2 1584.8 482.1 1585.2 475.2C1585.3 473.6 1585.4 472 1585.5 470.6C1585.6 468.3 1586.1 465.4 1586.8 462.6C1587.5 459.7 1588.3 456.9 1589.2 454.8C1591 450.7 1594.1 447.3 1598.1 445.2L1616.5 435.6C1620.6 433.5 1624 430.1 1626.2 426.1L1628.7 421.4C1631.2 416.8 1635.3 413.2 1640.3 411.7C1640.6 411.6 1641 411.5 1641.4 411.4C1643.8 410.8 1646.1 410 1648.3 409L1660.8 403.2C1666.3 400.7 1672.2 399.4 1678.2 399.5L1719.4 400.3C1719.9 400.3 1720.4 399.9 1720.4 399.3V397.1C1720.4 393 1721.7 388.9 1724.1 385.6L1729.2 378.5C1729.2 378.5 1724.8 363.9 1712.2 363.5C1712.2 363.5 1723.1 357.4 1733.6 371.3C1733.6 371.3 1738.2 346.3 1753.4 341.3C1753.4 341.3 1742 356.1 1747.3 363.5C1748.1 364.5 1749.3 365.1 1750.6 365L1768 363.7C1770.6 363.5 1772.8 362.1 1774.1 359.9L1776.1 356.4C1780.2 349.4 1783.1 341.7 1784.8 333.8L1797.8 272.6C1802.3 251.6 1798.9 229.6 1788.3 211L1774.4 186.6C1774.4 186.6 1743.8 196.1 1738 212.5C1738 212.5 1721.4 173.6 1762.5 144.9C1764.2 143.7 1766 142.6 1767.9 141.4C1767.4 141.6 1764.9 142.7 1761.2 143.9C1751.9 147 1734.8 151.2 1721.4 145.8C1721.4 145.8 1725.3 138.7 1735 131.5C1739.3 128.3 1744.8 125.2 1751.5 122.6C1762.3 118.5 1776.4 115.9 1794.5 117.2L1759.1 98.5L1753.3 104.3C1750.2 107.4 1746.3 109.4 1742 110.2L1738.7 110.8L1729.5 112.4C1729.5 109 1730.1 105.6 1731.1 102.4C1732.1 99.4 1733.6 96.5 1735.5 93.9L1738 90.6L1731.7 94.9C1730 96 1728.3 97.1 1726.6 98C1723.5 99.7 1720.3 101 1717 102.1C1714.6 102.9 1712.1 103.5 1709.5 103.9C1706.6 104.4 1703.7 104.7 1700.8 104.7L1700.6 104.2C1699.5 100.3 1699.9 96.6 1700.7 93.6C1701.8 89.6 1703.7 86.9 1703.7 86.9L1660.3 48.3C1659.6 49.5 1658.8 50.6 1658 51.7C1654.2 56.2 1648.9 59.3 1643 60.1L1641.9 60.3C1641.6 59.9 1641.4 59.5 1641.1 59.1C1636.5 51.7 1635 42.8 1636.8 34.4C1637.2 32.6 1637.7 30.9 1638.3 29.2L1639.1 27L1624.9 26.5L1618.4 26.3C1621.1 36.5 1618.2 47.4 1610.8 55L1609.2 56.6L1605.5 52.5C1599.7 46.1 1596.6 37.9 1596.6 29.4V29.1C1596.6 27.5 1596.8 25.9 1597 24.2L1589.5 20.5C1589.1 22.5 1588.4 24.4 1587.4 26.1C1586.2 28.3 1584.5 30.3 1582.5 31.9L1579.1 34.6C1574.2 29.4 1570.7 23 1568.9 16.1C1568.5 14.6 1568.2 13 1567.9 11.4L1567.8 10.9L1580.7 0H1920V0.2Z" fill="#4B6C46"/>
<path d="M128.6 183.7C118.5 178.9 109.9 171.7 103.3 162.6L100.3 158.5L101.2 146.9L128.4 121.7L132 133.3L133.5 144.5C135.2 157.2 133.7 170.1 129.2 182.1L128.6 183.7Z" fill="#4B6C46"/>
<path d="M1581 0.2L1577.2 4.5C1576.2 6.6 1575.1 8.6 1573.8 10.4C1572.4 12.5 1570.7 14.5 1568.9 16.3C1567.2 18 1565.3 19.5 1563.4 20.9L1562.8 21.3C1559 16.2 1557 10 1557 3.7C1557 2.5 1557.1 1.3 1557.2 0.1H1581V0.2Z" fill="#4B6C46"/>
<path d="M1640.9 26.2C1639 34.1 1635.1 41.3 1629.6 47.2L1629 47.8C1621.3 40.9 1617.2 30.8 1618.1 20.5L1618.2 19.4L1646.3 16.6L1640.9 26.2Z" fill="#4B6C46"/>
<path d="M1587.5 22.9C1587.2 26.9 1587.9 31 1589.6 34.6L1589.8 35C1594.5 33 1598 28.8 1599.2 23.8L1599.3 23.3L1586.4 17.5L1587.5 22.9Z" fill="#4B6C46"/>
<path d="M374.3 660C374.3 660 364.3 639 376.4 627.7C376.4 627.7 385.8 633.5 381.1 655L387.3 648.8C387.3 648.8 391.6 625.1 420.8 617.3C420.8 617.3 415.9 646.5 389.8 650.4L381.7 657.2C381.7 657.2 406.2 649.2 427 658.5C427 658.5 396 674.5 379.5 664.1L374.3 660Z" fill="#709B69"/>
<path d="M1920 0.2V1080.2H0V0.2L593.3 0.200012L544.3 19.7C538.1 22.2 531.5 23.5 524.8 23.7L500.1 24.4L491.7 44.7C488.8 51.7 484.9 58.3 480.2 64.2L474.2 71.7C472.6 73.7 470.7 75.4 468.6 76.8C465.8 78.7 462.8 80.3 459.6 81.4C456.5 82.6 453.2 83.4 449.8 83.9L449.3 84C442.3 84.9 435.3 85 428.3 84.4L423.9 84C416.3 83.3 408.5 83.7 401 85.4L399.2 85.8C391.7 87.5 383.8 87.4 376.3 85.6L365.5 83L342.5 111.4C336.9 118.3 329.2 123.4 320.6 125.9L286.1 135.8C278.7 137.9 271 138.5 263.4 137.4L205.5 129.4L192.4 128.1C187.8 127.6 183.2 128.1 178.7 129.3L164.9 133.3C159.2 135 154.2 138.3 150.4 142.8L144.6 149.8C140.5 154.7 136 159.3 131.2 163.5L121 172.2C114.6 177.7 107.3 182 99.5 185.2L88 189.8C86.7 190.3 85.8 191.6 85.7 193.1L83.1 274.8V300.2C83.1 301.8 83.6 303.3 84.4 304.6L124.9 365.9L134.6 381.6C138.3 387.7 140.7 394.4 141.6 401.5L143.8 418.9C144.8 426.9 145.3 435 145.3 443.1L145 490.9L144.7 499.2C144.4 507.8 147.7 516.2 153.7 522.3L167.9 536.9C169.4 538.5 171.7 539 173.8 538.2C189.3 532.2 255 512.1 275.2 590.3C275.2 590.3 364.6 584.7 389.6 681.7H428.6C436.6 681.7 444.4 683.3 451.7 686.4C455.6 688 459.7 689.3 463.8 690.2C468 691 472.2 691.5 476.4 691.5H503.9C508.9 691.5 513.9 692.5 518.5 694.6L524.8 697.4C532.3 700.7 540.2 702.6 548.3 703.3L589.2 706.4L627.6 709.4L640.2 710.4L643.8 716.1L645.6 718.9L650.9 717.6H651L662.2 710.4L666.4 715.3L667.5 716.5L668.9 715.8L670.6 715L672.6 716.7L677.5 720.9L691.2 723.9L694.6 724.6H694.8L696.5 725L703.4 726.4L709.6 727.6C713.9 728.4 718.3 728.8 722.7 728.6L730.6 728.2L742.9 727.7L744.1 727.6L766.6 726.6H781C788.2 726.6 795.5 725.9 802.6 724.4L831 718.6C834 718 837.1 717.6 840.2 717.5L860.4 717C862.6 716.9 864.8 716.8 867 716.5L867.8 716.4C869.8 716.1 871.8 716.5 873.5 717.5C873.6 717.6 873.8 717.6 873.9 717.7L878 720.3L886.7 719.5C886.7 719.5 886.7 719.5 886.8 719.5L898.3 713.8C902.3 711.8 906.6 710.5 911.1 710L916.9 709.3L925.2 703L947 686.4L953.7 686.2L968.5 685.8L971.8 688.9C971.8 688.9 979 684.1 979.7 684.3C980.2 684.5 990.8 684.7 997.9 684.9C999.5 684.9 1001.1 685 1002.7 685.2C1005.5 685.4 1008.2 685.8 1010.9 686.4L1028.2 689.9L1029.4 690.1L1038.5 691.6C1044 692.5 1049.3 694.3 1054.3 696.9L1066.3 703.2C1068.1 704.2 1070.1 705 1072 705.7L1074.2 706.5C1077.9 707.8 1081.8 708.6 1085.8 708.7L1102.6 709.3H1113.6C1113.6 709.3 1113.6 709.1 1113.7 708.6C1113.8 706.3 1113.7 698.7 1108.7 696.5C1109.2 696.6 1116.5 698.1 1120.8 706.6C1120.8 706.6 1128 700.1 1133.7 702.3C1133.7 702.3 1126 707 1128 712.6H1135.4C1138.8 712.6 1142.2 712.4 1145.6 712L1152 711.2C1154.3 710.9 1156.6 711.2 1158.8 711.9L1175.8 717.8C1180.5 719.4 1185.6 719.7 1190.5 718.5L1209.7 713.7C1214.8 712.4 1220 711.7 1225.3 711.6L1252.6 710.9C1256.3 710.8 1259.9 711.7 1263.2 713.5L1275.9 720.7C1280.1 723.1 1285 724.1 1289.8 723.6L1313.1 721.1C1318 720.6 1322.9 719.8 1327.8 718.8L1358.5 712.5C1366.9 710.8 1375.1 708.4 1383.1 705.4C1384.1 705 1385.1 704.6 1386.1 704.2C1386.7 704 1387.3 703.7 1387.9 703.5L1391.4 702.1L1402.6 697.5L1403.4 697.2L1405.7 696.2L1409.5 694.6L1412.5 693.4C1415.9 692 1419.2 690.5 1422.4 688.8L1428 685.9L1429.7 685L1438.9 680.3L1444.8 677.3L1448.4 675.7C1452.1 674.1 1456.1 673.3 1460.2 673.4C1460.6 673.4 1460.9 673.4 1461.3 673.4C1464.5 673.4 1467.7 673 1470.9 672.1L1518.4 659.2L1549.9 651.2C1558.4 649 1566.6 645.9 1574.3 641.8L1593.8 631.5L1600.5 627.9H1604.3C1604.3 627.9 1607.5 624.4 1610.4 621.4C1612.5 619.2 1614.4 617.4 1614.8 617.4C1615.5 617.4 1620.5 617.2 1623.7 617.1C1625.5 617.1 1627.2 616.6 1628.7 615.9L1649.2 606.4C1653.4 604.4 1657.8 602.9 1662.3 601.7L1695.1 593.2C1701.1 591.6 1706.6 588.5 1710.9 584.1L1728.6 566.4C1730.7 564.3 1733.2 562.7 1735.9 561.5L1738.5 560.4C1741.7 559.1 1745.1 558.4 1748.6 558.4H1775.1C1780 558.4 1784.7 557 1788.8 554.3L1815.3 537C1818.3 535 1820.2 531.8 1820.6 528.3L1821.5 519.1C1822.3 511.1 1824.3 503.2 1827.5 495.8L1838 470.9C1840.2 465.8 1839.7 459.9 1836.7 455.2L1808.7 410.8C1807.6 409.1 1807 407.1 1806.9 405.1L1804.5 357.9C1804.4 355.8 1803.8 353.7 1802.9 351.9L1793.9 334.4C1792.9 332.5 1792.3 330.5 1792 328.5L1785.5 287.7C1785.2 285.5 1784.1 283.4 1782.5 281.9L1773.4 272.8C1771.7 271.1 1770.8 268.7 1771.1 266.3L1772.7 250.9C1772.7 250.9 1762.9 246.4 1760.2 256.3C1760.2 256.3 1759.8 243.7 1768.6 241.2C1768.6 241.2 1761.8 225.6 1746.4 223.7C1746.4 223.7 1773.7 224.6 1776.8 239.5L1786.4 207.2L1791.1 185.7C1791.7 183.1 1793 180.6 1794.8 178.7L1812.8 159.7C1814.6 157.8 1815.4 155.2 1814.9 152.6L1811.4 133.6C1810.7 129.6 1809 125.9 1806.6 122.7L1798.3 111.5C1794.6 106.5 1789.4 102.8 1783.6 100.9L1754.4 91.3L1715.6 81.3L1702.8 76.5C1696.5 74.2 1691.4 69.3 1688.9 63L1686.4 57C1684.9 53.4 1682.9 50.1 1680.4 47.1L1673.4 38.8C1668.4 32.9 1661.3 29 1653.5 28L1648.8 27.4C1646.7 27.1 1644.7 26.3 1643.1 24.9L1628.1 12.3C1626.2 10.7 1625.2 8.40001 1625.2 6.00001V0.200012L1920 0.2Z" fill="#709B69"/>
<path d="M1109.5 709L1090.7 723.7L1060.2 769.3C1060.2 769.3 1047.5 831.1 1047.8 834.1C1048.1 837 1046.1 935.8 1046.1 935.8H762.2L763.2 932.1L769.7 906.9L778.6 873.2L800.7 851.4L811.9 826.3C811.9 826.3 832.8 802.1 840.7 792.7C842.4 790.7 843.4 789.4 843.6 789.1C844.6 787.4 856.2 771.4 856.9 769.7C857.5 768.1 871.6 723.7 873.7 717.2C873.8 717.3 874 717.3 874.1 717.4L878.2 720L886.9 719.2C886.9 719.2 886.9 719.2 887 719.2L898.5 713.5C902.5 711.5 906.8 710.2 911.3 709.7L917.1 709L925.4 702.7L947.2 686.1L953.9 685.9L968.7 685.5L972 688.6C972 688.6 979.2 683.8 979.9 684C980.4 684.2 991 684.4 998.1 684.6C999.7 684.6 1001.3 684.7 1002.9 684.9C1005.7 685.1 1008.4 685.5 1011.1 686.1L1028.4 689.6L1029.6 689.8L1038.7 691.3C1044.2 692.2 1049.5 694 1054.5 696.6L1066.5 702.9C1068.3 703.9 1070.3 704.7 1072.2 705.4L1074.4 706.2C1078.1 707.5 1082 708.3 1086 708.4L1102.8 709H1109.5Z" fill="#95D98A"/>
<path d="M1920 933.4V1080.5H0V933.4H1920Z" fill="url(#paint0_linear_4_101)"/>
<path d="M702.7 917.1L707.3 933.8H683.9L686.9 917.1C688.6 917.3 689.7 918.9 689.5 920.6L688.9 924.1C688.6 925.7 689.5 927.3 691 928L692.8 928.8C694.6 929.6 696.6 929.1 697.9 927.6L698.9 926.5C699.7 925.6 700.1 924.4 700.1 923.2L700.3 919.5C700.2 918.1 701.3 917.1 702.7 917.1Z" fill="#265B1D"/>
<path d="M647.3 777.4V788.7L626.5 762.1C624.7 759.8 622.6 757.9 620.1 756.5L619.6 756.2C616.2 754.2 613.9 750.7 613.4 746.7L608.6 707.7L627.8 709.2L625.1 740.1C624.6 745.6 626.3 751 629.7 755.3L647.3 777.4Z" fill="#30502B"/>
<path d="M723.5 934.4L706 935.4L703.5 925.9L701.1 915.1C700.4 912.1 699.3 909.3 697.8 906.7L692.3 897.5C691.6 896.4 690 896.5 689.5 897.8L689 899.2C688.4 900.9 688.1 902.7 688 904.4L686.4 933L676.1 935.4L674.6 935.7L671.1 936.5L670.7 935.3L668.5 928.1C666.8 922.8 666 917.3 665.9 911.7L665.8 897.5L667.4 859.7C667.6 854.6 666.6 849.5 664.6 844.8L651 814.2C648.6 808.8 647 803.1 646.2 797.3L645.9 794.8L645.1 789.4C644.6 785.6 644.3 781.7 644.3 777.8V742.4C644.3 739.2 643.9 736.1 643 733.1L641.6 728C640.8 725.1 641.1 722 642.4 719.2L644.1 715.9L645.9 718.7L651.2 717.4L652 716.9L655.4 728.8C655.9 730.8 656.3 732.8 656.4 734.8L657.1 746.9C657.2 748.2 657.3 749.5 657.4 750.8L660.9 780.4C661.8 788 664.7 795.3 669.2 801.6L673 806.8C674.6 809 676 811.3 677.4 813.7L686.3 829.8L687.9 797.3L689.7 766.4L689.9 723.8H691.5L694.9 724.5H695.1L696.8 724.9L703.7 726.3L702.9 757.2C702.8 761.5 702.9 765.7 703.2 770L706 810.4C706.2 812.9 706.3 815.4 706.3 817.9V853.6L717 892.9C719.8 903.1 721.7 913.6 722.8 924.2L723.5 934.4Z" fill="#95D98A"/>
<path d="M700.7 726.2L732.9 784.9C734.2 787.3 734.3 790.2 733.3 792.7L722.5 818.4V818.5C720.4 823.5 719.6 829 720 834.4L720.6 843.8L717.3 834.7C715.5 828.7 716.1 820.1 718.8 814.5L729.5 792.3C730.6 790 730.6 787.3 729.6 785L700.7 726.2Z" fill="#95D98A"/>
<path d="M666.6 820L670.4 833.4C672.1 839.5 673.2 845.7 673.5 852L673.9 858.8C674.1 862.3 674.5 865.7 675.2 869.1L681 897.3L677.7 844.3C677.3 838 675.2 831.9 671.5 826.8L666.6 820Z" fill="#28441E"/>
<path d="M706 833.2L704.5 848.9C703.9 855.7 704.9 862.6 707.4 869L716 890.3L711.2 859.8C711.1 859 711.6 858.3 712.4 858.2L717.6 857.6C719 857.5 720.2 856.8 721.2 855.9L724.1 853C724.5 852.6 725.2 852.7 725.5 853.1L728.1 856.9C729.7 859.3 732.5 860.4 735.3 859.9L749.1 857.2C752.1 856.6 755 856.3 758 856.1L774.5 855.2C779.9 854.9 785.2 853.9 790.3 852.1L798.7 849.1C803.2 847.5 806.9 844.2 808.8 839.8L816.4 823.1L809.5 827.4C805.4 829.9 800.7 831.3 795.8 831.2L784 831C781.5 831 779 830.7 776.6 830.2L773 829.5C769.4 828.8 765.6 829.1 762.1 830.4L757 832.3C756.3 832.6 755.5 832.4 755 831.9L753.4 830.3C752.3 829.2 750.9 828.7 749.4 828.7H734C728.6 828.7 723.1 829.3 717.8 830.4L706 833.2Z" fill="#30502B"/>
<path d="M588.6 869.3L585.8 863.6C584 860 581.5 856.8 578.4 854.1C572.5 849.1 568.2 842.6 565.8 835.3L563.7 828.8L562.4 817.9C561.7 811.4 559.3 805.3 555.4 800L552.9 796.6C548.3 790.3 545.9 782.7 545.9 775V761.4L562.9 776L579.2 789.4C582.4 792 585.8 794.4 589.4 796.6L614.7 811.8C618.1 813.8 621.3 816.2 624.2 818.9L636.2 830C640.2 833.7 643.1 838.5 644.6 843.7L645.8 847.9L616.5 860.2L588.6 869.3Z" fill="#30502B"/>
<path d="M671.2 721.7L673.1 722.2C674.4 722.6 675.5 723.6 675.8 724.9L676.9 728.6C677.4 730.3 678.2 731.8 679.4 733.1L681.6 735.6C683.1 737.2 684 739.4 684.1 741.6L688.7 780.6L694.8 724.5H694.6L677.6 720.8L672.7 716.6L670.7 714.9L669 715.7L667.6 716.4L668.3 718.9C668.8 720.2 669.8 721.3 671.2 721.7Z" fill="#30502B"/>
<path d="M947 686L925.2 702.6L955.2 736.9V717.4C955.2 714.5 955.7 711.7 956.6 708.9L957.4 706.5C957.9 705 958 703.3 957.7 701.8L956.8 697C956.4 694.7 955.8 692.4 955 690.1L953.6 685.8L947 686Z" fill="#30502B"/>
<path d="M1029.4 689.8L996.6 716.7C995.1 718 993.4 719 991.6 719.9L976.6 726.9C972.4 728.9 968.7 731.8 965.8 735.5L959.9 743.1L961.9 732.6C962.2 731.2 962.6 729.8 963.1 728.4L966.4 720.1C967.3 717.7 968.7 715.6 970.5 713.8L979.3 705L990.5 694.8L1002.6 684.9C1005.4 685.1 1008.1 685.5 1010.8 686.1L1028.1 689.6L1029.4 689.8Z" fill="#30502B"/>
<path d="M968.8 691.3L972.6 695.1C973.3 695.8 974.3 696.1 975.2 695.8L982.4 693.8L975 706.2C974 707.8 972.6 709.1 970.9 710L966.9 712C965 712.9 963.6 714.7 963.1 716.7L959.8 729.8V714.7C959.8 713.9 960 713.1 960.4 712.5L963.6 706.9C965.1 704.3 966.2 701.5 966.9 698.6L968.8 691.3Z" fill="#30502B"/>
<path d="M1610.2 621.2L1607.8 641.3L1605.1 675.3L1602.8 714.8C1602.3 724.3 1601 733.8 1598.9 743.1L1597.6 749.2L1595.2 767.6C1594.3 774.2 1593.9 780.8 1593.9 787.4V849.7C1593.9 855.3 1594.1 861 1594.6 866.6L1597.6 900.7L1602.2 1002.8L1590.5 998.9L1588.1 927.5C1587.9 921.9 1587.5 916.3 1586.8 910.7L1583.9 887.6L1580.9 860C1578.9 851.8 1577.7 843.4 1577.3 834.9L1576.2 815.2L1575.3 801.7C1574.6 791.3 1575 780.8 1576.4 770.4L1579.8 746.1C1581.3 735.5 1582 724.7 1582 714V684.3C1582 678.8 1582.7 673.4 1584.1 668.1L1593.8 631.3L1600.5 627.7H1604.3C1604.2 627.7 1607.4 624.1 1610.2 621.2Z" fill="#95D98A"/>
<path d="M501.5 935.9L511.6 924C513.4 921.8 515.4 919.8 517.4 917.8L519.3 915.9C523.9 911.5 529.3 908 535.2 905.6L543.9 902.1C549.8 899.8 555.4 896.7 560.6 893L561.2 892.6C565.8 889.3 569.9 885.5 573.6 881.2L580.2 873.3C582.9 870 584.6 866 584.8 861.7L595.5 860C599.4 859.4 603.2 858 606.6 855.9L630.5 841.2C633.9 839.1 638.1 838.5 641.9 839.6L647.3 841C650.4 841.8 653.8 841.3 656.5 839.6C657.6 838.9 659 839.7 659 841V880.5C659 884.8 659.4 889.1 660.1 893.3L661.3 900.1C661.8 902.7 660.9 905.4 659 907.3C657.3 909 656.6 911.5 657.3 913.9L663.7 936.4H506.5L501.5 935.9Z" fill="#30502B"/>
<path d="M1407.1 704.1V756.2L1406.9 838.4H1392L1387.8 773.3L1386.2 703.9C1386.8 703.7 1387.4 703.4 1388 703.2L1391.5 701.8L1402.7 697.2L1403.5 696.9L1405.8 695.9L1407.1 704.1Z" fill="#50694F"/>
<path d="M1400 845.6L1388.4 835.1C1383 830.2 1379.7 823.5 1378.9 816.3L1376.3 790.5C1376 787.1 1374.7 783.8 1372.7 780.9L1364.8 769.6C1360.6 763.6 1362.6 755.2 1369 751.8L1372.5 749.9C1376.3 747.9 1379 744.2 1379.7 739.9L1381.9 727.7C1382.7 723.2 1383.1 718.7 1383.1 714.1V705C1384.7 704.4 1386.3 703.8 1387.9 703.1L1391.4 701.7L1393.7 725.8V780.2L1397.4 836.1L1400 845.6Z" fill="#30502B"/>
<path d="M1435.3 813.3L1432.8 832.5L1430.1 827.2C1429.8 826.6 1429.5 825.9 1429.2 825.3L1426.6 819.3C1425.2 816.1 1424.4 812.6 1424.3 809.1L1422.6 772.4C1422.4 767.9 1422.5 763.4 1422.9 758.9L1424.5 740.8C1424.6 739.9 1424.6 739 1424.5 738C1424.3 736.6 1423.9 735.3 1423.3 734.1C1422.7 732.9 1421.9 731.7 1420.9 730.7C1418.5 728.3 1416.7 725.4 1415.6 722.2L1414.2 718.2C1411.5 710.5 1410 702.4 1409.5 694.3L1412.5 693.1C1415.9 691.7 1419.2 690.2 1422.4 688.5L1428 685.6L1429.7 684.7L1428 726.4L1435.3 813.3Z" fill="#30502B"/>
<path d="M1090.7 723.7L1088 768.1C1087.3 778.8 1084.4 789.2 1079.5 798.7L1074.9 807.6C1071.7 813.8 1069 820.3 1066.9 827L1065.1 832.8C1063.9 836.7 1063.1 840.8 1062.9 844.9L1062.3 855.9C1062 861.7 1062.1 867.4 1062.5 873.2L1066.6 936.2L1060.1 919.6C1056.7 910.9 1055 901.7 1055 892.4V872.1C1055 870.6 1055 869.1 1054.9 867.6C1054.7 864.3 1054.4 861.1 1053.9 857.9L1050.3 835.4L1048.2 936.1L1043.8 936.5L1041.3 862.8C1041 852.5 1041.4 842.2 1042.6 831.9L1043.7 822.4C1044.9 812 1046.9 801.7 1049.8 791.6L1049.9 791.2C1053.6 778.1 1059.5 765.7 1067.6 754.7L1074.1 745.8L1081.9 735.5L1084.8 731.7L1090.7 723.7Z" fill="#95D98A"/>
<path d="M1084.6 741L1081.3 760.5C1079.7 770.1 1076.3 779.4 1071.4 787.8L1060.4 806.7L1060.3 805.9C1059.5 794.7 1062.2 783.5 1068.2 774C1070.6 770.2 1072.8 766.2 1074.7 762.1L1084.6 741Z" fill="#709B69"/>
<path d="M1084.6 731.7L1065.9 768.2L1059.3 783.8C1056.2 791.1 1055 799 1055.8 806.9L1058 829C1058.2 831.5 1058.4 834.1 1058.6 846.1L1057.4 887L1054.9 867.4C1054.7 864.1 1054.4 860.9 1053.9 857.7L1050.3 835.2L1048.2 935.9L1043.8 936.3L1041.3 862.6C1041 852.3 1041.4 842 1042.6 831.7L1043.7 822.2C1044.9 811.8 1046.9 801.5 1049.8 791.4L1049.9 791C1053.6 777.9 1059.5 765.5 1067.6 754.5L1074.1 745.6L1081.9 735.3L1084.6 731.7Z" fill="#B9FFAD"/>
<path d="M943.3 1017.8H1069.3L1029.2 1004.7C1017.6 1000.9 1005.1 1000.6 993.4 1003.9L943.3 1017.8Z" fill="#3C5337"/>
<path d="M1457.7 931V934.9H1445.8L1446.5 926.1C1447.1 919.2 1446.6 912.2 1445.1 905.5L1443.6 898.6C1443.1 896.4 1442.5 894.2 1441.9 892L1436.5 873.9C1435 868.9 1434.2 863.7 1434.2 858.5V851.1C1434.2 847.6 1434 844.2 1433.7 840.7L1431.8 821.3C1431.3 815.9 1431.2 810.5 1431.5 805.1L1432.2 792.7C1432.2 786.2 1431.7 779.7 1430.6 773.2L1429.3 765C1428.5 759.9 1428.1 754.8 1428.1 749.7V685.7L1439 680.1L1439.6 682.1C1442.1 690.5 1443.4 699.2 1443.4 708V715.9L1441.7 760.1L1442.9 769.2C1443.8 776 1443.8 783 1443.1 789.8L1441.9 801.3C1441.1 808.4 1441.2 815.5 1442.1 822.6L1442.7 827.4C1443.2 831.3 1443.9 835.1 1444.7 839L1446.2 845.8C1446.7 847.9 1446.7 850 1446.4 852C1446.1 853.6 1445.9 855.1 1446 856.7L1446.1 858.4C1446.2 862.2 1446.6 866.1 1447.3 869.8C1448.1 874.3 1448.5 878.9 1448.5 883.4C1448.5 890.2 1449.3 897.1 1451 903.7L1457.7 931Z" fill="#95D98A"/>
<path d="M1419.1 837.8L1423.3 845.2C1423.9 846.3 1424.4 847.5 1424.6 848.7C1424.7 849.2 1424.7 849.7 1424.7 850.3V857.5C1424.7 861.6 1425 865.7 1425.5 869.7L1431.5 916L1435.4 934.7L1425 934.9L1421.5 913.5C1420.9 910 1420.5 906.5 1420.3 902.9L1418.5 877.2C1418.3 874.7 1418.2 872.2 1418.2 869.7V865.3C1418.2 859.7 1416.8 854.1 1414.1 849.2L1404 830.7C1401 825.2 1399.6 819.1 1400 812.9L1401.8 781.5L1404.4 754.1C1404.7 750.8 1404.9 747.5 1404.8 744.1L1404.5 717.8C1404.5 715 1404.3 712.3 1404 709.5L1402.5 697L1411.9 693.2L1411.7 694.5C1411.2 698.2 1411.2 702 1411.6 705.7L1413 717.8L1416.8 741.1C1417.9 747.9 1417.7 754.8 1416.2 761.5C1415.1 766.5 1414 771.6 1414 772.2C1414 773.2 1411 789.5 1409.2 799.2C1408.5 803 1408.8 807 1410 810.6C1410.6 812.4 1411.2 814.2 1411.6 816L1413.3 823.2C1414.7 828.5 1416.6 833.3 1419.1 837.8Z" fill="#95D98A"/>
<path d="M1128 858.2C1133.5 860.6 1139.2 862.3 1145.1 863.3L1154.4 864.8L1194.9 871.5C1200.4 872.4 1205.6 874.5 1210.3 877.6C1213.9 880 1214.7 885 1212.1 888.4L1197.4 907.8C1191.1 916.1 1181.2 921 1170.8 920.8L1129.5 920.3C1126.9 920.3 1124.3 919.8 1121.8 918.9L1116 916.9C1113.7 916.1 1111.3 915.7 1108.9 915.7H1095.7C1091.3 915.7 1087.1 916.9 1083.4 919.3C1079.7 921.7 1076.8 925.1 1074.9 929.1L1073.9 931.4C1073.5 932.4 1074.2 933.5 1075.3 933.5H1126.3C1130 934.4 1133.8 932.6 1137.6 932.6L1424.1 930.2L1421.4 912.9C1420.4 906.8 1421.5 900.6 1424.4 895.1L1424.7 894.6C1427.4 889.6 1428.6 884 1428.4 878.3L1428.3 875.9C1428.2 872.7 1426.3 869.9 1423.5 868.5C1422.4 868 1421.7 866.9 1421.5 865.7L1420.9 861.7C1419.6 853.1 1416.2 845 1410.9 838.1L1407.2 833.3C1404.2 829.4 1399.6 827 1394.6 826.7C1387.3 826.3 1379.9 827.6 1373.2 830.5L1364.5 834.3C1357.8 837.2 1350.5 838.8 1343.2 838.9H1342C1335 839 1328.1 838.2 1321.3 836.5L1304.8 832.4L1288.5 829C1282.4 827.7 1276.1 828.4 1270.4 830.9C1264.5 833.5 1258.2 834.9 1251.8 835.1L1230.9 835.8C1229.2 835.9 1227.4 836 1225.7 836.2L1187 841.2C1180.4 842.1 1173.6 841.9 1167.1 840.7L1160 839.4C1157.1 838.9 1154.2 838 1151.5 836.9L1150.2 836.4C1148.2 835.6 1146.1 835 1144 834.7L1138.5 834C1130.1 832.9 1122.4 829.1 1116.4 823.2C1112.9 819.7 1108.4 817.4 1103.5 816.7L1095.2 815.5C1090.7 814.8 1087.1 819.3 1088.7 823.6L1090.4 828C1091.8 831.6 1093.9 834.9 1096.6 837.6L1100.9 841.9C1105.9 846.9 1111.9 851 1118.4 853.9L1128 858.2Z" fill="#30502B"/>
<path d="M817.6 721.1L813.2 738.8C812.2 742.7 807 761.2 803.8 763.6L798.2 768.5C793.9 771.8 790.9 776.7 790 782.1L788.3 792.3C787.2 798.7 785.5 804.9 783.3 811L765.8 855.7L788.8 808.9C791 804.2 792.4 799.1 792.8 794L793.6 784.6C794 779.5 796.5 774.8 800.5 771.6L805.1 767.9C810 763.9 814.7 743.9 815.6 737.6L818.1 720.8L817.6 721.1Z" fill="#95D98A"/>
<path d="M695.6 750.4L700.4 794.3C700.6 796.3 700.6 798.4 700.3 800.4L698.2 815.4L696.4 828.8C695.9 832.8 696.1 836.9 697.1 840.8L706.9 880.2C707.2 881.5 707.6 882.8 708 884L723.6 934.4L713 934.8L708.1 913.7C707.6 911.5 707.2 909.3 706.9 907L703.8 884.1C703.4 881.2 702.9 878.3 702.2 875.5L693.3 837.8C692.6 834.9 692.5 831.8 692.9 828.8L695 815.4L696.8 800.9C697.1 798.2 697.3 795.4 697.2 792.6L695.6 750.4Z" fill="#B9FFAD"/>
<path d="M676.3 935.9L674.6 935.7L670.7 935.3L668.5 928.1C666.8 922.8 666 917.3 665.9 911.7L665.8 897.5L667.4 859.7C667.6 854.6 666.6 849.5 664.6 844.8L651 814.2C648.6 808.8 647 803.1 646.2 797.3L645.9 794.8L648.8 804C650.2 808.5 652.1 812.7 654.5 816.7L665.9 835.7C669.1 841 670.8 847 670.8 853.2V885.9L669.7 909.2C669.4 915.6 670.6 922 673 927.9L676.1 935.3L676.3 935.9Z" fill="#B9FFAD"/>
<path d="M662.2 808.7L687.1 836.7C687.4 837 687.7 837.4 688 837.8C690.7 842 692.3 846.8 692.5 851.8L693.1 865C693.4 871.5 692.6 878.1 690.7 884.4L686.2 899.3C684.3 905.8 683.5 912.5 683.9 919.2L684.9 935.8L678.2 916.6C677 913 676.8 909.1 677.8 905.5L683.8 883.2C685.5 876.9 686.1 870.4 685.5 863.9L684.4 851.2C684 846.3 682.6 841.5 680.3 837.2L662.2 808.7Z" fill="#B9FFAD"/>
<path d="M840.6 792.6L839.5 795.5C835.9 805 831 814 825.1 822.2L816.6 834L805.3 852.8C802.4 857.7 799.8 862.7 797.5 867.9L795.6 872.2C792.8 878.5 790.4 884.9 788.5 891.5L775.3 935.7L775.1 936.4L773.2 935.7L763.1 932L769.6 906.8L778.5 873.1L800.6 851.3L811.8 826.2C811.8 826.2 832.8 802 840.6 792.6Z" fill="#B9FFAD"/>
<path d="M906.6 714L921.2 710.9C925.3 710.7 929.2 712.5 931.8 715.6L945.7 731.9L927.7 722.6C926 721.7 924.3 721 922.6 720.3L906.6 714Z" fill="#B9FFAD"/>
<path d="M912.7 721.1C912.7 721.5 896.2 784.8 890.6 806C889.4 810.5 888 815 886.5 819.4L861.3 890.2L845.3 938.4V925.3L880.4 802.5C882.3 795.7 884.7 789.1 887.3 782.6L912.7 721.1Z" fill="#B9FFAD"/>
<path d="M902.8 934.4L919.5 877.2L905.9 935.7L902.8 934.4Z" fill="#B9FFAD"/>
<path d="M935.9 804L957.6 759.6C961.1 752.4 965.8 745.8 971.5 740.1C973.6 738 975.9 736.1 978.3 734.3L1011.1 710.6L1029.5 696.1L1036.8 697.8C1042.5 699.1 1048 701.4 1053 704.5L1062.8 710.6L1048.5 719C1043.1 722.1 1037.5 724.8 1031.6 726.9L1006.7 735.7C1006.1 735.9 1004.8 737 1003 738.5C998.6 742.4 994 746.1 989.4 749.6L984.8 753.1C974.3 761.1 964.7 770.1 956.2 780.2L935.9 804Z" fill="#B9FFAD"/>
<path d="M857.2 934.4L881.1 866.5C883.3 859.4 886 852.4 889.2 845.6L909.3 802.3L902.8 855.8L891.9 934.4L861.2 936.4L857.2 934.4Z" fill="#354B31"/>
<path d="M945.7 901.7L957.1 865.2C959 859 959.9 852.4 959.6 845.9L958.1 813.5L952.4 836.7C949.5 848.6 947.7 860.7 947.2 872.9L945.7 901.7Z" fill="#354B31"/>
<path d="M959.6 935.7L971.9 901.8C975.9 889.1 977.5 875.8 976.6 862.6L976.4 860.1C976.1 856.1 977.8 852.2 980.9 849.7C983.8 847.3 985.5 843.7 985.5 840V824.3C985.5 817.3 987.6 810.5 991.5 804.7L1015.1 770L1032.1 744.8L1022.7 767C1019 775.8 1016 784.9 1013.9 794.3L1008 819.7C1006.8 824.8 1007.2 830.2 1009 835.1L1011.4 841.4C1012.4 844.2 1012.8 847.2 1012.3 850.1L1011.9 852.6C1011.2 857 1011.4 861.5 1012.3 865.9L1027.3 934.6L959.6 935.7Z" fill="#354B31"/>
<path d="M454.1 940.4L513.9 940.2H575.2L681.4 938.7L776.1 938.6L874.4 938.3L969.9 937L1059.3 936.7L1106.8 937L1187.8 936.8L1305.7 937.7L1400.4 936.9L1494.8 933.9L1492.8 928.2L1372.6 928.3L1250.6 929.3L1148.9 930.4C1131.3 930.4 1114.3 930.3 1096.1 931.1H900.9L809.2 932.4L731.8 931.9L689 931.8L580.4 932.9L499.9 932.8L454.1 932.4V940.4Z" fill="#B9FFAD"/>
<path d="M763 790.1L756 804.4C754.3 807.9 753.4 811.8 753.4 815.7V832.5H748.6V817C748.6 812.2 749.5 807.4 751.4 803L757.4 788.3C759.4 783.4 759 777.8 756.3 773.2L746.6 756.6L730.8 727.9L743.1 727.4L750.4 745.2C752.4 750.1 754.6 755 757 759.7L762.8 771.1C765.8 777.1 765.9 784.1 763 790.1Z" fill="#30502B"/>
<defs>
<linearGradient id="paint0_linear_4_101" x1="959.988" y1="1080.41" x2="959.988" y2="0.128522" gradientUnits="userSpaceOnUse">
<stop stop-color="#C1FFB7"/>
<stop offset="1" stop-color="#6FA865"/>
</linearGradient>
</defs>
</svg>
