<svg width="1920" height="1080" viewBox="0 0 1920 1080" fill="none" xmlns="http://www.w3.org/2000/svg">
<path d="M101 746.4C99 745.2 87.2 733.8 83.5 720.4C83.5 720.4 76.2 745.8 89.3 761.3C102.4 776.7 101 746.4 101 746.4Z" fill="#354624"/>
<path d="M70.6 758.2C71.9 756.2 77.4 740.8 74.9 727.1C74.9 727.1 92.6 746.6 87.7 766.3C82.7 786 70.6 758.2 70.6 758.2Z" fill="#354624"/>
<path d="M392.9 899.1C392.9 899.1 459.9 886.9 499.7 913.4C499.7 913.4 462.5 949.7 380.8 930.7C299.1 911.7 392.9 899.1 392.9 899.1Z" fill="#354624"/>
<path d="M1002.9 1080H0V431C0 431 20.9 447.1 10.4 509.6C7.5 526.8 9.1 544.4 15 560.8C18.3 570 21.4 580.3 22.5 588.9L26.2 525.9L28.7 499.9C29.3 494.1 29.3 488.3 28.8 482.5L27.9 471.8L27.2 448.6L29.9 387L29.6 301.5L27 248.3C26.9 246 26.7 243.6 26.4 241.3L22.5 208.5C21.7 202 21.7 195.5 22.3 189L23 181.7C23.9 172.1 23 162.3 20.4 153L12.4 125.1C11.1 120.6 9.5 116.3 7.5 112.1L0 96.5V78.9L5.2 86.7C8 90.9 10.4 95.5 12.2 100.2L27.6 141.7L25.6 76L24.3 2.44156e-05H39.5L38.4 13.7C37.8 22 38.3 30.4 40 38.6L41.7 46.9C42.2 49.5 42.6 52.1 42.9 54.7L44.5 70.5L54.7 61.7C64 53.9 71.2 44 76 32.9L90.2 2.44156e-05H106.3L92.8 29.5L72 72.4C70.9 74.6 69.7 76.8 68.4 78.9L63.8 86.4C60.5 91.8 57.7 97.5 55.4 103.5L53.9 107.4C49.9 117.7 47.7 128.5 47.3 139.5L44.2 177.6C43.8 182.3 43.7 187 43.9 191.7L45.5 237.5C45.7 241.9 46.1 246.3 46.8 250.7L47.5 255.2C48.7 262.6 49.3 270.1 49.3 277.5V393.4L51.1 451.6L51.3 505.7C51.3 506.9 51.3 508.1 51.4 509.3L53.5 539.3C53.7 541.9 53.8 544.5 53.8 547.1V579.5L65.6 565.7C65.6 565.7 65.5 574.6 63.2 588.8C60.9 603 56.5 622.4 48 643.3C53.7 638.4 61 635.9 68.5 636.2L70.3 636.3C69.2 645.9 65 654.9 58.3 661.9L54.1 666.3L64.6 713.6C66.1 720.2 68.8 726.4 72.5 732L75.2 736L82.2 746.3L87.2 753.7C87.2 753.7 87.4 753.6 87.7 753.2C88.6 752 90.7 748.3 92.3 737.4C93.4 729.6 94.4 718.1 94.6 701.2C94.6 701.2 105.8 741.4 142 755.8C142 755.8 107.9 707.1 110.4 655.3C110.4 655.3 155.7 694.2 164.3 734.2L176.8 714.5C141.6 677.7 148.3 634.6 148.3 634.6C187 670.4 183.1 704.1 183.1 704.1L203.6 673.3C203.6 673.3 151.4 645.3 162.1 587.7C162.1 587.7 203.5 626.2 209.8 664.6L230.5 631C188.5 606.2 174.3 562.2 174.3 562.2C174.3 562.2 230.6 577 237.6 618L249.5 588.9C249.5 588.9 204.6 566.3 209.3 515.2C209.3 515.2 258.2 536.8 253.9 576.3L261.9 555.2C261.9 555.2 238.7 522 292.9 473.3C292.9 473.3 315 518.6 267.5 557.2L259.5 577.5C259.5 577.5 293.4 545.8 320.8 552C320.8 552 319.8 578 255.3 592L242.5 618.7C242.5 618.7 288.8 590.9 333.4 592.3C333.4 592.3 318.2 637.8 235.5 634L216.1 666.5C216.1 666.5 280.2 628.8 333.4 635.4C333.4 635.4 298.3 684.6 210.9 676L192.3 707.7C193.6 707.3 279.9 680.9 315.6 685C315.6 685 278.6 729.7 186.4 720.2L175 737.5C175 737.5 229.1 730.3 281.7 757.7C281.7 757.7 253.4 776.6 166.5 769.7C166.5 769.7 180.5 776.3 181 790.1C181 790.1 205 802.1 200.7 823.3C200.7 823.3 212.7 848.8 235.9 849.8C235.9 849.8 235.9 807.2 253.8 795.7C253.8 795.7 246.6 834.8 287.8 878.9C287.8 878.9 308.3 880.3 317.5 888.5C317.5 888.5 273.2 831.3 298.4 753.7C298.4 753.7 361.1 826.5 366 894.1L391.3 862.4C391.3 862.4 317.7 780.1 357.5 696.9C357.5 696.9 413.7 743.4 401.9 847.5L434.1 802.6C434.1 802.6 380 729.6 423.4 663.7C423.4 663.7 465.3 708.1 451.5 783.2L481.6 753.1C481.6 753.1 450.5 688.8 492.3 650.5C492.3 650.5 519.2 669.5 497.8 738.4L522.9 713.3C522.9 713.3 539.2 641.8 628.1 621.9C628.1 621.9 607.9 709.9 530.1 719.4L504.1 741.9C505.4 741.4 575.3 712 614 752.8C614 752.8 550.7 796 489.4 757.2L455.4 789.9C455.4 789.9 542.2 770.2 580 827C580 827 498 841.1 442.1 807.8L406.8 856.6C406.8 856.6 512.5 816.1 572.1 869.9C572.1 869.9 481.2 925.1 399.5 867.9L375.1 901.5L374.3 902.5L366.2 913.5L579.1 955.9C590.3 958.1 601 962.4 610.5 968.8C620 975.2 629.3 984.3 630.6 996C630.6 996.4 630.9 996.7 631.3 996.8C635.2 997.7 656.5 1002.8 663.7 1013.4C664.6 1014.7 666 1015.5 667.6 1015.5C683.7 1015.4 764.4 1018.5 787.4 1030.8C787.4 1030.8 819.4 1051.8 839.7 1045.9C843.4 1044.8 847.2 1044 851.1 1043.8C861.9 1043.2 881.3 1044.1 894.5 1055.8C895.3 1056.5 896.4 1056.7 897.4 1056.5C904.2 1054.9 930.5 1049.6 946 1060.6C947.3 1061.5 948.8 1062.2 950.4 1062.4C959 1063.8 987.4 1068.9 1002.9 1080Z" fill="#354624"/>
<path d="M1511.2 22.7C1511.2 22.7 1536.4 75.4 1500.9 111.5C1500.9 111.5 1480 78.4 1497.9 32.7L1474.1 48.8C1474.1 48.8 1483.3 89.3 1456.4 112.2C1456.4 112.2 1442.9 87.7 1463.2 55.3L1444.3 68.1C1444.3 68.1 1430 111.1 1375.6 97.8C1375.6 97.8 1388.2 59.5 1441.5 64.7L1461.6 52.2C1460.7 52.4 1411.2 62.5 1391.8 32C1391.8 32 1437 12.5 1470.9 44.5L1496.4 28.1C1496.4 28.1 1453.3 32.9 1424.5 -0.0999756H1477.7C1487.9 3.60002 1498.1 9.40002 1506.9 18.4L1527.2 2.44156e-05H1535.3L1511.2 22.7Z" fill="#354624"/>
<path d="M1546.5 98.8C1546.5 98.8 1517.3 63.2 1536.5 2.44156e-05H1550.4C1559 19.1 1573.3 62.7 1546.5 98.8Z" fill="#354624"/>
<path d="M1592.3 2.44156e-05C1591.6 6.90002 1590.1 13.2 1588.4 18.2C1588 19.5 1587.6 20.6 1587.2 21.7C1585.4 26.5 1583.9 29.4 1583.9 29.4C1579.7 22.2 1576.3 15.9 1573.6 10.2C1573.1 9.10002 1572.6 8.10002 1572.2 7.10002C1571 4.60002 1570 2.20002 1569.1 2.44156e-05H1592.3Z" fill="#354624"/>
<path d="M73.7 513.6C73.7 513.6 64.3 547.8 81.5 573.3C81.5 573.3 112.5 545.7 106.9 510C106.9 510 80.5 541.8 84.4 553.9C84.4 553.9 84.7 524.6 73.7 513.6Z" fill="#354624"/>
<path d="M1912.3 183.7C1910.4 190.3 1909.8 197.3 1910.5 204.1L1913.2 231C1913.4 233.6 1913.9 236.1 1914.4 238.6C1915.5 243.7 1917.7 253.4 1920.1 264.4V1080H1202.1L1219.5 1075.4C1228.9 1072.9 1237.8 1069.1 1246 1063.9C1259.4 1055.5 1275 1051 1290.8 1051H1307.8C1318.5 1051 1329.1 1049.6 1339.4 1046.8L1339.6 1046.7C1347.8 1044.5 1355.3 1040.2 1361.4 1034.2L1376.8 1020.5C1386.5 1011.9 1396.9 1004.4 1408.1 997.9L1461.5 966.8C1461.5 966.8 1450.9 913.7 1423.4 901.1C1423.4 901.1 1474.5 901.1 1501 930.4C1501 930.4 1578.2 905.8 1640.4 925C1650.1 928 1660.6 923.6 1664.9 914.3L1665.1 914L1645.5 879.4C1645.5 879.4 1551.4 917.4 1455.4 857.1C1455.4 857.1 1543.9 811.8 1640.6 867.6L1612 811.4C1612 811.4 1556.8 833.5 1462.9 803.2C1462.9 803.2 1528.9 761.3 1605.9 789.2L1574.2 747.3C1574.2 747.3 1513.9 781 1429.9 719.4C1429.9 719.4 1505.1 691.2 1564.4 730L1540.6 701.1C1540.6 701.1 1472.2 696.7 1460.6 587.4C1460.6 587.4 1544.7 608.5 1550.8 696.7L1570.9 725.6C1570.9 725.6 1564.1 666 1604.1 631.1C1604.1 631.1 1634.2 684.4 1582.5 741.9L1612.1 784.1C1612.1 784.1 1614.5 710.6 1665.2 667C1665.2 667 1699.2 724.2 1626 805.9L1652.2 860.7C1652.2 860.7 1649.5 781 1705.6 742.2C1705.6 742.2 1747.5 819.1 1657.9 874.6L1674.2 906.6L1682.9 895.6C1687.3 890 1691 883.9 1693.8 877.3C1697.9 867.7 1707.8 852.4 1730 849.7C1736.3 848.9 1742.6 847.6 1748.7 846.1C1760.6 843.1 1779.4 839 1795.9 838.2C1804.6 837.8 1812.7 833.7 1818.1 826.8L1823.7 819.7C1823.7 819.7 1787.6 829.2 1762.1 788.4C1762.1 788.4 1791.7 772.7 1823.7 805.1C1823.7 805.1 1825.7 780 1820.6 749.6C1819.9 745.3 1819 740.8 1817.9 736.3C1814.2 720.5 1808.4 704.1 1799.2 689.6C1799.2 689.6 1784.9 735.2 1736.7 740.3C1736.7 740.3 1734.2 694.8 1790.5 674.1L1770.2 637.7C1770.2 637.7 1752.4 691.3 1698 687.2C1698 687.2 1706.8 637.7 1763.4 624.7L1749.1 601.9C1749.1 601.9 1720.8 653.3 1668.4 654.7C1668.4 654.7 1683 593.4 1744.7 594.1L1719.9 563.5C1719.9 563.5 1657.9 612.9 1599.7 614.2C1599.7 614.2 1627.3 550.9 1698.8 547.8L1665 533.7C1665 533.7 1644.4 569.3 1552.5 559.8C1552.5 559.8 1591.6 514.9 1645.8 524.1L1617.2 513.5C1617.2 513.5 1568.9 529.8 1515.4 464.1C1515.4 464.1 1589.9 453 1620.2 508.2L1649.2 520.6C1649.2 520.6 1613.7 481.1 1625 437.5C1625 437.5 1673.8 465.7 1667.2 527.5L1699.2 539.8C1699.2 539.8 1671.6 498.3 1672.6 429.1C1672.6 429.1 1743.7 461.4 1727.5 554C1727.2 556 1727.6 558.1 1728.8 559.8L1748.4 587.4C1747.5 585.7 1717.2 527.1 1792.3 474.4C1792.3 474.4 1814.8 539.8 1754.5 594.9L1771.3 619.3C1771.3 619.3 1791 546.5 1835.2 533.6C1835.2 533.6 1848.5 597.9 1779.7 630.3L1802.5 667.4C1802.5 667.4 1811.9 626.7 1859.3 603C1859.3 603 1861.6 668.1 1811 684.1L1829.1 728.3C1829.1 728.3 1848.5 689.8 1873.7 683.7C1873.7 683.7 1876.8 725.6 1833.2 746.3L1842 816.4L1842.5 820.2L1898.7 829.4C1898.7 829.4 1889.2 774.9 1864.3 765.7C1864.3 765.7 1886.8 759.2 1904.5 782.4C1904.5 782.4 1915.6 737.3 1887.5 709.5C1887.5 709.5 1904.7 707.1 1912 716.3L1905.4 599.1C1905 591.9 1904.4 584.7 1903.6 577.6L1889.5 455.2L1882.3 354.1L1881 339.3C1879.6 323.7 1874.8 308.7 1866.8 295.3L1855 276C1851.8 270.7 1849.7 264.8 1848.7 258.7L1847.6 251.7C1846.7 246 1845 240.3 1842.8 235L1833.7 213C1829.6 203.1 1822.6 194.6 1813.7 188.7L1805.9 183.5C1802.8 181.5 1799.9 179.2 1797.1 176.7L1772.9 154.6L1764.6 146.6C1761.8 143.8 1758.3 141.7 1754.6 140.4L1746.7 137.6C1739.8 135.2 1733.6 131 1728.7 125.5L1713.7 108.7L1697.7 90L1663.3 57L1650 43.6C1648.2 41.8 1646.2 40.2 1644 38.8L1629.7 29.9C1626.9 28.1 1624.3 26.1 1622 23.7L1598.2 2.44156e-05H1627.4L1647.4 29.4C1650.3 33.6 1653.6 37.6 1657.2 41.2L1676.9 60.9C1679.1 63 1681.4 65 1683.8 66.9L1704.5 82.4L1721.3 93.8C1725.8 96.8 1729.9 100.4 1733.4 104.5L1740.3 112.3C1743 115.3 1745.9 118.1 1749.1 120.5L1755.1 125.2C1759.6 128.7 1764.5 131.7 1769.6 134.2C1774.9 136.8 1781.1 139.9 1781.7 140.3C1782.7 141 1808.9 152.9 1808.9 152.9L1788.1 100.1L1770.7 62.3L1738.9 12.5C1736.5 8.70002 1734.4 4.80002 1732.7 0.700024L1732.4 2.44156e-05H1752.2L1757.9 12.1C1758.7 13.8 1759.6 15.5 1760.5 17.1L1774.7 41.6C1777.2 33.8 1778.4 25.6 1778.4 17.4C1778.4 16.6 1778.4 15.9 1778.4 15.1L1778.2 2.44156e-05H1790.3V4.30002C1790.3 9.40002 1789.7 14.5 1788.5 19.5L1786.4 28C1785.6 31.2 1785 34.4 1784.6 37.6L1783.6 45.3C1783.1 49.8 1783.4 54.3 1784.6 58.7L1786.9 67.3C1788.7 73.9 1791.1 80.4 1794 86.5L1797.7 94.2C1799.8 98.6 1802.1 102.8 1804.7 106.9L1821.6 133.5L1830.2 149.6C1834 156.8 1837.2 164.2 1839.8 171.9L1842.4 179.8L1844.1 186.9C1846.2 195.7 1849.4 204.2 1853.7 212.2L1871.7 245.5L1863.4 174.5C1863 171.5 1862.6 168.4 1862 165.4L1850.2 101.8L1842.4 63.3L1826.4 -0.0999756H1846L1852.4 30.6C1853.8 37.2 1855.8 43.6 1858.4 49.8L1874.1 87.4L1873.8 41.8C1873.8 37.2 1873.5 32.7 1872.9 28.1L1869.4 2.44156e-05H1887.1L1889 11L1898.9 55.3C1901.4 66.5 1902.7 77.9 1902.7 89.3V104.3C1902.7 107.2 1902.8 110.1 1903.1 113L1905.1 134.2L1908.9 120.3C1910.8 113.4 1913.3 106.7 1916.5 100.2L1920.2 92.7V161L1918.8 161.3L1912.3 183.7Z" fill="#354624"/>
<path d="M1840.6 806.5C1840.6 806.5 1846.3 788.5 1867.4 785.8C1867.4 785.8 1870.8 806.1 1841.9 816.8L1840.6 806.5Z" fill="#354624"/>
<path d="M1811.9 734.4C1811.9 734.4 1789.5 727.7 1761 753.1C1761 753.1 1791.7 772.4 1817.6 752.6C1834.1 739.9 1811.9 734.4 1811.9 734.4Z" fill="#354624"/>
</svg>
