<svg width="1920" height="1080" viewBox="0 0 1920 1080" fill="none" xmlns="http://www.w3.org/2000/svg">
<path d="M60 861.9C60.4 860.5 61.6 859.5 63.1 859.2L71.9 857.8C72.9 857.6 74 857.5 75 857.3L96.9 852.7L94.6 848.1L102.2 845.3L100.7 842.9C100.3 842.3 100 841.7 99.6 841.1C98.6 839.7 97.6 838.3 96.4 837L75.7 813.2L84 816.7C89.2 818.9 94.9 819.2 100.3 817.6L103.6 816.6L75.1 776.3H91.4C91.3 773.6 90.9 770.9 90.1 768.2C89.4 765.6 88.3 763 87 760.6L61.6 713.6L82.9 724L52.7 686.5L70.7 694.6L52 659.4L65.4 661.3L36.2 622.2L51.8 625.7L31.5 588.6H42L20.8 551.3L39.9 560.7L39 554.8C38.4 551.2 37.3 547.8 35.7 544.6L4.4 481.7L12.2 484.4L0 454.4V1080L723.4 1080.7C729.9 1071.2 728.5 1058.1 728.5 1058.1C713.7 1078.3 695 1080 695 1080C681.4 1073.1 705.9 1053.3 705.9 1053.3C685.1 1045.6 658.1 1067.6 658.1 1067.6C663.2 1037.1 686.7 998 686.7 998C657.6 1020.1 639.7 1053.7 639.7 1053.7C627.1 1040.9 623.7 1018.8 623.7 1018.8C617.7 1026.1 617.4 1042.5 617.4 1042.5L604.3 1033.3C602.4 1032 600.9 1030.1 600.1 1027.9L593.8 1010.8L594.5 1031.9C584.5 1015.3 568.6 1014.3 568.6 1014.3C582.9 1009.6 586 995 586 995C574.4 999.2 564.4 999.6 564.4 999.6C582.3 984.5 580.7 972.1 580.7 972.1C565.3 974.7 553.4 994.1 553.4 994.1C555.9 984.4 553.4 965.3 553.4 965.3L550.2 971.3C546.4 978.2 544.2 985.8 543.5 993.7L537.5 969.4C536.9 966.9 535.4 964.7 533.5 963C523.5 954.4 523.6 941.5 523.6 941.5C526.5 941.6 528.6 944.1 528.6 944.1C528.2 939.4 523.9 936.4 523.9 936.4C521.6 923.2 533.5 900.8 533.9 900.2C521.3 905.7 512.8 918.8 512.8 918.8L513.6 893C513.8 888 513.7 883 513.5 878L512.1 847.3L510.4 829C509.8 822.4 509.6 815.8 509.7 809.2L510.4 777.6C510.5 771.8 510.4 766 510.1 760.3L509.2 745.5C508.7 737.1 508.9 728.8 509.9 720.4L510.4 715.8L512.8 703.7C514.1 697.1 515 690.5 515.4 683.8L516.7 664.1L517.1 633.2C517.1 631.5 517.8 629.9 519 628.6L521.7 625.8C523.2 624.3 524.1 622.3 524.3 620.1L525.3 609.3C525.7 604.8 526 600.3 526.1 595.7L526.5 570.7C526.5 567.3 527.5 563.9 529.3 561L529.6 560.5C531.9 556.7 533.8 552.7 535.4 548.6L537.6 542.7C538.7 539.7 540.1 536.8 541.7 534L541.8 533.9C543.8 530.4 546.1 527.2 548.7 524.2C549.9 522.8 551.2 521.3 552.3 520C554.1 517.9 555.5 515.5 556.5 513L557.3 510.9C558.8 507.3 559.5 503.4 559.6 499.5L559.8 491C562 493.3 564.6 495.1 567.4 496.3C570.2 497.5 573.2 498.3 576.4 498.5H577.2L578 497.2C580.8 492.7 581.6 487.3 580.1 482.3C581.4 482.5 582.7 482.6 584 482.6C588.7 482.6 593.3 481.1 597.2 478.3L598.1 477.6L598.2 475.6C598.4 469.9 597 464.2 594.1 459.2L594.8 459.4C601.7 461.4 609 462.2 616.2 461.5L616.6 459.7C617.7 454.6 617.1 449.3 614.9 444.6L616.3 444.4C622 443.4 626.9 440 629.9 435.1C628 434.2 626 433.4 624 432.9C622 432.4 619.9 432.2 617.8 432.2H617C619.2 429.9 621.2 427.4 623 424.8C624.8 422.2 626.4 419.4 627.8 416.5L628.3 415.4L626.1 414.6C621.4 412.8 616.4 412.4 611.5 413.4C612.8 411.9 613.5 410 613.5 408.1C613.5 407.6 613.5 407.1 613.4 406.6L613.3 405.9H612.8C610.3 405.8 607.9 406.1 605.6 407L607.4 404.7C611.9 399 613.4 391.6 611.6 384.6L609.1 384.5C604.7 384.4 600.5 386.5 598.1 390.2C598.6 388 598.8 385.7 598.8 383.4C598.8 381.6 598.7 379.9 598.4 378.2V377.9H596.8C594.1 378 591.5 378.6 589.1 379.8L589.5 377.8C590.5 372.5 589.9 367.1 587.9 362.1L587.6 362.2C582.4 364.4 577.7 367.8 573.9 372L573.8 372.1L573.7 371.7C571 363.7 566.5 356.4 560.5 350.5L558.8 351.7C554.7 354.7 551.3 358.6 549 363C548.2 360.7 547.1 358.6 545.6 356.7C544.2 354.8 542.4 353.1 540.5 351.7L539.2 350.8L537.6 352C534 354.6 531.7 358.6 531.4 363L524.1 361C523.9 358.6 523.3 356.2 522.4 354C521.5 351.8 520.2 349.7 518.6 347.8L517.5 346.4L513.6 352.5V348.3L512.1 349C509.9 350 508 351.7 506.6 353.7L504.7 348.6C502.9 343.6 500.3 339 496.9 334.9L495.1 332.7L492 336C489.7 338.4 487.7 341.2 486 344.2L485.6 345C484.3 342.9 482.3 341.3 480 340.5L478.6 340C477.9 342.1 477.6 344.3 477.6 346.5C477.6 348.2 477.8 349.9 478.2 351.6V351.8L476.5 350.7C474.1 349.1 471.1 348.7 468.4 349.6L461.8 351.8C460.7 348 460.1 344 460.1 340V299C460.1 291.9 462.1 285 465.9 279L478.2 255.8C479.6 258.4 481.3 260.8 483.4 262.9C485.4 265 487.8 266.8 490.4 268.2L493.2 269.7C496.3 266.8 499.1 263.5 501.6 260.1C504.1 256.6 506.2 252.9 507.9 249L508.6 247.4V247.5C511.1 254.1 516.1 259.3 522.5 262.2L523.2 261.8C529 258.2 533.2 252.4 534.8 245.7C534.8 246.1 534.8 246.5 534.8 247C534.8 251.9 536.2 256.6 538.7 260.8L538.9 261.1L540.1 260.1C542.7 258.1 544.6 255.3 545.5 252.2C545.9 253.4 546.4 254.5 547.2 255.5C548 256.5 548.9 257.3 550 257.9L550.8 258.4C552.1 257.1 553 255.7 553.8 254.1C554.5 252.5 554.9 250.8 555 249L555.1 247C556.8 249.4 558.9 251.5 561.3 253.1C563.7 254.8 566.3 256.1 569.1 256.9L570.5 257.3L570.6 257.1C573.2 252.3 574.3 246.9 573.6 241.5C575.8 243 578.1 244.1 580.5 245.1C582.9 246.1 585.4 246.7 588 247.2L590 247.5C590.1 246.8 590.1 246.1 590.1 245.4C590.1 241 588.9 236.6 586.5 232.9L585.2 230.9L589 233.4C593.5 236.4 598.3 238.7 603.5 240.3L604.4 240.6C607.3 237 609.5 232.9 611.1 228.6L611.3 228L612.5 230.3C614.5 234.2 617.3 237.5 620.7 240.1C623.5 237.7 626 234.9 627.9 231.8L630.3 227.9C633.3 229.3 636.4 230.3 639.6 231C642.8 231.7 646 232.1 649.3 232.2L652.4 232.3C653.4 228.9 653.9 225.4 653.9 221.9C653.9 218.7 653.5 215.6 652.7 212.5L652.4 211.4C655.3 211.1 658.2 210.5 661 209.6C663.8 208.7 666.5 207.5 669.1 206.1L669.5 205.9C668.9 204.4 668.1 203 667.1 201.7C666.1 200.5 664.9 199.4 663.5 198.5L663.2 198.3L665.6 197.3C671 195.1 675.7 191.4 679 186.5L678.3 185.8C675.6 183.1 672.2 181.2 668.5 180.1C675.4 176.9 680.9 171.4 684 164.5H680C677.3 164.5 674.6 164.7 671.9 165.1L670.9 165.3C670.3 165.4 669.7 165.2 669.4 164.7L666.2 160.5C665.9 160.1 665.8 159.5 666 159.1C666.9 158.6 667.6 157.7 668 156.8L668.4 155.7L667.8 155.3C666.7 154.5 665.5 154.1 664.1 154C665.4 153.2 666.5 152.2 667.4 151C668.3 149.8 669 148.4 669.3 147L669.5 146.2L666.5 145.9C662.3 145.4 658.1 146 654.2 147.5C654.1 145.1 653.6 142.8 652.7 140.6L652.6 140.3L651.5 140.1C647.9 139.4 644.2 139.8 640.8 141L640.4 140.8C641 139.2 641.4 137.5 641.4 135.8C641.4 134.4 641.2 133 640.7 131.7L640 129.7L638.9 129.6C634.6 129.3 630.2 130.2 626.4 132.3L625.5 132.8C626.4 131 626.8 129.1 626.8 127.2C626.8 126.4 626.7 125.6 626.6 124.8L626.5 124.5L625 124.3C622.4 123.9 619.7 124.4 617.5 125.9C616.7 123.4 615.5 121.1 613.8 119L612.7 117.6L610.4 118.4C607.6 119.3 605.1 120.7 602.8 122.6C602.6 120.8 602 119.1 601.1 117.5L601 117.4C598 118.4 595.4 120.1 593.4 122.5L593.2 122.8L593.6 121.7C594.4 119.2 594.5 116.6 593.9 114.1L591.9 114.6C587.8 115.5 583.9 117.3 580.5 119.7L577 122.2C576.6 120.7 575.9 119.2 574.9 118L574.8 117.8C572.5 119 570.5 120.7 568.9 122.8C568.9 111.2 554.6 114.1 554.6 114.1L554.1 109.8C552.8 110.2 551.5 110.8 550.4 111.6C549.3 112.4 548.4 113.4 547.7 114.6L547.4 115C547.4 114.8 547.4 114.6 547.4 114.4C547.4 110.5 546.5 106.6 544.6 103.2L544.3 102.7L540.7 103.5C536.6 104.5 532.9 106.5 530 109.5L530.9 107.3C532.7 102.6 533 97.5 531.7 92.7L530.2 93.4C527 94.9 524.3 97.3 522.5 100.4V88.3C522.5 84.9 523 81.5 524.1 78.2L526.3 71.4C527.3 68.4 529.3 66 532.1 64.5L536.5 62.2V62.5C536.5 65.4 536.9 68.4 537.8 71.2L538 72.1C539.9 72 541.8 71.5 543.4 70.7C545.1 69.9 546.6 68.7 547.9 67.3L548.6 66.5L548.2 68C547.3 71.1 547.4 74.4 548.6 77.4H549.8C553 77.5 556.1 76.8 558.9 75.3L557 78.1C554.9 81.2 553.3 84.6 552.3 88.2L556.8 87L560.5 86C560.6 88 561.2 89.8 562.1 91.5C563 93.2 564.3 94.7 565.9 95.8L567.4 96.9L569.4 96C572.2 94.8 574.7 93.1 577 91.2L578.6 89.8L584.9 90.8C585.2 92.5 585.7 94 586.4 95.5C587.2 97 588.1 98.3 589.3 99.5L589.5 99.7L590.5 99.2C592.8 98.1 595 96.6 596.8 94.7L597.6 95.6C600.3 98.6 603.6 101.1 607.4 102.7C609.3 101.3 610.9 99.6 612.2 97.8C613.5 95.9 614.5 93.8 615.2 91.6L615.3 91.2L616.3 92.6C619.9 97.7 624.9 101.7 630.8 103.8L632.1 102.7C636.2 99.4 639.6 95.3 642 90.6C643.2 93.2 645 95.4 647.3 97.1L647.7 97.4C650.5 95.5 652.7 92.9 654.1 89.9L654.4 89.3C655.4 91.7 656.8 93.9 658.5 95.8C660.2 97.7 662.2 99.4 664.4 100.7L666.8 102.1C668.6 100 670.1 97.7 671.2 95.2C672.3 92.7 673.1 90.1 673.4 87.3L673.5 86.2C675.9 88.6 678.5 90.8 681.3 92.8C684.1 94.8 687.1 96.4 690.2 97.9L690.6 98.1C693.7 92.9 695.3 87 695.3 81.1C695.3 79.3 695.2 77.6 694.9 75.8V75.6L695.9 76.3C699.4 79.1 703.6 80.9 708 81.6L708.2 80.3C709 75.1 708.7 69.8 707.4 64.7C709.8 67.2 712.5 69.5 715.5 71.3C718.4 73.2 721.6 74.7 724.9 75.8C725.1 74.4 725.2 72.9 725.2 71.5C725.2 65.5 723.2 59.5 719.6 54.6C722.3 56.2 725.4 57.1 728.5 57.2L733.4 57.4L733.3 56.3C732.9 51.1 731.2 46.2 728.4 41.8L724.8 36.2L725.5 37C727.2 38.8 729.1 40.3 731.3 41.4C733.2 39.9 734.7 38.1 735.8 36L736 35C739.3 38.3 743.2 41 747.5 42.9L748.7 43.4L748.8 43.1C751.1 37.9 752.3 32.2 752.3 26.5C753 28.7 754 30.8 755.3 32.7C756.6 34.6 758.1 36.3 759.9 37.9L761 38.8L761.6 36.6C763 31.3 762.6 25.7 760.3 20.7C762.5 22.5 765.1 23.8 767.9 24.4L768.9 24.6L769.4 23.9C770.9 22.1 771.8 19.8 772 17.5C774.1 19.2 776.6 20.2 779.3 20.6H779.6L780.2 20C781.6 18.5 782.5 16.7 782.8 14.7L784.8 15C785.8 15.2 786.7 15.8 787.1 16.8V16.9C788.6 20.3 790.9 23.4 793.9 25.7C794.7 26.3 795.3 26.8 795.3 26.8L796.1 24.9C797.3 22 797.9 18.8 797.6 15.7C799.9 17.7 802.8 18.8 805.9 18.8C806.2 18.8 806.6 18.8 806.9 18.8L811.1 18.4V18.2C811.4 11.4 808.9 4.79999 804.1 -1.22041e-05H0V159.8L7.2 149.2L9.6 154.8C11.1 158.3 13.5 161.2 16.5 163.4L17.4 162.5C20.4 159.5 22.9 156.1 24.7 152.3L26.7 154.6C30.6 159.1 35.7 162.1 41.5 163.4L41.9 162.6C44.9 156.3 46.4 149.4 46.4 142.5L46.6 142.8C48.9 145.8 52.2 148 55.9 149L56 148.7C57.4 146.1 57.8 143.1 57.2 140.2C57.9 141.1 58.8 141.9 59.8 142.4C60.8 143 61.9 143.3 63.1 143.4L64.3 143.5C66 140.2 67 136.5 67.2 132.8L67.3 129.6C67.4 127.9 68.1 126.4 69.3 125.3L76 152.8C77 157.1 79.1 161 82.1 164.2L97.4 181.2L97 182L94.5 184.5C93.9 185.1 93.6 185.9 93.6 186.7V188.2C93.6 189.7 92.6 191 91.2 191.4L89.7 191.9C88.3 190.2 86.4 188.9 84.2 188.3L83.7 188.2L83.6 188.8C83 191.1 83.1 193.6 83.7 195.9C80.5 194.5 77 193.7 73.5 193.7C71.5 193.7 69.5 193.9 67.5 194.4L67.3 194.5L68.3 197.1C69.6 200.5 71.7 203.5 74.4 205.9L71 209.2C68.7 211.5 66 213.3 63 214.5L56.5 217.4C58.6 220.3 61.2 222.9 64.1 225.2L66.4 227C64.3 227.9 62.3 229 60.5 230.4C58.7 231.8 57.1 233.4 55.7 235.2L55 236.1L57.1 237.9C60.7 240.9 64.9 243.2 69.3 244.9L75.3 247.1C72.2 247.4 69.1 248.2 66.2 249.3C63.3 250.4 60.6 252 58.1 253.9L53.6 257.3L55.5 260.6C58.9 266.4 63.7 271.3 69.6 274.6C67.1 275.3 64.7 276.2 62.4 277.5C60.1 278.7 58 280.2 56.1 282L55.5 282.5L56.3 283.2C60.7 287.3 65.9 290.5 71.5 292.7H71.2C67.7 292.7 64.2 293.8 61.4 296L59.9 297.1C62.3 300.9 65.3 304.4 68.8 307.2L69.6 307.8C66.8 308.4 64.1 309.2 61.5 310.3C58.9 311.4 56.4 312.8 54 314.5L53.6 314.8C57.2 316.5 60.5 318.7 63.5 321.4L65.9 323.6L65.1 323.9C60.5 325.9 56.9 329.7 55 334.3C56.3 334.6 57.7 334.7 59 334.7C61.3 334.7 63.5 334.3 65.7 333.5L66.9 333.1C65.7 335.1 64.7 337.2 64 339.4C63.3 341.6 62.8 343.9 62.7 346.2L62.5 348.6C63.3 348.7 64 348.7 64.8 348.7C68.2 348.7 71.6 347.7 74.4 345.7L75.3 345.1C74.5 347.5 74.1 350 74.1 352.4C74.1 354.4 74.4 356.4 74.9 358.3L75.8 361.7C77.9 361.6 80 361.1 81.9 360.4C83.9 359.7 85.7 358.6 87.4 357.4L89 356C88.7 357.2 88.6 358.5 88.6 359.7C88.6 362.1 89.1 364.6 90.1 366.9L90.7 368.3L91.8 368C97 366.6 101.9 364.6 106.5 361.9L109.9 359.9C109.9 360.2 109.8 360.5 109.8 360.8C109.8 363 110.8 365.1 112.6 366.5L113.3 367C116.1 366.2 118.6 364.7 120.5 362.5L121.3 361.6C121.5 363.7 122.1 365.8 123 367.6C124 369.4 125.3 371.1 127 372.4L129.2 374.2C132 372.2 134.2 369.5 135.9 366.6C137.5 363.7 138.5 360.4 138.8 356.9L138.9 355.6C142.3 357.1 145.9 357.9 149.6 358.2L153 358.4L153.1 353.4C153.1 351.7 152.5 350 151.5 348.6C150.7 347.5 151 345.9 152.1 345.1C152.7 344.7 153.4 344.3 153.9 343.8C155.1 342.7 156.8 342.3 158.4 342.9L163.6 344.9C162.9 346 162.6 347.2 162.6 348.4C162.6 349.4 162.8 350.5 163.3 351.4L163.6 352H163.7C166.3 351.4 168.5 349.8 170 347.6L170.2 347.9C172.5 350.9 175.5 353.1 179 354.4C180.5 353.5 181.5 352.1 182 350.5L182.2 349.7L187.5 354.5C189 355.8 189.8 357.7 189.8 359.7V388.9C187.7 386.1 184.4 384.5 180.9 384.5C180.5 384.5 180.2 384.5 179.8 384.6H179.6L179.5 385.9C179.1 389.5 179 393.1 179.3 396.7L179.4 398.1L178.8 397.9C176 397 173.1 397.1 170.4 398.1L170.5 398.8C170.7 401.1 171.7 403.3 173.3 405L172.7 404.8C166.1 402.5 159 402.4 152.4 404.6L151.3 405L153.4 407C158.2 411.5 164 414.9 170.4 416.7C169.1 418 168.4 419.7 168.4 421.5C168.4 422.3 168.5 423.2 168.9 424L169.4 425.2L178.4 425.8C182.8 426.1 187.2 425.3 191.3 423.6L193.6 437.4C194 440 193.1 442.6 191.1 444.4L188.1 446.9L187 445.6C185 443.2 182.7 441 180.2 439.1L176.9 436.6L176.1 438C172.9 443.3 171.3 449.4 171.3 455.6C171.3 456.6 170.9 457.5 170.1 458.1L163.9 463L163.7 462.2C162.2 457.3 158.8 453.2 154.4 450.7C153.6 453.3 153.2 456 153.2 458.8C153.2 459.5 153.2 460.2 153.3 460.9L153.4 462.1C152.7 460 151.5 458.1 150.1 456.4C148.7 454.7 146.9 453.4 145 452.3L142.3 450.9L141.6 453.3C139.4 461.1 138.6 469.2 139.2 477.3L138.9 476.9C135.8 472.5 131.6 469.1 126.7 467L125.5 469.7C123.4 474.5 123.4 480 125.4 484.9L120.6 483.5C113.1 481.4 105.3 481.4 97.8 483.4L97.5 483.5L97.6 483.8C99.1 487.8 102.1 491.1 106 493C103.8 494.4 102 496.5 101 498.9L100.9 499L101.3 499.5C103.7 503.1 106.7 506.3 110.3 508.9L109.7 508.7C104.5 506.7 99 505.9 93.5 506.4L92.3 506.5C92.6 508.7 93.3 510.9 94.2 513C95.1 515.1 96.3 517 97.8 518.7L102.3 524.1L102.1 524C97.1 522 91.6 521.9 86.6 523.7L89 529C90.9 532.3 93.6 535.1 96.9 537L95.2 537.5C91.9 538.5 89.1 540.7 87.5 543.7L89.2 544.1C91.6 544.7 94.1 544.9 96.5 544.6C95.1 546.4 94 548.5 93.4 550.7V550.8C94.9 552.5 96.7 554 98.6 555.3C100.5 556.6 102.6 557.5 104.8 558.2L106.5 558.7C104.7 559.1 103 559.8 101.5 560.7C100 561.6 98.6 562.8 97.4 564.2L96.7 565L101.6 566.1C104.2 566.7 106.9 566.7 109.5 566.1L113.1 565.2L113 565.4C110.9 573 110.6 581 112.3 588.8L115.3 587.2C117.4 586.1 119.1 584.3 120.1 582.1L120.4 581.5C120.8 580.8 121.6 580.4 122.4 580.6L128 582.3C127.3 584.6 126.9 587.1 126.9 589.5C126.9 590.5 127 591.5 127.1 592.5L127.3 594L128.8 593.8C133.3 593 137.5 590.8 140.6 587.3L141.4 588.8C143.9 593.6 147.1 598 150.9 601.8L151.8 600.1C153.8 596.5 156.1 593.2 158.8 590.1L159.4 589.4V589.7C159.5 593 160.4 596.2 162 599.1L164.5 596.6L166.1 603.1L168.4 614.9L169.4 621.4C169.9 624.4 170.9 627.2 172.3 629.9L174.3 633.7C176.1 637.1 179.3 639.6 183 640.5L187.2 641.6C189.7 642.2 191.9 643.7 193.5 645.8L198.2 652L209.5 669.9C211 672.3 211.8 675.1 211.7 677.9L211.3 697.1C211.2 700.1 211.7 703.2 212.7 706.1L213 707C213.2 707.6 213.3 708.2 213.3 708.8L213.8 728.4C213.8 729.9 213.7 731.4 213.4 732.9L212.7 736.5C211.8 740.9 211.4 745.3 211.4 749.7L211.3 781.2C211.3 782.6 211 784 210.4 785.2L209.3 787.7C208.6 789.1 208.3 790.7 208.3 792.2V803C208.3 803.8 208.1 804.6 207.7 805.2L206.7 807C206 808.3 205.9 809.9 206.4 811.4L206.6 812C206.9 812.9 206.8 813.9 206.4 814.7L204.6 818C203.9 819.2 203.5 820.5 203.3 821.8L201.3 834.6C199.4 829.8 194.5 827.7 194.2 827.6C198.1 832.7 196.9 845.7 196.9 845.7C195.9 842.3 187.8 840.4 187.3 840.3C188.8 841.3 190 843.3 190.9 845.6C190.1 845.1 189.1 844.6 187.9 844.5C188.1 844.6 189.3 845.5 190.7 846.8C191.4 847.4 191.8 848.2 192.1 849.1C193.2 852.9 193.6 856.4 193.6 856.4L190.2 856.3C189.6 854.9 189.1 852.3 190.6 848.2C190.6 848.2 187.6 850.9 186.8 854.1C186.7 852.5 186.3 850.3 185 849.5C185 849.5 186.7 853.2 182.9 856H180.2C180.2 856 175.3 833.3 180.7 825C180.7 825 169.5 834.2 170.3 841C170.3 841 168.7 833.6 164.5 831.3C164.7 831.8 168.7 842.3 164.8 844.7C164.8 844.7 159.5 832.2 152 830.8C152 830.8 163 843.3 159.3 854.9L115.1 856.3C111.7 856.4 108.2 856.8 104.9 857.6L94 860C90.1 860.8 86.4 862.1 82.7 863.7L70.7 868.9C69 869.6 67.2 870 65.3 870H57.9C57.6 870 57.4 869.7 57.5 869.5L60 861.9ZM534.3 480.5C534.4 479.8 535.1 479.3 535.8 479.5L545.7 482.8C545.3 483.9 545.1 485 545.1 486.2C545.1 488 545.6 489.7 546.5 491.3L546.7 491.7L547.3 491.5C550.1 490.8 552.5 489.2 554.4 487V508.3C554.4 511.4 552.1 514.1 549 514.7C547.6 514.9 546.3 515.5 545.2 516.3C544.1 517.1 543.2 518.2 542.6 519.5C539.9 525.1 534.6 534.5 530.1 535.2L534.3 480.5ZM485.1 470.4L485.3 471.1C486.6 476.3 489.3 481 493.1 484.7C497.5 482.1 501.2 478.6 504 474.4L505.2 472.6L507.6 478.4C508.7 481.1 510.4 483.6 512.5 485.7L517.7 490.9C518.3 491.5 518.6 492.4 518.6 493.2L514.8 540L512.4 576.1L511.9 603C511.8 608 509.9 612.9 506.6 616.7L504.7 618.8C502.8 620.9 501.8 623.7 501.8 626.5V678.6L494.4 635L492.6 560.5C492.5 554.6 492 548.7 491.3 542.9L485.7 497.2C485.2 492.7 484.9 488.1 484.9 483.5L485.1 470.4ZM435.9 65.4L437.2 60.6C438.2 61.6 439.4 62.4 440.7 62.9L440.8 63C442.1 61.2 443.1 59.3 443.7 57.2L444.5 54.7V55C444.2 57.1 444.5 59.3 445.4 61.3L445.9 61.4C447.3 61.6 448.8 61.3 450 60.5V66C450 69.1 449.4 72.2 448.3 75.1L447.2 77.9C446.7 79.2 446.6 80.7 447.1 82.1L448.7 87.4C449.5 90 449.2 92.8 447.8 95.2L443.5 102.7L441 100.5C439.6 99.3 438.9 97.5 439.1 95.6L440.7 83.3C441 81.2 440.6 79 439.5 77.1L437 72.6L436.1 70.4C435.6 68.8 435.5 67 435.9 65.4ZM436 345.6L435 339.6C434.8 338.4 435.2 337.3 436.1 336.4C438.4 334.1 442.9 326.9 445.6 304.7L449.6 358C449.7 358.9 449.1 359.8 448.2 360L444.4 361.2C443.2 361.6 441.9 360.9 441.5 359.6L440.5 356.2C439.9 354 437.8 352.5 435.5 352.7L434.7 352.8L435.6 350.3C436.1 348.8 436.3 347.2 436 345.6ZM435.6 241.1L445.6 232.2V241.6C445.6 245.5 445.4 249.5 444.9 253.4L443.6 264.6L442.2 291.2L436.4 280.8C434.4 277.2 433.9 273 435 269L436 265.4C436.7 263 436.8 260.4 436.3 258L433.9 246.2C433.6 244.3 434.2 242.4 435.6 241.1ZM370.4 71C371.6 67.8 372.2 64.5 372.2 61.2V43.2C372.2 42 372.7 41 373.6 40.2L379.2 35.5C379.2 35.5 381.1 39.6 382.7 41.2L383.2 41.7C384.9 40.9 386.5 39.9 387.9 38.6C389.3 37.3 390.5 35.9 391.4 34.2L392.6 32.2C392.4 33.1 392.4 34 392.4 34.9C392.4 37.2 392.9 39.5 394 41.6H394.7C397.8 41.7 400.9 41.4 403.8 40.6L408.4 39.4C406.7 41.8 405.5 44.6 404.9 47.6L404.8 48.2L405.6 48.3C408.5 48.8 411.5 48.7 414.3 48.2C414.1 49.6 414 51 414 52.3C414 55.8 414.6 59.3 415.8 62.5V62.6L416.5 62.3C420 60.7 423.1 58.4 425.6 55.6C426.1 56.2 426.5 57 426.5 57.8L426.6 69.4C426.6 73.5 427.2 77.5 428.4 81.4L428.7 82.3C429.5 85.1 429.1 88.1 427.5 90.6C426.4 92.2 425.6 94 425 95.8C424.4 97.6 424 99.6 423.9 101.5L423.3 111.2C421.9 109.8 420.2 108.8 418.5 108C416.7 107.2 414.8 106.7 412.9 106.6L410.5 106.4V107.1C410.9 114.5 413.7 121.5 418.6 127.1L416 130.7L415.9 130.6C414.5 128.6 412.5 127.1 410.2 126.5V126.7C409.9 128.3 410.3 130 411.3 131.4L408.4 129C406.7 127.5 404.7 126.4 402.6 125.6L399.9 124.6C397.3 128 395.9 132.1 395.9 136.4C395.9 136.7 395.9 137 395.9 137.3L396 140.1C396 141 395.5 141.8 394.7 142.1L392.2 142.3C390.6 142.4 388.9 142.8 387.3 143.3L383.2 144.6L382.9 145.6C382 149.2 382.4 153 384 156.2C381.6 155.5 379.2 155.2 376.8 155.2C374.3 155.2 371.8 155.6 369.4 156.3L368.5 156.6C370.5 159.4 372.9 161.9 375.6 164C378.3 166.1 381.3 167.8 384.6 169L385.2 169.2L382.6 169.7C376.1 171 370.1 174.2 365.4 179L366.9 180.2C369.4 182.1 372.2 183.4 375.2 184.1L377.8 184.7L372.6 194.1C372.2 194.8 371.9 195.4 371.6 196.1C370.4 198.8 369.8 201.7 369.8 204.6C369.8 205.8 369.9 207.1 370.1 208.4L381.9 206.7V211.1L385.1 211.9C382.4 216.9 381 222.4 381 228.1C386.2 230 391.6 230.9 397.1 230.9C399.5 230.9 402 230.7 404.4 230.3L405.7 230.1V230.4C405.6 235.6 407.3 240.7 410.7 244.8L411.9 244.4C414.6 243.5 417 241.8 418.7 239.5L422.1 242.9C423.2 244 424 245.4 424.3 246.9L424.9 249.4C425.6 252.6 425.9 255.8 425.6 259L423.1 290C422.8 293.4 423.6 296.9 425.3 299.9L427.3 303.4C428 304.6 428.6 305.9 428.9 307.3C429 307.6 429 307.9 429.1 308.2L430 314.5C430.3 316.5 430.1 318.6 429.4 320.6L427.7 325.6C426.9 328 426.4 330.4 426.1 332.9L425.5 339.2L423 337.2L415.9 330.3L413.6 328C412.2 326.6 411.5 324.7 411.7 322.7V322.6C412 319.8 411.2 317 409.5 314.7C408.1 312.8 406.6 310.7 406.6 310.7L406.2 310.8C402 311.9 397.9 313.6 394.1 315.7L392.7 316.5L396 313.3C398.7 310.6 400.2 306.9 400.1 303.1C398.6 302.7 397 302.5 395.4 302.5C394 302.5 392.6 302.7 391.2 303L390.7 303.1L391.9 301.6C395.1 297.7 396.9 292.8 396.8 287.8L394.9 288.2C389.4 289.3 384.3 292 380.3 296L379.9 291.9C379.5 287.2 378 282.6 375.7 278.5L375.6 278.3L375.1 278.5C372.1 279.8 369.7 282.2 368.6 285.3L365.6 282.5C363 280 359.7 278.5 356.1 278L353.2 277.6L351.4 274.1C348.4 275.7 345.8 278.1 344.1 281L343.6 281.8L343.1 282.1L342.7 281.3C342 279.8 341.8 278.1 342.1 276.5L343.1 270.8C343.8 266.8 343.6 262.7 342.4 258.8L341 254C342.1 256.1 343.5 258.1 345.2 259.7L345.4 259.9C346.7 258.7 347.8 257.2 348.4 255.6L348.6 255.1C349.7 257.1 351.2 258.7 352.9 260C354.7 261.3 356.7 262.2 358.9 262.6L361.3 263V255.5C361.3 252.2 360.9 249 360 245.8L358.9 241.6C362.3 243 366 243.8 369.6 243.8C372.9 243.8 376.3 243.2 379.5 242L380.4 241.7C379.4 238.5 377.9 235.4 376.1 232.6C374.3 229.8 372.1 227.2 369.6 224.8L364.1 219.7C364.3 219.7 364.5 219.7 364.8 219.7C367.1 219.7 369.4 218.8 371.1 217.1L372 216.2C370 212.1 367.6 208.2 364.7 204.6L362.1 201.4C360.9 199.9 359.6 198.4 358.2 197L354.4 193.1L356.7 188.6C358.8 184.5 360.2 180 361 175.5C358.6 172.8 355.8 170.6 352.6 169L348.3 166.8C346 165.6 344.1 163.8 342.9 161.5L341.9 159.7C340.7 157.5 340.1 155.1 340.2 152.7V151.4C340.2 149.8 340.7 148.3 341.6 147L343.3 144.4C344.1 143.2 344.6 141.7 344.6 140.2V134C344.6 132 345.4 130.1 346.7 128.6C347.6 127.6 348.8 126.9 350.2 126.5C351.3 126.2 352.3 125.4 352.8 124.3L354.4 120.8C355 119.5 355.3 118 355.3 116.6V114C355.3 112.1 355.6 110.3 356.3 108.6L368.6 75.2L370.4 71ZM250.1 79.3C250.1 76.9 250.2 74.5 250.3 72.1L250.9 62.9C251.1 60.6 252.4 58.5 254.5 57.4L260 54.5L259.9 55C259 58.8 259.5 62.9 261.3 66.4L264.8 62.9C266.4 61.3 267.8 59.5 268.9 57.5L269.5 56.4C270.5 58.6 271.9 60.6 273.6 62.3C275.3 64 277.3 65.4 279.5 66.4L280 65.6C282 62.3 282.8 58.4 282.1 54.6L284.8 56.1C286.3 56.9 287.6 58.2 288.4 59.7L291.9 65.8L301 79.4C302.1 81 303.1 82.7 304 84.4L309.7 94.6C311.4 97.7 313.5 100.5 315.9 103.1L323.6 111.3C325.8 113.6 326.5 116.9 325.6 119.9L324.4 123.9C323.7 126.2 322.9 128.5 322 130.7L316.8 143.8V141.7C316.9 137.2 315.8 132.8 313.6 128.9L312 128.6C307.3 127.8 302.5 128 297.9 129.3C298 128.1 298.1 126.9 298.1 125.7C298.1 118.8 295.6 112 291 106.8L289.7 105.3C286.3 106.4 283 108.1 280.2 110.2C277.3 112.3 274.8 114.9 272.7 117.9L272 118.9L271.6 116.6C270.7 111.7 268.6 107.1 265.3 103.4C262.6 103.9 260 104.6 257.4 105.5C254.8 106.4 252.4 107.5 250 108.9V79.3H250.1ZM188.9 114.1L188.5 124.2L183.8 122.3L185.3 134.1L184.4 146.5L180.6 147.2C180.6 147.2 178.4 142.9 178.6 138.7C178.6 138.7 168.9 145.5 169.2 156.2C169.2 156.2 166 149.4 161.2 147C161.2 147 163.2 155.3 160.2 155.7L148.3 155.9C148.3 155.9 145.2 151.5 145.1 148.9C145.1 148.9 139.6 155.9 139.6 160.1C139.6 160.1 132.5 152.9 131.4 148.2C131.4 148.2 126.5 155 127.7 170L119 165.2L120.2 171.7C120.2 171.7 109.5 166.8 108.6 158.4V166.2L108.3 166.6L87.3 147.4C86.5 146.7 85.3 146.9 84.7 147.8L83.3 150.3L77.3 126.8L76.3 123.6C76 122.5 75.8 121.4 75.7 120.3C77.8 121.1 80 121.5 82.2 121.5C83.2 121.5 84.3 121.4 85.4 121.2V119.7C85.4 114.8 84.6 110 82.9 105.5C84.5 106.2 86.2 106.5 88 106.5C89 106.5 89.9 106.4 90.9 106.2C92.4 100.4 90 94.3 85 91.2L82.8 89.8L85 83.6L85.1 83.7C88.4 87.7 92.9 90.6 97.9 92.1L99 90.1C100.5 87.3 100.6 84.1 99.2 81.3C100.5 81.9 101.9 82.3 103.3 82.4L104.8 82.5C104.8 82.1 104.8 81.7 104.8 81.4C104.8 78 104.1 74.6 102.7 71.4L100.9 67.3C101.5 68.5 102.2 69.6 103.1 70.6C104.1 71.8 105.3 72.8 106.6 73.5L110.3 75.7C112.6 74.1 114.5 72.2 116.2 70C117.8 67.8 119.1 65.4 120 62.8L121.9 57.1L122.8 59.1C125.4 64.8 129.1 70 133.5 74.4L135.2 73.2C139.4 70.3 142.2 65.8 142.7 60.7L146 64.4C148.2 66.8 150.6 68.9 153.2 70.8L181.8 91C183.3 91.8 184.1 93.5 183.8 95.2L183.7 96C183.3 98.1 183.8 100.2 184.9 102L186.1 103.8C188 106.9 189 110.5 188.9 114.1ZM191.7 84.8H191C189.4 84.8 187.8 84.3 186.5 83.3L158.1 62.5C155.7 60.7 153.4 58.6 151.5 56.3L149 53.3L150.7 54.4C152.4 55.5 154.4 56.1 156.5 56L156.4 55.5C156.2 52.9 155.1 50.5 153.4 48.6C154.9 49.1 156.4 49.3 157.9 49.3C159.2 49.3 160.4 49.1 161.7 48.8L162.5 48.6V48.1C162.2 43.9 160.5 39.9 157.6 36.9L153.5 32.6L153.7 32.8C157.1 36 161.4 37.9 166.1 38.2C166 36 165.6 33.7 164.9 31.6C164.2 29.5 163.1 27.5 161.8 25.7L161 24.6C163 26.7 165.2 28.5 167.7 30C170.2 31.5 172.8 32.7 175.6 33.5L177 34L177.1 33.4C178.2 28.7 178.6 23.9 178.2 19.1L178.1 18.3L178.8 18.4C180.7 21.5 183.1 24.2 185.9 26.4C188.2 24.7 190.1 22.6 191.5 20.2C192.9 17.8 193.7 15 193.9 12.2V12L202.7 22.3L200 24.8C197.1 27.5 195 31 194 34.9L195.3 35.1C198 35.6 200.9 35.1 203.3 33.9L203.5 34L201.4 51.6C201 55 200.4 58.4 199.6 61.7L194.7 82.3C194.4 83.8 193.2 84.8 191.7 84.8ZM208.6 654.1L200 641.3C197.2 637.1 193.1 634 188.4 632.4L183.8 630.9C179.1 629.3 175.6 625.3 174.7 620.5L171.8 605.5C171.6 604.5 171.9 603.4 172.7 602.7L178.6 597L179.7 601.2C180.7 605.3 183 609 186.2 611.7L190.2 615.1C191.7 613.6 192.9 611.8 193.7 609.9C194.5 608 194.9 605.9 194.9 603.7V602.2L199.4 611C200.8 613.8 202 616.6 203.1 619.5L205.3 625.7C207.5 632 208.7 638.6 208.7 645.2V654.1H208.6ZM213.4 141L213 141.1L209.5 120.9C209.2 119.1 208.4 117.4 207.2 116L206 114.6C204.7 113.1 203.9 111.3 203.6 109.4L203.1 105.9C202.7 103.4 202.9 100.9 203.5 98.4L206.8 84.8L215.7 52.7L218.2 43L219.4 43.9C220.7 44.9 221.7 46.1 222.3 47.6L224.1 51.8L225.6 56.5C227.4 62.3 228.4 68.3 228.6 74.4L229.3 98.7L229.5 116.5C229.5 118.6 228.7 120.6 227.2 122.1L227 122.3C224.3 125 221.8 128.1 219.8 131.3L213.4 141ZM277.6 293.4C279.2 294.9 281.1 295.9 283.3 296.2L285.4 296.6L287.5 294.5C288.7 293.3 289.8 291.9 290.8 290.5L291.6 289.3L293.2 291.7C293.6 292.3 293.9 293.1 293.9 293.8C293.9 295.9 294.2 298 294.8 300C295.4 302 296.2 303.9 297.3 305.8L299.2 308.9L299 309L294.4 308C289.5 307 284.5 306.6 279.6 307L277.1 307.2C275.9 309.9 275.3 312.7 275.3 315.6C275.3 316.1 275.3 316.5 275.4 317L276.2 329.4L275.8 329.5C273.5 330.1 271.4 330.9 269.4 332.1L269.3 332.3C268.8 334.6 268.9 337 269.5 339.2C268.2 338.5 266.7 338.1 265.3 338.1C264.8 338.1 264.2 338.1 263.7 338.3L263.3 338.4V338.5C262.5 341.1 262.7 343.9 263.9 346.3C260.7 345.1 257.3 344.5 253.8 344.5C251.3 344.5 248.8 344.8 246.3 345.5L246 345.6L245.9 347.4C245.7 352.6 243.9 357.7 240.6 361.7C240 362.4 239.4 363 239 363.4L238.3 362.4C236.2 359.6 233.2 357.7 229.8 357.1L227.2 363.5C226.4 365.5 225.9 367.7 225.9 370V370.1C225.9 371.3 225.4 372.4 224.4 373.1C222.3 374.8 218.5 377.7 218.5 377.7L219.1 348.5V344.1C219.1 342.7 220.2 341.6 221.6 341.6H225.5C228 341.6 230 339.8 230.4 337.4C232.2 340.1 234.7 342.3 237.6 343.7L238.5 344.2C240.1 342 241.5 339.6 242.6 337.1C243.7 334.6 244.5 332 245.1 329.3L245.7 326.5C248.9 328.4 252.4 329.8 256 330.4L257.9 330.7C259.7 327.3 260.9 323.6 261.4 319.7L261.9 315.6C262 313.9 262.9 312.3 264.3 311.3C264.7 311 265.2 310.6 265.7 310.3C266.2 309.9 266.9 309.7 267.7 309.6C269.7 309.3 271.7 308.6 273.4 307.4L273.7 307.2C273.4 305.5 272.7 303.8 271.8 302.3L271.2 301.3L271.8 301.5C273.9 302.1 276.2 302.1 278.3 301.4L278.6 301.3V300.7C278.6 298.6 278.2 296.5 277.5 294.5L277.6 293.4ZM303.7 841.4C301.7 851.7 291.5 858.3 291.5 858.3C291.5 858.3 284.9 834 294.7 820.2C294.7 820.2 267.8 844.2 270.6 870L268.7 844.8C256.8 859 258 875.6 258 875.6C258 866.7 255.8 858.7 254.1 853.7C251.8 847.2 251.1 840.2 251.8 833.3C253.4 817.3 259 797.7 259.4 796.3C256.3 803.7 250.7 811 250.7 811L248.1 786L244.6 720.2C244.4 716.7 244.1 713.3 243.7 709.9L239 673.5C238.6 670.6 238.4 667.6 238.3 664.6L237 630.5C236.8 625.4 235.8 620.4 233.9 615.6L229.3 603.9L235.2 607.7L235.4 607.1C236.4 604 236.5 600.6 235.7 597.5C238.1 599.7 240.9 601.5 243.9 602.8C246.9 604.1 250.1 604.8 253.3 605L255.4 605.1L256.1 602.7C258.2 595.4 258.9 587.7 258.2 580.1C260.7 580.9 263.3 581.2 265.8 581.2C268 581.2 270.2 580.9 272.3 580.4L273.5 580.1C273.7 579.1 273.7 578.1 273.7 577C273.7 572.8 272.3 568.7 269.8 565.2L265.3 559.2C275.2 549.6 275.9 536.8 275.9 536.8C277.3 537.4 278.9 537.7 280.4 537.7C281.5 537.7 282.7 537.5 283.8 537.2L285.1 536.8V534.8C285.1 531.7 284.1 528.6 282.1 526.2C283.6 526.6 285.2 526.8 286.8 526.8C289.9 526.8 292.9 526 295.6 524.5L298 523.2C297 519.6 295 516.5 292.4 514.1C289.8 511.6 286.6 509.9 283 509L282.1 508.8C283.8 507.7 285.3 506.4 286.5 504.8C287.7 503.2 288.5 501.4 289 499.4L289.1 498.9L278.9 495.6C280.8 494.4 282.5 493 284.1 491.4L285.2 490.3L283.6 490C279.4 489.3 275.1 489.4 271 490.3L263.9 483.2C263.6 482.9 263.5 482.5 263.7 482.1C264.6 480.2 265.1 478.2 265.1 476.2C265.1 475.2 265 474.2 264.8 473.2C263 472.7 261.2 472.4 259.3 472.4C257.9 472.4 256.5 472.5 255.1 472.8L253.5 473.1L253.9 471.6C254.8 468.1 254.2 464.3 252.2 461.2L251.2 460.9C247.7 459.6 243.7 459.7 240.3 461.2C240.3 461 240.3 460.9 240.3 460.7C240.3 457.8 239.5 455 237.9 452.6L237.8 452.4L236.3 453.4C234.6 454.5 233.3 456.1 232.3 457.9L231.8 456.2C231.2 454.4 230 452.9 228.4 452H227.3C224 452.1 220.9 453.7 218.9 456.2L220.4 436.7C220.5 435.5 221.2 434.4 222.2 433.8L225.8 431.7C224.6 434.5 223.9 437.5 223.9 440.5C223.9 441.3 223.9 442.1 224 442.9L224.2 444.7C225.9 444.4 227.5 443.9 229 443C230.5 442.2 231.8 441.1 232.9 439.8L233.4 439.3V439.4C233.2 441.5 233.7 443.6 234.7 445.4H234.8C237.1 445.5 239.4 445 241.4 444C241.4 445.6 241.7 447.1 242.2 448.6C242.7 450.1 243.5 451.4 244.5 452.6L245.7 454.1H246.5C252.9 454.3 259.2 452.2 264.4 448.3L264.1 454.6C263.8 459.8 265.1 465 267.8 469.5L270.4 466.9C271.7 465.6 273.4 464.9 275.3 464.8L278.8 464.7L281.1 476.4C281.7 478.2 282.6 479.8 283.8 481.2C285 482.6 286.5 483.7 288.2 484.5L295.1 487.7L295 483.1C294.9 480.4 295.5 477.8 296.7 475.4L298.7 471.6L301.4 474.8C303 476.7 304.5 478.8 305.8 480.9L306.3 481.8C309.2 486.3 310.9 491.5 311.4 496.8L313 514L315 552.2C315.3 558.7 315.2 565.3 314.5 571.8L313.8 578.8C313.6 580.9 313.5 582.9 313.5 585L313.3 603.5C313.3 605.4 313.3 607.4 313.4 609.3L316.6 672.3V698C316.6 700.8 316.5 703.6 316.4 706.4L312.5 780C312.4 782.8 312.3 785.5 312.4 788.3L314.5 844.4C314.9 854.3 312.9 864.2 308.7 873.2L302.8 886C308.7 878.1 303.7 841.4 303.7 841.4ZM326.8 279.4C326.2 281.1 325.8 282.8 325.5 284.6L324.4 291.2C324.3 291.9 323.8 292.5 323.2 292.8C322.8 293 322.4 293.3 322 293.6L321.9 293.7C321.5 293.9 321.1 293.9 320.8 293.6L318.3 291.1C317.4 290.2 316.7 289.1 316.2 288L314.8 284.7C314.3 283.5 314.3 282.2 315 281.1L316.8 277.7C317.3 276.8 317.3 275.7 316.8 274.8L316.7 274.7C315.9 273.2 315.7 271.5 316.1 269.8L316.4 268.4C316.9 266.5 317.6 264.7 318.7 263.1L320.9 259.6L322.7 264.5C323.2 266 323.8 267.5 324.5 268.9L326.1 272.3C326.6 273.3 326.9 274.3 327.1 275.4C327.2 275.9 327.2 276.4 327.2 276.9C327.2 277.6 327.1 278.5 326.8 279.4ZM338.8 107.1C337.7 104.2 335.7 101.6 333.1 99.9L327.8 96.4C325 94.5 323.2 91.4 323 88V87.7C322.8 83.9 321.4 80.3 319 77.4L307.5 62.9C306.5 61.6 305.3 60.5 304 59.4L301.9 57.8C300.8 56.9 300.1 55.5 300.1 54V50.9L300.6 51.2C304.8 54 309.5 56.2 314.4 57.5H314.5L314.9 56.8C317.1 52.7 317.8 47.9 316.9 43.3L317.4 43.5C322.3 45.9 327.7 46.8 333.1 46.3C333.3 45.2 333.4 44.1 333.4 43C333.4 40.5 332.9 38 331.9 35.7L331.8 35.5C333.1 36.6 334.7 37.3 336.4 37.3H337.2C338.3 34.6 338.9 31.8 338.9 28.9C338.9 28.1 338.9 27.4 338.8 26.6V26.2C340.7 28.8 343 31 345.6 32.7L346.8 33.5L349.8 31.1C351.2 29.9 352.5 28.6 353.6 27.1L355.9 23.9L358.5 29C360.7 33.4 361.9 38.2 361.9 43.1V56.4C361.9 59.4 360.7 62.4 358.5 64.5L358.3 64.7C356.3 66.7 354.8 69 353.8 71.5L348 86C346.9 88.7 346.1 91.5 345.5 94.4L344.5 100C344.2 101.7 343.6 103.3 342.8 104.8L339.9 110.2L338.8 107.1ZM442.9 734.8L441.2 766L438.9 807.1C438.6 812.7 438 818.3 437.2 823.8L434.9 839.9C433.4 850.6 432.8 861.3 433.4 872.1L434.7 899.4C434.7 899.4 428.9 890.7 422.3 890.4C422.3 890.4 432.2 904.7 433.7 916.9C433.7 916.9 434.5 944.6 427.3 950.9C427.3 950.9 421.4 936.3 423.3 925.2C423.3 925.2 411.9 929.1 405.9 945C406.5 943 414.4 917.2 404.9 901.4C404.9 901.4 395.4 910.8 400.1 931.7L392.3 909.4C390.4 904.1 388.9 898.6 387.8 893L385.7 882.2C385.5 881 384.5 880.2 383.4 880C380.5 879.4 375.2 875.2 374.7 852.5L372.7 816.4L372 809.5C371.6 805 370.3 800.6 368.3 796.5L368.2 796.4C366.7 793.3 365.8 789.9 365.7 786.4C365.3 776.6 364.5 755.1 364 744C363.8 739.4 364.6 734.8 366.2 730.5L368.5 724.5C369.5 721.8 369.4 718.8 368.1 716.3L368 716C365.3 710.7 361.9 705.8 358 701.3L355.4 698.3C353.2 695.8 352.4 692.4 353.4 689.2L354.6 685C356.1 680.1 356.7 675 356.4 669.9L356.2 664.6C356.1 663.4 356.1 662.2 356.1 660.9L356.2 642L356 604.2L353.8 558.6L351.8 523.7L351.2 508.9C351 503 350.4 497.1 349.4 491.3L348.4 484.8C347.8 480.8 346.2 477 343.7 473.8L342.4 472C341.6 470.9 341.1 469.6 341 468.2L340.4 459.1L348.5 468.2C349.1 468.8 349.9 469.2 350.7 469.2C351.8 469.2 352.9 469.6 353.8 470.3L353.9 470.5C355.8 473.3 358.4 475.5 361.5 476.7C362.8 475.4 363.9 473.9 364.7 472.2C365.5 470.6 366.1 468.8 366.4 467L366.6 465.5C367.8 466.7 369.1 467.6 370.6 468.3C372.1 468.9 373.7 469.3 375.4 469.3H375.9C377.4 466.7 378.2 463.8 378.2 460.9C378.2 460.5 378.2 460.2 378.2 459.8L377.3 446.5L378.2 447.2C381 449.4 384.3 450.9 387.8 451.5L388.2 450.9C389.7 448.5 390.4 445.7 390.2 442.9L390.6 443.4C393.4 447 397.5 449.4 401.9 450.2C402.4 447.9 402.6 445.6 402.6 443.2C402.6 440.3 402.2 437.4 401.5 434.6L400 429.1L400.8 430.4C403.2 434.6 407.1 437.8 411.6 439.4L412.6 438.7C416 436.4 418.4 432.9 419.5 429C419.7 431.3 421.6 433 423.9 433L422.5 447C421.7 454.8 421.9 462.7 423.1 470.4L428.9 509.3L429.8 518.8C430.9 529.7 430.9 540.7 429.8 551.6L426.9 581.1V611.9C426.9 621.7 428.2 631.4 430.9 640.8L435.3 656.7C437.3 663.9 438.7 671.4 439.5 678.9L442.2 705.5C443.2 715.1 443.4 725 442.9 734.8ZM460.3 451.8L461.6 454.8C464 460.4 464.7 466.6 463.6 472.6L463.5 473.1C462.7 477.1 462.3 481.1 462.4 485.1L462.6 508.4C462.6 512.4 462.9 516.4 463.3 520.4L469.9 580.8C470.7 588.1 471.1 595.4 471.1 602.7V633.6C471.1 641.3 471.9 649 473.3 656.6L474.9 664.5C476.4 672.2 476 680.1 473.7 687.6L463 722.1L462.7 683.6L462.9 666C463 650.2 460.5 634.4 455.5 619.4L454 614.8C452.8 611.2 452.1 607.5 451.9 603.7L451.4 591.8C451.3 588.6 451.9 585.5 453.4 582.6C455.1 579.4 455.9 575.8 455.9 572.3C455.9 570.9 455.8 569.5 455.5 568.1L450.8 543.6C449.4 536.4 448.6 529.2 448.3 521.9L447.5 502.9C447.2 496.6 445.6 490.5 442.8 484.9L441.2 481.7C439.5 478.4 438.8 474.7 439.1 471L439.8 462.7C440.1 459.1 440.9 455.5 442.2 452.1C443.6 448.2 447.3 445.8 451.3 445.8C451.9 445.8 452.6 445.9 453.2 446C454.8 446.3 456.3 447 457.5 448C458.6 449 459.6 450.3 460.3 451.8ZM465.1 256.6L458.7 263L459.9 240L465.7 253.7C466.1 254.8 465.9 255.9 465.1 256.6ZM504.5 85.5C503.7 89.3 501.9 92.7 499.2 95.4L497.2 97.4L496.9 96.9C494.6 93.2 491.5 90 488 87.5L487.7 87.3L486.8 88.2C483 92 479.9 96.5 477.8 101.5L477.4 102.5C475.9 100.9 474.3 99.5 472.5 98.4C470.7 97.2 468.8 96.3 466.7 95.6L465.7 95.3L464.3 96.4C461.5 98.6 459.3 101.3 457.8 104.5C457.2 104.5 456.6 104 456.6 103.3V71.5C456.6 69.3 458.5 67.6 460.7 67.8C461.9 67.9 463.1 68.4 464 69.1C465 69.8 465.7 70.8 466.2 71.9C466.8 73.4 468 74.5 469.4 75.2L473.4 77.2C475.4 75.4 476.9 73.2 478 70.8C479.1 68.4 479.6 65.8 479.7 63.1V60.8L480 61.2C483.3 65.5 488 68.6 493.3 70L494.4 69C496.7 66.7 498.3 63.7 498.8 60.5L509.7 59.1L504.5 85.5Z" fill="#050505"/>
<path d="M1226.2 64.1C1226.2 64.1 1223.2 69.5 1223.5 72.5L1223.8 75L1224 74.8C1227.2 72.7 1230.8 71.4 1234.6 71.2V73.2C1234.6 78.9 1235.5 84.5 1237.3 89.9L1237.7 91L1244.6 85.2C1247.5 82.8 1250.8 80.9 1254.4 79.8C1253.8 83.2 1252.3 86.4 1250 89.1L1249.5 89.6H1249.9C1252.9 89.3 1255.9 89.9 1258.5 91.4C1256.2 93 1255.1 95.8 1255.6 98.5L1256.5 103.3C1258.9 99.4 1262.5 96.5 1266.8 94.9L1267.1 94.8V101.4C1267.1 103 1266.6 104.6 1265.7 105.9L1263.8 108.6C1267.7 108.1 1271.7 109 1275 111.1H1275.1L1268.8 120.2L1272.9 119.4C1275.8 118.8 1278.7 118.8 1281.6 119.2L1288.2 120.2L1287.8 121.4C1286.7 124.6 1286.7 128 1287.8 131.2L1288.9 134.4L1289.5 133.8C1291.8 131.5 1294.5 129.6 1297.5 128.2L1299.5 127.3C1299.5 130.2 1300.1 133 1301.2 135.7L1301.6 136.5L1301.7 136.4C1304.1 134.9 1306.4 133.1 1308.4 131V134.5C1308.4 138 1309.2 141.5 1310.8 144.6C1316.3 143.3 1321.4 140.9 1325.8 137.4L1326.2 137.1V138.6C1326.2 145.7 1329 152.5 1334 157.5L1334.3 157.3C1337.7 154.2 1340.5 150.5 1342.6 146.3C1344 148.6 1346.3 150.2 1348.9 150.9L1349.7 151.1C1351.3 149 1352.5 146.7 1353.2 144.2L1353.4 143.6L1356.9 148.4L1360 152.7L1363.5 150.3C1368.4 146.9 1372.3 142.3 1374.8 136.9C1376.4 140.7 1379 144 1382.2 146.5L1382.9 147.1L1385.6 144.4C1388.7 141.3 1390.4 137.1 1390.4 132.8C1392.1 134.9 1394.1 136.7 1396.3 138.2L1396.7 138.5L1397.5 137.9C1399.1 136.6 1400.4 135 1401.3 133.2L1401.4 133.3C1403.4 135.6 1406.2 137.1 1409.3 137.5L1410.9 137.7L1411.4 135.6C1411.8 133.8 1412.9 132.3 1414.5 131.3L1420.5 127.7C1421.4 127.2 1422.5 127.1 1423.5 127.5L1424.6 128L1424.7 126.6C1424.9 123.6 1423.8 120.6 1421.5 118.6L1431.3 121.9C1433.8 122.7 1435.9 124.3 1437.5 126.3C1438.6 127.7 1439.7 129 1440.9 130.2L1456.8 146.1C1457.5 146.8 1458.1 147.6 1458.5 148.5L1459.3 150C1459.7 150.8 1459.8 151.6 1459.6 152.5V152.7C1459.2 154.8 1459.6 157 1460.9 158.7C1460.9 158.7 1460.9 158.8 1461 158.8C1463.3 161.9 1465.3 165.3 1466.9 168.8C1467.8 170.8 1468.8 172.9 1469.4 174.1C1469.6 174.6 1469.3 175.1 1468.8 175.1L1463.4 175C1462.4 175 1461.5 174.8 1460.5 174.5L1454.6 172.4C1453.6 172.1 1452.8 171.3 1452.4 170.3C1451.8 168.8 1450.8 167.4 1449.7 166.2L1449 165.3C1447.9 164 1447.4 162.3 1447.7 160.6L1448.5 155.4L1443.8 160.1C1442.7 161.2 1442.1 162.6 1441.9 164C1439.3 163.2 1437 161.8 1435 160C1433 158.2 1431.5 156 1430.4 153.5L1429.1 150.5L1428.5 152C1426.8 156.6 1425.8 161.4 1425.6 166.2L1425.5 168L1423.2 166.9C1421.9 166.3 1421.1 165 1421.1 163.6L1420 163.8C1417.3 164.3 1415.1 166 1413.8 168.4C1411.9 165.7 1409.4 163.5 1406.5 161.9L1405.3 161.3C1404.2 164.4 1403.7 167.8 1403.7 171.1C1403.7 171.7 1403.7 172.3 1403.8 172.9V173.2C1402.1 171.1 1400.1 169.3 1398 167.7C1395.8 166.2 1393.4 164.9 1390.9 164L1389.5 163.5L1389.2 164.4C1387.3 171.3 1387.2 178.5 1388.9 185.4L1387.2 185.5C1383.7 185.6 1380.2 184.6 1377.3 182.6L1373.7 180.1V180.7C1373.3 185.9 1374.2 191.1 1376.3 196L1374.2 196.1C1369.3 196.3 1364.5 194.4 1361.2 190.9L1357.9 187.5L1356.9 190.7C1355.9 193.8 1355.4 197 1355.4 200.2V206.1C1355.4 207.3 1355.5 208.6 1355.6 209.8L1356.1 215.6L1354.6 215.3C1348.5 214 1342.3 214.3 1336.3 215.9L1335.7 216.1C1337.3 219.2 1339.2 222.1 1341.4 224.7L1341.9 225.3C1333.1 223.3 1322.8 229.9 1322.8 229.9C1322.8 229.9 1335.6 232 1335.6 237.7L1331.3 238.8C1329.7 239.2 1328.3 239.8 1326.9 240.6L1326.6 240.8C1321.2 244 1316.9 248.8 1314.4 254.6L1313.5 256.6L1321.3 254.2C1326.1 252.7 1331.3 253.2 1335.8 255.4L1335.9 255.5C1337.8 256.4 1339.3 258.1 1340 260C1340.2 260.7 1340.5 261.4 1340.8 262.1C1342.1 265.5 1344.1 268.6 1346.7 271.2L1353.3 263.7C1354.3 262.6 1355.8 262.2 1357.2 262.8C1358.9 263.5 1360.8 264.4 1360.5 264.4C1360.4 264.4 1360.2 264.5 1359.9 264.8C1357 267.3 1355.7 271.3 1356.4 275.1L1357 278.4L1367.2 270.7L1368.3 273.2C1369.5 275.7 1371.2 277.9 1373.4 279.6L1376.4 281.8L1376.7 279.2C1377.1 276.5 1378.5 274 1380.7 272.3L1382.8 270.7L1382.9 271.7C1383.5 275.8 1385.3 279.6 1387.9 282.8C1388 282.9 1388 283 1388.1 283.1L1391.1 281.6C1395.6 279.3 1399.4 275.8 1402.2 271.6C1402.9 271.4 1403.6 271.3 1404.3 271.3C1406 271.3 1407.7 271.9 1409 273.1L1415.3 278.9L1415.8 277.9C1417.9 274.1 1418.8 269.8 1418.6 265.4L1419 265.7C1424.1 269.1 1430 271.1 1436.2 271.5L1436.4 270.8C1438.2 265.3 1438.9 259.5 1438.4 253.8C1440.4 257.3 1442.8 260.5 1445.7 263.2C1448.5 266 1451.7 268.4 1455.2 270.3L1456.1 270.8C1458.6 268.8 1460.6 266.3 1462 263.6C1463.5 260.8 1464.5 257.8 1464.8 254.7L1464.9 253.8L1467.8 256.6C1469.6 258.3 1470.6 260.7 1470.5 263.2L1467 373.5V382.1C1467 383.1 1466 383.8 1465.1 383.4L1443 375.9C1442.3 375.7 1441.9 374.9 1442.2 374.2L1444.4 367.2C1444.7 366.1 1445.3 365.1 1446.1 364.3L1450.3 360.1C1451 359.4 1451.1 358.3 1450.5 357.5L1447 352.4C1446.7 351.9 1446.6 351.3 1446.9 350.8L1449.2 346.2H1445.5C1444.6 346.2 1443.6 346.5 1442.9 347L1440.6 348.7C1439.6 349.4 1438.3 349.7 1437.1 349.5L1423.9 347.2C1420.8 346.7 1417.7 346.4 1414.5 346.4H1375.2C1373.3 346.4 1371.5 347.2 1370.2 348.5L1368.2 350.5C1367.3 351.4 1367.1 352.8 1367.8 353.9C1368.9 355.8 1370.3 358.5 1368.9 358C1367.7 357.6 1364.4 357.1 1361.5 356.7C1358.3 356.2 1355.3 355 1352.7 353.2L1352.2 352.8C1349.8 351.1 1347.1 349.8 1344.2 349L1338.6 347.5L1341.7 351.4C1343 353.1 1344.7 354.4 1346.6 355.2L1364.2 362.8C1366.8 363.9 1369.3 365.4 1371.5 367.1L1376.2 370.8C1381.4 374.9 1387.6 377.6 1394.2 378.6L1420.1 382.6C1423.9 383.2 1427.5 384.1 1431.1 385.5L1445.8 391C1448.3 391.9 1450.7 393.2 1452.9 394.7L1470.9 407.1C1473.3 408.8 1474.8 411.6 1474.8 414.5V418.4C1474.8 420.6 1474.6 422.8 1474.2 425L1470.6 443.4C1470.2 445.3 1469.6 447.1 1468.7 448.8V448.9C1466.9 452.5 1463.2 454.8 1459.2 454.8H1457.3C1455.2 454.8 1453.2 454 1451.7 452.5L1447.2 448L1440.4 440.3C1439.4 439.1 1437.9 438.4 1436.4 438.3C1434.5 438.2 1432.9 436.8 1432.4 435L1432.1 433.9C1431.4 431.2 1430.1 428.7 1428.4 426.5C1427.6 425.4 1426.9 424.3 1426.2 423.1L1420.4 413.7L1417.9 416.7L1420.3 423.2H1416.2L1419.4 426.4C1420.3 427.3 1421 428.4 1421.3 429.7L1422.5 434.2C1423.3 437.1 1424.5 439.8 1426.1 442.4L1429.9 448.4C1432.1 451.8 1434.6 455 1437.5 457.8L1447.1 467.2L1451.7 472.9C1452.6 474 1452.9 475.4 1452.7 476.7L1451.9 481.1C1451.3 484.3 1451.1 487.5 1451.2 490.8C1451.4 496.3 1452.1 501.8 1453.1 507.2L1454.1 512.6C1455 517.3 1455.6 522.1 1455.9 526.8L1457 545.9L1454.9 547.5C1451.1 550.3 1449.3 555 1450.2 559.6C1448.4 557.4 1445.9 556.3 1443.2 556.3C1441.9 556.3 1440.6 556.6 1439.4 557.2L1438.5 557.6L1439.6 561.1C1440.8 565 1443.5 568.2 1447.2 570.1L1429.6 590.5C1429.6 587.6 1428.9 584.7 1427.7 582.1C1426.5 579.5 1424.8 577.1 1422.6 575.1L1420.4 573.1L1419 576.1C1416 582.6 1415.8 590.1 1418.5 596.8C1416.1 596 1413.6 595.6 1411.1 595.6C1407.8 595.6 1404.5 596.3 1401.4 597.8L1400.2 598.4L1401.5 600.8C1403.9 605.4 1407.6 609.2 1412 612L1410.7 612.6C1403.5 615.8 1397.3 620.8 1392.6 627.1L1395 629.5C1398.7 633.2 1403.7 635.3 1408.9 635.3L1403.5 642.9C1402.6 644.1 1401.1 644.6 1399.7 644C1397.2 642.9 1394.5 642.4 1391.8 642.4C1388.4 642.4 1384.9 643.3 1381.9 645L1382.3 645.7C1384.2 649.4 1387.3 652.4 1391.1 654.2L1387 658.6C1382.6 663.2 1379.7 669.1 1378.6 675.4L1379.8 675.5C1383.2 675.9 1386.6 675.4 1389.8 674.1V680.6C1389.8 689.2 1391.1 697.8 1393.8 706.1L1394 706.8L1400.9 705C1411.1 702.3 1420.5 697.1 1428.1 689.8C1427.5 691.2 1427.2 692.7 1427.2 694.2C1427.2 696 1427.6 697.8 1428.5 699.5L1429.2 700.7C1431.6 699.9 1433.9 698.7 1436 697.2C1438.1 695.7 1439.9 693.9 1441.4 691.8L1442.9 689.8L1442.1 695.3C1440.8 704.1 1442.4 713 1446.6 720.8L1449.8 719.6C1452.5 718.6 1454.7 716.7 1456.2 714.3L1456.9 715.6C1458 717.8 1458.6 720.2 1458.6 722.6V779.5C1458.6 781.7 1458.5 783.8 1458.4 786L1455.3 835.4L1452.2 895.9L1450.4 939.9C1450.3 942.9 1450.3 946 1450.5 949L1451 957C1451.2 959.5 1450.6 962 1449.5 964.2L1446.6 969.8C1445.8 972.3 1445.4 974.8 1445.4 977.4V988.4C1445.4 995.3 1444.1 1002 1441.5 1008.4L1434.2 1026.4L1433.6 1017.6C1433.2 1011.4 1433.5 1005.1 1434.6 999L1434.8 998.1C1435.4 994.6 1435.6 991.1 1435.3 987.6L1434.7 980.4L1429.1 992.9V982.4C1429.1 977 1428.5 971.6 1427.2 966.4L1424.5 955.4L1418.6 961.3C1405.5 974.4 1395.7 990.5 1390 1008.2L1385.7 1021.8L1368.8 985C1365.4 977.7 1361.4 970.8 1356.6 964.3L1351.5 957.4L1349 982.6C1348 993 1348.6 1003.5 1350.9 1013.6L1354.3 1028.6L1347.7 1022L1351.3 1040.6L1346.6 1046.3C1339.2 1055.2 1330 1062.6 1319.7 1067.8L1305.4 1075.1L1310.9 1060.8C1315.9 1047.9 1319.1 1034.4 1320.4 1020.7L1320.7 1017.2L1316.6 1022.5C1310.2 1030.8 1302.9 1038.5 1294.9 1045.3L1284.2 1054.4C1280.3 1047.3 1278 1039.5 1277.2 1031.5L1272.7 981.9L1246.9 1028.7C1244.1 1033.7 1241.9 1039 1240.1 1044.5C1238.4 1050 1237.2 1055.6 1236.6 1061.3C1227.2 1045.2 1199.1 1038.1 1199.1 1038.1C1200.1 1066.7 1212.4 1080.1 1212.4 1080.1H1920V800.1L1913.8 815.2C1913.4 816.3 1913.1 817.4 1913.1 818.5V826.8C1913.1 827.3 1912.8 827.8 1912.4 828.1L1909.2 830.1C1907.3 831.3 1906.2 833.5 1906.4 835.8L1908.6 855.4C1907.6 849.3 1894 844.3 1893.5 844.1C1899.2 847.9 1897.6 859.4 1897.6 859.4C1896.9 863.2 1895.7 866.9 1893.9 870.3C1892.1 873.7 1889.8 876.8 1887.1 879.6C1883.2 864.8 1866.1 851.8 1866.1 851.8C1871.1 866.3 1848.8 897.7 1842.8 905.8C1842.4 906.5 1842 907.1 1841.4 907.6C1841.6 907.4 1842 906.7 1842.8 905.8C1847.1 898.2 1845.7 879.8 1845.7 879.8C1838.7 898.3 1830.2 895.7 1830.2 895.7L1832.9 863.4C1833.1 860.9 1833.3 858.4 1833.3 855.9L1834.2 823.9C1834.2 823.1 1834.6 822.3 1835.1 821.7C1837.2 819.3 1839.2 810.6 1839.3 810.1C1837.3 815.2 1834.2 816.4 1834.2 816.4V812.3L1839.5 768.6L1844.2 735.4C1845.2 728.4 1845.6 721.4 1845.4 714.4L1844.7 687.1C1844.5 677.3 1843.3 667.5 1841.3 657.9L1840.5 654.3C1839 647 1835.9 640.1 1831.6 634.1L1829.2 630.7C1826.5 626.9 1824.5 622.6 1823.3 618.1L1818.3 599.3C1817.9 598 1818 596.6 1818.6 595.4L1819.7 592.8C1820.3 591.4 1820.5 589.9 1820.4 588.4L1819.8 582.4C1819.5 579.6 1818.9 576.8 1817.9 574.2L1814.2 564.1C1812.9 560.6 1812.8 556.8 1813.8 553.3L1817.6 540L1822.9 518.5C1824.1 513.5 1825 508.4 1825.5 503.3L1829.3 463.8C1830 456.6 1832.7 449.7 1837.1 443.9L1845.2 433.2C1847.4 430.3 1849.5 427.2 1851.4 424L1859 411.3C1861.3 407.5 1863.3 403.5 1865 399.4L1868.4 391.3C1869 389.9 1869.6 388.5 1870.4 387.2L1879.8 369.3C1881 367 1881.9 364.5 1882.6 361.9L1882.9 360.7C1883.4 358.5 1884.3 356.3 1885.4 354.3L1887.2 351.1C1889.7 346.6 1891.5 341.8 1892.4 336.7L1893.3 331.8C1893.8 328.9 1894.7 326.1 1895.8 323.4L1897.9 318.6C1899.6 314.6 1900.7 310.4 1901 306.1L1901.4 301.3C1901.6 298.3 1902.1 295.3 1902.8 292.4L1906 279.5C1906.4 278 1906.8 276.4 1907.3 274.9L1911.1 263.8C1912.6 259.3 1913.6 254.6 1913.8 249.8L1914.7 233.6C1914.8 230.8 1915.3 228 1916 225.3L1920.1 209.5V-1.22041e-05H1701.7L1703.2 9.29999L1692.5 6.49999L1692.6 6.99999C1693.2 10.1 1692.7 13.3 1691 15.9L1678.9 10.7C1676.3 9.59999 1673.5 8.99999 1670.6 8.99999H1664.2C1664.2 7.49999 1664 5.99999 1663.5 4.59999C1663 3.19999 1662.4 1.89999 1661.5 0.699988L1661 -0.100012H1653.9L1652.2 4.39999L1651.7 3.99999C1650.5 2.99999 1649.8 1.49999 1649.9 -0.100012H1635C1636.2 1.19999 1637.2 2.69999 1637.8 4.39999C1638.5 6.09999 1638.8 7.79999 1638.8 9.59999V11.6C1637 11.5 1635.2 11 1633.7 10.2C1632.1 9.39999 1630.7 8.19999 1629.6 6.79999L1628.1 4.89999L1627.9 8.29999C1627.7 11.4 1628.2 14.6 1629.4 17.6L1631.5 22.8L1631.2 22.9C1627 23.8 1622.6 23 1619.1 20.7L1616.5 19C1616.7 21.4 1617.3 23.7 1618.3 25.8L1619.8 29L1616.6 28.5C1613.9 28.1 1611.6 26.6 1610 24.4L1608.1 21.7C1605.9 24.7 1604.2 28.1 1603 31.7L1601.2 37L1599.1 36.4C1597.3 35.8 1595.4 35.1 1593.7 34.1L1588.6 31.4L1588.2 33.3C1587.6 36.4 1587.7 39.7 1588.5 42.8L1589.1 45.2L1581.9 47.2L1581.1 29.8V12.9L1589 20.1C1589 20.1 1593.6 22.7 1592.6 21.4C1591.6 20.1 1592.9 9.69999 1592.9 9.69999L1600.3 9.89999L1600.8 5.79999H1605.2L1613 -1.22041e-05H1498.1L1495 2.29999C1497.5 4.19999 1500.5 5.19999 1503.6 5.19999C1504.7 5.19999 1505.7 5.09999 1506.8 4.79999L1508.5 4.39999C1507.1 5.19999 1505.8 6.19999 1504.8 7.39999C1503.7 8.59999 1502.9 9.99999 1502.2 11.5L1501.7 12.6H1501.8C1505.3 13.5 1509 13.6 1512.6 13L1514.7 12.6C1513.8 14.3 1513.4 16.1 1513.4 17.9C1513.4 19.1 1513.6 20.3 1514 21.4L1514.7 23.7C1517 23.4 1519.2 22.8 1521.3 22C1523.4 21.2 1525.4 20.1 1527.3 18.8L1527.6 18.6C1526.7 20.4 1526.2 22.4 1526.2 24.4C1526.2 25.6 1526.4 26.9 1526.8 28.1L1527.6 30.9L1530.2 29.9C1534.7 28.2 1539 25.8 1542.8 22.8L1546.7 19.7C1547.2 21.6 1548 23.4 1549.2 25C1550.4 26.6 1551.8 27.9 1553.6 28.9L1555.3 29.9L1556.2 28.8C1558.4 25.9 1560 22.7 1560.9 19.3L1562 15.3L1563.9 49C1563.9 49.8 1563.3 50.4 1562.5 50.4H1557.6C1557.4 50.4 1557.2 50.3 1557.1 50.1C1556 47.6 1554.4 45.5 1552.5 43.7C1550.6 41.9 1548.3 40.5 1545.8 39.5C1544.3 41.3 1543 43.2 1542.1 45.3C1541.1 47.4 1540.3 49.6 1539.9 51.9L1539.7 52.8C1539.5 51.7 1539 50.7 1538.4 49.8C1537.8 48.9 1536.9 48.2 1536 47.6L1535.1 47.1L1534.5 49.4C1533.8 51.9 1534.2 54.5 1535.5 56.8L1531 58.9C1526.9 60.9 1523.4 63.9 1520.8 67.7L1534.2 75.5L1531.8 76.7C1530.3 77.4 1529 78.4 1527.8 79.5L1525 82.4L1528 82.3C1530.7 82.2 1533.4 82.8 1535.9 84L1537.3 84.7C1536 86.7 1535.3 88.9 1535.3 91.3C1535.3 91.5 1535.3 91.6 1535.3 91.8V92.9L1542.4 93.5C1544.4 93.4 1546.3 94 1547.9 95.2L1555.4 100.8L1550.3 104C1549.4 104.6 1548.7 105.3 1548.2 106.2L1544.9 112L1547.9 110.5C1550.8 109 1554.1 108.7 1557.3 109.5L1558.4 109.8L1558 111.9C1557.3 115.6 1557.1 119.4 1557.5 123.2L1557.7 124.7L1560.1 123.7C1563.1 122.4 1565.9 120.6 1568.3 118.4L1568.6 132.4C1568.7 135.5 1569.3 138.7 1570.4 141.6L1571.6 144.8C1572.3 146.7 1572.7 148.7 1572.7 150.7V165.1C1572.7 167.7 1572.4 170.4 1571.8 172.9L1570.5 178.7C1570.2 180.2 1569.8 181.7 1569.3 183.1L1557.9 221.8L1552.3 241.2C1551.9 239.8 1551.2 238.6 1550.2 237.7C1549.2 236.7 1548 236 1546.7 235.6C1545.5 236.7 1544.5 238 1543.8 239.4C1543.1 240.9 1542.7 242.4 1542.6 244.1V245.1C1541.6 243.8 1540.3 242.7 1538.9 241.8C1537.5 240.9 1535.9 240.3 1534.3 239.9L1533.2 239.7L1530.5 242.3C1524.9 247.6 1521.8 255 1521.8 262.7C1520.4 261.4 1518.7 260.7 1516.9 260.7C1516 260.7 1515.1 260.9 1514.2 261.2H1514.1L1513.5 263.4C1512.9 265.9 1512.9 268.4 1513.5 270.9L1513 271.2C1509.7 272.9 1506.8 275.4 1504.6 278.5L1506.8 281.3C1508.1 282.9 1509 284.8 1509.5 286.8L1509.9 288.5C1509 288.6 1508.1 289 1507.4 289.6C1506.7 290.2 1506.2 290.9 1505.9 291.8L1505.8 292.1L1509 293.3C1510.8 293.9 1512.5 294.8 1514 295.8C1516.4 297.4 1518.6 299.3 1520.6 301.3L1521.7 302.4C1519.7 303.1 1517.8 304.2 1516.1 305.5C1514.5 306.8 1513.1 308.5 1512 310.3L1511.5 311.2L1513 311.8C1516.1 313 1519.6 312 1521.7 309.4L1519.3 328.1L1518.7 330.5C1518 333.2 1516.6 335.6 1514.6 337.6L1509 343.3C1508 344.3 1507.6 345.6 1507.6 347C1507.6 348.3 1507.2 349.6 1506.5 350.6L1494.5 367.4L1492.7 333.6C1492.7 333.4 1492.7 333.3 1492.7 333.2C1492.7 331 1493.5 328.9 1495 327.4C1496 326.4 1496.5 325 1496.5 323.6C1496.5 323.5 1496.5 323.3 1496.5 323.2C1496.5 323 1496.5 322.8 1496.5 322.6C1496.5 320.7 1497.3 318.8 1498.6 317.5C1500.3 315.8 1501.3 313.6 1501.4 311.3L1503.4 282.2C1503.6 279 1504 275.7 1504.4 272.5L1505.7 263.7C1506.1 261.2 1506.4 258.7 1506.6 256.2L1507.2 249.9L1507.8 243.3H1508.1C1509.8 243.5 1511.4 244.3 1512.5 245.7L1512.7 244.7C1513.4 242 1513.2 239.1 1512.1 236.5L1513.1 236.1C1514.9 235.5 1516.8 235.4 1518.6 235.8L1521.9 236.5L1520.8 234.5C1518.9 231.2 1516 228.6 1512.6 227.1C1514.3 225.2 1516.5 223.9 1518.9 223.1L1520.5 222.6L1519.5 222.3C1515.8 221.3 1512 221.3 1508.4 222.5L1514.6 210.6C1520.6 199.2 1523.7 186.4 1523.7 173.5V148.3C1523.7 142.8 1523.1 137.3 1521.8 132L1515 103.5C1514 99.5 1512.8 95.6 1511.3 91.8L1490.6 40.4C1489.6 37.8 1488.7 35.2 1487.9 32.6L1478.1 -1.22041e-05H1453.3L1459.3 11.6C1460.5 13.9 1461.4 16.3 1462.1 18.8L1465.5 32L1469.4 46.2C1470.2 49.2 1471.7 51.9 1473.9 54.2L1478.1 58.7C1479.7 60.4 1480.7 62.6 1480.8 65L1481.2 72.6C1481.3 73.5 1481.3 74.4 1481.3 75.3V84C1481.3 88.8 1482.4 93.6 1484.4 98L1494.6 120.2L1503 141.3C1504.4 144.8 1504.2 148.7 1502.4 152L1500.7 155.2C1499.1 158.2 1498 161.4 1497.4 164.8L1493.9 183.3L1485.4 174.1L1485 173.6C1482.6 170.6 1480.8 167.1 1479.7 163.3L1477.3 155L1474.8 146.4C1474.2 144.3 1473 142.4 1471.5 140.8L1470.1 139.4C1469.5 138.8 1468.9 138.1 1468.5 137.4L1462.1 128.2C1461.1 126.7 1460.2 125.2 1459.5 123.6V123.5C1458.4 121.1 1456.7 119 1454.6 117.5C1453 116.4 1451.1 115.1 1449.6 114C1449.3 113.8 1449 113.6 1448.8 113.3C1447.8 112.3 1447.2 111 1447.1 109.5C1447.1 109.4 1447 109.3 1447 109.2C1446.2 105.2 1448.4 101 1452.6 100C1452.8 100 1453.1 99.9 1453.3 99.9L1454.1 99.8L1448.8 94.9C1453.5 91.9 1459.4 91.4 1464.4 93.7L1467.1 94.9C1466.2 87.4 1463.5 80.2 1459.1 73.9L1458.5 73.1C1461.8 72.3 1465.3 72.6 1468.4 73.9L1470.4 74.7L1465.3 65.4C1464.6 64.1 1463.7 62.9 1462.7 61.9L1460.3 59.5C1459.2 58.4 1458.5 56.8 1458.4 55.2L1458.2 52.2C1458 49.1 1459.1 46 1461.3 43.7L1464.3 40.4L1459.5 37.9C1456.1 36.2 1454 32.7 1454.1 29C1454.2 25.6 1454.7 22 1454.9 19.7L1455.1 16.9L1454.8 16.8C1454 16.7 1453.3 16.6 1452.5 16.6C1450.3 16.6 1448.2 17.1 1446.2 18.2L1445.8 17.7C1444 15.8 1442.6 13.7 1441.4 11.4C1440.3 9.09999 1439.5 6.59999 1439.1 4.09999L1438.2 4.29999C1436 4.79999 1434 5.89999 1432.4 7.39999C1430.8 8.89999 1429.7 10.9 1429.2 13.1L1412.8 6.29999L1417.4 -0.200012H1210.6L1215.4 6.99999L1213.6 6.19999C1208.4 3.89999 1202.5 3.99999 1197.4 6.29999L1209.3 21.3C1201 24.2 1193.9 29.6 1188.9 36.7L1186.8 39.7L1210.6 44.8L1207.1 49.5C1204.5 53 1203.4 57.4 1204 61.7L1204.8 67.9L1206.6 65.5C1210.3 60.7 1215.3 57.1 1221 55.2L1226.2 64.1ZM1537.3 920.8C1537.3 927.9 1536.4 935 1534.9 941.9L1529 963.3C1524.6 979.5 1521 995.9 1518.4 1012.5L1513.8 1042.1C1513.6 1043.3 1513.2 1044.4 1512.7 1045.5L1510.1 1051L1508.1 1045.6L1503 1050.9C1501 1053 1498.5 1054.4 1495.7 1055.1L1492.4 1055.9C1491 1056.2 1489.8 1055.2 1489.8 1053.8V974.5L1489.3 965.6V965.2C1488.8 956.5 1489.7 947.8 1492.2 939.5C1492.9 937 1493.3 934.5 1493.3 931.9V891.9C1493.3 885.7 1493.7 879.6 1494.6 873.5L1494.8 872.4C1496.1 863.8 1496.7 855.1 1496.7 846.4V826.7C1496.7 823.6 1496.8 820.5 1497.1 817.4L1499.6 786.6C1499.9 782.8 1500.4 779 1501.1 775.2L1502.3 768.4C1504.2 758.1 1505 747.6 1504.8 737.2V737C1504.8 736.2 1505 735.4 1505.3 734.7L1506.5 732.1L1516.4 749.4C1519.3 754.4 1523.3 758.6 1528.1 761.8L1532.9 764.9C1535.1 766.4 1536.5 768.8 1536.5 771.5L1537.1 820.7L1537.4 920.8H1537.3ZM1518.3 723.5L1518.5 723.7C1521.7 725.7 1525.2 727.2 1528.8 728.1C1531.7 724 1533.7 719.2 1534.5 714.2L1534.9 711.6L1536.8 753.3L1533.5 750C1529.1 745.6 1525.5 740.3 1523 734.6L1518.3 723.5ZM1624.4 854.9L1622.8 886.9L1620.1 965.5C1611.2 965.5 1602.4 947.8 1602.4 947.8C1606.2 975 1615 985.6 1615 985.6L1593.7 994.2C1590 995.7 1586.2 996.9 1582.3 997.8L1570.4 1000.5V988C1570.4 983.5 1570 979 1569.3 974.5L1569.1 973.3C1569 972.7 1569.2 972.1 1569.7 971.7C1571.2 970.5 1574.3 967.5 1574.2 963.9C1574.2 963.9 1573.2 965.4 1571.7 966.4C1570.5 967.2 1568.8 966.7 1568.4 965.2L1568.1 964C1567.7 962.8 1567.5 961.6 1567.4 960.3L1565.7 927.3C1565.4 921.8 1565.4 916.3 1565.6 910.8L1567.3 871.7V801.6C1567.3 796.5 1568.6 791.4 1571.2 787L1575.1 780.2C1579.4 772.7 1582.6 764.6 1584.6 756.1L1585.3 753.1C1586.3 748.5 1588.2 744.1 1590.9 740.3L1604.7 720.6V722.1C1604.6 728.4 1606.4 734.7 1609.8 740L1612.9 738.9C1616.2 737.8 1619.2 735.9 1621.7 733.5L1625 736.8C1626.4 738.2 1627.1 740.1 1627.1 742.1L1624.4 854.9ZM1567.6 746.3V698C1568.5 700.5 1570.1 702.7 1572.1 704.5L1572.3 704.6L1572.7 704.5C1574.7 703.7 1576.4 702.3 1577.4 700.4C1578 702.2 1578.8 703.9 1579.8 705.5C1581.4 704.6 1582.8 703.4 1584.1 702.1L1584.2 702.7C1584.4 704.7 1585.1 706.6 1586.2 708.3L1586.6 708.2C1589 707.8 1591.3 706.7 1593 705L1593.3 706.5C1593.5 707.4 1593.3 708.4 1592.7 709.2L1567.6 746.3ZM1650.9 550.8L1641.5 551.6L1618.3 554.7C1619.9 553.8 1621.1 552.6 1622.1 551.2C1623 549.7 1623.6 548 1623.6 546.3V546.1L1622.6 546.3C1618.8 547 1615.3 548.8 1612.5 551.4L1612 549.7C1611.1 546.4 1609.3 543.3 1606.8 540.9L1605.9 541.3C1603.6 542.4 1601.5 543.9 1599.9 545.9V543.6C1599.9 539 1599.2 534.5 1597.9 530.1L1597.7 529.6L1587.5 529.8C1585 529.6 1582.6 529 1580.3 528C1578.1 527 1576 525.6 1574.2 523.8L1567.1 516.7C1569.6 515.8 1571.2 513.5 1571.2 510.9V509.7L1567.8 510.5C1565.9 511 1564.5 512.5 1564.1 514.3L1562.5 512.1C1560.8 509.8 1558.6 507.9 1556.2 506.3L1555.8 507.6C1555.3 509.5 1555.7 511.5 1556.9 513H1554.2C1551.7 513 1549.3 514 1547.5 515.8L1539.2 524.1C1538.3 522.5 1537 521.2 1535.6 520.3C1534.1 519.3 1532.4 518.7 1530.7 518.5L1529.7 518.4C1528.5 523.9 1528.8 529.6 1530.6 535C1531 536.1 1531.4 537.3 1531.6 538.5L1532.4 541.9L1532 541.4C1530.6 539.7 1528.2 539.2 1526.3 540.2C1527.1 543.1 1528.6 545.8 1530.7 548L1521.9 554.5C1518.1 557.3 1513.6 559 1508.9 559.4V546C1508.9 541.3 1508.6 536.6 1508 531.9L1507.7 529.7C1507.3 526.6 1507.1 523.5 1507.1 520.3V518.3C1507.1 514.2 1506.8 510.1 1506.1 506L1505.6 502.6C1505 498.9 1504.7 495.3 1504.7 491.6V485.8C1504.7 483.4 1505.4 481.1 1506.6 479.1L1509.3 474.8C1510.5 472.9 1511.1 470.8 1511 468.6L1510.3 442.4C1510.2 437.4 1510.4 432.4 1511 427.4L1513.3 408.9C1513.5 407.6 1513.1 406.3 1512.3 405.2C1511.4 403.9 1511 402.4 1511 400.9C1511 400.5 1511 400.1 1511.1 399.7C1512 393.7 1514 387.9 1517 382.5L1526.8 365.1C1528.4 362.3 1530.1 359.6 1531.9 357L1537 349.8C1538.8 351.2 1540.9 352.2 1543.1 352.8L1545.2 353.3C1546.2 351.1 1546.7 348.6 1546.7 346.2V345.8L1550.3 344.7V346.5C1550.3 349.8 1551.7 353 1554.2 355.2L1559.2 352.2C1560.3 352.2 1561.3 352.5 1562.2 353C1563.1 353.5 1563.8 354.3 1564.3 355.2C1565.1 356.6 1566.1 357.9 1567.2 358.9C1568.4 359.9 1569.8 360.8 1571.3 361.3L1575.4 362.8L1576.2 362.1C1578.7 360 1581 357.7 1583 355.2C1585.8 357.9 1588.8 360.4 1592 362.5L1595.4 364.7C1597.4 362.7 1599.2 360.4 1600.7 358C1602.2 355.6 1603.4 353 1604.2 350.2L1604.4 349.6C1604.4 352.8 1605 356 1606.3 358.9L1606.7 359.9C1609 358.2 1610.9 356.2 1612.5 353.9C1613.6 352.2 1614.5 350.3 1615.1 348.4L1617.2 352.6L1617.6 352C1619 349.9 1619.8 347.4 1619.8 344.8V344.3C1619.8 343.5 1620 342.8 1620.4 342.1L1624.1 336.4C1624.3 336.1 1624.5 336 1624.8 335.9C1625 335.9 1625.1 335.9 1625.2 335.9C1626.3 335.9 1627.3 336.4 1628 337.4L1631.6 342.9C1633.1 345.1 1634.1 347.6 1634.8 350.1L1635.8 354.1C1636.1 355.2 1636.3 356.3 1636.5 357.4L1639.2 372.1C1639.5 373.7 1639.7 375.3 1639.9 376.9L1642.8 402.7C1643 404.1 1643.6 405.3 1644.5 406.3L1647.6 409.3C1650.4 412.1 1652.1 415.8 1652.4 419.7L1654.1 439.9C1654.1 440 1654.1 440.2 1654.1 440.3C1654.1 441.3 1653.8 442.3 1653.3 443.1C1651.8 445.3 1650.7 447.8 1649.9 450.3C1649.1 452.8 1648.7 455.5 1648.6 458.2C1648.5 459.5 1648.6 460.9 1648.7 462.2L1652.9 507.2L1655.1 550.6C1653.8 550.6 1652.4 550.7 1650.9 550.8ZM1657.2 349.1C1657.2 352.6 1656.9 356.2 1656.4 359.6L1653.8 375.5L1650 366.2C1649.1 364 1647.8 362.1 1646.2 360.4L1644.8 359C1643.1 357.3 1642.2 355.1 1642.2 352.7V345.5C1642.2 344.4 1642 343.3 1641.6 342.3C1641.2 341.3 1640.6 340.4 1639.8 339.6C1638.3 338.1 1637.1 336.2 1636.4 334.1L1634.1 327.4C1635 327.5 1635.8 327.6 1636.7 327.6C1638.1 327.6 1639.6 327.4 1641 327H1641.1C1641.5 325.2 1641.7 323.3 1641.7 321.4C1641.7 320.6 1641.7 319.7 1641.6 318.9L1641.4 317.1C1641.6 318.5 1642.1 319.8 1642.7 321C1643.4 322.2 1644.2 323.4 1645.2 324.3L1646.2 325.3C1647.5 324.4 1648.6 323.2 1649.3 321.9C1650.1 320.6 1650.5 319 1650.7 317.5L1650.8 316.8L1651.4 319.3V319.5L1655.4 334.8C1656.6 339.3 1657.2 344 1657.2 348.7V349.1ZM1660.7 284.8C1660.7 286.6 1659.8 288.3 1658.4 289.4L1657.1 290.4C1656.9 290.7 1656.5 290.9 1656.2 291.1L1657.1 290.4C1657.5 290 1657.7 289.4 1657.7 288.9C1657.7 288.7 1657.7 288.4 1657.6 288.2L1657.3 287.1C1656.6 286.9 1656 286.8 1655.3 286.8C1654.2 286.8 1653.2 287 1652.2 287.5C1652.6 286 1652.7 284.4 1652.7 282.9C1652.7 281.4 1652.5 279.8 1652.2 278.3C1650.6 277.6 1648.9 277.2 1647.1 277.2C1646.8 277.2 1646.5 277.2 1646.1 277.2H1646C1646.4 275.3 1646.7 273.4 1646.7 271.5C1646.7 270 1646.6 268.4 1646.3 266.9L1645.4 262L1639.7 267.6C1635.7 271.6 1630.9 274.6 1625.7 276.7L1622 278.2C1622.2 277 1622.3 275.9 1622.3 274.7C1622.3 272.1 1621.8 269.4 1620.8 267L1619.5 263.8L1613.9 270.7C1611 274.3 1609.1 278.6 1608.6 283.3C1608.5 280.9 1607.7 278.7 1606.4 276.8C1605.1 274.9 1603.3 273.4 1601.1 272.5L1600.6 272.3C1599.9 273.7 1599.6 275.3 1599.6 276.8C1599.6 278.5 1600 280.1 1600.8 281.6L1601.4 282.8L1590.4 274.1C1589 273 1588.1 271.5 1587.8 269.7L1586.8 263.3C1586.2 259.6 1585 256 1583.2 252.6H1582.3C1579.3 252.7 1576.4 253.6 1573.9 255.1L1587.1 215.2C1589.1 209.2 1590.1 202.8 1590.1 196.5V191.4C1590.1 189.8 1590.3 188.2 1590.7 186.6L1593.2 177.4C1594.2 173.5 1594.3 169.4 1593.2 165.5L1590.4 154.8L1585.6 133.1C1585.2 131.5 1585.3 129.8 1585.8 128.3V128.2C1587.4 129.1 1589.3 129.6 1591.1 129.6H1593.4C1593 130.8 1592.8 132.1 1592.8 133.4C1592.8 134.1 1592.9 134.8 1593 135.5L1593.4 137.8L1594.2 137.2C1596.5 135.2 1599.3 133.9 1602.3 133.3L1603.7 133L1603 134.3C1601.8 136.7 1601.1 139.3 1601.1 142V144.3L1606.7 141.4C1606.8 143.4 1607.3 145.3 1608.1 147.1L1610.1 151.7C1611.9 151.2 1613.5 150.4 1614.9 149.3C1616.3 148.2 1617.5 146.8 1618.4 145.3L1619.3 143.8C1619.3 143.8 1624.2 155.6 1629.4 159.3L1630.3 159.9L1630.9 159.7C1633.5 158.7 1635.7 157 1637.4 154.8C1639.2 156.8 1641.3 158.5 1643.6 159.8L1643.8 159.9L1646.7 157C1649.7 154 1652.1 150.5 1653.8 146.6L1653.6 166.5C1653.6 170.7 1652.8 174.9 1651.4 178.8L1650.8 180.6C1649.1 185.2 1648.6 190.2 1649.1 195.1L1652.2 220.7C1652.4 222.5 1652.6 224.3 1652.6 226.1L1653.8 254C1654 257.9 1654.8 261.7 1656.2 265.3L1659.3 273C1660.4 275.8 1661 278.8 1661 281.7V284.8H1660.7ZM1834.9 366.8C1834.9 364.1 1835.1 361.4 1835.4 358.7L1836.1 353L1837.5 342.3C1838.4 343.1 1839.4 343.8 1840.5 344.2C1841.6 344.6 1842.8 344.9 1844 344.9H1848.8L1849 344.5C1851.3 338.5 1851.4 331.9 1849.4 325.8L1853.3 325.9C1856.7 326 1860.1 326.9 1863 328.6L1868.7 331.8L1866 326.1C1864.9 323.8 1863.4 321.6 1861.5 319.8L1861.1 319.4L1866.7 313.8C1868.7 311.8 1871.4 310.7 1874.2 310.7H1880.1L1879.3 307.2C1878.7 304.7 1877.5 302.3 1875.7 300.4C1874.7 299.3 1874.1 297.9 1874.1 296.4C1874.1 296.2 1874.1 296 1874.1 295.8C1874.3 293.4 1875.2 291.2 1876.7 289.3L1879.5 285.6L1877.3 284.8C1874.6 283.9 1871.6 284.5 1869.6 286.6L1865.6 278.9L1868.3 278.1C1869.6 277.7 1870.8 277.3 1872 276.7L1874.2 275.8L1873.8 275.4C1871.1 272.7 1867.6 270.8 1863.9 269.9L1861.5 269.4C1861.9 268.2 1862.9 267.3 1864.1 266.9L1866.9 266L1864.6 265.1C1862.5 264.3 1860.2 264.1 1857.9 264.4L1850.5 258.8C1849.7 258.2 1849.3 257.3 1849.3 256.4V254.4C1849.3 253.6 1849.7 252.8 1850.4 252.4C1852.2 251.3 1853.6 249.7 1854.5 247.9L1850.1 244.6L1851.9 196.3C1852 192.8 1852.6 189.2 1853.5 185.8L1855 180.2C1855 180 1855.2 179.9 1855.4 179.9H1856.5C1857.7 179.9 1858.7 180.6 1859.2 181.7C1860.5 185 1862.6 187.9 1865.3 190.3L1867.2 192L1869.8 188.3C1872.3 184.8 1873.9 180.9 1874.6 176.7L1879 175.9C1882.9 175.2 1886.8 175.5 1890.6 176.8L1893.8 177.9L1893.1 171.9C1892.8 169.1 1893.7 166.2 1895.8 164.2L1896.2 163.8L1902.9 171.2C1903.4 171.8 1903.7 172.6 1903.5 173.4C1903.3 174.4 1903.2 175.5 1903.2 176.6C1903.2 178.2 1903.5 179.8 1904 181.3L1904.1 181.6L1906 180.4C1907 179.8 1908.2 179.8 1909.2 180.3L1905.5 200.1L1905.4 200.8L1902.8 214.6C1902.5 216.1 1902.2 217.5 1901.8 219L1899.9 225.5C1898.7 229.8 1898 234.1 1897.8 238.6L1897.1 262.8C1897 264.7 1896.6 266.6 1895.8 268.3L1894.7 270.7C1893.8 272.6 1893.5 274.7 1893.4 276.8C1893.4 279 1892.9 281.1 1891.9 283.1L1890.2 286.7C1889.6 287.9 1889.3 289.2 1889.3 290.5C1889.3 296.9 1887.9 303.3 1885.2 309.1L1883.9 311.9C1882.7 314.5 1881.8 317.2 1881.1 320L1880.3 323.5C1878.3 332.1 1874.9 340.4 1870.3 348L1856.8 370.3L1832.5 411.2L1834.8 390.5V366.8H1834.9ZM1727.1 146.7L1732.4 136C1733.1 134.6 1734 133.3 1735.1 132.2L1736.9 130.4L1737.8 131.5C1739.8 133.9 1740.9 136.8 1741.2 139.8L1741.4 142.2L1741.7 142C1745.3 139.7 1747.5 135.8 1747.5 131.5C1748.2 134.1 1749.1 136.6 1750.4 139C1751.6 141.4 1753.1 143.6 1754.9 145.6L1755.5 146.3L1755.7 146.1C1760.1 142.5 1763.6 138 1765.9 132.8V132.7L1770 134.9C1770.8 135.3 1771.4 136 1771.8 136.8L1771.9 137C1773.1 139.9 1775.3 142.3 1777.9 144L1778.4 143.7C1781.2 141.7 1783.3 138.9 1784.5 135.6C1784.7 135.3 1785.1 135.1 1785.4 135.1H1787.9L1787.6 136.4C1786.7 140.4 1786.8 144.5 1787.9 148.4L1788.9 148.1C1790.7 147.6 1792.4 146.7 1793.7 145.3C1793.7 145.5 1793.7 145.8 1793.7 146C1793.7 148.6 1794.3 151.1 1795.3 153.4L1795.5 153.7C1797.9 152.5 1800.2 151.1 1802.2 149.3C1804.2 147.5 1806 145.5 1807.5 143.3L1808.1 144.2C1809.7 146.5 1811.7 148.6 1813.9 150.4L1814.3 150.7C1815.5 150 1816.5 149 1817.3 147.9C1818.1 146.8 1818.6 145.5 1818.8 144.1L1818.9 143.5L1821.4 149.3C1821.9 150.6 1822.4 151.9 1822.8 153.2C1822.8 153.4 1822.9 153.6 1822.8 153.8C1822.3 156.3 1822.1 158.8 1822.1 161.4C1822.1 165.7 1822.8 170 1824.2 174.1L1825.7 172.8C1828.3 170.6 1831.4 168.8 1834.6 167.6L1834.1 172.7L1829.4 219.8C1829 224.2 1827 228.2 1823.9 231.3L1818.9 236.2C1818.3 236.7 1817.5 236.8 1816.8 236.4L1813.6 234.3C1811.9 233.2 1810.2 232.3 1808.3 231.7C1806.6 231.2 1805.1 230.5 1803.6 229.6L1800.2 227.5L1801.7 224C1802.6 221.8 1803.1 219.5 1803.1 217.2L1796.9 218C1794 218.4 1791.1 219 1788.3 219.7L1784.6 220.7C1784.4 219.7 1784.3 218.7 1784.3 217.7C1784.3 214.4 1785.2 211.2 1787 208.4L1788.2 206.5L1784.9 206.8C1779 207.3 1773.9 211.1 1771.9 216.6H1769.3L1770.4 212.7C1770.7 211.5 1771 210.3 1771.2 209.1L1771.9 205.4L1770.5 205.7C1765.3 206.6 1760.7 209.5 1757.6 213.8C1755.7 211.6 1753.6 209.7 1751.4 208L1748 205.5C1745.2 207.5 1742.8 210 1740.9 212.9C1739 215.7 1737.6 218.9 1736.8 222.3L1736.7 222.8L1730.1 220.9C1730.1 224 1730.9 227 1732.4 229.7L1733.1 231L1732.2 230.5C1727.8 227.9 1722.6 227.3 1717.7 228.7L1719 236.9C1717.4 235.3 1715.3 234.5 1713.2 234.5C1712.2 234.5 1711.2 234.7 1710.2 235.1L1704.8 237.2L1706.3 237.8C1709.3 238.9 1711.5 241.6 1711.9 244.9L1711.2 244.8C1705.6 243.7 1699.8 244.5 1694.8 247.2L1701.4 251.8L1699.3 252.2C1697.5 252.6 1696 253.6 1695 255L1691.5 259.9L1691.7 245.2C1691.7 243.7 1691.8 242.3 1692 240.8L1693.6 228.5C1694.4 222.3 1697.1 216.5 1701.3 212L1702.8 210.4C1704.1 209 1704.8 207.2 1704.8 205.4V194C1704.8 191.6 1705.2 189.2 1705.8 186.9L1706.5 184.5C1707.5 181.1 1709 177.8 1710.8 174.7L1725 150.6C1725.7 149.4 1726.4 148.1 1727.1 146.7ZM1750.1 406.6L1743.6 403.6C1742.7 403.2 1741.9 402.5 1741.2 401.8C1740.6 401 1740.1 400.1 1739.9 399.1C1738.9 394.8 1736.7 390.9 1733.6 387.8L1729.3 383.5C1725.5 379.7 1722.8 375.1 1721.2 370.1L1720.6 368.2C1720.2 366.8 1720.2 365.3 1720.6 364L1721.8 360L1722.1 360.6C1723.9 364 1726.8 366.6 1730.3 368L1730.9 367.5C1734.1 364.8 1736.4 361.2 1737.5 357.1L1740.8 363C1741.2 363.8 1741.5 364.7 1741.6 365.7V366.6L1742 375C1742.3 378.2 1742.9 381.4 1743.8 384.5L1750.1 406.6ZM1681.3 159.4L1683 140.8V138.5C1683.8 139.6 1684.7 140.5 1685.9 141.2L1687.4 142.1L1686.7 138.2C1686.3 135.9 1685.2 133.8 1683.5 132.1H1683.7C1686.1 131.9 1688.4 131.1 1690.4 129.8L1689.4 129C1688.2 128.1 1686.8 127.6 1685.3 127.7L1690.4 119C1692.5 120.4 1694.9 121.1 1697.3 121.1C1697.6 121.1 1697.9 121.1 1698.2 121.1L1699.4 121C1699.6 120.3 1699.7 119.6 1699.7 118.9C1699.7 117.8 1699.5 116.7 1699 115.6L1698.8 115.2L1700.7 115.9C1702 116.4 1703.2 117 1704.4 117.6L1706.9 119V117.3C1706.9 114.8 1705.9 112.5 1704.2 110.7L1711.6 112.6L1712.4 110.3C1713.1 108.5 1714.2 106.9 1715.7 105.7L1718.9 103.1L1719 104L1719.5 111.2L1720.1 120.6C1720.1 122.2 1720 123.8 1719.8 125.4L1719.1 130.9C1718.8 133.7 1717.7 136.5 1716.1 138.9L1697.2 167.4C1694.4 171.6 1692 176.1 1690 180.8L1681.7 200.6L1681.4 187.8L1680.8 167.9C1681 165.3 1681 162.3 1681.3 159.4ZM1665.1 123.1L1667.2 116.9C1667.3 116.7 1667.6 116.6 1667.8 116.8L1673.4 123.7C1673.7 124.1 1673.6 124.7 1673.1 125L1671 126C1670 126.5 1669.3 127.5 1669.3 128.7V132.3L1666.5 127.7L1665.4 125.8C1664.9 125 1664.8 124 1665.1 123.1ZM1670.2 239.9L1664.8 224.1L1662.4 210C1661.8 206.3 1661.4 202.5 1661.4 198.7L1661.3 195.1C1661.2 190.6 1661.6 186.1 1662.4 181.8L1664.3 171.3C1664.8 168.5 1665.4 165.8 1666.2 163.1L1670.5 147.9C1670.9 146.5 1671.7 145.2 1672.8 144.3L1674.1 143.2L1669.6 198.3C1669.5 199 1669.8 199.6 1670.2 200.1C1671.2 201.1 1671.8 202.5 1671.8 203.9L1671.9 208.8C1671.9 209.7 1672 210.5 1672.2 211.4L1673 215.5C1673.7 219.2 1673.6 222.9 1672.7 226.6L1672.3 228.3L1670.2 239.9ZM1813.5 676.9L1816 705.9C1816.3 709.7 1816.5 713.4 1816.5 717.2V773.2C1816.5 775.1 1816.3 777 1815.8 778.9C1815.3 780.8 1814.6 782.6 1813.7 784.3C1812.5 786.6 1811.6 789.1 1811.1 791.7L1810 797.8L1808.7 805.1L1807.7 812.5C1807.4 814.9 1807 817.2 1806.5 819.6L1797 867.5L1788.7 917.3C1788.2 920.5 1785.7 923.1 1782.5 923.8L1778 924.7C1769.8 926.3 1761.5 926.9 1753.2 926.6L1744.6 926.2C1751.1 913.9 1736.8 890.8 1736.8 890.8C1740.6 913.6 1731.9 920.9 1731.9 920.9C1729.9 920.2 1728 919.1 1726.4 917.6C1724.9 916.1 1723.6 914.4 1722.8 912.4L1722.4 911.5C1716.5 914.8 1710.9 918.8 1705.8 923.4L1703.7 925.2C1701.7 908.9 1717 882 1717 882C1693.8 897 1688.7 929.3 1688.7 929.3V884.1C1688.7 879.3 1687.5 874.7 1685.1 870.6V870.5C1682.8 866.4 1681.2 861.9 1680.3 857.2L1676.6 835.6C1676 832.3 1675.9 828.9 1676.3 825.5L1677.3 815.3V807.7L1677.4 750.6L1680.8 706C1688 708 1694.3 712.2 1698.9 718.1L1699.7 719.1L1702.4 714.7C1704.9 710.6 1706.2 705.9 1706.2 701.1C1706.2 700 1706.1 698.9 1706 697.7C1711.5 701 1717.9 702.7 1724.4 702.5H1724.6L1725.7 700.2C1728.9 693.5 1730.5 686.3 1730.5 679C1730.5 677.2 1730.4 675.4 1730.2 673.6L1736 675.6C1736 670.5 1734.7 665.4 1732.1 661L1730.9 658.9H1731.2C1731.9 659 1732.6 659 1733.3 659C1737.2 659 1741 657.8 1744.2 655.4L1737.3 652.8C1734.9 651.9 1733.2 649.7 1732.9 647.1L1732.5 643.6C1732.1 640.2 1731.2 636.8 1729.7 633.7L1728.5 631.2C1725.8 625.8 1722.6 620.7 1718.7 616L1706.1 600.9L1694.5 586.7C1696.4 586.9 1698.4 586.7 1700.2 586.1L1700.6 586C1699.8 584.2 1698.6 582.5 1697.1 581.3C1695.6 580 1693.8 579.1 1691.8 578.7L1691 578.5L1693.7 574.1C1696.7 569.3 1697.9 563.7 1697.2 558.1L1696.3 558.3C1694 558.7 1691.7 558.9 1689.4 558.8L1686.5 541.5C1685.2 533.9 1684.4 526.2 1684.1 518.5L1684 515.6C1683.5 503.7 1684 491.8 1685.6 480L1689.6 450C1690 446.7 1688.8 443.3 1686.3 441.1L1680.6 436.1C1679.4 435 1678.6 433.6 1678.4 432L1675.5 412C1675.2 409.7 1674.9 407.4 1674.7 405.2L1672.7 377.4C1672.4 373.1 1673.5 368.8 1675.8 365.2L1679.1 360C1681 357 1682 353.6 1682 350V342C1682 341 1682.9 340.1 1683.9 340.2L1690.4 340.8V341.1C1690.4 347.4 1692.1 353.6 1695.4 359L1701.7 356.4C1701.5 357.3 1701.3 358.3 1701.3 359.3C1701.3 361.2 1701.7 363 1702.6 364.7L1704.5 368.2L1706.1 366.1C1707.4 364.5 1709.5 363.7 1711.5 364.1C1712.1 364.2 1712.5 364.6 1712.7 365.1L1713.7 367.5L1719.5 381.6L1726.7 397.9C1728.3 401.6 1731 404.8 1734.4 407L1751.4 418.3C1752.9 419.3 1754.1 420.9 1754.6 422.6L1755.3 424.8C1755.6 425.8 1756.5 426.7 1757.5 427L1760 427.7C1761.9 428.2 1763.7 429.4 1764.9 431L1766.2 432.8C1769.8 437.4 1772.3 442.8 1773.6 448.5L1776.7 462.1C1777.4 465.3 1778 468.6 1778.3 471.9L1782.5 512.9C1782.8 515.6 1783.5 518.3 1784.8 520.7L1788 527C1789 529.1 1789.3 531.5 1788.8 533.8L1788.4 535.5C1788.2 536.3 1788.1 537.2 1788.1 538C1788.1 540.9 1789.3 543.8 1791.4 545.9C1792.2 546.7 1792.6 547.8 1792.5 548.9L1791.1 562C1790.8 565 1790.8 568 1791.2 571L1794.8 601.4C1795.4 606.7 1796.5 611.9 1798 617L1809.3 655.7C1811.6 662.8 1812.9 669.8 1813.5 676.9ZM1807.6 437.6C1806.7 441.3 1806.1 445 1805.8 448.7L1803.7 474.2L1800.1 516.8L1794.4 504.8C1793.3 502.4 1792.6 499.8 1792.5 497.2L1792.1 490.1C1791.7 483.7 1790.7 477.4 1789 471.3L1785.6 458.6L1780.9 439.5C1779.9 435.6 1778 432 1775.4 428.9L1771.4 424.4C1769.1 421.8 1767.2 418.9 1765.6 415.8L1763.9 412.4C1762.8 410.2 1761.8 407.9 1760.9 405.5L1752.6 383.2C1751.4 379.9 1750.7 376.3 1750.7 372.7L1750.3 368.8C1750.3 368.7 1750.3 368.7 1750.3 368.6C1750.3 367.8 1750.9 367.1 1751.7 366.9L1759 365.7H1762.4C1761.3 367.8 1760.8 370.1 1760.8 372.4C1760.8 374.4 1761.2 376.3 1761.9 378.2L1763.2 381.4L1774 371C1775.6 373.7 1777.8 376 1780.4 377.8C1783 379.6 1785.9 380.8 1789 381.4H1789.1L1790.5 379.9C1794.7 375.6 1797 369.7 1797 363.7C1797.8 363.6 1798.6 363.6 1799.4 363.6C1802 363.6 1804.6 364.1 1807 365L1809 365.8C1808.7 363.9 1808.1 362 1807.2 360.4C1806.3 358.7 1805.1 357.2 1803.7 355.9L1803.6 355.8L1805.7 357.1C1808.9 359.1 1812.4 360.4 1816.1 360.9C1817.4 357.8 1818.1 354.4 1818.1 351.1V348.6L1820.2 357.6L1822 365.7C1823.2 371.2 1823 377 1821.5 382.5L1814.9 407.1L1807.6 437.6Z" fill="#050505"/>
</svg>
