<svg width="1920" height="1080" viewBox="0 0 1920 1080" fill="none" xmlns="http://www.w3.org/2000/svg">
<path d="M174.7 510.2C175.2 511 175.5 511.8 175.8 512.7C175.3 511.4 174.8 510.5 174.7 510.2Z" fill="#1F2E55"/>
<path d="M174.4 436.7L178.5 432.1L182.2 436.7C182.2 436.7 184.1 426.7 177.4 421.9C177.5 421.9 172.4 430.4 174.4 436.7Z" fill="#1F2E55"/>
<path d="M382.1 297.4C382.1 297.4 396 299.3 399.3 316.1C399.3 316.1 395 314.6 391 310.4C391 310.4 391.3 318.4 386.4 319.1C386.4 319.1 381.1 307.6 382.1 297.4Z" fill="#1F2E55"/>
<path d="M1006.1 223.8C1006.5 223.8 1018.1 220.4 1023.1 232.2C1023.1 232.2 1009.5 234.9 1006.5 223.8H1006.1Z" fill="#1F2E55"/>
<path d="M1291.3 370.3C1290.3 367.4 1288.3 361 1289.8 359.2C1289.8 359.2 1304.3 357.7 1305.4 371.2C1305.4 371.2 1297.5 370.3 1294.2 364.7C1294.2 364.7 1293.9 367.6 1292.7 370.3C1292.4 370.9 1291.5 370.9 1291.3 370.3Z" fill="#1F2E55"/>
<path d="M1553.1 414.1C1553.1 414.1 1559.3 421.3 1554.9 433.3C1554.9 433.3 1544 425.5 1553.1 414.1Z" fill="#1F2E55"/>
<path d="M1571.5 394.2C1572.1 393.5 1580.3 399.9 1575.6 414.1C1575.6 414.1 1562.1 404.8 1571.5 394.2Z" fill="#1F2E55"/>
<path d="M1655.6 431.7C1655.6 431.7 1664.4 436.6 1661.3 448.5C1661.3 448.5 1651.2 444.7 1655.6 431.7Z" fill="#1F2E55"/>
<path d="M1681.8 436.7C1681.8 436.7 1689.5 470.5 1678.4 450.1C1678.4 450.1 1655.1 469.2 1681.8 436.7Z" fill="#1F2E55"/>
<path d="M0 -9.17912e-06V1080H1920V-1.90001L0 -9.17912e-06ZM1281.6 400.3L1283.2 379.7C1283.7 373 1284.8 366.4 1286.4 359.9L1291.6 338.6C1296.9 339.9 1303.7 339.2 1312.2 335C1312.2 335 1307.2 360.7 1335 353.9L1358.4 360.6L1373.9 352.9H1381.3L1378.5 406.9L1355 379.5V388.5L1374.9 414.9C1376.2 416.6 1376.8 418.8 1376.6 420.9L1371.8 468.1L1367.7 520.7C1367.4 525.2 1367.2 529.6 1367.2 534.1V574.1C1367.2 585 1364.3 595.6 1358.8 605L1358.5 605.5L1355.4 601.4C1351.7 596.6 1348.5 591.4 1345.8 585.9L1333 559.8C1331.2 556.2 1328.9 553 1326.1 550.2L1322.8 546.9C1320.2 544.3 1318.1 541.4 1316.4 538.2L1301.2 508.5L1296.4 499.7C1295.2 497.4 1294.2 495 1293.6 492.5L1286.2 462.4C1284.3 454.7 1283.1 446.8 1282.6 438.9L1281.4 419.6C1281 413.1 1281.1 406.7 1281.6 400.3ZM1155.3 258.7C1155.3 258.7 1170.6 260.3 1180.2 269.9C1183.2 272.9 1187 274.9 1191.1 275.8H1191.3C1191 277.1 1190.9 278.5 1190.9 279.8C1190.9 283.6 1192.1 287.4 1194.3 290.5L1194.8 291.2C1196.6 289 1198 286.6 1199.1 284.1C1200.2 281.5 1200.9 278.8 1201.1 276L1201.2 275.4L1208 278.7C1209.4 279.4 1210.3 280.7 1210.5 282.2C1211.1 288.4 1213.3 305 1219.5 316.7C1229.4 313.3 1238 306.9 1244.2 298.3L1245.8 296.1C1245.8 296.1 1252.4 316.8 1272.9 315.1C1272.9 315.1 1274.7 325.3 1281.3 332.5L1279 345.6L1274.9 374.2L1272.9 388L1271.9 395.8C1271.5 398.8 1271.4 401.8 1271.7 404.8L1273.9 436.8L1265.5 401.6C1264.3 396.7 1262.2 392.1 1259.2 388L1242.4 365.2C1240.7 362.9 1238.7 360.9 1236.3 359.3L1204 336.7C1198.9 333.1 1194.4 328.7 1190.7 323.7L1168.2 292.6L1147 259.8L1155.3 258.7ZM346.9 317.7L348.4 306.8L349.6 308.5C351.1 310.6 353.4 311.9 356 312.3L358.2 312.6L357.7 309.6C357.4 307.7 356.7 305.9 355.7 304.3L355 303L356.5 303.5C357.7 303.9 358.8 304 360.1 303.9L364.4 303.7L364.2 302.8C363.3 299 361.3 295.5 358.3 292.9L358 292.6L360.5 293C362.4 293.3 364.2 294.2 365.6 295.5L365.8 295.7C365.9 295.8 365.9 295.8 366 295.9C366.6 296.4 366.9 297.2 366.9 298L367.3 335.3C367 340.1 366.4 344.9 365.5 349.6L359.4 379.9C359.3 380.5 358.9 381.1 358.4 381.5C357.9 381.9 357.3 382.1 356.7 382.1C356.4 382.1 356.1 381.9 356.1 381.5C355.8 378.3 354.1 362.3 354.1 361.6C354.1 361.2 353.1 354.9 352.1 348.4C350.6 339 348.4 329.8 345.4 320.8L345 319.7L346.9 317.7ZM126.1 458.1V493.7C125.3 493.2 124.5 492.7 123.7 492.2C114.4 486.1 111.1 500 111.1 500L109.3 497.3C108.6 496.3 107.5 495.7 106.4 495.7H105.7C105.4 495.7 105.2 495.5 105 495.3L104.5 494.4C104.3 493.9 103.9 493.6 103.1 493.3L100.8 492.4C100.3 492.2 99.9 491.7 99.8 491.2C98.8 484.1 107.5 472.2 107.5 472.2C100.2 477.8 97.3 487.7 97.3 487.7H94.1C93.1 487.7 92.3 487 92.2 486C91.1 473.4 86.4 463.5 85 460.7C88.3 467.8 87.2 483.1 87.2 483.1C85.9 480.1 84.2 476.3 84 475.9C85.2 479.4 83.2 485.9 83.2 485.9C82.3 470.5 71.2 475.7 71.2 475.7C68.2 470.7 76.1 460.1 76.5 459.6C68.9 465.3 66.8 475.7 66.8 475.7L66.4 463C66.3 460.9 64.1 459.5 62.1 460.4L53.6 464.1C60.5 445.5 51.4 443.4 51.4 443.4L49.3 442.4L53.7 430.4C54.2 431.6 54.9 432.6 55.8 433.6C57.4 435.3 59.4 436.6 61.8 437.2C63.8 434 64.3 430.1 63.2 426.5C65.2 429.1 68.3 430.8 71.7 430.9H73.1C75.6 425.7 76.7 419.9 76.3 414.2C80.3 417.4 85.3 419.1 90.4 419.1C91 419.1 91.6 419.1 92.2 419L93.1 418.9C94.8 414.4 95.6 409.6 95.6 404.8C95.6 404.2 95.6 403.6 95.6 402.9V402.4L96.1 403.2C97.7 405.6 99.7 407.6 102.1 409.1C103.9 406.7 104.4 403.5 103.6 400.6C103.2 399.3 103 398 102.9 396.6V396.3L107.1 394V394.4C106.9 401 108.9 407.5 112.9 412.8C115.3 411 117.4 408.8 118.9 406.3C120.5 403.8 121.6 401 122.1 398L122.6 395.5L123 393.1L125.3 399.7C126.4 402.9 127 406.3 126.9 409.8L126.1 458.1ZM377.2 616.9H374.7C375 600.5 363.5 602.6 363.5 602.6L364.1 581.8C364.1 579.8 362.4 578.3 360.4 578.7L352.9 580.2C352.6 580.3 352.3 580 352.3 579.7L351.6 558C351.4 553.3 349.6 548.8 346.1 545.6C340.7 540.5 334.7 541.1 331.3 542.1C329.7 542.6 328.6 544.1 328.6 545.7V547.8C328.6 548.1 328.4 548.3 328.1 548.3L324.4 548.5C323.4 548.5 322.5 548.9 321.8 549.5L315 555.1C313.8 556 312.1 555.7 311.4 554.5L308.5 549.6C307.7 548.3 305.9 548.3 305 549.5L303.9 551.2C303.5 551.8 302.8 552.1 302.1 552.1H300.5C299.4 552.1 298.3 551.7 297.4 551.1L296.1 550.1L285.8 541.1C285.1 540.5 284.2 540.4 283.3 540.7C280.3 542 277.8 541.7 276.1 541.2C274.7 540.7 273.7 539.5 273.6 538L273 528C272.7 522.2 266.5 518.8 261.4 521.5C261.4 521.5 261.3 521.5 261.2 521.5C261 521.5 260.9 521.4 260.8 521.2C260.2 514.4 264.7 511.2 265.3 510.9C259.4 513.4 252.2 526.1 252.2 526.1C252.3 508 242.6 503.5 242.6 503.5C248.2 508 246.2 512.5 246.5 513.7C233.8 500 221.5 514.7 221.5 514.7C210.4 503.8 209.1 521.3 209.1 521.3C206.6 519.1 204.3 520.1 202.7 521.6C201.2 523 200.3 525 200 527L199.3 532.9L196.1 519L195 510.6L192.4 517.5L187.9 524.4L187.3 519.8C187.1 518.4 186.8 516.9 186.3 515.6L184.4 510.1L181.9 517.4C181.5 518.6 181.2 519.9 181.2 521.2V527.8C181.2 528.4 180.8 528.9 180.2 529.1L178 529.6C179.2 523.7 177 516.6 175.5 512.8C177.5 519.4 175.2 529.6 175.2 529.6L167.4 516.1L168.2 525.3L157.9 508.6C157.4 507.7 156.1 507.6 155.4 508.3L151.1 512.4L146.3 505.2C145.5 504 144.1 503.3 142.7 503.3H138.9L137.2 471.3C137 467.4 137 463.5 137.2 459.6L138.8 388.5C138.8 387 139.4 385.6 140.5 384.5C140.6 384.4 140.7 384.2 140.8 384.1L141.6 383.2V385.2C141.6 390.1 144.8 394.5 149.4 396C151.2 393.2 152.1 390.1 152.1 386.9C152.1 385.3 151.9 383.8 151.5 382.2L151.4 381.7L157.5 382C157.9 386.1 159.1 390.1 161.2 393.6C163.2 397.1 166.1 400.2 169.5 402.6L169.7 402.7C172.8 400.9 175.6 398.6 177.9 395.9C180.2 393.2 182.1 390.1 183.4 386.8L186.2 379.5L186.5 381.6C187.3 387.4 190.9 392.5 196.1 395.1L196.4 394.9C201 391.6 204.1 386.6 205.2 381L205.4 379.7C208.7 382.4 212.6 384.4 216.8 385.5C217.3 383.2 217.6 380.9 217.6 378.6C217.6 375.9 217.3 373.3 216.6 370.6L215.2 365.2C218.6 367.7 225.3 371.7 234 372.4C234.5 370.8 234.7 369.1 234.7 367.5C234.7 366.1 234.5 364.7 234.2 363.4L234 362.5C234 362.5 240.4 368.6 244.1 368.1C244.4 366.3 244.6 364.5 244.6 362.7C244.6 361 244.5 359.4 244.2 357.8L244.1 357.4L244.2 357.5C245.7 359.1 247.5 360.4 249.5 361.2L250.1 361.5L250.8 359.5C251.5 357.6 251.6 355.7 251.3 353.7L250.8 350.9L252.1 351.7C253.5 352.6 255 353.2 256.6 353.5L258.8 353.9L258.2 351.6C257.7 349.5 256.8 347.5 255.7 345.7L254.8 344.4L261.9 348.5C263.9 349.7 266.2 350.3 268.6 350.3H272.6C272.7 349.6 272.7 348.9 272.7 348.2C272.7 345.4 272.1 342.6 270.9 340.1L270.8 339.9L297 351L298.7 350.1C299.7 352 301 353.7 302.6 355.1C304.2 356.5 306.1 357.6 308.1 358.2L311.3 355.2C314.5 352.2 316.5 348.2 317.2 343.9L318.7 345.8C319.8 347.2 321.3 348.3 323 348.9L327.8 350.5L328.1 348.6C328.4 346.4 328.4 344.2 328 342L327.6 339.8L330.9 341.4C331.4 341.7 332 341.9 332.6 342.1L334.9 342.7L335.5 341.3C336.3 339.3 336.6 337.2 336.4 335L336.3 333.9L344.1 359.1C345.6 364 346.7 369 347.2 374.1L349.8 397.9L352 416.7C352.5 420.5 352.7 424.4 352.7 428.2V454C352.7 460.7 353.6 467.3 355.5 473.7L361.4 494C362.6 498 363.4 502.2 363.8 506.4L367.2 540.5C367.6 544.2 368.1 547.9 368.7 551.6L374.7 587.4L379.4 617.1C378.7 617.1 378 616.9 377.2 616.9ZM842.8 847.6C846.7 865.7 836.8 871.5 836.8 871.5L822.8 866.6L786.9 854.8C786.5 854.7 786.3 854.3 786.4 853.9C787.3 849.7 797.4 846 797.4 846C792.4 845.5 785.6 851.5 785.6 851.5C787.1 841.5 781.1 830.4 780.5 829.2C784.6 837.2 779 851.5 779 851.5C774.9 815.9 736 797.1 729.9 794.4C729.4 794.2 729.1 793.5 729.3 792.9C731 788.1 744.3 785.8 744.3 785.8C736.8 782.8 725.4 788.5 725.4 788.5C727.9 770.6 717.8 759.2 717.2 758.5C725.1 768.4 719.2 786.5 719.2 786.5C715.4 779 704.9 773.3 704.3 772.9C708.4 775.5 711.2 784.5 711.2 784.5L707.3 782.9C705.4 782.1 703.7 781 702.2 779.6L693.2 771.1C692.9 770.8 692.9 770.3 693.1 770L705.9 754.9L698.8 755.2C695 755.4 691.4 756.2 687.9 757.5L681.3 760.1V748.5C681.3 747.3 680.4 746.4 679.2 746.4H677.6L673.6 741.8C672.6 740.6 672 739.1 672 737.6V731C672 729.6 670.6 728.5 669.2 729L662.2 731.1V711.9C662.2 708.8 659.5 706.4 656.4 706.7L651.4 707.2C650.6 707.3 649.8 706.9 649.4 706.2L646.3 700.9C645.2 699 642.8 698.2 640.8 699L630.9 703.1C644.8 679.3 630.3 681.8 630.3 681.8C630.1 676.6 644.3 672.3 644.3 672.3C631.7 671.7 624.8 678.7 624.8 678.7C621.6 667.2 636.9 653.4 636.9 653.4C622.7 658.9 617.1 672.6 617.1 672.6C615.1 662.1 605.1 655.3 604.5 654.9C611.4 660.7 614 672.6 614 672.6L606.6 669.1C606.2 668.9 606 668.6 605.8 668.3C598.7 650.1 584 658.3 581.1 660.1C580.8 660.3 580.4 660.4 580 660.4H575.8C574.9 660.4 574 660 573.4 659.4C562.9 648.3 559.4 661.1 559.4 661.1L557.4 635.7L554.6 639.1C553.6 640.2 553.2 641.7 553.5 643.2L555.1 653.5L548.3 646.1C547.1 644.8 545.5 644.1 543.8 643.9L539.1 643.5L543.6 653.5L527.3 644.3C526.7 643.9 525.9 643.9 525.2 644.3L505.8 655C502.7 656.7 499.2 657.5 495.7 657.4L418 655C412.6 609.8 402.4 637.4 402.4 637.4L399.6 634.9L398.2 613.5C397.8 607.8 396.7 602.2 394.9 596.9L384.9 568.2L377.2 542.5C373.5 530.2 372.7 517.2 374.7 504.5C375.2 501.2 375.2 497.8 374.6 494.6L366.9 453.1C365.2 443.8 364.3 434.3 364.3 424.8V392C364.3 387.2 365.6 382.5 368.2 378.3L369.6 376.1C371.2 373.5 372.3 370.7 373 367.8C374.7 360.1 375.6 352.2 375.6 344.2V298.3C375.6 297.3 375.8 296.3 376.1 295.3L376.2 295.1C377.2 292.2 378.7 289.5 380.7 287L381 286.6L382.2 288.5C383.2 290.1 384.6 291.5 386.2 292.5L387.2 293.1L387.7 292.2C388.8 290.4 389.5 288.5 389.8 286.4L390.6 281.9L391.2 283C393 286.5 396.3 289 400.2 289.8L402.4 290.3C403.4 288.8 404.2 287.1 404.8 285.4C405.4 283.7 405.7 281.9 405.8 280.1L405.9 278.4L417.3 282.1L422 286.6L422.9 285.5C424.4 283.6 425.2 281.2 425.2 278.8V273.6L427.7 279.5C429.1 282.9 431.5 285.9 434.5 288L441 286L452.9 290.2L457.6 292.1L458 293.2C458.6 294.9 459.4 296.6 460.5 298L460.8 298.4H461.2C463.1 298.6 465 298.2 466.6 297.3C466.9 299 467.4 300.6 468.2 302.1C468.9 303.6 469.9 305 471 306.3L474.6 310.3L477.5 306.5C479.7 303.6 481.5 300.4 482.9 297L485.6 290.1L486.2 291.7C486.9 293.4 487.8 295 489.1 296.4L491.4 298.7C493.3 298.3 495.2 297.7 496.9 296.8C498.6 295.9 500.2 294.8 501.7 293.5L513 283L521.7 297.9C524.1 302.1 527.7 305.5 531.9 307.8L532.1 307.7C535.7 305.7 538.5 302.6 540.2 298.9L541.1 296.9C541.5 299.7 542.4 302.3 543.8 304.7C545.1 307.1 546.9 309.2 549.1 311L555.3 316.1L556.8 314.5C562.2 309 565.7 301.8 566.6 294.1L567.2 289L568.9 296.2C569.5 298.6 570.8 300.8 572.7 302.3L574.3 303.6L575.8 302.1C577.2 300.7 578 298.8 577.9 296.8V293.2L578.7 295.8C579.6 298.8 581.4 301.5 583.9 303.4L585.1 304.3L586.1 303.1C588.6 299.8 590.1 295.8 590.4 291.7L590.9 283.7C592.5 285.1 594.4 285.9 596.5 286.1H596.6C597.2 285 597.5 283.8 597.5 282.6C597.5 281.7 597.3 280.9 597 280L596.2 277.7L598.4 280.4C601.2 283.7 604.9 286.1 609.2 287.1L610.7 287.5L611.5 286.6C613.4 284.2 613.9 281 612.7 278.1L618.4 277.6C620.7 279.1 623.2 280.1 625.9 280.5H626.1C627.3 278.4 628.1 276 628.3 273.5L628.7 268.9L629.3 275C629.6 277.5 630.2 280 631.2 282.3L632.5 285.1C634.4 284.7 636.2 284.1 637.9 283.3C639.6 282.5 641.2 281.4 642.6 280.1L644.8 278.2L644.4 281C643.7 286.2 644.9 291.6 647.9 295.9C648.2 296.3 648.4 296.6 648.5 296.6C648.6 296.6 650.1 295.6 651.9 294.2C657.7 290 661.9 283.9 663.9 277.1L672.7 287.4L686.5 294.4L687.3 294.7L693.5 288.8V289.5C693.5 291.5 694 293.5 695 295.3L696.2 297.3C699.1 296 701.6 294 703.5 291.4L707.7 285.5L709.7 287.9C712.6 291.4 716.5 293.9 720.8 295.3L725.4 296.8C728.5 293 730.1 288.3 730.1 283.5C730.1 283.2 730.1 282.9 730.1 282.6L730 280.2L732.6 281.5C734.9 282.7 737.5 283.5 740.1 284L745 284.9C746.2 283.2 747.1 281.3 747.8 279.4C748.5 277.4 748.9 275.4 749.1 273.3L749.7 266.1L759.9 268.6L766.4 232.2L815.6 205L843.8 219.6L846.9 219.2L847.5 223.8C849.3 223.1 851 222.1 852.6 221C854.2 219.9 855.6 218.4 856.7 216.9L857.4 216V218C857.4 220.7 858.3 223.3 860 225.4L862.9 229L865 224.1C866.1 221.5 866.3 218.6 865.6 215.8V215.7C865.3 214.6 864.8 213.6 864 212.8C862.6 211.3 860.3 208.8 860.7 208.9C861.2 209 867.4 211.1 867.4 211.1C868.9 213.5 871 215.3 873.5 216.5L880.3 219C881.7 217.8 882.9 216.3 883.9 214.7C884.9 213.1 885.6 211.4 886 209.5L886.4 207.7L887.2 208.9C888.2 210.2 889.3 211.4 890.6 212.4L894.8 215.5L896.2 213.3C897.5 211.2 898.2 208.7 898.2 206.2L901.5 205.8C905.4 205.3 909.1 203.8 912.1 201.3L912.8 200.7L913 202.1C913.3 204.5 914.4 206.8 916.1 208.5L918.5 211C919.6 209.6 920.5 208.1 921.1 206.5C921.7 204.9 922 203.1 922 201.4V200.1L922.5 200.4C924.4 201.8 926.6 202.6 928.9 202.9C928.9 202.6 928.9 202.3 928.9 202C928.9 199.7 928.2 197.4 926.9 195.5L925.2 193L937.7 191.7L938.5 192.4C941.9 195.7 946.3 197.9 951 198.5C953.2 197.2 955 195.6 956.6 193.6C958.1 191.7 959.4 189.5 960.2 187.1L961.3 183.9L962.5 188.1C963.7 192.7 966 196.9 969 200.5C970.5 200.7 972 200.9 973.5 200.9C976.7 200.9 980 200.3 983.1 199.2L983.8 199C980.2 200.7 976.9 202.9 974.1 205.7L973.3 206.5H973.4C980.9 207.5 988.5 206.6 995.5 203.8L998.8 202.5L989.2 212.4C988.8 212.8 988.3 213.1 987.8 213.2L985.4 213.9C979.6 215.5 974.8 219.7 972.6 225.3L978.4 225.8C981.1 226 983.9 225.8 986.5 225.1H986.6C988.5 224.6 990 223.4 991.1 221.8C992.3 219.8 993.8 217.4 993.8 217.4L992.9 219.9C991.8 223.1 991.8 226.5 993 229.7L996.5 228C999.1 226.7 1001 224.2 1001.5 221.4V221.3C1002 218.7 1001.7 215.9 1000.6 213.5C1000.5 213.2 1000.4 213 1000.3 212.7C999.8 211.6 1000 210.2 1000.8 209.3L1006.3 202.7C1006.5 204.9 1007 207.1 1007.7 209.2C1008.4 211.3 1009.3 213.4 1010.4 215.3L1010.9 216.1C1013.3 215.6 1015.5 214.5 1017.3 212.8C1019.1 211.2 1020.4 209.1 1021.1 206.7L1021.2 206.3L1028.7 217.4L1034.2 220.1C1032.5 221.9 1031.6 224.3 1031.6 226.8C1031.6 227.4 1031.7 227.9 1031.7 228.5L1032.1 230.8C1034 230 1035.8 228.9 1037.4 227.6C1039 226.3 1040.5 224.9 1041.8 223.3L1044.6 219.7L1046.8 218.9V226.3C1046.8 232.1 1048.2 237.8 1051 242.9C1052.6 241 1054 239 1055 236.7C1056 234.5 1056.7 232.1 1057 229.6V229.3C1059 235.7 1062.9 241.3 1068.2 245.4L1069 244.1C1071 240.8 1072.3 237.1 1072.8 233.3L1089.3 239.9C1088 242 1086.9 244.3 1086.3 246.7C1085.6 249.1 1085.3 251.6 1085.3 254.1V254.8L1088.2 254.3C1092.8 253.5 1097.1 251.5 1100.6 248.4V249.1C1100.6 252.6 1102.1 255.8 1104.7 258.1C1106 256.8 1107 255.3 1107.7 253.6C1108.4 251.9 1108.7 250.2 1108.7 248.4V244.7L1110 251.3C1110.8 255.3 1112.6 259 1115.2 262.1C1117.3 261.1 1119.2 259.7 1120.7 258C1121.5 257.1 1122.3 256.1 1122.9 255.1L1132 281.8C1135.8 292.8 1143.6 302 1153.9 307.5L1166.1 314C1169.4 315.8 1171.8 318.9 1172.5 322.5L1174.6 332.6C1175.1 335 1176.2 337.3 1177.8 339.1L1188.9 352.1C1192.8 356.7 1197.5 360.4 1202.8 363.3L1220 372.5C1226.8 376.1 1231.9 382.2 1234.2 389.5L1253.4 448.6L1266.8 473.6L1279.2 498.8C1280.4 501.3 1282.3 503.5 1284.6 505.2L1286.6 506.7C1288.1 507.8 1289.1 509.4 1289.3 511.2L1290.6 522.9C1291 526.4 1292.3 529.7 1294.5 532.5L1307.6 549.6L1318.4 570.7L1329.3 595L1338.9 607.4C1341.8 611.2 1344.4 615.3 1346.6 619.6L1351.4 628.9C1354.9 635.7 1359.6 641.7 1365.3 646.7L1369.5 650.4C1371.8 652.4 1373.4 655.1 1374.1 658L1379.7 681.3C1380.9 686.5 1380.9 691.9 1379.6 697.1L1363.5 762.1C1354.8 747.9 1355.1 763.8 1355.1 763.8C1344.9 759.8 1351.4 773.3 1351.4 773.3C1344.1 774.9 1345.5 783.2 1345.5 783.2C1342.1 779.8 1337.6 777.9 1332.8 778H1330.3L1330.4 780.1C1330.7 785.8 1332.4 791.4 1335.3 796.4V797C1334 797 1332.8 797.5 1331.9 798.4C1331 799.3 1330.5 800.5 1330.5 801.8V809.8H1324.7C1319.8 809.8 1315.4 812.8 1313.7 817.4L1311.6 823.2C1303.9 807.6 1290.6 813.8 1284.2 818.2C1281 820.3 1277.6 822.1 1274 823.3L1224.4 840.3L1220.5 832.7C1219.6 831 1218.5 829.3 1217.2 827.8L1216 826.3L1215.8 831.7C1215.7 835.4 1216.4 839 1218.1 842.3L1219.6 845.4L1217.1 843.3C1215.4 841.8 1213.3 840.9 1211.1 840.5L1206.2 839.7L1206.9 842.8C1207.5 845.5 1209.3 847.7 1211.8 848.9L1217.4 851.5L1205.2 856.4L1201.4 857.5C1197.7 858.5 1194.3 860.3 1191.3 862.6L1190.6 863.1L1181.6 871C1179.6 866 1180 856.1 1180 856.1C1178.5 861.8 1178.4 871.8 1178.5 877.7C1178.6 880.8 1177.8 883.9 1176.3 886.6C1174.6 884 1171.8 882.4 1169.4 881.4C1167.1 880.5 1165.2 880.1 1165 880.1C1170.4 882.3 1173.6 893.3 1173.6 893.3V894.6C1173.6 895.5 1173 896.3 1172.1 896.5L1163.5 898.5C1165.3 897.5 1165.4 893 1165.4 893C1164.6 895.5 1159.2 897.8 1159.2 897.8C1155.8 890.5 1159.1 875.7 1159.2 875.1C1153.8 883.1 1156.1 897.5 1156.1 897.5C1151.7 888.6 1144.3 889.5 1144.3 889.5C1151.2 889.8 1152.4 898.7 1152.4 898.7L1133.8 898C1131.6 897.9 1129.4 897.9 1127.2 898L1109.7 898.8C1104.5 899 1099.6 901.4 1096.2 905.4L1094.5 907.4C1092 910.3 1089 912.8 1085.6 914.7C1082.5 916.5 1079.2 917.9 1075.8 919.1C1072.5 920.3 1069 921.1 1065.5 921.6L1061.2 922.2C1052.8 923.4 1044.3 923.4 1035.9 922.2L1028.6 921.1L1000.8 917.7L958.3 910.9C956.2 910.6 954.1 910.1 952 909.5L907 897.2L878.1 887.6L875.7 877.3L874.5 878.2C872.6 879.7 870.5 880.7 868.2 881.2L867.3 881.4C866.9 881.5 866.5 881.2 866.6 880.7C868.2 869.4 866.6 866.8 866.6 866.8C862.8 875.1 854.6 877.6 854.6 877.6C855.1 860.8 842.8 847.6 842.8 847.6ZM1381.7 624.8C1381.7 624.8 1371.9 619.9 1379.5 590.8C1382.5 579.1 1384 567 1384 554.9V512.5L1388.8 419.8C1389 416 1389.3 412.1 1389.8 408.3L1396.8 352.5H1397.6V356.1C1397.6 361 1398.9 365.7 1401.5 369.8L1403.8 366.9C1405.9 364.2 1407.3 361.1 1407.8 357.7L1416.5 371.3C1416.2 372.2 1416.1 373.2 1416.1 374.1C1416.1 376 1416.7 377.9 1417.8 379.5L1418.8 380.9C1420.2 380.5 1421.4 379.7 1422.5 378.8C1423.5 377.8 1424.3 376.6 1424.8 375.3L1425 374.7L1436.7 380.9L1450.1 394.2L1463.5 402.4C1461.9 405.2 1461.9 409.6 1467 416.3L1465.1 433.5C1464.5 438.7 1464.3 444 1464.4 449.2L1465.2 487L1464.9 525L1466.4 573.3L1468 603.7L1469.1 624.2C1469.2 627.1 1469.7 629.9 1470.3 632.7L1472.4 641.8C1473.1 644.9 1473.5 648 1473.6 651.1L1474.9 686.2L1468.7 681.6C1468.7 681.6 1467.3 691.2 1471.6 697C1469.3 697.5 1467 698.1 1464.8 699L1443.6 707.5C1439.2 709.3 1435.1 711.7 1431.4 714.7L1411.8 730.7L1401.2 687.9C1400.6 685.6 1400.1 683.3 1399.7 680.9L1396.3 662.7C1395.8 660.1 1395.5 657.5 1395.3 654.9C1395 649.7 1394 644.6 1392.4 639.7C1390.4 634 1386.6 628.7 1381.7 624.8ZM1487.6 508.5C1487.6 511.9 1486.9 515.2 1485.5 518.3L1480 531L1477.6 520.9C1476.5 516.1 1476.2 511.1 1476.7 506.2L1478.7 487.8L1480.2 455.6V440.2C1480.2 435.6 1480.5 431 1481.1 426.4L1482.8 413.5H1490.5C1490.3 414.5 1490.1 415.5 1490.1 416.5C1490.1 420 1491.6 423.4 1494.2 425.8L1494.4 426C1496 424.8 1497.4 423.4 1498.6 421.8C1499.8 420.2 1500.7 418.4 1501.3 416.6L1501.4 416.3L1506.5 416C1506.7 417.2 1507 418.3 1507.4 419.4L1505.7 424.1C1504.3 428 1503.3 432 1502.7 436.1L1500.7 449.2C1499.4 457.9 1497.2 466.5 1494.2 474.9L1489.5 487.9C1488.1 491.8 1487.4 495.9 1487.4 500V508.5H1487.6ZM1615.4 584.7L1614.2 617.5C1574.5 608.3 1612.1 628.1 1612.1 628.1L1597.8 644.6C1594.5 635.3 1587.5 634.3 1587.5 634.3L1583.1 657.6C1562.2 656.6 1556.4 679.7 1556.4 679.7L1521.5 690.8L1505.5 696.1C1511.3 689.6 1509.1 681.8 1509.1 681.8C1498.2 685 1493.3 696.9 1493.3 696.9H1492.2L1491.2 654.8L1489.6 631.9C1489.5 630 1489.4 628.1 1489.4 626.2L1489.2 583.6L1488.8 565.2C1488.7 560.1 1489.2 555 1490.3 550L1496.4 521.8L1498.2 515C1498.4 514.3 1498.3 513.6 1497.9 513C1496.8 511.1 1496.3 509 1496.3 506.9C1496.3 505.5 1496.5 504.1 1497 502.8L1502.8 486.4L1506.6 477C1508.9 471.3 1510.6 465.5 1511.8 459.5L1513.8 449.4C1514.5 445.8 1515.1 442.2 1515.5 438.6L1517.3 423.7C1519.7 422.4 1521.9 420.7 1523.7 418.6V422.1C1523.7 425.9 1525.2 429.5 1527.9 432.2C1529.4 430.4 1530.6 428.4 1531.4 426.2C1532.2 424 1532.6 421.7 1532.7 419.4L1532.8 407.4L1532.9 408C1534.1 413.3 1536.3 418.3 1539.6 422.7L1541.6 419.5C1543.8 415.9 1545 411.8 1545 407.6L1550.6 405.6C1552.3 406.7 1554.2 407.5 1556.1 408.1C1558 408.7 1560 409.1 1562 409.2L1564 409.3V408.7C1564 401.8 1561.8 395.1 1557.7 389.6L1560.6 381.3L1560.8 381.6C1562.1 384.4 1564.2 386.7 1566.9 388.3C1568.3 385.7 1569 382.7 1569 379.7C1569 379.3 1569 378.9 1569 378.5L1568.9 376.5C1570.8 378.5 1573 380.2 1575.3 381.5C1577.6 382.8 1580.2 383.7 1582.9 384.3L1587.6 385.2V384C1587.6 380.3 1586.7 376.7 1584.9 373.4L1592.6 376.3H1592.9L1594.8 391.4L1597.2 412.5L1599.9 436.9L1603.3 468.7L1605.9 515.4C1606 517 1606.1 518.6 1606.4 520.2L1609.2 541.1C1609.4 542.5 1609.7 544 1610 545.4L1612.9 557.2C1614.8 566 1615.8 575.4 1615.4 584.7ZM1623.1 402.3C1623.1 404.3 1622.3 406.3 1620.8 407.8C1619.8 408.8 1619.1 410 1618.8 411.3L1614.2 431.7L1610.9 417.6C1610.3 415.3 1609.5 413 1608.5 410.9L1607.5 408.9C1607 407.8 1606.7 406.5 1606.8 405.3L1607.4 394.5C1607.6 390.5 1607.5 386.5 1607.1 382.5L1606.5 376.4H1611.1C1611 377 1610.9 377.5 1610.9 378.1C1610.9 379.8 1611.5 381.5 1612.5 382.9L1613.1 383.7C1615.7 382.2 1617.9 380 1619.4 377.3L1619.5 377.1L1619.6 377.3C1620.4 379.3 1622 380.9 1624 381.6C1624.6 380.4 1624.9 379.1 1624.9 377.8C1624.9 376.7 1624.7 375.5 1624.2 374.5L1624 374L1628.5 374.2L1628.6 378.1L1626.7 382.3C1624.1 388 1622.8 394.1 1622.8 400.3V402.3H1623.1ZM1698 538.2C1698 538.2 1690.7 520.2 1679.9 511.5C1680.4 512.1 1695 531.2 1695.6 557L1694.1 558.3L1691.9 581.5L1664.5 596.5L1656.2 601.1L1645 607.5L1646.5 604C1647.2 602.4 1647.7 600.8 1648.2 599.1L1649 596.3C1649.8 593.4 1649.8 590.3 1649.2 587.3L1648.8 585.5L1643.7 593.3V590.2C1643.7 588.4 1643.5 586.5 1643.1 584.8L1641.8 578.7L1639.5 583C1639.4 583.3 1639.2 583.7 1639 584.1C1636.9 588.9 1636.2 594.1 1636.8 599.2L1638.1 610.7L1630 613.3L1625.2 549L1620.9 502.7C1620.9 496.6 1620.1 490.5 1618.5 484.6L1617.3 480.2C1616.7 477.9 1616.4 475.6 1616.4 473.2V463.1C1616.4 462 1615.9 461 1615.2 460.3C1614.8 459.8 1614.5 459.3 1614.5 458.6C1614.3 453.2 1623.6 427.8 1629.9 411.2L1630 415.5L1632.6 423L1636.9 415C1637.7 417 1638.8 418.8 1640.1 420.5C1641.4 422.2 1642.8 423.7 1644.5 425.1L1645.5 425.9C1646.7 423.4 1647.7 420.7 1648.3 418C1648.9 415.3 1649.2 412.5 1649.2 409.7V407.5L1650 409.3C1651.6 412.8 1653.9 416 1656.8 418.5C1659 416.9 1660.8 414.9 1662 412.5V412.4L1662.1 413.4C1662.4 416.1 1663.6 418.6 1665.4 420.6C1667.1 420.3 1668.8 419.8 1670.4 419C1672 418.2 1673.5 417.3 1674.8 416.1L1675.1 415.8L1673.6 419.4C1671.6 424 1672.2 429.3 1675.1 433.4L1676.8 433.3C1680.9 433.1 1684.7 431.4 1687.5 428.4V432.2C1687.5 437.7 1689.4 443.1 1692.9 447.4L1696.5 442.3L1698.1 529.7V538.2H1698ZM1710.9 543.8L1706.2 547.8L1709.2 532.6V500.1L1712.6 467.2V442.8L1710.7 430.9L1731.4 447L1735 460.5L1736.7 497.3L1710.9 543.8Z" fill="#1F2E55"/>
<path d="M1354.9 379.5L1326.8 342.8L1322.2 346L1354.9 388.5V379.5Z" fill="#1F2E55"/>
<path d="M836.4 854.7C836.4 854.7 830.8 871.9 841.5 875.9C841.5 875.9 818.8 881.4 820.2 869.6C821 863.8 836.4 854.7 836.4 854.7Z" fill="#1F2E55"/>
</svg>
