<svg width="1920" height="607" viewBox="0 0 1920 607" fill="none" xmlns="http://www.w3.org/2000/svg">
<path d="M1743.4 227C1743.5 226.2 1743.6 225.7 1743.6 225.7C1743.7 226 1743.6 226.5 1743.4 227Z" fill="#C0C0C0"/>
<path d="M1920 10.6V607H0V204.5L28.9 156.8L42 115.7L51.4 83L53.4 97.3L55.4 92.2L64.9 110.9L76.6 127.2C77.4 128.3 77.8 129.7 77.8 131V138.8L87 154.8L91.1 172.2L107.4 193.7L122.4 225.7L126.2 196.1L133.7 161.7L145 196L160.3 229L168.8 213L171.6 220.8L180.3 203.2L173.5 202.7L190.1 175.9L206.3 131.7L240.3 190.8L253.9 212L248.1 211.3L250.4 223.1C250.9 225.6 251.8 228.1 253.1 230.3L265.5 252.1L267.5 241.2L272.4 252.1L280.6 249L293.2 240.2L289.8 249L310.6 245.7C318.1 244.5 325.6 244.1 333.1 244.5L392.2 247.5C394.5 247.6 396.8 247.8 399.1 248.1L466.9 257.4C470.7 257.9 474.5 258.3 478.4 258.5L544.9 262.3C551.6 262.7 558.3 263.8 564.7 265.7L627.3 283.8C634.7 285.9 641.9 288.8 648.7 292.3L669.8 303C673.8 305.1 678 306.9 682.2 308.5L730.6 327.1L764.4 338.9C770.5 341 776.7 342.8 783 344.2L846.7 358.1L895.2 368.8C900.1 369.9 905 370.6 909.9 371.1L929.1 372.8C931.5 373 933.9 372.5 936 371.5L943.5 367.6C945.1 366.8 947 366.4 948.8 366.7L960.3 368.2C961.2 368.3 962 368.6 962.9 368.9L968 371.2C978 375.6 988.7 378.1 999.6 378.4L1054.4 380.1C1058.8 380.2 1063.2 380.1 1067.6 379.6L1100.1 376.4C1105.8 375.8 1111.5 374.8 1117.1 373.4L1189.4 355.1L1253.9 336.1C1260.2 334.3 1266.3 332.1 1272.3 329.6L1295.5 320.1C1301.7 317.6 1308.1 315.7 1314.6 314.5L1382.7 302.3L1404.2 297.4C1404.2 297.4 1402 291.3 1399 289.5C1399 289.5 1404.9 289.6 1408.7 294.8C1408.7 294.8 1410.6 283 1418.2 279.9C1418 280.3 1412.9 288.8 1416.4 293.3C1416.4 293.3 1425.8 290.3 1426.4 285.6C1426.4 285.6 1428.8 291.2 1426.4 292.1L1465.8 279.9L1538.5 260.5C1548.3 257.9 1558.4 256.4 1568.5 256L1621.3 253.9L1679.6 248.8L1720.3 245.7L1727.1 244C1727.1 244 1726.9 237.2 1722.9 235.5C1723.3 235.6 1729.2 237 1731.2 240.2C1731.2 240.2 1736 223.3 1739.5 220.8C1739.5 220.8 1737.6 231.6 1739.5 232.5C1739.5 232.5 1742.4 229 1743.2 226.7C1742.7 229.6 1741.8 236 1742.5 236.2L1760.6 198.3L1750.4 208.4L1770.4 160.1L1759.8 160.7L1769.2 144.7L1769.8 135.6L1781.5 117.1H1770.9L1782.1 94.4C1783.2 92.2 1784.5 90 1785.9 88L1788.1 84.8C1790.7 80.9 1793.8 77.3 1797.3 74.2L1803.8 68.2L1837.1 114L1825.1 117.2L1839.1 143.2V149.3L1840.5 152.2C1841.9 155.3 1843.2 158.4 1844.1 161.7L1845.6 166.7L1855.2 170.5L1858.1 162L1866.9 158.2L1870.8 152L1859.1 156.6L1863 152.4C1863.6 151.1 1863.8 149.6 1863.8 148.2L1863.7 141.4L1857.6 140.6L1871.2 121.7C1872.8 119.5 1874 116.9 1874.7 114.2L1876.2 107.9L1869.1 108.4L1876.9 99.9C1880.9 95.5 1884.1 90.5 1886.2 85L1889.8 75.8C1890.6 73.8 1891 71.6 1891 69.4V67L1884.6 68.3L1890.4 58.6C1890.8 58 1891.1 57.3 1891.5 56.7L1893.2 53.4C1896.5 47.1 1899 40.3 1900.6 33.3L1902.4 25.3L1912.5 0.799988L1920 10.6Z" fill="#C0C0C0"/>
<path d="M1920 190.8L1908.5 198.6C1898.3 205.6 1888.9 213.7 1880.5 222.7L1863.5 241.1C1859.5 245.5 1855.1 249.5 1850.5 253.2L1815.5 280.9C1809.8 285.4 1803.7 289.2 1797.1 292.3L1744.8 317.2C1744.8 317.2 1728.8 324.3 1727 332.5C1727 332.5 1724.7 316.7 1732.9 304.2C1732.9 304.2 1723.2 313.4 1724 325.9C1724 325.9 1720.7 317.2 1713 318C1713 318 1718.6 324.5 1716.6 330.9C1716 332.8 1714.2 334.1 1712.2 334.1H1675L1621.4 330.3L1599.4 329.8C1599.4 329.8 1603.7 324.2 1600.7 314.2C1600.7 314.2 1598.8 328.2 1593.5 329.3C1593.5 329.3 1593.5 325 1591 321.4C1591 321.4 1591 329.3 1586.1 328.3C1586.1 328.3 1581.8 316.4 1577.9 315.3C1577.9 315.3 1580.1 330.9 1565.6 331.6L1534 332.4C1534 332.4 1529.4 319.6 1525.1 317.8C1525.1 317.8 1527.4 332.6 1522 332.9C1522 332.9 1513.3 326.8 1503.6 327C1503.6 327 1511.8 333.6 1507.7 334.1L1461.7 340L1384.1 351.7L1302.9 363.4L1183.2 380.9C1174.7 382.2 1166.2 383.6 1157.7 385.3L1087.8 399.4C1075.1 401.9 1062.4 404 1049.5 405.6L1028.2 408.3C999.7 411.9 970.9 412.7 942.2 410.6L919.5 409C907.9 408.2 896.4 406.8 884.9 404.7L834.7 395.8C834.7 395.8 835.2 387.1 830.9 380.5C830.9 380.5 831.9 392.2 828.3 393H823.4C823.4 393 814.2 378.4 818.8 368.7C818.8 368.7 807.1 382.2 814.5 390.1L775.3 382.1C757.2 378.4 739 375.4 720.7 373.2L654.5 365.1L560.5 355.1L506.1 349L434.9 343.6L404.6 342.5C400.3 342.3 395.9 342.4 391.6 342.8L385.6 343.3C381.1 343.7 376.6 343.8 372.2 343.7L300.7 342.4C297.2 342.3 293.7 342.4 290.1 342.5L256.5 343.9C250.1 344.2 243.7 343.6 237.5 342.1L202.2 333.9C202.2 333.9 197.6 327.5 199.1 311.9C199.1 311.9 194.8 327 197.3 333.6C197.3 333.6 190.9 324.2 186.7 323C186.7 323 194.5 333.6 192.2 336.7L190.4 337.1C188.2 337.6 185.8 337 184.1 335.5C176.9 329.2 156 312.9 132.1 310.6C129.1 310.3 126.1 310.7 123.3 311.8L120.6 312.8C119 313.4 117.3 313.4 115.7 312.8L110.1 310.8C108.4 310.2 106.5 310.3 104.9 311.1L97.2 314.9C97.2 314.9 94.4 304.2 99 299.8C99 299.8 90.8 307.7 90.1 312.6C90.1 312.6 81.4 302.4 72.2 305.2C72.2 305.2 83.7 312.9 77.6 314.9L34.7 323.8L0 330.4V607H1920V190.8Z" fill="#969696"/>
</svg>
